%TF.GenerationSoftware,Altium Limited,Altium Designer,24.10.1 (45)*%
G04 Layer_Physical_Order=2*
G04 Layer_Color=16711680*
%FSLAX45Y45*%
%MOMM*%
%TF.SameCoordinates,66D1A1B5-90F7-41B0-AF59-7CED98AD6AFD*%
%TF.FilePolarity,Positive*%
%TF.FileFunction,Copper,L2,Bot,Signal*%
%TF.Part,Single*%
G01*
G75*
%TA.AperFunction,Conductor*%
%ADD10C,1.27000*%
%TA.AperFunction,ComponentPad*%
%ADD11O,2.03200X1.52400*%
%ADD12C,7.00000*%
%ADD13O,1.20000X2.50000*%
%ADD14R,1.20000X2.50000*%
%ADD15O,1.52400X2.03200*%
%ADD16O,5.00000X3.00000*%
%ADD17R,5.00000X3.00000*%
%ADD18O,2.03200X1.52400*%
%ADD19C,2.80000*%
%ADD20R,2.03200X1.52400*%
%ADD21O,1.77800X1.14300*%
G04:AMPARAMS|DCode=22|XSize=1.143mm|YSize=1.778mm|CornerRadius=0.28575mm|HoleSize=0mm|Usage=FLASHONLY|Rotation=90.000|XOffset=0mm|YOffset=0mm|HoleType=Round|Shape=RoundedRectangle|*
%AMROUNDEDRECTD22*
21,1,1.14300,1.20650,0,0,90.0*
21,1,0.57150,1.77800,0,0,90.0*
1,1,0.57150,0.60325,0.28575*
1,1,0.57150,0.60325,-0.28575*
1,1,0.57150,-0.60325,-0.28575*
1,1,0.57150,-0.60325,0.28575*
%
%ADD22ROUNDEDRECTD22*%
%ADD23R,1.52400X2.03200*%
%ADD24O,1.52400X2.03200*%
%ADD25O,3.00000X1.50000*%
%ADD26R,3.00000X1.50000*%
%ADD27R,1.52400X2.03200*%
%ADD28C,2.28600*%
%ADD29C,3.00000*%
%ADD30C,2.41300*%
%TA.AperFunction,ViaPad*%
%ADD31C,1.77800*%
%TA.AperFunction,Conductor*%
%ADD32C,0.50800*%
%ADD33C,1.01600*%
G36*
X23749001Y2540000D02*
X2540000D01*
Y16014700D01*
X23749001D01*
Y2540000D01*
D02*
G37*
%LPC*%
G36*
X15593248Y15920564D02*
X15586720D01*
Y15787215D01*
X15720071D01*
Y15793742D01*
X15710118Y15830888D01*
X15690891Y15864192D01*
X15663696Y15891383D01*
X15630394Y15910612D01*
X15593248Y15920564D01*
D02*
G37*
G36*
X15561320D02*
X15554793D01*
X15517647Y15910612D01*
X15484344Y15891383D01*
X15457150Y15864192D01*
X15437924Y15830888D01*
X15427971Y15793742D01*
Y15787215D01*
X15561320D01*
Y15920564D01*
D02*
G37*
G36*
X14979948D02*
X14973421D01*
Y15787215D01*
X15106770D01*
Y15793742D01*
X15096817Y15830888D01*
X15077589Y15864192D01*
X15050397Y15891383D01*
X15017093Y15910612D01*
X14979948Y15920564D01*
D02*
G37*
G36*
X13356947D02*
X13350420D01*
Y15787215D01*
X13483771D01*
Y15793742D01*
X13473817Y15830888D01*
X13454588Y15864192D01*
X13427397Y15891383D01*
X13394093Y15910612D01*
X13356947Y15920564D01*
D02*
G37*
G36*
X14948019D02*
X14941492D01*
X14904347Y15910612D01*
X14871043Y15891383D01*
X14843851Y15864192D01*
X14824623Y15830888D01*
X14814670Y15793742D01*
Y15787215D01*
X14948019D01*
Y15920564D01*
D02*
G37*
G36*
X13325020D02*
X13318492D01*
X13281348Y15910612D01*
X13248042Y15891383D01*
X13220851Y15864192D01*
X13201624Y15830888D01*
X13191670Y15793742D01*
Y15787215D01*
X13325020D01*
Y15920564D01*
D02*
G37*
G36*
X17216249D02*
X17209721D01*
Y15787215D01*
X17343071D01*
Y15793742D01*
X17333118Y15830888D01*
X17313890Y15864192D01*
X17286697Y15891383D01*
X17253394Y15910612D01*
X17216249Y15920564D01*
D02*
G37*
G36*
X17184322D02*
X17177792D01*
X17140646Y15910612D01*
X17107344Y15891383D01*
X17080151Y15864192D01*
X17060924Y15830888D01*
X17050970Y15793742D01*
Y15787215D01*
X17184322D01*
Y15920564D01*
D02*
G37*
G36*
X17343071Y15761813D02*
X17209721D01*
Y15628465D01*
X17216249D01*
X17253394Y15638419D01*
X17286697Y15657646D01*
X17313890Y15684837D01*
X17333118Y15718143D01*
X17343071Y15755287D01*
Y15761813D01*
D02*
G37*
G36*
X17184322D02*
X17050970D01*
Y15755287D01*
X17060924Y15718143D01*
X17080151Y15684837D01*
X17107344Y15657646D01*
X17140646Y15638419D01*
X17177792Y15628465D01*
X17184322D01*
Y15761813D01*
D02*
G37*
G36*
X15720071Y15761815D02*
X15586720D01*
Y15628465D01*
X15593248D01*
X15630394Y15638419D01*
X15663696Y15657646D01*
X15690891Y15684837D01*
X15710118Y15718143D01*
X15720071Y15755287D01*
Y15761815D01*
D02*
G37*
G36*
X15561320D02*
X15427971D01*
Y15755287D01*
X15437924Y15718143D01*
X15457150Y15684837D01*
X15484344Y15657646D01*
X15517647Y15638419D01*
X15554793Y15628465D01*
X15561320D01*
Y15761815D01*
D02*
G37*
G36*
X15106770Y15761815D02*
X14973421D01*
Y15628465D01*
X14979948D01*
X15017093Y15638419D01*
X15050397Y15657646D01*
X15077589Y15684837D01*
X15096817Y15718143D01*
X15106770Y15755287D01*
Y15761815D01*
D02*
G37*
G36*
X14948019D02*
X14814670D01*
Y15755287D01*
X14824623Y15718143D01*
X14843851Y15684837D01*
X14871043Y15657646D01*
X14904347Y15638419D01*
X14941492Y15628465D01*
X14948019D01*
Y15761815D01*
D02*
G37*
G36*
X13483771D02*
X13350420D01*
Y15628465D01*
X13356947D01*
X13394093Y15638419D01*
X13427397Y15657646D01*
X13454588Y15684837D01*
X13473817Y15718143D01*
X13483771Y15755287D01*
Y15761815D01*
D02*
G37*
G36*
X13325020D02*
X13191670D01*
Y15755287D01*
X13201624Y15718143D01*
X13220851Y15684837D01*
X13248042Y15657646D01*
X13281348Y15638419D01*
X13318492Y15628465D01*
X13325020D01*
Y15761815D01*
D02*
G37*
G36*
X12118652Y15576959D02*
X12085498Y15572594D01*
X12054604Y15559798D01*
X12028074Y15539441D01*
X12007717Y15512910D01*
X12002502Y15500320D01*
X11918194D01*
X11912979Y15512910D01*
X11892622Y15539441D01*
X11866093Y15559798D01*
X11835198Y15572594D01*
X11802045Y15576959D01*
X11768891Y15572594D01*
X11737997Y15559798D01*
X11711467Y15539441D01*
X11691110Y15512910D01*
X11678314Y15482018D01*
X11673949Y15448863D01*
Y15398064D01*
X11678314Y15364909D01*
X11691110Y15334016D01*
X11711467Y15307486D01*
X11737997Y15287129D01*
X11768891Y15274332D01*
X11802045Y15269968D01*
X11835198Y15274332D01*
X11866093Y15287129D01*
X11892622Y15307486D01*
X11912979Y15334016D01*
X11918194Y15346606D01*
X12002502D01*
X12007717Y15334016D01*
X12028074Y15307486D01*
X12054604Y15287129D01*
X12085498Y15274332D01*
X12118652Y15269968D01*
X12151805Y15274332D01*
X12182700Y15287129D01*
X12209229Y15307486D01*
X12229586Y15334016D01*
X12234801Y15346606D01*
X14305647D01*
X14992297Y14659956D01*
X14985948Y14648956D01*
X14979948Y14650565D01*
X14973421D01*
Y14517215D01*
X15106770D01*
Y14523743D01*
X15105162Y14529742D01*
X15116161Y14536093D01*
X15202084Y14450169D01*
X15202084Y14450168D01*
X15218002Y14437955D01*
X15236540Y14430276D01*
X15256432Y14427657D01*
X15256435Y14427657D01*
X15420280D01*
X15422084Y14423303D01*
X15440846Y14395222D01*
X15464728Y14371341D01*
X15492809Y14352579D01*
X15524011Y14339655D01*
X15557133Y14333064D01*
X15590907D01*
X15624031Y14339655D01*
X15655232Y14352579D01*
X15683315Y14371341D01*
X15707195Y14395222D01*
X15725958Y14423303D01*
X15738882Y14454504D01*
X15745471Y14487628D01*
Y14521400D01*
X15738882Y14554526D01*
X15725958Y14585727D01*
X15707195Y14613808D01*
X15683315Y14637689D01*
X15655232Y14656451D01*
X15624031Y14669376D01*
X15590907Y14675964D01*
X15557133D01*
X15524011Y14669376D01*
X15492809Y14656451D01*
X15464728Y14637689D01*
X15440846Y14613808D01*
X15422084Y14585727D01*
X15420280Y14581372D01*
X15288268D01*
X14391830Y15477811D01*
X14375912Y15490024D01*
X14357376Y15497702D01*
X14337483Y15500320D01*
X12234801D01*
X12229586Y15512910D01*
X12209229Y15539441D01*
X12182700Y15559798D01*
X12151805Y15572594D01*
X12118652Y15576959D01*
D02*
G37*
G36*
X11504818D02*
X11471665Y15572594D01*
X11440770Y15559798D01*
X11414241Y15539441D01*
X11393884Y15512910D01*
X11388669Y15500320D01*
X11282301D01*
X11277086Y15512910D01*
X11256729Y15539441D01*
X11230200Y15559798D01*
X11199305Y15572594D01*
X11166152Y15576959D01*
X11132998Y15572594D01*
X11102104Y15559798D01*
X11075574Y15539441D01*
X11055217Y15512910D01*
X11042421Y15482018D01*
X11038056Y15448863D01*
Y15404060D01*
X10220767Y14586772D01*
X9928794D01*
X9923492Y14599472D01*
X9935292Y14627962D01*
X9939657Y14661115D01*
Y14711916D01*
X9935292Y14745068D01*
X9922496Y14775963D01*
X9902139Y14802492D01*
X9875609Y14822849D01*
X9844715Y14835646D01*
X9811561Y14840010D01*
X9794416Y14837753D01*
X9504482Y15127687D01*
X9488564Y15139902D01*
X9470028Y15147578D01*
X9450136Y15150198D01*
X5995198D01*
X5975305Y15147578D01*
X5956769Y15139902D01*
X5940851Y15127687D01*
X4452513Y13639349D01*
X4440299Y13623431D01*
X4432621Y13604895D01*
X4430002Y13585004D01*
Y6884040D01*
X3395876Y5849915D01*
X3395875Y5849914D01*
X3356433Y5810471D01*
X3334616Y5819508D01*
X3305692Y5823316D01*
X3276767Y5819508D01*
X3249814Y5808344D01*
X3226668Y5790584D01*
X3208908Y5767438D01*
X3197744Y5740485D01*
X3193936Y5711560D01*
Y5581560D01*
X3197744Y5552636D01*
X3208908Y5525682D01*
X3226668Y5502537D01*
X3249814Y5484777D01*
X3276767Y5473612D01*
X3305692Y5469804D01*
X3334616Y5473612D01*
X3361570Y5484777D01*
X3384715Y5502537D01*
X3402475Y5525682D01*
X3413640Y5552636D01*
X3417448Y5581560D01*
Y5658059D01*
X3417884Y5658240D01*
X3433802Y5670454D01*
X3504568Y5741220D01*
X3504569Y5741221D01*
X4533064Y6769716D01*
X4544797Y6764856D01*
Y5626996D01*
X3308399Y4390597D01*
X3305692Y4390953D01*
X3276767Y4387145D01*
X3249814Y4375981D01*
X3226668Y4358221D01*
X3208908Y4335075D01*
X3197744Y4308122D01*
X3193936Y4279197D01*
Y4149197D01*
X3197744Y4120273D01*
X3208908Y4093319D01*
X3226668Y4070174D01*
X3249814Y4052414D01*
X3276767Y4041249D01*
X3305692Y4037441D01*
X3334616Y4041249D01*
X3361570Y4052414D01*
X3384715Y4070174D01*
X3402475Y4093319D01*
X3413640Y4120273D01*
X3417448Y4149197D01*
Y4279197D01*
X3417091Y4281904D01*
X4676001Y5540813D01*
X4676002Y5540814D01*
X4688216Y5556732D01*
X4695894Y5575268D01*
X4698513Y5595160D01*
X4698513Y5595162D01*
Y13153214D01*
X5347981Y13802682D01*
X6552058D01*
X6557273Y13790092D01*
X6577630Y13763564D01*
X6604160Y13743205D01*
X6635054Y13730409D01*
X6668207Y13726045D01*
X6701361Y13730409D01*
X6732255Y13743205D01*
X6758785Y13763564D01*
X6779142Y13790092D01*
X6791230Y13819276D01*
X6926185D01*
X6938273Y13790092D01*
X6958630Y13763564D01*
X6985160Y13743205D01*
X7016054Y13730409D01*
X7049207Y13726045D01*
X7082361Y13730409D01*
X7113255Y13743205D01*
X7139785Y13763564D01*
X7160142Y13790092D01*
X7172230Y13819276D01*
X7243685D01*
X7255773Y13790092D01*
X7276130Y13763564D01*
X7302660Y13743205D01*
X7333554Y13730409D01*
X7366707Y13726045D01*
X7399861Y13730409D01*
X7430755Y13743205D01*
X7457285Y13763564D01*
X7477642Y13790092D01*
X7490438Y13820987D01*
X7494803Y13854140D01*
Y13904939D01*
X7490438Y13938094D01*
X7477642Y13968988D01*
X7457285Y13995518D01*
X7430755Y14015875D01*
X7399861Y14028671D01*
X7366707Y14033035D01*
X7333554Y14028671D01*
X7302660Y14015875D01*
X7276130Y13995518D01*
X7258845Y13972990D01*
X7157070D01*
X7139785Y13995518D01*
X7113255Y14015875D01*
X7082361Y14028671D01*
X7049207Y14033035D01*
X7016054Y14028671D01*
X6985160Y14015875D01*
X6958630Y13995518D01*
X6941345Y13972990D01*
X6776070D01*
X6758785Y13995518D01*
X6732255Y14015875D01*
X6701361Y14028671D01*
X6668207Y14033035D01*
X6635054Y14028671D01*
X6604160Y14015875D01*
X6577630Y13995518D01*
X6557273Y13968988D01*
X6552058Y13956398D01*
X5316146D01*
X5296254Y13953780D01*
X5277717Y13946101D01*
X5261799Y13933887D01*
X5261798Y13933887D01*
X4595451Y13267538D01*
X4583717Y13272398D01*
Y13553168D01*
X6027033Y14996483D01*
X6551736D01*
X6553386Y14993137D01*
X6556774Y14983783D01*
X6544476Y14954094D01*
X6540112Y14920940D01*
Y14870140D01*
X6544476Y14836987D01*
X6557273Y14806093D01*
X6577630Y14779562D01*
X6604160Y14759206D01*
X6635054Y14746410D01*
X6668207Y14742046D01*
X6701361Y14746410D01*
X6732255Y14759206D01*
X6758785Y14779562D01*
X6779142Y14806093D01*
X6784357Y14818683D01*
X7063908D01*
X7514471Y14368120D01*
X7530389Y14355907D01*
X7548925Y14348228D01*
X7568818Y14345609D01*
X7568820Y14345609D01*
X8519774D01*
X8922561Y13942821D01*
Y13772115D01*
X9176561D01*
Y13840666D01*
X9189261Y13843192D01*
X9192627Y13835068D01*
X9212984Y13808537D01*
X9239513Y13788181D01*
X9270408Y13775385D01*
X9303561Y13771019D01*
X9336715Y13775385D01*
X9367609Y13788181D01*
X9394139Y13808537D01*
X9414496Y13835068D01*
X9423688Y13857260D01*
X9437435D01*
X9446627Y13835068D01*
X9466984Y13808537D01*
X9493513Y13788181D01*
X9524408Y13775385D01*
X9557561Y13771019D01*
X9590715Y13775385D01*
X9621609Y13788181D01*
X9648139Y13808537D01*
X9668496Y13835068D01*
X9672977Y13845886D01*
X9687921Y13848776D01*
X9691874Y13844742D01*
Y13703915D01*
X9587575Y13599615D01*
X5327702D01*
X5297864Y13595688D01*
X5270059Y13584171D01*
X5246183Y13565849D01*
X4938889Y13258556D01*
X4920568Y13234680D01*
X4909051Y13206876D01*
X4905123Y13177036D01*
Y5798188D01*
X4909051Y5768350D01*
X4920568Y5740545D01*
X4938889Y5716668D01*
X5205816Y5449741D01*
Y3547516D01*
X5209744Y3517678D01*
X5221262Y3489873D01*
X5239583Y3465996D01*
X5591320Y3114260D01*
X5591320Y3114259D01*
X5615197Y3095938D01*
X5643002Y3084421D01*
X5672840Y3080492D01*
X7827832D01*
X8126885Y2781438D01*
X8150762Y2763117D01*
X8178567Y2751600D01*
X8208405Y2747672D01*
X8208407Y2747672D01*
X9810194D01*
X9840032Y2751600D01*
X9867837Y2763117D01*
X9891714Y2781438D01*
X10820670Y3710395D01*
X16434550D01*
Y3423277D01*
X16433859Y3422747D01*
X16413503Y3396217D01*
X16400706Y3365323D01*
X16396342Y3332169D01*
X16400706Y3299016D01*
X16413503Y3268121D01*
X16433859Y3241592D01*
X16460390Y3221235D01*
X16491284Y3208438D01*
X16524437Y3204073D01*
X16575237D01*
X16608391Y3208438D01*
X16639285Y3221235D01*
X16665816Y3241592D01*
X16675851Y3254671D01*
X16688551Y3250360D01*
Y3182139D01*
X16687860Y3181609D01*
X16667503Y3155080D01*
X16654706Y3124185D01*
X16650342Y3091032D01*
X16654706Y3057878D01*
X16667503Y3026984D01*
X16687860Y3000454D01*
X16714389Y2980097D01*
X16745284Y2967301D01*
X16778436Y2962936D01*
X16829237D01*
X16862392Y2967301D01*
X16893285Y2980097D01*
X16919815Y3000454D01*
X16940172Y3026984D01*
X16952968Y3057878D01*
X16957333Y3091032D01*
X16952968Y3124185D01*
X16940172Y3155080D01*
X16919815Y3181609D01*
X16919124Y3182139D01*
Y3317185D01*
X16931824Y3318017D01*
X16933452Y3305646D01*
X16943690Y3280931D01*
X16959975Y3259707D01*
X16981200Y3243422D01*
X17005914Y3233184D01*
X17032437Y3229692D01*
X17045137D01*
Y3332169D01*
Y3434646D01*
X17032437D01*
X17005914Y3431154D01*
X16981200Y3420917D01*
X16959975Y3404631D01*
X16943690Y3383408D01*
X16933452Y3358692D01*
X16931824Y3346321D01*
X16919124Y3347154D01*
Y3746740D01*
X16927568Y3767128D01*
X16931934Y3800281D01*
Y3851081D01*
X16927568Y3884235D01*
X16919124Y3904622D01*
Y4672929D01*
X17004637D01*
Y4683443D01*
X18343292D01*
Y4597929D01*
X18944891D01*
Y4683443D01*
X20706026D01*
Y4597929D01*
X21307626D01*
Y4836489D01*
X22105002Y5633865D01*
X22123323Y5657742D01*
X22134840Y5685547D01*
X22138770Y5715385D01*
Y10891481D01*
X22134840Y10921320D01*
X22123323Y10949125D01*
X22105002Y10973001D01*
X21357101Y11720903D01*
X21354182Y11743066D01*
X21341386Y11773960D01*
X21321030Y11800489D01*
X21294501Y11820846D01*
X21263605Y11833643D01*
X21230452Y11838008D01*
X21197298Y11833643D01*
X21166405Y11820846D01*
X21139874Y11800489D01*
X21139343Y11799798D01*
X20999036D01*
X20994724Y11812498D01*
X21007990Y11822678D01*
X21262538Y12077226D01*
X21490959D01*
X21491490Y12076535D01*
X21518019Y12056178D01*
X21548914Y12043381D01*
X21582066Y12039016D01*
X21615221Y12043381D01*
X21646115Y12056178D01*
X21672644Y12076535D01*
X21683746Y12071345D01*
X21731650Y12023441D01*
Y11763453D01*
X21723206Y11743066D01*
X21718840Y11709912D01*
Y11659112D01*
X21723206Y11625958D01*
X21736002Y11595064D01*
X21756358Y11568535D01*
X21782887Y11548178D01*
X21813783Y11535381D01*
X21846936Y11531016D01*
X21880090Y11535381D01*
X21910983Y11548178D01*
X21937514Y11568535D01*
X21938045Y11569226D01*
X22154802D01*
X22155331Y11568535D01*
X22181860Y11548178D01*
X22212756Y11535381D01*
X22245909Y11531016D01*
X22279063Y11535381D01*
X22309956Y11548178D01*
X22336487Y11568535D01*
X22356844Y11595064D01*
X22369640Y11625958D01*
X22374005Y11659112D01*
Y11709912D01*
X22369640Y11743066D01*
X22356844Y11773960D01*
X22336487Y11800489D01*
X22309956Y11820846D01*
X22279063Y11833643D01*
X22245909Y11838008D01*
X22212756Y11833643D01*
X22181860Y11820846D01*
X22155331Y11800489D01*
X22154802Y11799798D01*
X21962222D01*
Y12071195D01*
X21958295Y12101033D01*
X21946777Y12128838D01*
X21928456Y12152714D01*
X21807140Y12274032D01*
X21783263Y12292353D01*
X21755457Y12303870D01*
X21725620Y12307798D01*
X21673175D01*
X21672644Y12308489D01*
X21646115Y12328846D01*
X21615221Y12341643D01*
X21582066Y12346008D01*
X21548914Y12341643D01*
X21518019Y12328846D01*
X21491490Y12308489D01*
X21490959Y12307798D01*
X21214787D01*
X21214784Y12307799D01*
X21184947Y12303870D01*
X21157143Y12292353D01*
X21133266Y12274032D01*
X21133266Y12274031D01*
X20878717Y12019484D01*
X20779012D01*
X20775188Y12026745D01*
X20774492Y12032024D01*
X20787781Y12042220D01*
X20798808Y12056592D01*
X20813181Y12067620D01*
X20833536Y12094150D01*
X20846333Y12125044D01*
X20850697Y12158197D01*
X20846333Y12191351D01*
X20833536Y12222245D01*
X20813181Y12248775D01*
X20798808Y12259803D01*
X20787781Y12274175D01*
X20774492Y12284370D01*
X20775188Y12289650D01*
X20779012Y12296911D01*
X20942137D01*
X20971976Y12300840D01*
X20999780Y12312357D01*
X21023657Y12330678D01*
X21241441Y12548463D01*
X21263605Y12551381D01*
X21294501Y12564178D01*
X21321030Y12584535D01*
X21321561Y12585226D01*
X21490959D01*
X21491490Y12584535D01*
X21518019Y12564178D01*
X21548914Y12551381D01*
X21582066Y12547016D01*
X21615221Y12551381D01*
X21646115Y12564178D01*
X21672644Y12584535D01*
X21673175Y12585226D01*
X21755827D01*
X21756358Y12584535D01*
X21782887Y12564178D01*
X21813783Y12551381D01*
X21846936Y12547016D01*
X21880090Y12551381D01*
X21910983Y12564178D01*
X21937514Y12584535D01*
X21957870Y12611064D01*
X21970667Y12641958D01*
X21975032Y12675112D01*
Y12725912D01*
X21970667Y12759066D01*
X21957870Y12789960D01*
X21937514Y12816489D01*
X21910983Y12836845D01*
X21880090Y12849643D01*
X21846936Y12854008D01*
X21813783Y12849643D01*
X21782887Y12836845D01*
X21756358Y12816489D01*
X21755827Y12815797D01*
X21673175D01*
X21672644Y12816489D01*
X21646115Y12836845D01*
X21615221Y12849643D01*
X21582066Y12854008D01*
X21548914Y12849643D01*
X21518019Y12836845D01*
X21491490Y12816489D01*
X21490959Y12815797D01*
X21321561D01*
X21321030Y12816489D01*
X21294501Y12836845D01*
X21263605Y12849643D01*
X21241443Y12852560D01*
X21025745Y13068259D01*
Y13246057D01*
X21038699Y13259013D01*
X21056767Y13286053D01*
X21069214Y13316100D01*
X21075558Y13347997D01*
Y13380519D01*
X21069214Y13412416D01*
X21056767Y13442462D01*
X21038699Y13469502D01*
X21015704Y13492499D01*
X20988663Y13510567D01*
X20958617Y13523013D01*
X20926720Y13529358D01*
X20908398D01*
X20759380Y13678375D01*
X20735504Y13696696D01*
X20707700Y13708214D01*
X20677861Y13712141D01*
X20264748D01*
X20234909Y13708214D01*
X20207104Y13696696D01*
X20183228Y13678375D01*
X20034209Y13529358D01*
X20015887D01*
X19983990Y13523013D01*
X19953944Y13510567D01*
X19926904Y13492499D01*
X19903906Y13469502D01*
X19885838Y13442462D01*
X19873393Y13412416D01*
X19867049Y13380519D01*
Y13347997D01*
X19873393Y13316100D01*
X19885838Y13286053D01*
X19893329Y13274844D01*
X19887341Y13263644D01*
X19671449D01*
X19665462Y13274844D01*
X19672952Y13286053D01*
X19685397Y13316100D01*
X19691742Y13347997D01*
Y13380519D01*
X19685397Y13412416D01*
X19672952Y13442462D01*
X19654884Y13469502D01*
X19631888Y13492499D01*
X19604846Y13510567D01*
X19574800Y13523013D01*
X19542903Y13529358D01*
X19510382D01*
X19478485Y13523013D01*
X19448438Y13510567D01*
X19421397Y13492499D01*
X19398401Y13469502D01*
X19380333Y13442462D01*
X19367886Y13412416D01*
X19361542Y13380519D01*
Y13347997D01*
X19367886Y13316100D01*
X19380333Y13286053D01*
X19398401Y13259013D01*
X19400961Y13256451D01*
X19101401Y12956892D01*
X19083080Y12933015D01*
X19071564Y12905209D01*
X19067635Y12875372D01*
Y12487431D01*
X19055902Y12482571D01*
X18947266Y12591208D01*
Y12675789D01*
X18947266Y12675791D01*
X18943336Y12705629D01*
X18935353Y12724903D01*
Y12725912D01*
X18930988Y12759066D01*
X18918192Y12789960D01*
X18897835Y12816489D01*
X18871304Y12836845D01*
X18840411Y12849643D01*
X18807257Y12854008D01*
X18774104Y12849643D01*
X18743208Y12836845D01*
X18716679Y12816489D01*
X18716150Y12815797D01*
X18553752D01*
X18553223Y12816489D01*
X18526692Y12836845D01*
X18495798Y12849643D01*
X18462643Y12854008D01*
X18429491Y12849643D01*
X18398596Y12836845D01*
X18372067Y12816489D01*
X18351711Y12789960D01*
X18338913Y12759066D01*
X18335995Y12736903D01*
X18123576Y12524484D01*
X17817448D01*
X17797060Y12532928D01*
X17763907Y12537293D01*
X17713107D01*
X17679953Y12532928D01*
X17649059Y12520132D01*
X17622530Y12499775D01*
X17602171Y12473245D01*
X17589375Y12442351D01*
X17585011Y12409197D01*
X17589375Y12376044D01*
X17602171Y12345150D01*
X17622530Y12318620D01*
X17649059Y12298263D01*
X17659518Y12293931D01*
X17661176Y12281339D01*
X17647929Y12271175D01*
X17636900Y12256803D01*
X17622530Y12245775D01*
X17602171Y12219245D01*
X17589375Y12188351D01*
X17585011Y12155197D01*
X17589375Y12122044D01*
X17602171Y12091150D01*
X17622530Y12064620D01*
X17636900Y12053592D01*
X17647929Y12039220D01*
X17661176Y12029055D01*
X17659518Y12016464D01*
X17649059Y12012132D01*
X17622530Y11991775D01*
X17602171Y11965245D01*
X17589375Y11934351D01*
X17585011Y11901197D01*
X17589375Y11868044D01*
X17602171Y11837150D01*
X17622530Y11810620D01*
X17649059Y11790263D01*
X17679953Y11777466D01*
X17713107Y11773102D01*
X17763907D01*
X17797060Y11777466D01*
X17817448Y11785911D01*
X18198206D01*
X18335995Y11648121D01*
X18338913Y11625958D01*
X18347359Y11605571D01*
Y10532359D01*
X18351286Y10502521D01*
X18362804Y10474715D01*
X18381125Y10450839D01*
X20616768Y8215196D01*
X20611906Y8203463D01*
X18909242D01*
X18886766Y8230851D01*
X18856190Y8255944D01*
X18821307Y8274589D01*
X18783455Y8286071D01*
X18744092Y8289948D01*
X18544092D01*
X18504729Y8286071D01*
X18466878Y8274589D01*
X18431993Y8255944D01*
X18401418Y8230851D01*
X18378941Y8203463D01*
X16929243D01*
X16919124Y8207654D01*
Y9101978D01*
X16927568Y9122366D01*
X16928873Y9132267D01*
X16941907Y9133984D01*
X16943690Y9129681D01*
X16959975Y9108457D01*
X16974347Y9097429D01*
X16985374Y9083057D01*
X17006599Y9066772D01*
X17031314Y9056534D01*
X17045137Y9054714D01*
Y9180919D01*
Y9307124D01*
X17031314Y9305304D01*
X17006599Y9295067D01*
X16985374Y9278782D01*
X16974347Y9264409D01*
X16959975Y9253382D01*
X16943690Y9232158D01*
X16941907Y9227855D01*
X16928873Y9229571D01*
X16927568Y9239473D01*
X16919124Y9259861D01*
Y9583741D01*
X16927568Y9604129D01*
X16931934Y9637282D01*
Y9688082D01*
X16927568Y9721236D01*
X16914772Y9752130D01*
X16894415Y9778660D01*
X16867885Y9799016D01*
X16836990Y9811813D01*
X16803838Y9816178D01*
X16770683Y9811813D01*
X16739789Y9799016D01*
X16713260Y9778660D01*
X16692903Y9752130D01*
X16680106Y9721236D01*
X16675742Y9688082D01*
Y9637282D01*
X16680106Y9604129D01*
X16688551Y9583741D01*
Y9259861D01*
X16680106Y9239473D01*
X16675742Y9206319D01*
Y9155519D01*
X16680106Y9122366D01*
X16688551Y9101978D01*
Y8207654D01*
X16678432Y8203463D01*
X15661136D01*
X15661134Y8203463D01*
X15631296Y8199535D01*
X15603491Y8188018D01*
X15579614Y8169696D01*
X15579613Y8169695D01*
X15405736Y7995818D01*
X15154646D01*
X15150958Y8007971D01*
X15157030Y8012027D01*
X15183606Y8038604D01*
X15204488Y8069854D01*
X15218871Y8104577D01*
X15226202Y8141439D01*
Y8179024D01*
X15218871Y8215886D01*
X15204488Y8250609D01*
X15183606Y8281859D01*
X15157030Y8308436D01*
X15125780Y8329316D01*
X15091055Y8343699D01*
X15054195Y8351032D01*
X15016611D01*
X14979749Y8343699D01*
X14945024Y8329316D01*
X14913774Y8308436D01*
X14887198Y8281859D01*
X14866318Y8250609D01*
X14862814Y8242151D01*
X14804227D01*
X14802103Y8243030D01*
X14782211Y8245649D01*
X13783411D01*
X13772273Y8258349D01*
X13773441Y8267216D01*
Y8324366D01*
X13770712Y8345087D01*
X13762715Y8364396D01*
X13749992Y8380977D01*
X13733411Y8393701D01*
X13714102Y8401698D01*
X13709914Y8402250D01*
Y8436420D01*
X14137666Y8864174D01*
X14155934D01*
Y8814032D01*
X14460735D01*
Y8974846D01*
X14549281Y9063393D01*
X14561494Y9079311D01*
X14569173Y9097847D01*
X14571793Y9117739D01*
Y9272322D01*
X14571793Y9272324D01*
X14569173Y9292216D01*
X14561494Y9310753D01*
X14549281Y9326670D01*
X14549280Y9326671D01*
X14457768Y9418183D01*
X14461830Y9449032D01*
X14457465Y9482185D01*
X14444669Y9513080D01*
X14424312Y9539609D01*
X14397781Y9559966D01*
X14366888Y9572763D01*
X14333734Y9577127D01*
X14282935D01*
X14249780Y9572763D01*
X14218886Y9559966D01*
X14192357Y9539609D01*
X14181828Y9525889D01*
X13974400D01*
X13963142Y9540559D01*
X13936613Y9560916D01*
X13905719Y9573713D01*
X13872566Y9578077D01*
X13821767D01*
X13788612Y9573713D01*
X13757718Y9560916D01*
X13731187Y9540559D01*
X13710831Y9514029D01*
X13698035Y9483135D01*
X13693671Y9449982D01*
X13698035Y9416828D01*
X13710831Y9385934D01*
X13731187Y9359404D01*
X13757718Y9339047D01*
X13788612Y9326251D01*
X13821767Y9321886D01*
X13872566D01*
X13905719Y9326251D01*
X13936613Y9339047D01*
X13963142Y9359404D01*
X13972942Y9372174D01*
X14181828D01*
X14192357Y9358454D01*
X14218886Y9338097D01*
X14249780Y9325301D01*
X14282935Y9320936D01*
X14333734D01*
X14337177Y9321389D01*
X14350447Y9308118D01*
X14344514Y9296089D01*
X14333734Y9297508D01*
X14321034D01*
Y9195032D01*
Y9092555D01*
X14333734D01*
X14341580Y9080778D01*
X14339529Y9075914D01*
X14337305Y9074992D01*
X14328233Y9068032D01*
X14155934D01*
Y9017889D01*
X14105833D01*
X14105832Y9017890D01*
X14085939Y9015271D01*
X14067403Y9007592D01*
X14051485Y8995378D01*
X13578709Y8522602D01*
X13566495Y8506685D01*
X13558817Y8488148D01*
X13556198Y8468256D01*
Y8402250D01*
X13552010Y8401698D01*
X13532701Y8393701D01*
X13516119Y8380977D01*
X13503397Y8364396D01*
X13495399Y8345087D01*
X13492671Y8324366D01*
Y8267216D01*
X13493839Y8258349D01*
X13482700Y8245649D01*
X13442152D01*
X12968324Y8719478D01*
Y8764280D01*
X12963959Y8797434D01*
X12951163Y8828328D01*
X12930806Y8854858D01*
X12912555Y8868862D01*
Y9335709D01*
X12920613Y9339047D01*
X12947144Y9359404D01*
X12967500Y9385934D01*
X12980296Y9416828D01*
X12984660Y9449982D01*
X12980296Y9483135D01*
X12967500Y9514029D01*
X12947144Y9540559D01*
X12920613Y9560916D01*
X12889719Y9573713D01*
X12856566Y9578077D01*
X12811763D01*
X12656391Y9733449D01*
X12640473Y9745664D01*
X12621937Y9753342D01*
X12602044Y9755960D01*
X12391308D01*
X12380781Y9769680D01*
X12354251Y9790037D01*
X12323357Y9802834D01*
X12290204Y9807199D01*
X12239404D01*
X12206250Y9802834D01*
X12175356Y9790037D01*
X12148826Y9769680D01*
X12128469Y9743151D01*
X12115672Y9712256D01*
X12111308Y9679103D01*
X12115672Y9645949D01*
X12128469Y9615055D01*
X12148826Y9588525D01*
X12175356Y9568169D01*
X12206250Y9555372D01*
X12239404Y9551007D01*
X12290204D01*
X12323357Y9555372D01*
X12354251Y9568169D01*
X12380781Y9588525D01*
X12391308Y9602245D01*
X12570209D01*
X12684168Y9488286D01*
X12682035Y9483135D01*
X12677670Y9449982D01*
X12682035Y9416828D01*
X12694831Y9385934D01*
X12715188Y9359404D01*
X12741718Y9339047D01*
X12758839Y9331955D01*
Y8861908D01*
X12749651Y8854858D01*
X12729294Y8828328D01*
X12716497Y8797434D01*
X12712133Y8764280D01*
Y8713480D01*
X12716497Y8680327D01*
X12729294Y8649432D01*
X12749651Y8622903D01*
X12776180Y8602546D01*
X12807076Y8589749D01*
X12840228Y8585384D01*
X12873383Y8589749D01*
X12878532Y8591883D01*
X13310616Y8159799D01*
X13305756Y8148066D01*
X13213635D01*
X13203999Y8160624D01*
X13177470Y8180981D01*
X13146576Y8193777D01*
X13113423Y8198142D01*
X13080269Y8193777D01*
X13049374Y8180981D01*
X13022845Y8160624D01*
X13020102Y8157049D01*
X12927950D01*
X12904276Y8175214D01*
X12873383Y8188011D01*
X12840228Y8192376D01*
X12807076Y8188011D01*
X12776180Y8175214D01*
X12749651Y8154857D01*
X12729294Y8128328D01*
X12716497Y8097434D01*
X12712133Y8064280D01*
Y8013480D01*
X12716497Y7980326D01*
X12729294Y7949432D01*
X12749651Y7922903D01*
X12776180Y7902546D01*
X12807076Y7889749D01*
X12840228Y7885384D01*
X12873383Y7889749D01*
X12904276Y7902546D01*
X12930806Y7922903D01*
X12933548Y7926477D01*
X13025702D01*
X13049374Y7908312D01*
X13080269Y7895515D01*
X13113423Y7891151D01*
X13146576Y7895515D01*
X13177470Y7908312D01*
X13189435Y7917493D01*
X13624043D01*
X13653882Y7921421D01*
X13666154Y7926505D01*
X14298798D01*
X14426289Y7799012D01*
X14450166Y7780691D01*
X14477971Y7769174D01*
X14507809Y7765245D01*
X15453490D01*
X15483327Y7769173D01*
X15511131Y7780691D01*
X15535008Y7799012D01*
X15708887Y7972890D01*
X16678432D01*
X16695998Y7965615D01*
X16728838Y7961291D01*
X16878838D01*
X16911678Y7965615D01*
X16929243Y7972890D01*
X18378941D01*
X18401418Y7945503D01*
X18431993Y7920410D01*
X18466878Y7901764D01*
X18504729Y7890282D01*
X18544092Y7886405D01*
X18744092D01*
X18783455Y7890282D01*
X18821307Y7901764D01*
X18856190Y7920410D01*
X18886766Y7945503D01*
X18909242Y7972890D01*
X20741676D01*
X20764153Y7945503D01*
X20794728Y7920410D01*
X20829613Y7901764D01*
X20867464Y7890282D01*
X20906825Y7886405D01*
X21106825D01*
X21146190Y7890282D01*
X21184041Y7901764D01*
X21218925Y7920410D01*
X21249501Y7945503D01*
X21274593Y7976078D01*
X21293239Y8010962D01*
X21304721Y8048813D01*
X21308598Y8088177D01*
X21304721Y8127540D01*
X21293239Y8165391D01*
X21274593Y8200275D01*
X21249501Y8230851D01*
X21218925Y8255944D01*
X21184041Y8274589D01*
X21146190Y8286071D01*
X21106825Y8289948D01*
X20906825D01*
X20871567Y8286475D01*
X18577931Y10580112D01*
Y11605571D01*
X18586375Y11625958D01*
X18590739Y11659112D01*
Y11709912D01*
X18589062Y11722661D01*
X18600452Y11728278D01*
X18680609Y11648121D01*
X18683527Y11625958D01*
X18696323Y11595064D01*
X18716679Y11568535D01*
X18743208Y11548178D01*
X18774104Y11535381D01*
X18807257Y11531016D01*
X18840411Y11535381D01*
X18871304Y11548178D01*
X18897835Y11568535D01*
X18898364Y11569226D01*
X19091814D01*
X19092345Y11568535D01*
X19118874Y11548178D01*
X19149768Y11535381D01*
X19182921Y11531016D01*
X19216075Y11535381D01*
X19246970Y11548178D01*
X19273499Y11568535D01*
X19274030Y11569226D01*
X19462979D01*
X19463509Y11568535D01*
X19490038Y11548178D01*
X19520934Y11535381D01*
X19554086Y11531016D01*
X19587241Y11535381D01*
X19618134Y11548178D01*
X19644664Y11568535D01*
X19665021Y11595064D01*
X19677817Y11625958D01*
X19682182Y11659112D01*
Y11709912D01*
X19677817Y11743066D01*
X19665021Y11773960D01*
X19644664Y11800489D01*
X19618134Y11820846D01*
X19587241Y11833643D01*
X19554086Y11838008D01*
X19520934Y11833643D01*
X19490038Y11820846D01*
X19463509Y11800489D01*
X19462979Y11799798D01*
X19274030D01*
X19273499Y11800489D01*
X19246970Y11820846D01*
X19216075Y11833643D01*
X19182921Y11838008D01*
X19149768Y11833643D01*
X19118874Y11820846D01*
X19092345Y11800489D01*
X19091814Y11799798D01*
X18898364D01*
X18897835Y11800489D01*
X18871304Y11820846D01*
X18840411Y11833643D01*
X18818248Y11836561D01*
X18418092Y12236717D01*
X18394215Y12255038D01*
X18366409Y12266556D01*
X18336572Y12270484D01*
X17829614D01*
X17829083Y12271175D01*
X17815797Y12281370D01*
X17816492Y12286650D01*
X17820316Y12293911D01*
X18171330D01*
X18201167Y12297839D01*
X18228973Y12309357D01*
X18252849Y12327678D01*
X18473634Y12548463D01*
X18495798Y12551381D01*
X18526692Y12564178D01*
X18553223Y12584535D01*
X18553752Y12585226D01*
X18716150D01*
X18716679Y12584535D01*
X18716692Y12584525D01*
Y12543455D01*
X18720621Y12513617D01*
X18732138Y12485811D01*
X18750459Y12461935D01*
X19056273Y12156121D01*
X19059190Y12133958D01*
X19071986Y12103064D01*
X19092345Y12076535D01*
X19118874Y12056178D01*
X19149768Y12043381D01*
X19182921Y12039016D01*
X19216075Y12043381D01*
X19246970Y12056178D01*
X19273499Y12076535D01*
X19293855Y12103064D01*
X19306651Y12133958D01*
X19311017Y12167112D01*
Y12217912D01*
X19306651Y12251066D01*
X19298209Y12271453D01*
Y12827618D01*
X19528062Y13057474D01*
X19539735Y13048517D01*
X19567540Y13037000D01*
X19597379Y13033070D01*
X19597380Y13033070D01*
X20325742D01*
X20355582Y13037000D01*
X20383385Y13048517D01*
X20407262Y13066838D01*
X20539581Y13199158D01*
X20557903D01*
X20589799Y13205502D01*
X20619846Y13217947D01*
X20646887Y13236015D01*
X20669884Y13259013D01*
X20687952Y13286053D01*
X20700398Y13316100D01*
X20706741Y13347997D01*
Y13380519D01*
X20704947Y13389542D01*
X20716148Y13395529D01*
X20745358Y13366318D01*
Y13347997D01*
X20751703Y13316100D01*
X20764149Y13286053D01*
X20782217Y13259013D01*
X20795172Y13246057D01*
Y13020505D01*
X20799100Y12990668D01*
X20810619Y12962862D01*
X20828938Y12938986D01*
X21067412Y12700512D01*
X20894383Y12527484D01*
X20776143D01*
X20755756Y12535928D01*
X20722601Y12540293D01*
X20671802D01*
X20638649Y12535928D01*
X20607755Y12523132D01*
X20581226Y12502775D01*
X20560867Y12476245D01*
X20548071Y12445351D01*
X20543706Y12412197D01*
X20548071Y12379044D01*
X20560867Y12348150D01*
X20581226Y12321620D01*
X20607755Y12301263D01*
X20618214Y12296931D01*
X20619872Y12284339D01*
X20606625Y12274175D01*
X20601755Y12267828D01*
X20577963Y12264696D01*
X20550159Y12253178D01*
X20526282Y12234857D01*
X20526282Y12234856D01*
X20366206Y12074781D01*
X20347885Y12050904D01*
X20336366Y12023099D01*
X20332439Y11993261D01*
Y11858867D01*
X20336366Y11829028D01*
X20347885Y11801223D01*
X20366206Y11777347D01*
X20540559Y11602992D01*
X20564436Y11584671D01*
X20592242Y11573154D01*
X20622079Y11569226D01*
X20622083Y11569226D01*
X21139343D01*
X21139874Y11568535D01*
X21166405Y11548178D01*
X21197298Y11535381D01*
X21219461Y11532463D01*
X21908195Y10843728D01*
Y5763138D01*
X21144588Y4999529D01*
X20706026D01*
Y4914015D01*
X18944891D01*
Y4999529D01*
X18343292D01*
Y4914015D01*
X17004637D01*
Y4924529D01*
X16603036D01*
Y4914015D01*
X13960515D01*
X13956203Y4926715D01*
X13968030Y4935790D01*
X13984315Y4957014D01*
X13994553Y4981730D01*
X13998045Y5008253D01*
Y5020952D01*
X13895567D01*
X13793092D01*
Y5008253D01*
X13796584Y4981730D01*
X13806821Y4957014D01*
X13823106Y4935790D01*
X13834933Y4926715D01*
X13830621Y4914015D01*
X13272110D01*
X13002078Y5184048D01*
Y5269045D01*
X13010522Y5289433D01*
X13014886Y5322586D01*
Y5373386D01*
X13010522Y5406540D01*
X13004366Y5421406D01*
X13239381Y5656423D01*
X13252081Y5651162D01*
Y5414315D01*
X13556882D01*
Y5464795D01*
X13779419D01*
X13784634Y5452205D01*
X13804991Y5425675D01*
X13831520Y5405318D01*
X13862415Y5392522D01*
X13895567Y5388157D01*
X13928722Y5392522D01*
X13959616Y5405318D01*
X13986147Y5425675D01*
X14006503Y5452205D01*
X14010950Y5462939D01*
X14182727D01*
X14192357Y5450389D01*
X14218886Y5430032D01*
X14249780Y5417235D01*
X14282935Y5412871D01*
X14333734D01*
X14366888Y5417235D01*
X14397781Y5430032D01*
X14424312Y5450389D01*
X14444669Y5476918D01*
X14457465Y5507813D01*
X14461830Y5540966D01*
X14457465Y5574120D01*
X14444669Y5605014D01*
X14424312Y5631544D01*
X14397781Y5651901D01*
X14385191Y5657116D01*
Y5678817D01*
X14397781Y5684032D01*
X14424312Y5704389D01*
X14444669Y5730918D01*
X14457465Y5761813D01*
X14461830Y5794966D01*
X14457465Y5828120D01*
X14444669Y5859014D01*
X14424312Y5885544D01*
X14397781Y5905901D01*
X14366888Y5918697D01*
X14333734Y5923062D01*
X14282935D01*
X14249780Y5918697D01*
X14218886Y5905901D01*
X14192357Y5885544D01*
X14172000Y5859014D01*
X14159203Y5828120D01*
X14154839Y5794966D01*
X14159203Y5761813D01*
X14172000Y5730918D01*
X14192357Y5704389D01*
X14218886Y5684032D01*
X14231476Y5678817D01*
Y5657116D01*
X14218886Y5651901D01*
X14192357Y5631544D01*
X14180933Y5616655D01*
X14012486D01*
X14006503Y5631100D01*
X13986147Y5657630D01*
X13972426Y5668158D01*
Y6483607D01*
X13985236Y6488913D01*
X14011765Y6509270D01*
X14032121Y6535799D01*
X14044917Y6566693D01*
X14049283Y6599847D01*
X14044917Y6633001D01*
X14032121Y6663895D01*
X14011765Y6690425D01*
X13985236Y6710781D01*
X13954341Y6723578D01*
X13921187Y6727943D01*
X13870387D01*
X13837234Y6723578D01*
X13806339Y6710781D01*
X13779810Y6690425D01*
X13759453Y6663895D01*
X13746655Y6633001D01*
X13742291Y6599847D01*
X13746655Y6566693D01*
X13759453Y6535799D01*
X13779810Y6509270D01*
X13806339Y6488913D01*
X13818710Y6483788D01*
Y5668158D01*
X13804991Y5657630D01*
X13784634Y5631100D01*
X13779419Y5618510D01*
X13556882D01*
Y5668315D01*
X13488332D01*
X13485805Y5681015D01*
X13493930Y5684381D01*
X13520461Y5704738D01*
X13540816Y5731267D01*
X13553613Y5762162D01*
X13557977Y5795315D01*
X13553613Y5828469D01*
X13540816Y5859363D01*
X13520461Y5885893D01*
X13493930Y5906250D01*
X13471738Y5915442D01*
Y5929189D01*
X13493930Y5938381D01*
X13520461Y5958738D01*
X13540816Y5985267D01*
X13553613Y6016162D01*
X13557977Y6049315D01*
X13553613Y6082469D01*
X13540816Y6113363D01*
X13520461Y6139893D01*
X13493930Y6160250D01*
X13463036Y6173046D01*
X13429881Y6177411D01*
X13379082D01*
X13345929Y6173046D01*
X13315034Y6160250D01*
X13288506Y6139893D01*
X13277467Y6125508D01*
X13002666D01*
X12997726Y6137434D01*
X12977370Y6163964D01*
X12963649Y6174491D01*
Y6486599D01*
X12969235Y6488913D01*
X12995766Y6509270D01*
X13016122Y6535799D01*
X13028918Y6566693D01*
X13033282Y6599847D01*
X13028918Y6633001D01*
X13026785Y6638151D01*
X13437009Y7048376D01*
X14860716D01*
X14866318Y7034856D01*
X14887198Y7003605D01*
X14913774Y6977029D01*
X14945024Y6956149D01*
X14979749Y6941766D01*
X15016611Y6934433D01*
X15054195D01*
X15091055Y6941766D01*
X15125780Y6956149D01*
X15157030Y6977029D01*
X15183606Y7003605D01*
X15204488Y7034856D01*
X15218871Y7069579D01*
X15226202Y7106441D01*
Y7144026D01*
X15218871Y7180888D01*
X15204488Y7215611D01*
X15183606Y7246861D01*
X15157030Y7273438D01*
X15125780Y7294318D01*
X15091055Y7308701D01*
X15054195Y7316033D01*
X15016611D01*
X14979749Y7308701D01*
X14945024Y7294318D01*
X14913774Y7273438D01*
X14887198Y7246861D01*
X14866318Y7215611D01*
X14860716Y7202091D01*
X13405174D01*
X13385281Y7199472D01*
X13366745Y7191794D01*
X13350827Y7179580D01*
X12899190Y6727943D01*
X12854387D01*
X12821234Y6723578D01*
X12790339Y6710781D01*
X12763810Y6690425D01*
X12753282Y6676705D01*
X12575215D01*
X12362569Y6889350D01*
Y9024324D01*
X12380781Y9038298D01*
X12401138Y9064828D01*
X12413935Y9095722D01*
X12418299Y9128876D01*
X12413935Y9162029D01*
X12401138Y9192924D01*
X12380781Y9219453D01*
X12354251Y9239810D01*
X12323357Y9252607D01*
X12290204Y9256972D01*
X12239404D01*
X12206250Y9252607D01*
X12175356Y9239810D01*
X12148826Y9219453D01*
X12128469Y9192924D01*
X12115672Y9162029D01*
X12111308Y9128876D01*
X12115672Y9095722D01*
X12128469Y9064828D01*
X12148826Y9038298D01*
X12175356Y9017942D01*
X12206250Y9005145D01*
X12208854Y9004802D01*
Y6857514D01*
X12211473Y6837622D01*
X12219151Y6819085D01*
X12231365Y6803168D01*
X12489032Y6545500D01*
X12504950Y6533286D01*
X12523487Y6525608D01*
X12543379Y6522989D01*
X12753282D01*
X12763810Y6509270D01*
X12790339Y6488913D01*
X12809933Y6480797D01*
Y6174491D01*
X12796214Y6163964D01*
X12775857Y6137434D01*
X12763061Y6106540D01*
X12758696Y6073386D01*
Y6022586D01*
X12763061Y5989433D01*
X12775857Y5958539D01*
X12796214Y5932009D01*
X12822745Y5911652D01*
X12853638Y5898855D01*
X12886792Y5894491D01*
X12919945Y5898855D01*
X12950839Y5911652D01*
X12977370Y5932009D01*
X12997726Y5958539D01*
X13003217Y5971793D01*
X13278487D01*
X13288506Y5958738D01*
X13315034Y5938381D01*
X13337227Y5929189D01*
Y5915442D01*
X13325542Y5910602D01*
X13215234D01*
X13185397Y5906673D01*
X13157591Y5895156D01*
X13133714Y5876835D01*
X12805272Y5548392D01*
X12786951Y5524515D01*
X12775433Y5496710D01*
X12771505Y5466872D01*
Y5426927D01*
X12763061Y5406540D01*
X12758696Y5373386D01*
Y5322586D01*
X12763061Y5289433D01*
X12771505Y5269045D01*
Y5136295D01*
X12775433Y5106456D01*
X12786951Y5078651D01*
X12805272Y5054775D01*
X13142838Y4717209D01*
X13166714Y4698888D01*
X13194519Y4687371D01*
X13224358Y4683443D01*
X16603036D01*
Y4672929D01*
X16688551D01*
Y3904622D01*
X16683711Y3892936D01*
X16669965D01*
X16660773Y3915129D01*
X16640414Y3941659D01*
X16613885Y3962015D01*
X16582991Y3974812D01*
X16549837Y3979177D01*
X16516684Y3974812D01*
X16485789Y3962015D01*
X16459261Y3941659D01*
X16458730Y3940967D01*
X10772917D01*
X10743079Y3937039D01*
X10715274Y3925522D01*
X10691397Y3907201D01*
X9762441Y2978244D01*
X8256158D01*
X7957105Y3277298D01*
X7933228Y3295619D01*
X7905423Y3307137D01*
X7875585Y3311065D01*
X5720593D01*
X5436389Y3595269D01*
Y5497495D01*
X5432460Y5527333D01*
X5420943Y5555138D01*
X5402622Y5579014D01*
X5135695Y5845941D01*
Y13129283D01*
X5375456Y13369043D01*
X9635328D01*
X9665167Y13372971D01*
X9692972Y13384489D01*
X9716848Y13402811D01*
X9888680Y13574641D01*
X9907001Y13598518D01*
X9918518Y13626323D01*
X9922447Y13656161D01*
Y13835004D01*
X9922496Y13835068D01*
X9935292Y13865961D01*
X9939657Y13899115D01*
Y13949915D01*
X9935292Y13983067D01*
X9923492Y14011557D01*
X9928794Y14024257D01*
X12934320D01*
X12954211Y14026875D01*
X12972749Y14034554D01*
X12988666Y14046768D01*
X13283356Y14341457D01*
X13287711Y14339655D01*
X13320833Y14333064D01*
X13354607D01*
X13387730Y14339655D01*
X13392084Y14341457D01*
X14172459Y13561082D01*
X14188377Y13548868D01*
X14206914Y13541190D01*
X14226807Y13538571D01*
X15992583D01*
X16667661Y12863495D01*
Y12100555D01*
X16215253Y11648148D01*
X13094264D01*
X13074371Y11645529D01*
X13055835Y11637851D01*
X13039917Y11625637D01*
X11510457Y10096176D01*
X11498243Y10080258D01*
X11490565Y10061722D01*
X11487946Y10041830D01*
Y9795252D01*
X11475356Y9790037D01*
X11448826Y9769680D01*
X11428469Y9743151D01*
X11415672Y9712256D01*
X11411308Y9679103D01*
X11415672Y9645949D01*
X11428469Y9615055D01*
X11448826Y9588525D01*
X11475356Y9568169D01*
X11487946Y9562953D01*
Y9290476D01*
X11490565Y9270584D01*
X11494358Y9261428D01*
X11490708Y9246169D01*
X11475356Y9239810D01*
X11448826Y9219453D01*
X11428469Y9192924D01*
X11415672Y9162029D01*
X11411308Y9128876D01*
X11415672Y9095722D01*
X11428469Y9064828D01*
X11448826Y9038298D01*
X11475356Y9017942D01*
X11506250Y9005145D01*
X11539403Y9000780D01*
X11590203D01*
X11623357Y9005145D01*
X11654251Y9017942D01*
X11680781Y9038298D01*
X11701138Y9064828D01*
X11713934Y9095722D01*
X11718299Y9128876D01*
X11713934Y9162029D01*
X11701138Y9192924D01*
X11680781Y9219453D01*
X11662569Y9233428D01*
Y9269568D01*
X11659951Y9289460D01*
X11652272Y9307997D01*
X11641661Y9321826D01*
Y9562953D01*
X11654251Y9568169D01*
X11680781Y9588525D01*
X11701138Y9615055D01*
X11713934Y9645949D01*
X11718299Y9679103D01*
X11713934Y9712256D01*
X11701138Y9743151D01*
X11680781Y9769680D01*
X11654251Y9790037D01*
X11641661Y9795252D01*
Y10009994D01*
X13126099Y11494432D01*
X16247089D01*
X16266980Y11497051D01*
X16285516Y11504729D01*
X16301434Y11516943D01*
X16798865Y12014373D01*
X16811078Y12030291D01*
X16818756Y12048827D01*
X16821375Y12068720D01*
Y12895329D01*
X16818756Y12915224D01*
X16811078Y12933759D01*
X16798865Y12949677D01*
X16078764Y13669775D01*
X16062848Y13681989D01*
X16044312Y13689668D01*
X16024419Y13692287D01*
X14258643D01*
X13500777Y14450150D01*
X13502580Y14454504D01*
X13509171Y14487628D01*
Y14521400D01*
X13502580Y14554526D01*
X13489658Y14585727D01*
X13470894Y14613808D01*
X13447012Y14637689D01*
X13418932Y14656451D01*
X13387730Y14669376D01*
X13354607Y14675964D01*
X13320833D01*
X13287711Y14669376D01*
X13256508Y14656451D01*
X13228427Y14637689D01*
X13204546Y14613808D01*
X13185783Y14585727D01*
X13172859Y14554526D01*
X13166270Y14521400D01*
Y14487628D01*
X13172859Y14454504D01*
X13174661Y14450150D01*
X12902484Y14177972D01*
X9734163D01*
X9734161Y14177972D01*
X9714269Y14175354D01*
X9695732Y14167676D01*
X9679815Y14155461D01*
X9595865Y14071512D01*
X9590715Y14073647D01*
X9557561Y14078011D01*
X9524408Y14073647D01*
X9493513Y14060849D01*
X9466984Y14040492D01*
X9446627Y14013963D01*
X9437435Y13991769D01*
X9423688D01*
X9414496Y14013963D01*
X9394139Y14040492D01*
X9367609Y14060849D01*
X9336715Y14073647D01*
X9303561Y14078011D01*
X9270408Y14073647D01*
X9239513Y14060849D01*
X9212984Y14040492D01*
X9192627Y14013963D01*
X9189261Y14005836D01*
X9176561Y14008363D01*
Y14076915D01*
X9005854D01*
X8605956Y14476813D01*
X8590038Y14489027D01*
X8571502Y14496706D01*
X8551609Y14499324D01*
X7600653D01*
X7341851Y14758125D01*
X7347783Y14770155D01*
X7354007Y14769336D01*
Y14882840D01*
X7264231D01*
Y14870140D01*
X7266722Y14851216D01*
X7254693Y14845285D01*
X7150091Y14949887D01*
X7134173Y14962102D01*
X7115636Y14969778D01*
X7095744Y14972398D01*
X6784357D01*
X6779641Y14983783D01*
X6783029Y14993137D01*
X6784679Y14996483D01*
X7280601D01*
X7286864Y14983783D01*
X7277960Y14972179D01*
X7267722Y14947462D01*
X7264231Y14920940D01*
Y14908240D01*
X7366707D01*
X7469184D01*
Y14920940D01*
X7465692Y14947462D01*
X7455455Y14972179D01*
X7446551Y14983783D01*
X7452814Y14996483D01*
X9418300D01*
X9563413Y14851370D01*
X9559576Y14843590D01*
X9556899Y14839923D01*
X9524408Y14835646D01*
X9493513Y14822849D01*
X9466984Y14802492D01*
X9446627Y14775963D01*
X9437435Y14753770D01*
X9423688D01*
X9414496Y14775963D01*
X9394139Y14802492D01*
X9367609Y14822849D01*
X9336715Y14835646D01*
X9303561Y14840010D01*
X9270408Y14835646D01*
X9239513Y14822849D01*
X9212984Y14802492D01*
X9192627Y14775963D01*
X9183435Y14753770D01*
X9169688D01*
X9160496Y14775963D01*
X9140139Y14802492D01*
X9113609Y14822849D01*
X9082715Y14835646D01*
X9049561Y14840010D01*
X9016408Y14835646D01*
X8985513Y14822849D01*
X8958984Y14802492D01*
X8958454Y14801801D01*
X8420164D01*
X8394368Y14816695D01*
X8358837Y14826215D01*
X8322054D01*
X8286523Y14816695D01*
X8254668Y14798303D01*
X8228658Y14772293D01*
X8210266Y14740437D01*
X8200746Y14704907D01*
Y14668123D01*
X8210266Y14632593D01*
X8228658Y14600737D01*
X8254668Y14574727D01*
X8286523Y14556335D01*
X8322054Y14546815D01*
X8358837D01*
X8394368Y14556335D01*
X8420164Y14571228D01*
X8958454D01*
X8958984Y14570537D01*
X8985513Y14550180D01*
X9016408Y14537384D01*
X9049561Y14533018D01*
X9082715Y14537384D01*
X9113609Y14550180D01*
X9140139Y14570537D01*
X9160496Y14597067D01*
X9169688Y14619260D01*
X9183435D01*
X9192627Y14597067D01*
X9212984Y14570537D01*
X9239513Y14550180D01*
X9270408Y14537384D01*
X9303561Y14533018D01*
X9336715Y14537384D01*
X9341866Y14539517D01*
X9552814Y14328569D01*
X9552815Y14328568D01*
X9568733Y14316354D01*
X9587269Y14308676D01*
X9607161Y14306058D01*
X9607163Y14306058D01*
X10385476D01*
X10405369Y14308676D01*
X10423905Y14316354D01*
X10439823Y14328568D01*
X10633461Y14522206D01*
X11094826D01*
X11099137Y14509506D01*
X11093690Y14505325D01*
X11077404Y14484102D01*
X11067167Y14459386D01*
X11063675Y14432863D01*
Y14420163D01*
X11166152D01*
X11268628D01*
Y14432863D01*
X11265137Y14459386D01*
X11254899Y14484102D01*
X11238614Y14505325D01*
X11233166Y14509506D01*
X11237477Y14522206D01*
X11281383D01*
X11376722Y14426866D01*
Y14382063D01*
X11381087Y14348911D01*
X11393884Y14318016D01*
X11414241Y14291486D01*
X11440770Y14271129D01*
X11471665Y14258331D01*
X11504818Y14253967D01*
X11537972Y14258331D01*
X11568866Y14271129D01*
X11595396Y14291486D01*
X11615752Y14318016D01*
X11620968Y14330606D01*
X12002502D01*
X12007717Y14318016D01*
X12028074Y14291486D01*
X12054604Y14271129D01*
X12085498Y14258331D01*
X12118652Y14253967D01*
X12151805Y14258331D01*
X12182700Y14271129D01*
X12209229Y14291486D01*
X12229586Y14318016D01*
X12242383Y14348911D01*
X12246747Y14382063D01*
Y14432863D01*
X12242383Y14466017D01*
X12229586Y14496912D01*
X12209229Y14523441D01*
X12182700Y14543797D01*
X12151805Y14556593D01*
X12118652Y14560959D01*
X12085498Y14556593D01*
X12054604Y14543797D01*
X12028074Y14523441D01*
X12007717Y14496912D01*
X12002502Y14484322D01*
X11620968D01*
X11615752Y14496912D01*
X11595396Y14523441D01*
X11568866Y14543797D01*
X11537972Y14556593D01*
X11504818Y14560959D01*
X11471665Y14556593D01*
X11466514Y14554462D01*
X11367565Y14653410D01*
X11351647Y14665623D01*
X11333110Y14673302D01*
X11313218Y14675922D01*
X10601625D01*
X10581733Y14673302D01*
X10563196Y14665623D01*
X10547279Y14653410D01*
X10547278Y14653409D01*
X10353641Y14459772D01*
X10327747D01*
X10322887Y14471506D01*
X11127847Y15276466D01*
X11132998Y15274332D01*
X11166152Y15269968D01*
X11199305Y15274332D01*
X11230200Y15287129D01*
X11256729Y15307486D01*
X11277086Y15334016D01*
X11282301Y15346606D01*
X11388669D01*
X11393884Y15334016D01*
X11414241Y15307486D01*
X11440770Y15287129D01*
X11471665Y15274332D01*
X11504818Y15269968D01*
X11537972Y15274332D01*
X11568866Y15287129D01*
X11595396Y15307486D01*
X11615752Y15334016D01*
X11628549Y15364909D01*
X11632914Y15398064D01*
Y15448863D01*
X11628549Y15482018D01*
X11615752Y15512910D01*
X11595396Y15539441D01*
X11568866Y15559798D01*
X11537972Y15572594D01*
X11504818Y15576959D01*
D02*
G37*
G36*
X20051418Y15518225D02*
X20046841D01*
Y15355525D01*
X20209543D01*
Y15360101D01*
X20202802Y15393988D01*
X20189580Y15425908D01*
X20170386Y15454636D01*
X20145953Y15479066D01*
X20117226Y15498264D01*
X20085304Y15511485D01*
X20051418Y15518225D01*
D02*
G37*
G36*
X20021442D02*
X20016867D01*
X19982980Y15511485D01*
X19951060Y15498264D01*
X19922331Y15479066D01*
X19897900Y15454636D01*
X19878705Y15425908D01*
X19865483Y15393988D01*
X19858743Y15360101D01*
Y15355525D01*
X20021442D01*
Y15518225D01*
D02*
G37*
G36*
X23029245Y15717000D02*
X23012399D01*
Y15354300D01*
X23375101D01*
Y15371146D01*
X23365855Y15429506D01*
X23347597Y15485704D01*
X23320770Y15538351D01*
X23286040Y15586157D01*
X23244257Y15627939D01*
X23196452Y15662671D01*
X23143803Y15689497D01*
X23087605Y15707756D01*
X23029245Y15717000D01*
D02*
G37*
G36*
X22987000D02*
X22970155D01*
X22911794Y15707756D01*
X22855595Y15689497D01*
X22802948Y15662671D01*
X22755144Y15627939D01*
X22713361Y15586157D01*
X22678629Y15538351D01*
X22651804Y15485704D01*
X22633543Y15429506D01*
X22624300Y15371146D01*
Y15354300D01*
X22987000D01*
Y15717000D01*
D02*
G37*
G36*
X3229945D02*
X3213100D01*
Y15354300D01*
X3575800D01*
Y15371146D01*
X3566556Y15429506D01*
X3548297Y15485704D01*
X3521471Y15538351D01*
X3486739Y15586157D01*
X3444957Y15627939D01*
X3397152Y15662671D01*
X3344504Y15689497D01*
X3288306Y15707756D01*
X3229945Y15717000D01*
D02*
G37*
G36*
X3187700D02*
X3170855D01*
X3112494Y15707756D01*
X3056296Y15689497D01*
X3003648Y15662671D01*
X2955843Y15627939D01*
X2914061Y15586157D01*
X2879329Y15538351D01*
X2852503Y15485704D01*
X2834244Y15429506D01*
X2825000Y15371146D01*
Y15354300D01*
X3187700D01*
Y15717000D01*
D02*
G37*
G36*
X20209543Y15330125D02*
X20046841D01*
Y15167426D01*
X20051418D01*
X20085304Y15174165D01*
X20117226Y15187389D01*
X20145953Y15206583D01*
X20170386Y15231013D01*
X20189580Y15259743D01*
X20202802Y15291663D01*
X20209543Y15325549D01*
Y15330125D01*
D02*
G37*
G36*
X20021442D02*
X19858743D01*
Y15325549D01*
X19865483Y15291663D01*
X19878705Y15259743D01*
X19897900Y15231013D01*
X19922331Y15206583D01*
X19951060Y15187389D01*
X19982980Y15174165D01*
X20016867Y15167426D01*
X20021442D01*
Y15330125D01*
D02*
G37*
G36*
X23375101Y15328900D02*
X23012399D01*
Y14966200D01*
X23029245D01*
X23087605Y14975444D01*
X23143803Y14993703D01*
X23196452Y15020529D01*
X23244257Y15055261D01*
X23286040Y15097043D01*
X23320770Y15144849D01*
X23347597Y15197496D01*
X23365855Y15253694D01*
X23375101Y15312054D01*
Y15328900D01*
D02*
G37*
G36*
X22987000D02*
X22624300D01*
Y15312054D01*
X22633543Y15253694D01*
X22651804Y15197496D01*
X22678629Y15144849D01*
X22713361Y15097043D01*
X22755144Y15055261D01*
X22802948Y15020529D01*
X22855595Y14993703D01*
X22911794Y14975444D01*
X22970155Y14966200D01*
X22987000D01*
Y15328900D01*
D02*
G37*
G36*
X3575800D02*
X3213100D01*
Y14966200D01*
X3229945D01*
X3288306Y14975444D01*
X3344504Y14993703D01*
X3397152Y15020529D01*
X3444957Y15055261D01*
X3486739Y15097043D01*
X3521471Y15144849D01*
X3548297Y15197496D01*
X3566556Y15253694D01*
X3575800Y15312054D01*
Y15328900D01*
D02*
G37*
G36*
X3187700D02*
X2825000D01*
Y15312054D01*
X2834244Y15253694D01*
X2852503Y15197496D01*
X2879329Y15144849D01*
X2914061Y15097043D01*
X2955843Y15055261D01*
X3003648Y15020529D01*
X3056296Y14993703D01*
X3112494Y14975444D01*
X3170855Y14966200D01*
X3187700D01*
Y15328900D01*
D02*
G37*
G36*
X11814745Y15041669D02*
Y14928163D01*
X11904522D01*
Y14940863D01*
X11901030Y14967386D01*
X11890792Y14992102D01*
X11874507Y15013326D01*
X11853283Y15029611D01*
X11828568Y15039848D01*
X11814745Y15041669D01*
D02*
G37*
G36*
X11789345D02*
X11775522Y15039848D01*
X11750806Y15029611D01*
X11729583Y15013326D01*
X11713297Y14992102D01*
X11703060Y14967386D01*
X11699568Y14940863D01*
Y14928163D01*
X11789345D01*
Y15041669D01*
D02*
G37*
G36*
X11904522Y14902763D02*
X11814745D01*
Y14789258D01*
X11828568Y14791078D01*
X11853283Y14801315D01*
X11874507Y14817601D01*
X11890792Y14838824D01*
X11901030Y14863541D01*
X11904522Y14890063D01*
Y14902763D01*
D02*
G37*
G36*
X11789345D02*
X11699568D01*
Y14890063D01*
X11703060Y14863541D01*
X11713297Y14838824D01*
X11729583Y14817601D01*
X11750806Y14801315D01*
X11775522Y14791078D01*
X11789345Y14789258D01*
Y14902763D01*
D02*
G37*
G36*
X7469184Y14882840D02*
X7379407D01*
Y14769334D01*
X7393230Y14771155D01*
X7417946Y14781393D01*
X7439170Y14797678D01*
X7455455Y14818903D01*
X7465692Y14843617D01*
X7469184Y14870140D01*
Y14882840D01*
D02*
G37*
G36*
X14948019Y14650565D02*
X14941492D01*
X14904347Y14640611D01*
X14871043Y14621384D01*
X14843851Y14594193D01*
X14824623Y14560889D01*
X14814670Y14523743D01*
Y14517215D01*
X14948019D01*
Y14650565D01*
D02*
G37*
G36*
X17216249D02*
X17209721D01*
Y14517213D01*
X17343071D01*
Y14523743D01*
X17333118Y14560889D01*
X17313890Y14594193D01*
X17286697Y14621384D01*
X17253394Y14640611D01*
X17216249Y14650565D01*
D02*
G37*
G36*
X17184322D02*
X17177792D01*
X17140646Y14640611D01*
X17107344Y14621384D01*
X17080151Y14594193D01*
X17060924Y14560889D01*
X17050970Y14523743D01*
Y14517213D01*
X17184322D01*
Y14650565D01*
D02*
G37*
G36*
X7061907Y14513745D02*
Y14400240D01*
X7151684D01*
Y14412939D01*
X7148192Y14439462D01*
X7137955Y14464178D01*
X7121670Y14485403D01*
X7100446Y14501688D01*
X7075730Y14511926D01*
X7061907Y14513745D01*
D02*
G37*
G36*
X7036507Y14513745D02*
X7022684Y14511926D01*
X6997969Y14501688D01*
X6976745Y14485403D01*
X6960460Y14464178D01*
X6950222Y14439462D01*
X6946731Y14412939D01*
Y14400240D01*
X7036507D01*
Y14513745D01*
D02*
G37*
G36*
X17343071Y14491814D02*
X17209721D01*
Y14358466D01*
X17216249D01*
X17253394Y14368417D01*
X17286697Y14387646D01*
X17313890Y14414838D01*
X17333118Y14448141D01*
X17343071Y14485287D01*
Y14491814D01*
D02*
G37*
G36*
X17184322D02*
X17050970D01*
Y14485287D01*
X17060924Y14448141D01*
X17080151Y14414838D01*
X17107344Y14387646D01*
X17140646Y14368417D01*
X17177792Y14358466D01*
X17184322D01*
Y14491814D01*
D02*
G37*
G36*
X15106770Y14491815D02*
X14973421D01*
Y14358466D01*
X14979948D01*
X15017093Y14368417D01*
X15050397Y14387646D01*
X15077589Y14414838D01*
X15096817Y14448141D01*
X15106770Y14485287D01*
Y14491815D01*
D02*
G37*
G36*
X14948019D02*
X14814670D01*
Y14485287D01*
X14824623Y14448141D01*
X14843851Y14414838D01*
X14871043Y14387646D01*
X14904347Y14368417D01*
X14941492Y14358466D01*
X14948019D01*
Y14491815D01*
D02*
G37*
G36*
X11268628Y14394763D02*
X11178852D01*
Y14281258D01*
X11192675Y14283078D01*
X11217390Y14293317D01*
X11238614Y14309601D01*
X11254899Y14330824D01*
X11265137Y14355540D01*
X11268628Y14382063D01*
Y14394763D01*
D02*
G37*
G36*
X11153452D02*
X11063675D01*
Y14382063D01*
X11067167Y14355540D01*
X11077404Y14330824D01*
X11093690Y14309601D01*
X11114913Y14293317D01*
X11139629Y14283078D01*
X11153452Y14281258D01*
Y14394763D01*
D02*
G37*
G36*
X7036507Y14374840D02*
X6946731D01*
Y14362140D01*
X6950222Y14335619D01*
X6960460Y14310902D01*
X6976745Y14289677D01*
X6997969Y14273393D01*
X7022684Y14263155D01*
X7036507Y14261336D01*
Y14374840D01*
D02*
G37*
G36*
X7151684D02*
X7061907D01*
Y14261336D01*
X7075730Y14263155D01*
X7100446Y14273393D01*
X7121670Y14289677D01*
X7137955Y14310902D01*
X7148192Y14335619D01*
X7151684Y14362140D01*
Y14374840D01*
D02*
G37*
G36*
X20561420Y15543625D02*
X20521864D01*
X20483070Y15535909D01*
X20446529Y15520772D01*
X20413640Y15498798D01*
X20385670Y15470828D01*
X20363696Y15437939D01*
X20348560Y15401396D01*
X20340842Y15362602D01*
Y15323048D01*
X20348560Y15284254D01*
X20363696Y15247711D01*
X20385670Y15214822D01*
X20413640Y15186855D01*
X20426357Y15178357D01*
Y14182458D01*
X20413400Y14169502D01*
X20395332Y14142462D01*
X20382887Y14112416D01*
X20376543Y14080519D01*
Y14047997D01*
X20382887Y14016100D01*
X20395332Y13986053D01*
X20413400Y13959013D01*
X20436397Y13936015D01*
X20463438Y13917947D01*
X20493484Y13905502D01*
X20525381Y13899158D01*
X20557903D01*
X20589799Y13905502D01*
X20619846Y13917947D01*
X20646887Y13936015D01*
X20669884Y13959013D01*
X20674461Y13965865D01*
X20777638D01*
X20782217Y13959013D01*
X20805212Y13936015D01*
X20832254Y13917947D01*
X20862302Y13905502D01*
X20894199Y13899158D01*
X20926720D01*
X20958617Y13905502D01*
X20988663Y13917947D01*
X21015704Y13936015D01*
X21038699Y13959013D01*
X21056767Y13986053D01*
X21069214Y14016100D01*
X21075558Y14047997D01*
Y14080519D01*
X21069214Y14112416D01*
X21056767Y14142462D01*
X21038699Y14169502D01*
X21015704Y14192499D01*
X20988663Y14210567D01*
X20958617Y14223013D01*
X20926720Y14229358D01*
X20894199D01*
X20862302Y14223013D01*
X20832254Y14210567D01*
X20811105Y14196436D01*
X20656929D01*
Y15178357D01*
X20669646Y15186855D01*
X20697614Y15214822D01*
X20719589Y15247711D01*
X20734726Y15284254D01*
X20742442Y15323048D01*
Y15362602D01*
X20734726Y15401396D01*
X20719589Y15437939D01*
X20697614Y15470828D01*
X20669646Y15498798D01*
X20636757Y15520772D01*
X20600214Y15535909D01*
X20561420Y15543625D01*
D02*
G37*
G36*
X19546419D02*
X19506865D01*
X19468071Y15535909D01*
X19431528Y15520772D01*
X19398640Y15498798D01*
X19370671Y15470828D01*
X19348695Y15437939D01*
X19333559Y15401396D01*
X19325842Y15362602D01*
Y15323048D01*
X19333559Y15284254D01*
X19348695Y15247711D01*
X19370671Y15214822D01*
X19398640Y15186855D01*
X19411356Y15178357D01*
Y14182458D01*
X19398401Y14169502D01*
X19380333Y14142462D01*
X19367886Y14112416D01*
X19361542Y14080519D01*
Y14047997D01*
X19367886Y14016100D01*
X19380333Y13986053D01*
X19398401Y13959013D01*
X19421397Y13936015D01*
X19448438Y13917947D01*
X19478485Y13905502D01*
X19510382Y13899158D01*
X19542903D01*
X19574800Y13905502D01*
X19604846Y13917947D01*
X19631888Y13936015D01*
X19644843Y13948972D01*
X19913948D01*
X19926904Y13936015D01*
X19953944Y13917947D01*
X19983990Y13905502D01*
X20015887Y13899158D01*
X20048410D01*
X20080307Y13905502D01*
X20110353Y13917947D01*
X20137395Y13936015D01*
X20160390Y13959013D01*
X20178458Y13986053D01*
X20190904Y14016100D01*
X20197249Y14047997D01*
Y14080519D01*
X20190904Y14112416D01*
X20178458Y14142462D01*
X20160390Y14169502D01*
X20137395Y14192499D01*
X20110353Y14210567D01*
X20080307Y14223013D01*
X20048410Y14229358D01*
X20015887D01*
X19983990Y14223013D01*
X19953944Y14210567D01*
X19926904Y14192499D01*
X19913948Y14179544D01*
X19644843D01*
X19641930Y14182458D01*
Y15178357D01*
X19654645Y15186855D01*
X19682614Y15214822D01*
X19704588Y15247711D01*
X19719727Y15284254D01*
X19727441Y15323048D01*
Y15362602D01*
X19719727Y15401396D01*
X19704588Y15437939D01*
X19682614Y15470828D01*
X19654645Y15498798D01*
X19621758Y15520772D01*
X19585214Y15535909D01*
X19546419Y15543625D01*
D02*
G37*
G36*
X3229945Y14221179D02*
X3213100D01*
Y13858479D01*
X3575800D01*
Y13875323D01*
X3566556Y13933685D01*
X3548297Y13989883D01*
X3521471Y14042531D01*
X3486739Y14090337D01*
X3444957Y14132118D01*
X3397152Y14166850D01*
X3344504Y14193677D01*
X3288306Y14211935D01*
X3229945Y14221179D01*
D02*
G37*
G36*
X3187700D02*
X3170855D01*
X3112494Y14211935D01*
X3056296Y14193677D01*
X3003648Y14166850D01*
X2955843Y14132118D01*
X2914061Y14090337D01*
X2879329Y14042531D01*
X2852503Y13989883D01*
X2834244Y13933685D01*
X2825000Y13875323D01*
Y13858479D01*
X3187700D01*
Y14221179D01*
D02*
G37*
G36*
X3575800Y13833080D02*
X3213100D01*
Y13470380D01*
X3229945D01*
X3288306Y13479623D01*
X3344504Y13497882D01*
X3397152Y13524709D01*
X3444957Y13559441D01*
X3486739Y13601222D01*
X3521471Y13649026D01*
X3548297Y13701675D01*
X3566556Y13757874D01*
X3575800Y13816234D01*
Y13833080D01*
D02*
G37*
G36*
X3187700D02*
X2825000D01*
Y13816234D01*
X2834244Y13757874D01*
X2852503Y13701675D01*
X2879329Y13649026D01*
X2914061Y13601222D01*
X2955843Y13559441D01*
X3003648Y13524709D01*
X3056296Y13497882D01*
X3112494Y13479623D01*
X3170855Y13470380D01*
X3187700D01*
Y13833080D01*
D02*
G37*
G36*
X6031355Y13210735D02*
X5998201Y13206369D01*
X5967307Y13193571D01*
X5940777Y13173215D01*
X5930473Y13159785D01*
X5841398D01*
X5831093Y13173215D01*
X5804564Y13193571D01*
X5773669Y13206369D01*
X5740516Y13210735D01*
X5707362Y13206369D01*
X5676468Y13193571D01*
X5649938Y13173215D01*
X5635136Y13153925D01*
X5516285D01*
X5497716Y13168172D01*
X5466822Y13180969D01*
X5433669Y13185333D01*
X5382869D01*
X5349715Y13180969D01*
X5318821Y13168172D01*
X5292291Y13147815D01*
X5271934Y13121286D01*
X5259138Y13090392D01*
X5254773Y13057237D01*
X5259138Y13024084D01*
X5271934Y12993190D01*
X5292291Y12966660D01*
X5318821Y12946304D01*
X5341013Y12937111D01*
Y12923364D01*
X5318821Y12914172D01*
X5292291Y12893816D01*
X5271934Y12867287D01*
X5259138Y12836391D01*
X5254773Y12803238D01*
X5259138Y12770084D01*
X5271934Y12739190D01*
X5292291Y12712660D01*
X5318821Y12692304D01*
X5341013Y12683111D01*
Y12669365D01*
X5318821Y12660172D01*
X5292291Y12639815D01*
X5271934Y12613286D01*
X5259138Y12582391D01*
X5254773Y12549238D01*
X5259138Y12516084D01*
X5271934Y12485190D01*
X5292291Y12458660D01*
X5318821Y12438304D01*
X5349715Y12425507D01*
X5382869Y12421142D01*
X5433669D01*
X5450814Y12423399D01*
X5470523Y12403690D01*
X5463329Y12392923D01*
X5460192Y12394223D01*
X5433669Y12397715D01*
X5420969D01*
Y12307938D01*
X5534474D01*
X5532654Y12321761D01*
X5531354Y12324899D01*
X5542120Y12332093D01*
X5663658Y12210555D01*
Y12167743D01*
X5649938Y12157215D01*
X5629582Y12130686D01*
X5616785Y12099791D01*
X5615256Y12088177D01*
X5588118D01*
X5588116Y12088177D01*
X5568224Y12085558D01*
X5549687Y12077880D01*
X5533769Y12065666D01*
X5533768Y12065665D01*
X5215549Y11747446D01*
X5203335Y11731528D01*
X5195657Y11712991D01*
X5193038Y11693099D01*
Y11032360D01*
X5195657Y11012468D01*
X5203335Y10993932D01*
X5215549Y10978014D01*
X5337124Y10856438D01*
Y6028024D01*
X5339743Y6008132D01*
X5347421Y5989595D01*
X5359635Y5973678D01*
X5632234Y5701079D01*
X5626271Y5686684D01*
X5621906Y5653530D01*
X5626271Y5620377D01*
X5639068Y5589482D01*
X5659425Y5562953D01*
X5685954Y5542596D01*
X5716849Y5529799D01*
X5750002Y5525434D01*
X5800802D01*
X5833956Y5529799D01*
X5864850Y5542596D01*
X5891380Y5562953D01*
X5911736Y5589482D01*
X5915104Y5597612D01*
X5927804D01*
X5931172Y5589482D01*
X5951529Y5562953D01*
X5978058Y5542596D01*
X6008952Y5529799D01*
X6042106Y5525434D01*
X6092906D01*
X6126060Y5529799D01*
X6156954Y5542596D01*
X6183483Y5562953D01*
X6194820Y5577727D01*
X9168621D01*
X9173400Y5566192D01*
X9193757Y5539662D01*
X9220286Y5519305D01*
X9251180Y5506509D01*
X9284334Y5502144D01*
X9317488Y5506509D01*
X9348382Y5519305D01*
X9374911Y5539662D01*
X9395268Y5566192D01*
X9400483Y5578782D01*
X9477452D01*
X9482667Y5566192D01*
X9503024Y5539662D01*
X9529554Y5519305D01*
X9560448Y5506509D01*
X9593602Y5502144D01*
X9626755Y5506509D01*
X9657649Y5519305D01*
X9684179Y5539662D01*
X9704536Y5566192D01*
X9709421Y5577985D01*
X10514722D01*
X10527573Y5561238D01*
X10554102Y5540881D01*
X10576295Y5531689D01*
Y5517942D01*
X10554102Y5508750D01*
X10527573Y5488393D01*
X10519117Y5477374D01*
X9091410D01*
X9086001Y5490434D01*
X9065644Y5516964D01*
X9039114Y5537321D01*
X9008220Y5550117D01*
X8975066Y5554482D01*
X8941913Y5550117D01*
X8911019Y5537321D01*
X8884489Y5516964D01*
X8864132Y5490434D01*
X8858917Y5477844D01*
X8781948D01*
X8776733Y5490434D01*
X8756376Y5516964D01*
X8729847Y5537321D01*
X8698952Y5550117D01*
X8665799Y5554482D01*
X8632645Y5550117D01*
X8601751Y5537321D01*
X8575221Y5516964D01*
X8554865Y5490434D01*
X8549649Y5477844D01*
X6840041D01*
X6820148Y5475225D01*
X6801612Y5467547D01*
X6785694Y5455333D01*
X6785693Y5455332D01*
X6206116Y4875755D01*
X6199880Y4878830D01*
X6080206D01*
Y4789053D01*
X6092906D01*
X6102750Y4790349D01*
X6108682Y4778321D01*
X6095629Y4765268D01*
X6092906Y4765626D01*
X6042106D01*
X6008952Y4761261D01*
X5978058Y4748464D01*
X5951529Y4728108D01*
X5931172Y4701578D01*
X5927804Y4693448D01*
X5915104D01*
X5911736Y4701578D01*
X5891380Y4728108D01*
X5864850Y4748464D01*
X5833956Y4761261D01*
X5800802Y4765626D01*
X5750002D01*
X5716849Y4761261D01*
X5685954Y4748464D01*
X5659425Y4728108D01*
X5639068Y4701578D01*
X5626271Y4670684D01*
X5621906Y4637530D01*
X5626271Y4604377D01*
X5639068Y4573482D01*
X5659425Y4546953D01*
X5685954Y4526596D01*
X5708147Y4517403D01*
Y4503657D01*
X5685954Y4494464D01*
X5659425Y4474108D01*
X5639068Y4447578D01*
X5626271Y4416684D01*
X5621906Y4383530D01*
X5626271Y4350377D01*
X5639068Y4319482D01*
X5659425Y4292953D01*
X5685954Y4272596D01*
X5708147Y4263403D01*
Y4249657D01*
X5685954Y4240464D01*
X5659425Y4220108D01*
X5639068Y4193578D01*
X5626271Y4162684D01*
X5621906Y4129530D01*
X5626271Y4096377D01*
X5639068Y4065482D01*
X5659425Y4038953D01*
X5685954Y4018596D01*
X5708147Y4009403D01*
Y3995657D01*
X5685954Y3986464D01*
X5659425Y3966108D01*
X5639068Y3939578D01*
X5626271Y3908684D01*
X5621906Y3875530D01*
X5626271Y3842377D01*
X5639068Y3811482D01*
X5659425Y3784953D01*
X5685954Y3764596D01*
X5716849Y3751799D01*
X5750002Y3747434D01*
X5800802D01*
X5833956Y3751799D01*
X5864850Y3764596D01*
X5891380Y3784953D01*
X5911736Y3811482D01*
X5915104Y3819612D01*
X5927804D01*
X5931172Y3811482D01*
X5951529Y3784953D01*
X5978058Y3764596D01*
X6008952Y3751799D01*
X6042106Y3747434D01*
X6092906D01*
X6126060Y3751799D01*
X6156954Y3764596D01*
X6183483Y3784953D01*
X6203840Y3811482D01*
X6216637Y3842377D01*
X6221002Y3875530D01*
X6216637Y3908684D01*
X6203840Y3939578D01*
X6183483Y3966108D01*
X6156954Y3986464D01*
X6134761Y3995657D01*
Y4009403D01*
X6156954Y4018596D01*
X6183483Y4038953D01*
X6203840Y4065482D01*
X6216637Y4096377D01*
X6221002Y4129530D01*
X6216637Y4162684D01*
X6203840Y4193578D01*
X6183483Y4220108D01*
X6156954Y4240464D01*
X6134761Y4249657D01*
Y4263403D01*
X6156954Y4272596D01*
X6183483Y4292953D01*
X6203840Y4319482D01*
X6216637Y4350377D01*
X6221002Y4383530D01*
X6218752Y4400623D01*
X6889192Y5071064D01*
X7930579D01*
X7936329Y5057181D01*
X7956686Y5030651D01*
X7983216Y5010295D01*
X8014110Y4997498D01*
X8047264Y4993133D01*
X8080417Y4997498D01*
X8111311Y5010295D01*
X8137841Y5030651D01*
X8158198Y5057181D01*
X8163413Y5069771D01*
X8240382D01*
X8245597Y5057181D01*
X8265954Y5030651D01*
X8292483Y5010295D01*
X8323378Y4997498D01*
X8356531Y4993133D01*
X8389685Y4997498D01*
X8420579Y5010295D01*
X8447109Y5030651D01*
X8467465Y5057181D01*
X8472560Y5069480D01*
X10515110D01*
X10527573Y5053238D01*
X10554102Y5032881D01*
X10584996Y5020084D01*
X10618150Y5015720D01*
X10668950D01*
X10702104Y5020084D01*
X10732998Y5032881D01*
X10759527Y5053238D01*
X10779884Y5079768D01*
X10792681Y5110662D01*
X10797046Y5143815D01*
X10792681Y5176969D01*
X10779884Y5207863D01*
X10759527Y5234393D01*
X10732998Y5254750D01*
X10710805Y5263942D01*
Y5277689D01*
X10732998Y5286881D01*
X10759527Y5307238D01*
X10779884Y5333768D01*
X10792681Y5364662D01*
X10797046Y5397815D01*
X10792681Y5430969D01*
X10779884Y5461863D01*
X10759527Y5488393D01*
X10732998Y5508750D01*
X10710805Y5517942D01*
Y5531689D01*
X10732998Y5540881D01*
X10759527Y5561238D01*
X10779884Y5587768D01*
X10792681Y5618662D01*
X10797046Y5651815D01*
X10792681Y5684969D01*
X10779884Y5715863D01*
X10759527Y5742393D01*
X10732998Y5762750D01*
X10710805Y5771942D01*
Y5785689D01*
X10732998Y5794881D01*
X10759527Y5815238D01*
X10779884Y5841768D01*
X10792681Y5872662D01*
X10797046Y5905815D01*
X10792681Y5938969D01*
X10779884Y5969863D01*
X10759527Y5996393D01*
X10732998Y6016750D01*
X10710805Y6025942D01*
Y6039689D01*
X10732998Y6048881D01*
X10759527Y6069238D01*
X10779884Y6095768D01*
X10792681Y6126662D01*
X10797046Y6159815D01*
X10792681Y6192969D01*
X10779884Y6223863D01*
X10759527Y6250393D01*
X10732998Y6270750D01*
X10710805Y6279942D01*
Y6293689D01*
X10732998Y6302881D01*
X10759527Y6323238D01*
X10779884Y6349768D01*
X10792681Y6380662D01*
X10797046Y6413815D01*
X10792681Y6446969D01*
X10779884Y6477863D01*
X10759527Y6504393D01*
X10732998Y6524750D01*
X10710805Y6533942D01*
Y6547689D01*
X10732998Y6556881D01*
X10759527Y6577238D01*
X10779884Y6603768D01*
X10792681Y6634662D01*
X10797046Y6667815D01*
X10792681Y6700969D01*
X10779884Y6731863D01*
X10759527Y6758393D01*
X10732998Y6778750D01*
X10702104Y6791546D01*
X10668950Y6795911D01*
X10618150D01*
X10584996Y6791546D01*
X10554102Y6778750D01*
X10527573Y6758393D01*
X10516630Y6744132D01*
X8471532D01*
X8467465Y6753951D01*
X8447109Y6780480D01*
X8420579Y6800837D01*
X8389685Y6813634D01*
X8356531Y6817999D01*
X8323378Y6813634D01*
X8292483Y6800837D01*
X8265954Y6780480D01*
X8245597Y6753951D01*
X8240382Y6741360D01*
X8163413D01*
X8158198Y6753951D01*
X8137841Y6780480D01*
X8111311Y6800837D01*
X8080417Y6813634D01*
X8047264Y6817999D01*
X8014110Y6813634D01*
X7983216Y6800837D01*
X7956686Y6780480D01*
X7936329Y6753951D01*
X7931114Y6741360D01*
X6361190D01*
X6215330Y6887221D01*
X6216637Y6890377D01*
X6221002Y6923530D01*
X6216637Y6956684D01*
X6203840Y6987578D01*
X6183483Y7014108D01*
X6156954Y7034464D01*
X6134761Y7043657D01*
Y7057403D01*
X6156954Y7066596D01*
X6183483Y7086953D01*
X6194118Y7100812D01*
X6409243D01*
X6419664Y7087231D01*
X6446193Y7066875D01*
X6477087Y7054078D01*
X6510241Y7049713D01*
X6561041D01*
X6594195Y7054078D01*
X6625089Y7066875D01*
X6651618Y7087231D01*
X6671975Y7113761D01*
X6684772Y7144655D01*
X6689137Y7177809D01*
X6684772Y7210962D01*
X6671975Y7241857D01*
X6651618Y7268386D01*
X6625089Y7288743D01*
X6612499Y7293958D01*
Y7383826D01*
X9721350Y10492678D01*
X11562162D01*
X11582055Y10495297D01*
X11600591Y10502975D01*
X11616509Y10515189D01*
X12935909Y11834588D01*
X16031818D01*
X16051711Y11837207D01*
X16070245Y11844885D01*
X16086163Y11857099D01*
X16197861Y11968796D01*
X16210075Y11984714D01*
X16217754Y12003251D01*
X16220372Y12023143D01*
Y12216532D01*
X16330528Y12326689D01*
X16342368Y12317606D01*
X16364560Y12308413D01*
Y12294667D01*
X16342368Y12285474D01*
X16315837Y12265117D01*
X16295480Y12238588D01*
X16282684Y12207694D01*
X16278319Y12174540D01*
X16282684Y12141386D01*
X16295480Y12110492D01*
X16315837Y12083963D01*
X16342368Y12063606D01*
X16373260Y12050809D01*
X16406415Y12046444D01*
X16457214D01*
X16490369Y12050809D01*
X16521263Y12063606D01*
X16547792Y12083963D01*
X16568149Y12110492D01*
X16580946Y12141386D01*
X16585310Y12174540D01*
X16580946Y12207694D01*
X16568149Y12238588D01*
X16547792Y12265117D01*
X16521263Y12285474D01*
X16499071Y12294667D01*
Y12308413D01*
X16521263Y12317606D01*
X16547792Y12337963D01*
X16568149Y12364492D01*
X16580946Y12395386D01*
X16585310Y12428540D01*
X16580946Y12461694D01*
X16568149Y12492588D01*
X16547792Y12519117D01*
X16521263Y12539474D01*
X16499071Y12548667D01*
Y12562413D01*
X16521263Y12571606D01*
X16547792Y12591963D01*
X16568149Y12618492D01*
X16580946Y12649386D01*
X16585310Y12682540D01*
X16580946Y12715694D01*
X16568149Y12746588D01*
X16547792Y12773117D01*
X16521263Y12793474D01*
X16490369Y12806271D01*
X16457214Y12810635D01*
X16406415D01*
X16373260Y12806271D01*
X16342368Y12793474D01*
X16329832Y12783856D01*
X16036493D01*
X16026985Y12791152D01*
X15996091Y12803949D01*
X15962936Y12808315D01*
X15912137D01*
X15878983Y12803949D01*
X15848090Y12791152D01*
X15837067Y12782695D01*
X12407425D01*
X12380902Y12779203D01*
X12356186Y12768966D01*
X12334963Y12752680D01*
X12334962Y12752679D01*
X11213342Y11631059D01*
X8316441D01*
X8305419Y11639517D01*
X8274525Y11652313D01*
X8241371Y11656678D01*
X8190571D01*
X8157418Y11652313D01*
X8126523Y11639517D01*
X8115502Y11631059D01*
X7842226D01*
X7831204Y11639517D01*
X7800310Y11652313D01*
X7767156Y11656678D01*
X7716356D01*
X7683203Y11652313D01*
X7652308Y11639517D01*
X7641286Y11631059D01*
X7368011D01*
X7356989Y11639517D01*
X7326095Y11652313D01*
X7292941Y11656678D01*
X7242141D01*
X7208987Y11652313D01*
X7178093Y11639517D01*
X7167071Y11631059D01*
X6520603D01*
X6496670Y11640973D01*
X6482620Y11642823D01*
X6394826Y11730617D01*
Y12796241D01*
X6394827Y12796243D01*
X6391335Y12822766D01*
X6381097Y12847481D01*
X6364812Y12868706D01*
X6364811Y12868706D01*
X6159450Y13074066D01*
Y13082639D01*
X6155086Y13115791D01*
X6142289Y13146686D01*
X6121932Y13173215D01*
X6095403Y13193571D01*
X6064508Y13206369D01*
X6031355Y13210735D01*
D02*
G37*
G36*
X22258609Y12826717D02*
Y12713212D01*
X22348386D01*
Y12725912D01*
X22344894Y12752435D01*
X22334657Y12777150D01*
X22318372Y12798374D01*
X22297148Y12814661D01*
X22272432Y12824896D01*
X22258609Y12826717D01*
D02*
G37*
G36*
X19566786D02*
Y12713212D01*
X19656563D01*
Y12725912D01*
X19653072Y12752435D01*
X19642834Y12777150D01*
X19626549Y12798374D01*
X19605325Y12814661D01*
X19580609Y12824896D01*
X19566786Y12826717D01*
D02*
G37*
G36*
X19541386D02*
X19527563Y12824896D01*
X19502847Y12814661D01*
X19481624Y12798374D01*
X19465340Y12777150D01*
X19455101Y12752435D01*
X19451610Y12725912D01*
Y12713212D01*
X19541386D01*
Y12826717D01*
D02*
G37*
G36*
X22233209D02*
X22219386Y12824896D01*
X22194672Y12814661D01*
X22173447Y12798374D01*
X22157162Y12777150D01*
X22146924Y12752435D01*
X22143433Y12725912D01*
Y12713212D01*
X22233209D01*
Y12826717D01*
D02*
G37*
G36*
X22348386Y12687812D02*
X22258609D01*
Y12574307D01*
X22272432Y12576127D01*
X22297148Y12586364D01*
X22318372Y12602650D01*
X22334657Y12623874D01*
X22344894Y12648589D01*
X22348386Y12675112D01*
Y12687812D01*
D02*
G37*
G36*
X19656563D02*
X19566786D01*
Y12574307D01*
X19580609Y12576127D01*
X19605325Y12586364D01*
X19626549Y12602650D01*
X19642834Y12623874D01*
X19653072Y12648589D01*
X19656563Y12675112D01*
Y12687812D01*
D02*
G37*
G36*
X19541386D02*
X19451610D01*
Y12675112D01*
X19455101Y12648589D01*
X19465340Y12623874D01*
X19481624Y12602650D01*
X19502847Y12586364D01*
X19527563Y12576127D01*
X19541386Y12574307D01*
Y12687812D01*
D02*
G37*
G36*
X22233209D02*
X22143433D01*
Y12675112D01*
X22146924Y12648589D01*
X22157162Y12623874D01*
X22173447Y12602650D01*
X22194672Y12586364D01*
X22219386Y12576127D01*
X22233209Y12574307D01*
Y12687812D01*
D02*
G37*
G36*
X5395569Y12397715D02*
X5382869D01*
X5356346Y12394223D01*
X5331630Y12383985D01*
X5310406Y12367700D01*
X5294121Y12346476D01*
X5283884Y12321761D01*
X5282064Y12307938D01*
X5395569D01*
Y12397715D01*
D02*
G37*
G36*
X5534474Y12282538D02*
X5420969D01*
Y12192761D01*
X5433669D01*
X5460192Y12196253D01*
X5484907Y12206490D01*
X5506131Y12222776D01*
X5522416Y12243999D01*
X5532654Y12268715D01*
X5534474Y12282538D01*
D02*
G37*
G36*
X5395569D02*
X5282064D01*
X5283884Y12268715D01*
X5294121Y12243999D01*
X5310406Y12222776D01*
X5331630Y12206490D01*
X5356346Y12196253D01*
X5382869Y12192761D01*
X5395569D01*
Y12282538D01*
D02*
G37*
G36*
X13602101Y10741066D02*
X13585255D01*
Y10378366D01*
X13947955D01*
Y10395210D01*
X13938713Y10453572D01*
X13920453Y10509769D01*
X13893626Y10562418D01*
X13858894Y10610223D01*
X13817113Y10652005D01*
X13769308Y10686737D01*
X13716660Y10713563D01*
X13660461Y10731822D01*
X13602101Y10741066D01*
D02*
G37*
G36*
X13559856D02*
X13543011D01*
X13484650Y10731822D01*
X13428452Y10713563D01*
X13375804Y10686737D01*
X13327998Y10652005D01*
X13286217Y10610223D01*
X13251485Y10562418D01*
X13224660Y10509769D01*
X13206400Y10453572D01*
X13197156Y10395210D01*
Y10378366D01*
X13559856D01*
Y10741066D01*
D02*
G37*
G36*
X13238609Y11320586D02*
X13208772Y11316658D01*
X13180968Y11305140D01*
X13157091Y11286819D01*
X13157091Y11286818D01*
X12309975Y10439704D01*
X12281204Y10431995D01*
X12249348Y10413603D01*
X12223338Y10387593D01*
X12204946Y10355737D01*
X12195426Y10320207D01*
Y10283423D01*
X12204946Y10247893D01*
X12223338Y10216037D01*
X12249348Y10190027D01*
X12281204Y10171636D01*
X12316734Y10162115D01*
X12353518D01*
X12389048Y10171636D01*
X12420904Y10190027D01*
X12446914Y10216037D01*
X12465306Y10247893D01*
X12473015Y10276665D01*
X13286363Y11090013D01*
X16667500D01*
X17400787Y10356727D01*
Y10267919D01*
X17388087Y10263608D01*
X17384299Y10268544D01*
X17363075Y10284830D01*
X17338361Y10295067D01*
X17324538Y10296887D01*
Y10170682D01*
Y10044477D01*
X17338361Y10046297D01*
X17363075Y10056535D01*
X17384299Y10072820D01*
X17388087Y10077757D01*
X17400787Y10073445D01*
Y9914672D01*
X17300847Y9814731D01*
X17278683Y9811813D01*
X17247789Y9799016D01*
X17221260Y9778660D01*
X17200903Y9752130D01*
X17188106Y9721236D01*
X17183742Y9688082D01*
Y9637282D01*
X17188106Y9604129D01*
X17196552Y9583741D01*
Y9259861D01*
X17188106Y9239473D01*
X17186803Y9229571D01*
X17173767Y9227855D01*
X17171985Y9232158D01*
X17155699Y9253382D01*
X17141327Y9264409D01*
X17130299Y9278782D01*
X17109076Y9295067D01*
X17084360Y9305304D01*
X17070537Y9307124D01*
Y9180919D01*
Y9054714D01*
X17084360Y9056534D01*
X17109076Y9066772D01*
X17130299Y9083057D01*
X17141327Y9097429D01*
X17155699Y9108457D01*
X17171985Y9129681D01*
X17173767Y9133984D01*
X17186803Y9132267D01*
X17188106Y9122366D01*
X17200903Y9091472D01*
X17221260Y9064942D01*
X17247789Y9044585D01*
X17278683Y9031788D01*
X17311836Y9027424D01*
X17344991Y9031788D01*
X17375885Y9044585D01*
X17402415Y9064942D01*
X17422772Y9091472D01*
X17435568Y9122366D01*
X17439932Y9155519D01*
Y9206319D01*
X17435568Y9239473D01*
X17427124Y9259861D01*
Y9583741D01*
X17435568Y9604129D01*
X17438486Y9626292D01*
X17597592Y9785398D01*
X17597594Y9785399D01*
X17615913Y9809275D01*
X17627432Y9837080D01*
X17631360Y9866919D01*
Y10404478D01*
X17631360Y10404480D01*
X17627432Y10434318D01*
X17615913Y10462123D01*
X17597594Y10486000D01*
X16796774Y11286819D01*
X16772897Y11305140D01*
X16745091Y11316658D01*
X16715254Y11320586D01*
X13238612D01*
X13238609Y11320586D01*
D02*
G37*
G36*
X16816537Y10296887D02*
Y10183382D01*
X16906314D01*
Y10196082D01*
X16902821Y10222605D01*
X16892586Y10247321D01*
X16876299Y10268544D01*
X16855077Y10284830D01*
X16830360Y10295067D01*
X16816537Y10296887D01*
D02*
G37*
G36*
X17299136D02*
X17285313Y10295067D01*
X17260599Y10284830D01*
X17239375Y10268544D01*
X17223090Y10247321D01*
X17212852Y10222605D01*
X17209361Y10196082D01*
Y10183382D01*
X17299136D01*
Y10296887D01*
D02*
G37*
G36*
X16791138D02*
X16777315Y10295067D01*
X16752599Y10284830D01*
X16731375Y10268544D01*
X16715089Y10247321D01*
X16704852Y10222605D01*
X16701361Y10196082D01*
Y10183382D01*
X16791138D01*
Y10296887D01*
D02*
G37*
G36*
X15051694Y10325632D02*
X15048102D01*
Y10172932D01*
X15200803D01*
Y10176522D01*
X15194446Y10208477D01*
X15181978Y10238578D01*
X15163876Y10265668D01*
X15140839Y10288706D01*
X15113748Y10306807D01*
X15083649Y10319276D01*
X15051694Y10325632D01*
D02*
G37*
G36*
X15022702D02*
X15019112D01*
X14987157Y10319276D01*
X14957056Y10306807D01*
X14929967Y10288706D01*
X14906927Y10265668D01*
X14888826Y10238578D01*
X14876358Y10208477D01*
X14870003Y10176522D01*
Y10172932D01*
X15022702D01*
Y10325632D01*
D02*
G37*
G36*
X16906314Y10157982D02*
X16816537D01*
Y10044477D01*
X16830360Y10046297D01*
X16855077Y10056535D01*
X16876299Y10072820D01*
X16892586Y10094044D01*
X16902821Y10118759D01*
X16906314Y10145282D01*
Y10157982D01*
D02*
G37*
G36*
X17299136D02*
X17209361D01*
Y10145282D01*
X17212852Y10118759D01*
X17223090Y10094044D01*
X17239375Y10072820D01*
X17260599Y10056535D01*
X17285313Y10046297D01*
X17299136Y10044477D01*
Y10157982D01*
D02*
G37*
G36*
X16791138D02*
X16701361D01*
Y10145282D01*
X16704852Y10118759D01*
X16715089Y10094044D01*
X16731375Y10072820D01*
X16752599Y10056535D01*
X16777315Y10046297D01*
X16791138Y10044477D01*
Y10157982D01*
D02*
G37*
G36*
X15200803Y10147532D02*
X15048102D01*
Y9994832D01*
X15051694D01*
X15083649Y10001188D01*
X15113748Y10013656D01*
X15140839Y10031757D01*
X15163876Y10054795D01*
X15181978Y10081885D01*
X15194446Y10111986D01*
X15200803Y10143941D01*
Y10147532D01*
D02*
G37*
G36*
X15022702D02*
X14870003D01*
Y10143941D01*
X14876358Y10111986D01*
X14888826Y10081885D01*
X14906927Y10054795D01*
X14929967Y10031757D01*
X14957056Y10013656D01*
X14987157Y10001188D01*
X15019112Y9994832D01*
X15022702D01*
Y10147532D01*
D02*
G37*
G36*
X13947955Y10352966D02*
X13585255D01*
Y9990266D01*
X13602101D01*
X13660461Y9999509D01*
X13716660Y10017769D01*
X13769308Y10044595D01*
X13817113Y10079327D01*
X13858894Y10121109D01*
X13893626Y10168913D01*
X13920453Y10221562D01*
X13938713Y10277759D01*
X13947955Y10336121D01*
Y10352966D01*
D02*
G37*
G36*
X13559856D02*
X13197156D01*
Y10336121D01*
X13206400Y10277759D01*
X13224660Y10221562D01*
X13251485Y10168913D01*
X13286217Y10121109D01*
X13327998Y10079327D01*
X13375804Y10044595D01*
X13428452Y10017769D01*
X13484650Y9999509D01*
X13543011Y9990266D01*
X13559856D01*
Y10352966D01*
D02*
G37*
G36*
X14295634Y9297508D02*
X14282935D01*
X14256412Y9294017D01*
X14231696Y9283779D01*
X14210472Y9267494D01*
X14194186Y9246270D01*
X14183949Y9221555D01*
X14182129Y9207732D01*
X14295634D01*
Y9297508D01*
D02*
G37*
G36*
Y9182332D02*
X14182129D01*
X14183949Y9168509D01*
X14194186Y9143793D01*
X14210472Y9122570D01*
X14231696Y9106284D01*
X14256412Y9096047D01*
X14282935Y9092555D01*
X14295634D01*
Y9182332D01*
D02*
G37*
G36*
X10235612Y8654610D02*
X10222912D01*
Y8564833D01*
X10336417D01*
X10334597Y8578656D01*
X10324359Y8603372D01*
X10308074Y8624595D01*
X10286850Y8640881D01*
X10262135Y8651118D01*
X10235612Y8654610D01*
D02*
G37*
G36*
X9620462D02*
X9607762D01*
Y8564833D01*
X9721267D01*
X9719447Y8578656D01*
X9709210Y8603372D01*
X9692924Y8624595D01*
X9671701Y8640881D01*
X9646985Y8651118D01*
X9620462Y8654610D01*
D02*
G37*
G36*
X8997242D02*
X8984542D01*
Y8564833D01*
X9098047D01*
X9096227Y8578656D01*
X9085989Y8603372D01*
X9069704Y8624595D01*
X9048480Y8640881D01*
X9023765Y8651118D01*
X8997242Y8654610D01*
D02*
G37*
G36*
X8381327D02*
X8368627D01*
Y8564833D01*
X8482132D01*
X8480312Y8578656D01*
X8470074Y8603372D01*
X8453789Y8624595D01*
X8432565Y8640881D01*
X8407850Y8651118D01*
X8381327Y8654610D01*
D02*
G37*
G36*
X8343227D02*
X8330527D01*
X8304004Y8651118D01*
X8279288Y8640881D01*
X8258065Y8624595D01*
X8241779Y8603372D01*
X8231542Y8578656D01*
X8229722Y8564833D01*
X8343227D01*
Y8654610D01*
D02*
G37*
G36*
X10197512D02*
X10184812D01*
X10158289Y8651118D01*
X10133573Y8640881D01*
X10112350Y8624595D01*
X10096064Y8603372D01*
X10085827Y8578656D01*
X10084007Y8564833D01*
X10197512D01*
Y8654610D01*
D02*
G37*
G36*
X9582362D02*
X9569662D01*
X9543139Y8651118D01*
X9518424Y8640881D01*
X9497200Y8624595D01*
X9480915Y8603372D01*
X9470677Y8578656D01*
X9468857Y8564833D01*
X9582362D01*
Y8654610D01*
D02*
G37*
G36*
X8959142D02*
X8946442D01*
X8919919Y8651118D01*
X8895203Y8640881D01*
X8873980Y8624595D01*
X8857694Y8603372D01*
X8847457Y8578656D01*
X8845637Y8564833D01*
X8959142D01*
Y8654610D01*
D02*
G37*
G36*
X10336417Y8539433D02*
X10222912D01*
Y8449656D01*
X10235612D01*
X10262135Y8453148D01*
X10286850Y8463386D01*
X10308074Y8479671D01*
X10324359Y8500895D01*
X10334597Y8525610D01*
X10336417Y8539433D01*
D02*
G37*
G36*
X10197512D02*
X10084007D01*
X10085827Y8525610D01*
X10096064Y8500895D01*
X10112350Y8479671D01*
X10133573Y8463386D01*
X10158289Y8453148D01*
X10184812Y8449656D01*
X10197512D01*
Y8539433D01*
D02*
G37*
G36*
X9721267D02*
X9607762D01*
Y8449656D01*
X9620462D01*
X9646985Y8453148D01*
X9671701Y8463386D01*
X9692924Y8479671D01*
X9709210Y8500895D01*
X9719447Y8525610D01*
X9721267Y8539433D01*
D02*
G37*
G36*
X9582362D02*
X9468857D01*
X9470677Y8525610D01*
X9480915Y8500895D01*
X9497200Y8479671D01*
X9518424Y8463386D01*
X9543139Y8453148D01*
X9569662Y8449656D01*
X9582362D01*
Y8539433D01*
D02*
G37*
G36*
X9098047D02*
X8984542D01*
Y8449656D01*
X8997242D01*
X9023765Y8453148D01*
X9048480Y8463386D01*
X9069704Y8479671D01*
X9085989Y8500895D01*
X9096227Y8525610D01*
X9098047Y8539433D01*
D02*
G37*
G36*
X8959142D02*
X8845637D01*
X8847457Y8525610D01*
X8857694Y8500895D01*
X8873980Y8479671D01*
X8895203Y8463386D01*
X8919919Y8453148D01*
X8946442Y8449656D01*
X8959142D01*
Y8539433D01*
D02*
G37*
G36*
X8482132D02*
X8368627D01*
Y8449656D01*
X8381327D01*
X8407850Y8453148D01*
X8432565Y8463386D01*
X8453789Y8479671D01*
X8470074Y8500895D01*
X8480312Y8525610D01*
X8482132Y8539433D01*
D02*
G37*
G36*
X8343227D02*
X8229722D01*
X8231542Y8525610D01*
X8241779Y8500895D01*
X8258065Y8479671D01*
X8279288Y8463386D01*
X8304004Y8453148D01*
X8330527Y8449656D01*
X8343227D01*
Y8539433D01*
D02*
G37*
G36*
X16979237Y7888577D02*
X16816537D01*
Y7800876D01*
X16979237D01*
Y7888577D01*
D02*
G37*
G36*
X16791138D02*
X16628436D01*
Y7800876D01*
X16791138D01*
Y7888577D01*
D02*
G37*
G36*
X8059964Y7806708D02*
Y7693203D01*
X8149740D01*
Y7705903D01*
X8146249Y7732426D01*
X8136011Y7757141D01*
X8119726Y7778365D01*
X8098502Y7794650D01*
X8073786Y7804888D01*
X8059964Y7806708D01*
D02*
G37*
G36*
X8034564D02*
X8020741Y7804888D01*
X7996025Y7794650D01*
X7974801Y7778365D01*
X7958516Y7757141D01*
X7948278Y7732426D01*
X7944787Y7705903D01*
Y7693203D01*
X8034564D01*
Y7806708D01*
D02*
G37*
G36*
X16979237Y7775476D02*
X16816537D01*
Y7687777D01*
X16979237D01*
Y7775476D01*
D02*
G37*
G36*
X16791138D02*
X16628436D01*
Y7687777D01*
X16791138D01*
Y7775476D01*
D02*
G37*
G36*
X8149740Y7667803D02*
X8059964D01*
Y7554298D01*
X8073786Y7556118D01*
X8098502Y7566355D01*
X8119726Y7582641D01*
X8136011Y7603864D01*
X8146249Y7628580D01*
X8149740Y7655103D01*
Y7667803D01*
D02*
G37*
G36*
X8034564D02*
X7944787D01*
Y7655103D01*
X7948278Y7628580D01*
X7958516Y7603864D01*
X7974801Y7582641D01*
X7996025Y7566355D01*
X8020741Y7556118D01*
X8034564Y7554298D01*
Y7667803D01*
D02*
G37*
G36*
X13126123Y7662851D02*
Y7549346D01*
X13215900D01*
Y7562046D01*
X13212408Y7588569D01*
X13202170Y7613285D01*
X13185886Y7634508D01*
X13164661Y7650794D01*
X13139946Y7661031D01*
X13126123Y7662851D01*
D02*
G37*
G36*
X13100723D02*
X13086900Y7661031D01*
X13062184Y7650794D01*
X13040961Y7634508D01*
X13024675Y7613285D01*
X13014438Y7588569D01*
X13010947Y7562046D01*
Y7549346D01*
X13100723D01*
Y7662851D01*
D02*
G37*
G36*
X8381327Y8426229D02*
X8330527D01*
X8297373Y8421864D01*
X8266479Y8409068D01*
X8239949Y8388711D01*
X8219593Y8362181D01*
X8206796Y8331287D01*
X8202431Y8298133D01*
X8206796Y8264980D01*
X8219593Y8234085D01*
X8239949Y8207556D01*
X8266479Y8187199D01*
X8288672Y8178007D01*
Y8164260D01*
X8266479Y8155068D01*
X8239949Y8134711D01*
X8219593Y8108181D01*
X8206796Y8077287D01*
X8202431Y8044133D01*
X8206796Y8010980D01*
X8219593Y7980085D01*
X8239949Y7953556D01*
X8266479Y7933199D01*
X8279372Y7927859D01*
Y7806776D01*
X8265954Y7796480D01*
X8245597Y7769951D01*
X8232800Y7739056D01*
X8228435Y7705903D01*
Y7655103D01*
X8232800Y7621949D01*
X8245597Y7591055D01*
X8265954Y7564525D01*
X8292483Y7544169D01*
X8323378Y7531372D01*
X8356531Y7527007D01*
X8389685Y7531372D01*
X8420579Y7544169D01*
X8447109Y7564525D01*
X8467465Y7591055D01*
X8480262Y7621949D01*
X8484627Y7655103D01*
Y7705903D01*
X8480262Y7739056D01*
X8467465Y7769951D01*
X8447109Y7796480D01*
X8433087Y7807240D01*
Y7928109D01*
X8445375Y7933199D01*
X8471904Y7953556D01*
X8492261Y7980085D01*
X8505058Y8010980D01*
X8509423Y8044133D01*
X8505058Y8077287D01*
X8492261Y8108181D01*
X8471904Y8134711D01*
X8445375Y8155068D01*
X8423182Y8164260D01*
Y8178007D01*
X8445375Y8187199D01*
X8471904Y8207556D01*
X8492261Y8234085D01*
X8505058Y8264980D01*
X8509423Y8298133D01*
X8505058Y8331287D01*
X8492261Y8362181D01*
X8471904Y8388711D01*
X8445375Y8409068D01*
X8414481Y8421864D01*
X8381327Y8426229D01*
D02*
G37*
G36*
X8678500Y7557509D02*
Y7444005D01*
X8768276D01*
Y7456705D01*
X8764784Y7483228D01*
X8754546Y7507943D01*
X8738261Y7529167D01*
X8717037Y7545452D01*
X8692322Y7555690D01*
X8678500Y7557509D01*
D02*
G37*
G36*
X8653100Y7557510D02*
X8639276Y7555690D01*
X8614560Y7545452D01*
X8593337Y7529167D01*
X8577051Y7507943D01*
X8566814Y7483228D01*
X8563322Y7456705D01*
Y7444005D01*
X8653100D01*
Y7557510D01*
D02*
G37*
G36*
X13215900Y7523946D02*
X13126123D01*
Y7410441D01*
X13139946Y7412261D01*
X13164661Y7422499D01*
X13185886Y7438784D01*
X13202170Y7460008D01*
X13212408Y7484723D01*
X13215900Y7511246D01*
Y7523946D01*
D02*
G37*
G36*
X13100723D02*
X13010947D01*
Y7511246D01*
X13014438Y7484723D01*
X13024675Y7460008D01*
X13040961Y7438784D01*
X13062184Y7422499D01*
X13086900Y7412261D01*
X13100723Y7410441D01*
Y7523946D01*
D02*
G37*
G36*
X3229945Y7718779D02*
X3213100D01*
Y7356079D01*
X3575800D01*
Y7372924D01*
X3566556Y7431285D01*
X3548297Y7487483D01*
X3521471Y7540131D01*
X3486739Y7587936D01*
X3444957Y7629718D01*
X3397152Y7664450D01*
X3344504Y7691276D01*
X3288306Y7709536D01*
X3229945Y7718779D01*
D02*
G37*
G36*
X3187700D02*
X3170855D01*
X3112494Y7709536D01*
X3056296Y7691276D01*
X3003648Y7664450D01*
X2955843Y7629718D01*
X2914061Y7587936D01*
X2879329Y7540131D01*
X2852503Y7487483D01*
X2834244Y7431285D01*
X2825000Y7372924D01*
Y7356079D01*
X3187700D01*
Y7718779D01*
D02*
G37*
G36*
X18919492Y7513577D02*
X18656792D01*
Y7350877D01*
X18919492D01*
Y7513577D01*
D02*
G37*
G36*
X18631390D02*
X18368692D01*
Y7350877D01*
X18631390D01*
Y7513577D01*
D02*
G37*
G36*
X21282227D02*
X21019527D01*
Y7350877D01*
X21282227D01*
Y7513577D01*
D02*
G37*
G36*
X20994125D02*
X20731425D01*
Y7350877D01*
X20994125D01*
Y7513577D01*
D02*
G37*
G36*
X8768276Y7418605D02*
X8678500D01*
Y7305100D01*
X8692322Y7306920D01*
X8717037Y7317157D01*
X8738261Y7333443D01*
X8754546Y7354666D01*
X8764784Y7379382D01*
X8768276Y7405905D01*
Y7418605D01*
D02*
G37*
G36*
X8653100D02*
X8563322D01*
Y7405905D01*
X8566814Y7379382D01*
X8577051Y7354666D01*
X8593337Y7333443D01*
X8614560Y7317157D01*
X8639276Y7306920D01*
X8653100Y7305100D01*
Y7418605D01*
D02*
G37*
G36*
X8997242Y8426229D02*
X8946442D01*
X8913288Y8421864D01*
X8882394Y8409068D01*
X8855864Y8388711D01*
X8835508Y8362181D01*
X8822711Y8331287D01*
X8818346Y8298133D01*
X8822711Y8264980D01*
X8835508Y8234085D01*
X8855864Y8207556D01*
X8882394Y8187199D01*
X8904587Y8178007D01*
Y8164260D01*
X8882394Y8155068D01*
X8855864Y8134711D01*
X8835508Y8108181D01*
X8822711Y8077287D01*
X8818346Y8044133D01*
X8822711Y8010980D01*
X8835508Y7980085D01*
X8855864Y7953556D01*
X8882394Y7933199D01*
X8896597Y7927316D01*
Y7556573D01*
X8884489Y7547282D01*
X8864132Y7520753D01*
X8851335Y7489858D01*
X8846971Y7456705D01*
Y7405905D01*
X8851335Y7372751D01*
X8864132Y7341857D01*
X8884489Y7315327D01*
X8911019Y7294970D01*
X8941913Y7282174D01*
X8975066Y7277809D01*
X9008220Y7282174D01*
X9039114Y7294970D01*
X9065644Y7315327D01*
X9086001Y7341857D01*
X9098797Y7372751D01*
X9103162Y7405905D01*
Y7456705D01*
X9098797Y7489858D01*
X9086001Y7520753D01*
X9065644Y7547282D01*
X9050312Y7559047D01*
Y7928652D01*
X9061290Y7933199D01*
X9087819Y7953556D01*
X9108176Y7980085D01*
X9120973Y8010980D01*
X9125338Y8044133D01*
X9120973Y8077287D01*
X9108176Y8108181D01*
X9087819Y8134711D01*
X9061290Y8155068D01*
X9039097Y8164260D01*
Y8178007D01*
X9061290Y8187199D01*
X9087819Y8207556D01*
X9108176Y8234085D01*
X9120973Y8264980D01*
X9125338Y8298133D01*
X9120973Y8331287D01*
X9108176Y8362181D01*
X9087819Y8388711D01*
X9061290Y8409068D01*
X9030395Y8421864D01*
X8997242Y8426229D01*
D02*
G37*
G36*
X9297034Y7312533D02*
Y7199028D01*
X9386811D01*
Y7211728D01*
X9383319Y7238251D01*
X9373082Y7262966D01*
X9356796Y7284190D01*
X9335572Y7300476D01*
X9310857Y7310713D01*
X9297034Y7312533D01*
D02*
G37*
G36*
X9271634D02*
X9257811Y7310713D01*
X9233096Y7300476D01*
X9211872Y7284190D01*
X9195586Y7262966D01*
X9185349Y7238251D01*
X9181857Y7211728D01*
Y7199028D01*
X9271634D01*
Y7312533D01*
D02*
G37*
G36*
X7577041Y7280286D02*
X7564341D01*
Y7190509D01*
X7677846D01*
X7676026Y7204332D01*
X7665789Y7229047D01*
X7649503Y7250271D01*
X7628279Y7266556D01*
X7603564Y7276794D01*
X7577041Y7280286D01*
D02*
G37*
G36*
X7538941D02*
X7526241D01*
X7499718Y7276794D01*
X7475003Y7266556D01*
X7453779Y7250271D01*
X7437493Y7229047D01*
X7427256Y7204332D01*
X7425436Y7190509D01*
X7538941D01*
Y7280286D01*
D02*
G37*
G36*
X21282227Y7325477D02*
X21019527D01*
Y7162777D01*
X21282227D01*
Y7325477D01*
D02*
G37*
G36*
X20994125D02*
X20731425D01*
Y7162777D01*
X20994125D01*
Y7325477D01*
D02*
G37*
G36*
X18919492Y7325477D02*
X18656792D01*
Y7162777D01*
X18919492D01*
Y7325477D01*
D02*
G37*
G36*
X18631390D02*
X18368692D01*
Y7162777D01*
X18631390D01*
Y7325477D01*
D02*
G37*
G36*
X7677846Y7165109D02*
X7564341D01*
Y7075332D01*
X7577041D01*
X7603564Y7078824D01*
X7628279Y7089061D01*
X7649503Y7105347D01*
X7665789Y7126570D01*
X7676026Y7151286D01*
X7677846Y7165109D01*
D02*
G37*
G36*
X7538941D02*
X7425436D01*
X7427256Y7151286D01*
X7437493Y7126570D01*
X7453779Y7105347D01*
X7475003Y7089061D01*
X7499718Y7078824D01*
X7526241Y7075332D01*
X7538941D01*
Y7165109D01*
D02*
G37*
G36*
X9386811Y7173628D02*
X9297034D01*
Y7060123D01*
X9310857Y7061943D01*
X9335572Y7072180D01*
X9356796Y7088466D01*
X9373082Y7109690D01*
X9383319Y7134405D01*
X9386811Y7160928D01*
Y7173628D01*
D02*
G37*
G36*
X9271634D02*
X9181857D01*
Y7160928D01*
X9185349Y7134405D01*
X9195586Y7109690D01*
X9211872Y7088466D01*
X9233096Y7072180D01*
X9257811Y7061943D01*
X9271634Y7060123D01*
Y7173628D01*
D02*
G37*
G36*
X9620462Y8426229D02*
X9569662D01*
X9536509Y8421864D01*
X9505614Y8409068D01*
X9479085Y8388711D01*
X9458728Y8362181D01*
X9445931Y8331287D01*
X9441567Y8298133D01*
X9445931Y8264980D01*
X9458728Y8234085D01*
X9479085Y8207556D01*
X9505614Y8187199D01*
X9527807Y8178007D01*
Y8164260D01*
X9505614Y8155068D01*
X9479085Y8134711D01*
X9458728Y8108181D01*
X9445931Y8077287D01*
X9441567Y8044133D01*
X9445931Y8010980D01*
X9458728Y7980085D01*
X9479085Y7953556D01*
X9505614Y7933199D01*
X9517474Y7928286D01*
Y7313394D01*
X9503024Y7302305D01*
X9482667Y7275776D01*
X9469871Y7244882D01*
X9465506Y7211728D01*
Y7160928D01*
X9469871Y7127774D01*
X9482667Y7096880D01*
X9503024Y7070351D01*
X9529554Y7049994D01*
X9560448Y7037197D01*
X9593602Y7032832D01*
X9626755Y7037197D01*
X9657649Y7049994D01*
X9684179Y7070351D01*
X9704536Y7096880D01*
X9717333Y7127774D01*
X9721697Y7160928D01*
Y7211728D01*
X9717333Y7244882D01*
X9704536Y7275776D01*
X9684179Y7302305D01*
X9671190Y7312272D01*
Y7927681D01*
X9684510Y7933199D01*
X9711040Y7953556D01*
X9731397Y7980085D01*
X9744193Y8010980D01*
X9748558Y8044133D01*
X9744193Y8077287D01*
X9731397Y8108181D01*
X9711040Y8134711D01*
X9684510Y8155068D01*
X9662317Y8164260D01*
Y8178007D01*
X9684510Y8187199D01*
X9711040Y8207556D01*
X9731397Y8234085D01*
X9744193Y8264980D01*
X9748558Y8298133D01*
X9744193Y8331287D01*
X9731397Y8362181D01*
X9711040Y8388711D01*
X9684510Y8409068D01*
X9653616Y8421864D01*
X9620462Y8426229D01*
D02*
G37*
G36*
X3575800Y7330679D02*
X3213100D01*
Y6967979D01*
X3229945D01*
X3288306Y6977223D01*
X3344504Y6995482D01*
X3397152Y7022308D01*
X3444957Y7057040D01*
X3486739Y7098822D01*
X3521471Y7146627D01*
X3548297Y7199275D01*
X3566556Y7255473D01*
X3575800Y7313834D01*
Y7330679D01*
D02*
G37*
G36*
X3187700D02*
X2825000D01*
Y7313834D01*
X2834244Y7255473D01*
X2852503Y7199275D01*
X2879329Y7146627D01*
X2914061Y7098822D01*
X2955843Y7057040D01*
X3003648Y7022308D01*
X3056296Y6995482D01*
X3112494Y6977223D01*
X3170855Y6967979D01*
X3187700D01*
Y7330679D01*
D02*
G37*
G36*
X9915569Y7049492D02*
Y6935987D01*
X10005346D01*
Y6948687D01*
X10001854Y6975210D01*
X9991617Y6999926D01*
X9975331Y7021149D01*
X9954108Y7037435D01*
X9929392Y7047672D01*
X9915569Y7049492D01*
D02*
G37*
G36*
X9890169Y7049492D02*
X9876346Y7047672D01*
X9851631Y7037435D01*
X9830407Y7021149D01*
X9814122Y6999926D01*
X9803884Y6975210D01*
X9800392Y6948687D01*
Y6935987D01*
X9890169D01*
Y7049492D01*
D02*
G37*
G36*
Y6910587D02*
X9800392D01*
Y6897887D01*
X9803884Y6871364D01*
X9814122Y6846649D01*
X9830407Y6825425D01*
X9851631Y6809140D01*
X9876346Y6798902D01*
X9890169Y6797082D01*
Y6910587D01*
D02*
G37*
G36*
X10005346D02*
X9915569D01*
Y6797082D01*
X9929392Y6798902D01*
X9954108Y6809140D01*
X9975331Y6825425D01*
X9991617Y6846649D01*
X10001854Y6871364D01*
X10005346Y6897887D01*
Y6910587D01*
D02*
G37*
G36*
X10235612Y8426229D02*
X10184812D01*
X10151658Y8421864D01*
X10120764Y8409068D01*
X10094234Y8388711D01*
X10073877Y8362181D01*
X10061081Y8331287D01*
X10056716Y8298133D01*
X10061081Y8264980D01*
X10073877Y8234085D01*
X10094234Y8207556D01*
X10120764Y8187199D01*
X10142957Y8178007D01*
Y8164260D01*
X10120764Y8155068D01*
X10094234Y8134711D01*
X10073877Y8108181D01*
X10061081Y8077287D01*
X10056716Y8044133D01*
X10061081Y8010980D01*
X10073877Y7980085D01*
X10094234Y7953556D01*
X10120764Y7933199D01*
X10134317Y7927585D01*
Y7049054D01*
X10121559Y7039265D01*
X10101203Y7012735D01*
X10088406Y6981841D01*
X10084041Y6948687D01*
Y6897887D01*
X10088406Y6864734D01*
X10101203Y6833839D01*
X10121559Y6807310D01*
X10148089Y6786953D01*
X10178983Y6774156D01*
X10212137Y6769791D01*
X10245290Y6774156D01*
X10276185Y6786953D01*
X10302714Y6807310D01*
X10323071Y6833839D01*
X10335868Y6864734D01*
X10340233Y6897887D01*
Y6948687D01*
X10335868Y6981841D01*
X10323071Y7012735D01*
X10302714Y7039265D01*
X10288032Y7050531D01*
Y7928383D01*
X10299660Y7933199D01*
X10326189Y7953556D01*
X10346546Y7980085D01*
X10359343Y8010980D01*
X10363707Y8044133D01*
X10359343Y8077287D01*
X10346546Y8108181D01*
X10326189Y8134711D01*
X10299660Y8155068D01*
X10277467Y8164260D01*
Y8178007D01*
X10299660Y8187199D01*
X10326189Y8207556D01*
X10346546Y8234085D01*
X10359343Y8264980D01*
X10363707Y8298133D01*
X10359343Y8331287D01*
X10346546Y8362181D01*
X10326189Y8388711D01*
X10299660Y8409068D01*
X10268765Y8421864D01*
X10235612Y8426229D01*
D02*
G37*
G36*
X3318392Y6646025D02*
Y6509260D01*
X3391829D01*
Y6561560D01*
X3388894Y6583854D01*
X3380288Y6604629D01*
X3366600Y6622468D01*
X3348760Y6636157D01*
X3327986Y6644762D01*
X3318392Y6646025D01*
D02*
G37*
G36*
X3068392D02*
Y6509260D01*
X3141829D01*
Y6561560D01*
X3138894Y6583854D01*
X3130288Y6604629D01*
X3116600Y6622468D01*
X3098760Y6636157D01*
X3077986Y6644762D01*
X3068392Y6646025D01*
D02*
G37*
G36*
X3292992Y6646025D02*
X3283398Y6644762D01*
X3262623Y6636157D01*
X3244784Y6622468D01*
X3231095Y6604629D01*
X3222490Y6583854D01*
X3219555Y6561560D01*
Y6509260D01*
X3292992D01*
Y6646025D01*
D02*
G37*
G36*
X3042992D02*
X3033398Y6644762D01*
X3012623Y6636157D01*
X2994784Y6622468D01*
X2981095Y6604629D01*
X2972490Y6583854D01*
X2969555Y6561560D01*
Y6509260D01*
X3042992D01*
Y6646025D01*
D02*
G37*
G36*
X3292992Y6483860D02*
X3219555D01*
Y6431560D01*
X3222490Y6409266D01*
X3231095Y6388492D01*
X3244784Y6370652D01*
X3262623Y6356964D01*
X3283398Y6348358D01*
X3292992Y6347096D01*
Y6483860D01*
D02*
G37*
G36*
X3042992D02*
X2969555D01*
Y6431560D01*
X2972490Y6409266D01*
X2981095Y6388492D01*
X2994784Y6370652D01*
X3012623Y6356964D01*
X3033398Y6348358D01*
X3042992Y6347096D01*
Y6483860D01*
D02*
G37*
G36*
X3391829D02*
X3318392D01*
Y6347095D01*
X3327986Y6348358D01*
X3348760Y6356964D01*
X3366600Y6370652D01*
X3380288Y6388492D01*
X3388894Y6409266D01*
X3391829Y6431560D01*
Y6483860D01*
D02*
G37*
G36*
X3141829D02*
X3068392D01*
Y6347095D01*
X3077986Y6348358D01*
X3098760Y6356964D01*
X3116600Y6370652D01*
X3130288Y6388492D01*
X3138894Y6409266D01*
X3141829Y6431560D01*
Y6483860D01*
D02*
G37*
G36*
X3141092Y5796960D02*
X3068392D01*
Y5659260D01*
X3141092D01*
Y5796960D01*
D02*
G37*
G36*
X3042992D02*
X2970292D01*
Y5659260D01*
X3042992D01*
Y5796960D01*
D02*
G37*
G36*
X18744092Y5724978D02*
X18656792D01*
Y5561429D01*
X18919089D01*
X18916954Y5583114D01*
X18906924Y5616176D01*
X18890637Y5646648D01*
X18868718Y5673356D01*
X18842010Y5695274D01*
X18811539Y5711562D01*
X18778476Y5721591D01*
X18744092Y5724978D01*
D02*
G37*
G36*
X18631392D02*
X18544092D01*
X18509708Y5721591D01*
X18476643Y5711562D01*
X18446173Y5695274D01*
X18419466Y5673356D01*
X18397546Y5646648D01*
X18381259Y5616176D01*
X18371230Y5583114D01*
X18369093Y5561429D01*
X18631392D01*
Y5724978D01*
D02*
G37*
G36*
X21106825D02*
X21019527D01*
Y5561429D01*
X21281824D01*
X21279688Y5583114D01*
X21269659Y5616176D01*
X21253372Y5646648D01*
X21231453Y5673356D01*
X21204745Y5695274D01*
X21174274Y5711562D01*
X21141211Y5721591D01*
X21106825Y5724978D01*
D02*
G37*
G36*
X20994125D02*
X20906825D01*
X20872443Y5721591D01*
X20839378Y5711562D01*
X20808908Y5695274D01*
X20782201Y5673356D01*
X20760281Y5646648D01*
X20743994Y5616176D01*
X20733965Y5583114D01*
X20731828Y5561429D01*
X20994125D01*
Y5724978D01*
D02*
G37*
G36*
X3141092Y5633860D02*
X3068392D01*
Y5496160D01*
X3141092D01*
Y5633860D01*
D02*
G37*
G36*
X3042992D02*
X2970292D01*
Y5496160D01*
X3042992D01*
Y5633860D01*
D02*
G37*
G36*
X5800802Y5502007D02*
X5788102D01*
Y5412230D01*
X5901607D01*
X5899787Y5426053D01*
X5889550Y5450769D01*
X5873264Y5471992D01*
X5852041Y5488278D01*
X5827325Y5498515D01*
X5800802Y5502007D01*
D02*
G37*
G36*
X5762702D02*
X5750002D01*
X5723479Y5498515D01*
X5698764Y5488278D01*
X5677540Y5471992D01*
X5661255Y5450769D01*
X5651017Y5426053D01*
X5649197Y5412230D01*
X5762702D01*
Y5502007D01*
D02*
G37*
G36*
X6092906D02*
X6080206D01*
Y5412230D01*
X6193711D01*
X6191891Y5426053D01*
X6181654Y5450769D01*
X6165368Y5471992D01*
X6144144Y5488278D01*
X6119429Y5498515D01*
X6092906Y5502007D01*
D02*
G37*
G36*
X6054806D02*
X6042106D01*
X6015583Y5498515D01*
X5990868Y5488278D01*
X5969644Y5471992D01*
X5953358Y5450769D01*
X5943121Y5426053D01*
X5941301Y5412230D01*
X6054806D01*
Y5502007D01*
D02*
G37*
G36*
X21281824Y5536029D02*
X21019527D01*
Y5372480D01*
X21106825D01*
X21141211Y5375867D01*
X21174274Y5385897D01*
X21204745Y5402184D01*
X21231453Y5424102D01*
X21253372Y5450811D01*
X21269659Y5481282D01*
X21279688Y5514345D01*
X21281824Y5536029D01*
D02*
G37*
G36*
X20994125D02*
X20731828D01*
X20733965Y5514345D01*
X20743994Y5481282D01*
X20760281Y5450811D01*
X20782201Y5424102D01*
X20808908Y5402184D01*
X20839378Y5385897D01*
X20872443Y5375867D01*
X20906825Y5372480D01*
X20994125D01*
Y5536029D01*
D02*
G37*
G36*
X18919089Y5536029D02*
X18656792D01*
Y5372480D01*
X18744092D01*
X18778476Y5375867D01*
X18811539Y5385897D01*
X18842010Y5402184D01*
X18868718Y5424102D01*
X18890637Y5450811D01*
X18906924Y5481282D01*
X18916954Y5514345D01*
X18919089Y5536029D01*
D02*
G37*
G36*
X18631392D02*
X18369093D01*
X18371230Y5514345D01*
X18381259Y5481282D01*
X18397546Y5450811D01*
X18419466Y5424102D01*
X18446173Y5402184D01*
X18476643Y5385897D01*
X18509708Y5375867D01*
X18544092Y5372480D01*
X18631392D01*
Y5536029D01*
D02*
G37*
G36*
X14435333Y5388566D02*
X14321034D01*
Y5299666D01*
X14435333D01*
Y5388566D01*
D02*
G37*
G36*
X14295634D02*
X14181334D01*
Y5299666D01*
X14295634D01*
Y5388566D01*
D02*
G37*
G36*
X6193711Y5386830D02*
X6080206D01*
Y5297053D01*
X6092906D01*
X6119429Y5300545D01*
X6144144Y5310783D01*
X6165368Y5327068D01*
X6181654Y5348292D01*
X6191891Y5373007D01*
X6193711Y5386830D01*
D02*
G37*
G36*
X6054806D02*
X5941301D01*
X5943121Y5373007D01*
X5953358Y5348292D01*
X5969644Y5327068D01*
X5990868Y5310783D01*
X6015583Y5300545D01*
X6042106Y5297053D01*
X6054806D01*
Y5386830D01*
D02*
G37*
G36*
X5901607Y5386830D02*
X5788102D01*
Y5297053D01*
X5800802D01*
X5827325Y5300545D01*
X5852041Y5310783D01*
X5873264Y5327068D01*
X5889550Y5348292D01*
X5899787Y5373007D01*
X5901607Y5386830D01*
D02*
G37*
G36*
X5762702D02*
X5649197D01*
X5651017Y5373007D01*
X5661255Y5348292D01*
X5677540Y5327068D01*
X5698764Y5310783D01*
X5723479Y5300545D01*
X5750002Y5297053D01*
X5762702D01*
Y5386830D01*
D02*
G37*
G36*
X14435333Y5274266D02*
X14321034D01*
Y5185366D01*
X14435333D01*
Y5274266D01*
D02*
G37*
G36*
X14295634D02*
X14181334D01*
Y5185366D01*
X14295634D01*
Y5274266D01*
D02*
G37*
G36*
X5800802Y5248007D02*
X5788102D01*
Y5158230D01*
X5901607D01*
X5899787Y5172053D01*
X5889550Y5196769D01*
X5873264Y5217992D01*
X5852041Y5234278D01*
X5827325Y5244515D01*
X5800802Y5248007D01*
D02*
G37*
G36*
X5762702D02*
X5750002D01*
X5723479Y5244515D01*
X5698764Y5234278D01*
X5677540Y5217992D01*
X5661255Y5196769D01*
X5651017Y5172053D01*
X5649197Y5158230D01*
X5762702D01*
Y5248007D01*
D02*
G37*
G36*
X6092906D02*
X6080206D01*
Y5158230D01*
X6193711D01*
X6191891Y5172053D01*
X6181654Y5196769D01*
X6165368Y5217992D01*
X6144144Y5234278D01*
X6119429Y5244515D01*
X6092906Y5248007D01*
D02*
G37*
G36*
X6054806D02*
X6042106D01*
X6015583Y5244515D01*
X5990868Y5234278D01*
X5969644Y5217992D01*
X5953358Y5196769D01*
X5943121Y5172053D01*
X5941301Y5158230D01*
X6054806D01*
Y5248007D01*
D02*
G37*
G36*
X15051694Y5290633D02*
X15048102D01*
Y5137933D01*
X15200803D01*
Y5141524D01*
X15194446Y5173479D01*
X15181978Y5203580D01*
X15163876Y5230670D01*
X15140839Y5253708D01*
X15113748Y5271809D01*
X15083649Y5284277D01*
X15051694Y5290633D01*
D02*
G37*
G36*
X15022702D02*
X15019112D01*
X14987157Y5284277D01*
X14957056Y5271809D01*
X14929967Y5253708D01*
X14906927Y5230670D01*
X14888826Y5203580D01*
X14876358Y5173479D01*
X14870003Y5141524D01*
Y5137933D01*
X15022702D01*
Y5290633D01*
D02*
G37*
G36*
X16878838Y5199995D02*
X16816537D01*
Y5111429D01*
X16978432D01*
X16976653Y5124939D01*
X16966537Y5149362D01*
X16950444Y5170335D01*
X16929471Y5186428D01*
X16905048Y5196545D01*
X16878838Y5199995D01*
D02*
G37*
G36*
X16791138D02*
X16728838D01*
X16702628Y5196545D01*
X16678204Y5186428D01*
X16657231Y5170335D01*
X16641138Y5149362D01*
X16631023Y5124939D01*
X16629243Y5111429D01*
X16791138D01*
Y5199995D01*
D02*
G37*
G36*
X3318392Y5213662D02*
Y5076897D01*
X3391829D01*
Y5129198D01*
X3388894Y5151491D01*
X3380288Y5172266D01*
X3366600Y5190105D01*
X3348760Y5203794D01*
X3327986Y5212399D01*
X3318392Y5213662D01*
D02*
G37*
G36*
X3068392D02*
Y5076897D01*
X3141829D01*
Y5129198D01*
X3138894Y5151491D01*
X3130288Y5172266D01*
X3116600Y5190105D01*
X3098760Y5203794D01*
X3077986Y5212399D01*
X3068392Y5213662D01*
D02*
G37*
G36*
X3292992Y5213662D02*
X3283398Y5212399D01*
X3262623Y5203794D01*
X3244784Y5190105D01*
X3231095Y5172266D01*
X3222490Y5151491D01*
X3219555Y5129198D01*
Y5076897D01*
X3292992D01*
Y5213662D01*
D02*
G37*
G36*
X3042992D02*
X3033398Y5212399D01*
X3012623Y5203794D01*
X2994784Y5190105D01*
X2981095Y5172266D01*
X2972490Y5151491D01*
X2969555Y5129198D01*
Y5076897D01*
X3042992D01*
Y5213662D01*
D02*
G37*
G36*
X13908269Y5159858D02*
Y5046352D01*
X13998045D01*
Y5059053D01*
X13994553Y5085576D01*
X13984315Y5110291D01*
X13968030Y5131515D01*
X13946806Y5147800D01*
X13922092Y5158038D01*
X13908269Y5159858D01*
D02*
G37*
G36*
X13882867Y5159857D02*
X13869044Y5158038D01*
X13844330Y5147800D01*
X13823106Y5131515D01*
X13806821Y5110291D01*
X13796584Y5085576D01*
X13793092Y5059053D01*
Y5046352D01*
X13882867D01*
Y5159857D01*
D02*
G37*
G36*
X6193711Y5132830D02*
X6080206D01*
Y5043053D01*
X6092906D01*
X6119429Y5046545D01*
X6144144Y5056783D01*
X6165368Y5073068D01*
X6181654Y5094292D01*
X6191891Y5119007D01*
X6193711Y5132830D01*
D02*
G37*
G36*
X6054806D02*
X5941301D01*
X5943121Y5119007D01*
X5953358Y5094292D01*
X5969644Y5073068D01*
X5990868Y5056783D01*
X6015583Y5046545D01*
X6042106Y5043053D01*
X6054806D01*
Y5132830D01*
D02*
G37*
G36*
X5901607Y5132830D02*
X5788102D01*
Y5043053D01*
X5800802D01*
X5827325Y5046545D01*
X5852041Y5056783D01*
X5873264Y5073068D01*
X5889550Y5094292D01*
X5899787Y5119007D01*
X5901607Y5132830D01*
D02*
G37*
G36*
X5762702D02*
X5649197D01*
X5651017Y5119007D01*
X5661255Y5094292D01*
X5677540Y5073068D01*
X5698764Y5056783D01*
X5723479Y5046545D01*
X5750002Y5043053D01*
X5762702D01*
Y5132830D01*
D02*
G37*
G36*
X16978432Y5086029D02*
X16816537D01*
Y4997463D01*
X16878838D01*
X16905048Y5000913D01*
X16929471Y5011030D01*
X16950444Y5027123D01*
X16966537Y5048096D01*
X16976653Y5072519D01*
X16978432Y5086029D01*
D02*
G37*
G36*
X16791138D02*
X16629243D01*
X16631023Y5072519D01*
X16641138Y5048096D01*
X16657231Y5027123D01*
X16678204Y5011030D01*
X16702628Y5000913D01*
X16728838Y4997463D01*
X16791138D01*
Y5086029D01*
D02*
G37*
G36*
X11026185Y10441515D02*
X10989401D01*
X10953871Y10431995D01*
X10922015Y10413603D01*
X10896005Y10387593D01*
X10877613Y10355737D01*
X10868093Y10320207D01*
Y10283423D01*
X10877613Y10247893D01*
X10892507Y10222097D01*
Y8687747D01*
X10896435Y8657909D01*
X10907952Y8630103D01*
X10926273Y8606227D01*
X11323356Y8209144D01*
Y6725007D01*
X11322665Y6724476D01*
X11302308Y6697947D01*
X11289511Y6667052D01*
X11285146Y6633899D01*
X11289511Y6600745D01*
X11302308Y6569851D01*
X11322665Y6543321D01*
X11323356Y6542791D01*
Y6471007D01*
X11322665Y6470476D01*
X11302308Y6443947D01*
X11289511Y6413052D01*
X11285146Y6379899D01*
X11289511Y6346745D01*
X11302308Y6315851D01*
X11322665Y6289321D01*
X11323356Y6288791D01*
Y6217007D01*
X11322665Y6216476D01*
X11302308Y6189947D01*
X11289511Y6159052D01*
X11285146Y6125899D01*
X11289511Y6092745D01*
X11302308Y6061851D01*
X11322665Y6035321D01*
X11323356Y6034791D01*
Y5963007D01*
X11322665Y5962476D01*
X11302308Y5935947D01*
X11289511Y5905052D01*
X11285146Y5871899D01*
X11289511Y5838745D01*
X11302308Y5807851D01*
X11322665Y5781321D01*
X11323356Y5780791D01*
Y5709007D01*
X11322665Y5708476D01*
X11302308Y5681947D01*
X11289511Y5651052D01*
X11285146Y5617899D01*
X11289511Y5584745D01*
X11302308Y5553851D01*
X11322665Y5527321D01*
X11323356Y5526791D01*
Y5455007D01*
X11322665Y5454476D01*
X11302308Y5427947D01*
X11289511Y5397052D01*
X11285146Y5363899D01*
X11289511Y5330745D01*
X11302308Y5299851D01*
X11322665Y5273321D01*
X11323356Y5272791D01*
Y5201007D01*
X11322665Y5200476D01*
X11302308Y5173947D01*
X11289511Y5143052D01*
X11285146Y5109899D01*
X11289511Y5076745D01*
X11302308Y5045851D01*
X11322665Y5019321D01*
X11349194Y4998965D01*
X11380088Y4986168D01*
X11413242Y4981803D01*
X11464042D01*
X11497196Y4986168D01*
X11528090Y4998965D01*
X11554620Y5019321D01*
X11574976Y5045851D01*
X11587773Y5076745D01*
X11592138Y5109899D01*
X11587773Y5143052D01*
X11574976Y5173947D01*
X11554620Y5200476D01*
X11553928Y5201007D01*
Y5272791D01*
X11554620Y5273321D01*
X11574976Y5299851D01*
X11587773Y5330745D01*
X11592138Y5363899D01*
X11587773Y5397052D01*
X11574976Y5427947D01*
X11554620Y5454476D01*
X11553928Y5455007D01*
Y5526791D01*
X11554620Y5527321D01*
X11574976Y5553851D01*
X11587773Y5584745D01*
X11592138Y5617899D01*
X11587773Y5651052D01*
X11574976Y5681947D01*
X11554620Y5708476D01*
X11553928Y5709007D01*
Y5780791D01*
X11554620Y5781321D01*
X11574976Y5807851D01*
X11587773Y5838745D01*
X11592138Y5871899D01*
X11587773Y5905052D01*
X11574976Y5935947D01*
X11554620Y5962476D01*
X11553928Y5963007D01*
Y6034791D01*
X11554620Y6035321D01*
X11574976Y6061851D01*
X11587773Y6092745D01*
X11592138Y6125899D01*
X11587773Y6159052D01*
X11574976Y6189947D01*
X11554620Y6216476D01*
X11553928Y6217007D01*
Y6288791D01*
X11554620Y6289321D01*
X11574976Y6315851D01*
X11587773Y6346745D01*
X11592138Y6379899D01*
X11587773Y6413052D01*
X11574976Y6443947D01*
X11554620Y6470476D01*
X11553928Y6471007D01*
Y6542791D01*
X11554620Y6543321D01*
X11574976Y6569851D01*
X11587773Y6600745D01*
X11592138Y6633899D01*
X11587773Y6667052D01*
X11574976Y6697947D01*
X11554620Y6724476D01*
X11553928Y6725007D01*
Y8256898D01*
X11550000Y8286736D01*
X11538483Y8314541D01*
X11520162Y8338417D01*
X11123079Y8735500D01*
Y10222097D01*
X11137973Y10247893D01*
X11147493Y10283423D01*
Y10320207D01*
X11137973Y10355737D01*
X11119581Y10387593D01*
X11093571Y10413603D01*
X11061715Y10431995D01*
X11026185Y10441515D01*
D02*
G37*
G36*
X15200803Y5112533D02*
X15048102D01*
Y4959833D01*
X15051694D01*
X15083649Y4966189D01*
X15113748Y4978658D01*
X15140839Y4996759D01*
X15163876Y5019797D01*
X15181978Y5046887D01*
X15194446Y5076988D01*
X15200803Y5108943D01*
Y5112533D01*
D02*
G37*
G36*
X15022702D02*
X14870003D01*
Y5108943D01*
X14876358Y5076988D01*
X14888826Y5046887D01*
X14906927Y5019797D01*
X14929967Y4996759D01*
X14957056Y4978658D01*
X14987157Y4966189D01*
X15019112Y4959833D01*
X15022702D01*
Y5112533D01*
D02*
G37*
G36*
X3292992Y5051497D02*
X3219555D01*
Y4999197D01*
X3222490Y4976903D01*
X3231095Y4956129D01*
X3244784Y4938289D01*
X3262623Y4924601D01*
X3283398Y4915996D01*
X3292992Y4914733D01*
Y5051497D01*
D02*
G37*
G36*
X3042992D02*
X2969555D01*
Y4999197D01*
X2972490Y4976903D01*
X2981095Y4956129D01*
X2994784Y4938289D01*
X3012623Y4924601D01*
X3033398Y4915996D01*
X3042992Y4914733D01*
Y5051497D01*
D02*
G37*
G36*
X3391829D02*
X3318392D01*
Y4914732D01*
X3327986Y4915996D01*
X3348760Y4924601D01*
X3366600Y4938289D01*
X3380288Y4956129D01*
X3388894Y4976903D01*
X3391829Y4999197D01*
Y5051497D01*
D02*
G37*
G36*
X3141829D02*
X3068392D01*
Y4914732D01*
X3077986Y4915996D01*
X3098760Y4924601D01*
X3116600Y4938289D01*
X3130288Y4956129D01*
X3138894Y4976903D01*
X3141829Y4999197D01*
Y5051497D01*
D02*
G37*
G36*
X5800802Y4994007D02*
X5788102D01*
Y4904230D01*
X5901607D01*
X5899787Y4918053D01*
X5889550Y4942769D01*
X5873264Y4963992D01*
X5852041Y4980278D01*
X5827325Y4990515D01*
X5800802Y4994007D01*
D02*
G37*
G36*
X5762702D02*
X5750002D01*
X5723479Y4990515D01*
X5698764Y4980278D01*
X5677540Y4963992D01*
X5661255Y4942769D01*
X5651017Y4918053D01*
X5649197Y4904230D01*
X5762702D01*
Y4994007D01*
D02*
G37*
G36*
X6092906D02*
X6080206D01*
Y4904230D01*
X6193711D01*
X6191891Y4918053D01*
X6181654Y4942769D01*
X6165368Y4963992D01*
X6144144Y4980278D01*
X6119429Y4990515D01*
X6092906Y4994007D01*
D02*
G37*
G36*
X6054806D02*
X6042106D01*
X6015583Y4990515D01*
X5990868Y4980278D01*
X5969644Y4963992D01*
X5953358Y4942769D01*
X5943121Y4918053D01*
X5941301Y4904230D01*
X6054806D01*
Y4994007D01*
D02*
G37*
G36*
Y4878830D02*
X5941301D01*
X5943121Y4865007D01*
X5953358Y4840292D01*
X5969644Y4819068D01*
X5990868Y4802783D01*
X6015583Y4792545D01*
X6042106Y4789053D01*
X6054806D01*
Y4878830D01*
D02*
G37*
G36*
X5901607Y4878830D02*
X5788102D01*
Y4789053D01*
X5800802D01*
X5827325Y4792545D01*
X5852041Y4802783D01*
X5873264Y4819068D01*
X5889550Y4840292D01*
X5899787Y4865007D01*
X5901607Y4878830D01*
D02*
G37*
G36*
X5762702D02*
X5649197D01*
X5651017Y4865007D01*
X5661255Y4840292D01*
X5677540Y4819068D01*
X5698764Y4802783D01*
X5723479Y4792545D01*
X5750002Y4789053D01*
X5762702D01*
Y4878830D01*
D02*
G37*
G36*
X9297034Y4765845D02*
Y4652340D01*
X9386811D01*
Y4665040D01*
X9383319Y4691563D01*
X9373082Y4716278D01*
X9356796Y4737502D01*
X9335572Y4753787D01*
X9310857Y4764025D01*
X9297034Y4765845D01*
D02*
G37*
G36*
X9271634D02*
X9257811Y4764025D01*
X9233096Y4753787D01*
X9211872Y4737502D01*
X9195586Y4716278D01*
X9185349Y4691563D01*
X9181857Y4665040D01*
Y4652340D01*
X9271634D01*
Y4765845D01*
D02*
G37*
G36*
X9386811Y4626940D02*
X9297034D01*
Y4513435D01*
X9310857Y4515255D01*
X9335572Y4525492D01*
X9356796Y4541778D01*
X9373082Y4563001D01*
X9383319Y4587717D01*
X9386811Y4614240D01*
Y4626940D01*
D02*
G37*
G36*
X9271634D02*
X9181857D01*
Y4614240D01*
X9185349Y4587717D01*
X9195586Y4563001D01*
X9211872Y4541778D01*
X9233096Y4525492D01*
X9257811Y4515255D01*
X9271634Y4513435D01*
Y4626940D01*
D02*
G37*
G36*
X8678499Y4511191D02*
Y4397686D01*
X8768276D01*
Y4410386D01*
X8764784Y4436909D01*
X8754546Y4461625D01*
X8738261Y4482849D01*
X8717037Y4499134D01*
X8692322Y4509371D01*
X8678499Y4511191D01*
D02*
G37*
G36*
X8653099Y4511191D02*
X8639276Y4509371D01*
X8614560Y4499134D01*
X8593337Y4482849D01*
X8577051Y4461625D01*
X8566814Y4436909D01*
X8563322Y4410386D01*
Y4397686D01*
X8653099D01*
Y4511191D01*
D02*
G37*
G36*
X8768276Y4372286D02*
X8678499D01*
Y4258782D01*
X8692322Y4260601D01*
X8717037Y4270839D01*
X8738261Y4287124D01*
X8754546Y4308348D01*
X8764784Y4333063D01*
X8768276Y4359586D01*
Y4372286D01*
D02*
G37*
G36*
X8653099D02*
X8563322D01*
Y4359586D01*
X8566814Y4333063D01*
X8577051Y4308348D01*
X8593337Y4287124D01*
X8614560Y4270839D01*
X8639276Y4260601D01*
X8653099Y4258781D01*
Y4372286D01*
D02*
G37*
G36*
X3141092Y4364597D02*
X3068392D01*
Y4226897D01*
X3141092D01*
Y4364597D01*
D02*
G37*
G36*
X3042992D02*
X2970292D01*
Y4226897D01*
X3042992D01*
Y4364597D01*
D02*
G37*
G36*
X8059964Y4256834D02*
Y4143329D01*
X8149740D01*
Y4156029D01*
X8146249Y4182552D01*
X8136011Y4207267D01*
X8119726Y4228491D01*
X8098502Y4244776D01*
X8073786Y4255014D01*
X8059964Y4256834D01*
D02*
G37*
G36*
X8034564D02*
X8020741Y4255014D01*
X7996025Y4244776D01*
X7974801Y4228491D01*
X7958516Y4207267D01*
X7948278Y4182552D01*
X7944787Y4156029D01*
Y4143329D01*
X8034564D01*
Y4256834D01*
D02*
G37*
G36*
X3141092Y4201497D02*
X3068392D01*
Y4063797D01*
X3141092D01*
Y4201497D01*
D02*
G37*
G36*
X3042992D02*
X2970292D01*
Y4063797D01*
X3042992D01*
Y4201497D01*
D02*
G37*
G36*
X8149740Y4117929D02*
X8059964D01*
Y4004424D01*
X8073786Y4006244D01*
X8098502Y4016481D01*
X8119726Y4032767D01*
X8136011Y4053990D01*
X8146249Y4078706D01*
X8149740Y4105229D01*
Y4117929D01*
D02*
G37*
G36*
X8034564D02*
X7944787D01*
Y4105229D01*
X7948278Y4078706D01*
X7958516Y4053990D01*
X7974801Y4032767D01*
X7996025Y4016481D01*
X8020741Y4006244D01*
X8034564Y4004424D01*
Y4117929D01*
D02*
G37*
G36*
X17159438Y3952681D02*
X17070537D01*
Y3838381D01*
X17159438D01*
Y3952681D01*
D02*
G37*
G36*
X17045137D02*
X16956236D01*
Y3838381D01*
X17045137D01*
Y3952681D01*
D02*
G37*
G36*
X17159438Y3812981D02*
X17070537D01*
Y3698681D01*
X17159438D01*
Y3812981D01*
D02*
G37*
G36*
X17045137D02*
X16956236D01*
Y3698681D01*
X17045137D01*
Y3812981D01*
D02*
G37*
G36*
X5800802Y3724007D02*
X5788102D01*
Y3634230D01*
X5901607D01*
X5899787Y3648053D01*
X5889550Y3672769D01*
X5873264Y3693992D01*
X5852041Y3710278D01*
X5827325Y3720515D01*
X5800802Y3724007D01*
D02*
G37*
G36*
X5762702D02*
X5750002D01*
X5723479Y3720515D01*
X5698764Y3710278D01*
X5677540Y3693992D01*
X5661255Y3672769D01*
X5651017Y3648053D01*
X5649197Y3634230D01*
X5762702D01*
Y3724007D01*
D02*
G37*
G36*
X6092906D02*
X6080206D01*
Y3634230D01*
X6193711D01*
X6191891Y3648053D01*
X6181654Y3672769D01*
X6165368Y3693992D01*
X6144144Y3710278D01*
X6119429Y3720515D01*
X6092906Y3724007D01*
D02*
G37*
G36*
X6054806D02*
X6042106D01*
X6015583Y3720515D01*
X5990868Y3710278D01*
X5969644Y3693992D01*
X5953358Y3672769D01*
X5943121Y3648053D01*
X5941301Y3634230D01*
X6054806D01*
Y3724007D01*
D02*
G37*
G36*
X6193711Y3608830D02*
X6080206D01*
Y3519053D01*
X6092906D01*
X6119429Y3522545D01*
X6144144Y3532783D01*
X6165368Y3549068D01*
X6181654Y3570292D01*
X6191891Y3595007D01*
X6193711Y3608830D01*
D02*
G37*
G36*
X6054806D02*
X5941301D01*
X5943121Y3595007D01*
X5953358Y3570292D01*
X5969644Y3549068D01*
X5990868Y3532783D01*
X6015583Y3522545D01*
X6042106Y3519053D01*
X6054806D01*
Y3608830D01*
D02*
G37*
G36*
X5901607Y3608830D02*
X5788102D01*
Y3519053D01*
X5800802D01*
X5827325Y3522545D01*
X5852041Y3532783D01*
X5873264Y3549068D01*
X5889550Y3570292D01*
X5899787Y3595007D01*
X5901607Y3608830D01*
D02*
G37*
G36*
X5762702D02*
X5649197D01*
X5651017Y3595007D01*
X5661255Y3570292D01*
X5677540Y3549068D01*
X5698764Y3532783D01*
X5723479Y3522545D01*
X5750002Y3519053D01*
X5762702D01*
Y3608830D01*
D02*
G37*
G36*
X9593602Y4793135D02*
X9560448Y4788771D01*
X9529554Y4775974D01*
X9503024Y4755617D01*
X9482667Y4729088D01*
X9469871Y4698193D01*
X9465506Y4665040D01*
Y4614240D01*
X9469871Y4581086D01*
X9482667Y4550192D01*
X9503024Y4523662D01*
X9516464Y4513350D01*
Y3845158D01*
X9503593Y3839826D01*
X9477063Y3819470D01*
X9456706Y3792940D01*
X9443909Y3762046D01*
X9439545Y3728892D01*
X9443909Y3695739D01*
X9456706Y3664844D01*
X9477063Y3638315D01*
X9503593Y3617958D01*
X9525785Y3608765D01*
Y3595019D01*
X9503593Y3585826D01*
X9477063Y3565470D01*
X9456706Y3538940D01*
X9443909Y3508046D01*
X9439545Y3474892D01*
X9443909Y3441739D01*
X9456706Y3410844D01*
X9477063Y3384315D01*
X9503593Y3363958D01*
X9534487Y3351161D01*
X9567641Y3346796D01*
X9618441D01*
X9651594Y3351161D01*
X9682488Y3363958D01*
X9709018Y3384315D01*
X9729375Y3410844D01*
X9742172Y3441739D01*
X9746536Y3474892D01*
X9742172Y3508046D01*
X9729375Y3538940D01*
X9709018Y3565470D01*
X9682488Y3585826D01*
X9660296Y3595019D01*
Y3608765D01*
X9682488Y3617958D01*
X9709018Y3638315D01*
X9729375Y3664844D01*
X9742172Y3695739D01*
X9746536Y3728892D01*
X9742172Y3762046D01*
X9729375Y3792940D01*
X9709018Y3819470D01*
X9682488Y3839826D01*
X9670179Y3844925D01*
Y4512920D01*
X9684179Y4523662D01*
X9704536Y4550192D01*
X9717333Y4581086D01*
X9721697Y4614240D01*
Y4665040D01*
X9717333Y4698193D01*
X9704536Y4729088D01*
X9684179Y4755617D01*
X9657649Y4775974D01*
X9626755Y4788771D01*
X9593602Y4793135D01*
D02*
G37*
G36*
X8975066Y4538482D02*
X8941913Y4534117D01*
X8911019Y4521321D01*
X8884489Y4500964D01*
X8864132Y4474434D01*
X8851335Y4443540D01*
X8846971Y4410386D01*
Y4359586D01*
X8851335Y4326433D01*
X8864132Y4295539D01*
X8884489Y4269009D01*
X8899374Y4257587D01*
Y3844559D01*
X8887949Y3839826D01*
X8861420Y3819470D01*
X8841063Y3792940D01*
X8828266Y3762046D01*
X8823902Y3728892D01*
X8828266Y3695739D01*
X8841063Y3664844D01*
X8861420Y3638315D01*
X8887949Y3617958D01*
X8910142Y3608765D01*
Y3595019D01*
X8887949Y3585826D01*
X8861420Y3565470D01*
X8841063Y3538940D01*
X8828266Y3508046D01*
X8823902Y3474892D01*
X8828266Y3441739D01*
X8841063Y3410844D01*
X8861420Y3384315D01*
X8887949Y3363958D01*
X8918844Y3351161D01*
X8951997Y3346796D01*
X9002797D01*
X9035951Y3351161D01*
X9066845Y3363958D01*
X9093375Y3384315D01*
X9113732Y3410844D01*
X9126528Y3441739D01*
X9130893Y3474892D01*
X9126528Y3508046D01*
X9113732Y3538940D01*
X9093375Y3565470D01*
X9066845Y3585826D01*
X9044652Y3595019D01*
Y3608765D01*
X9066845Y3617958D01*
X9093375Y3638315D01*
X9113732Y3664844D01*
X9126528Y3695739D01*
X9130893Y3728892D01*
X9126528Y3762046D01*
X9113732Y3792940D01*
X9093375Y3819470D01*
X9066845Y3839826D01*
X9053090Y3845524D01*
Y4259376D01*
X9065644Y4269009D01*
X9086001Y4295539D01*
X9098797Y4326433D01*
X9103162Y4359586D01*
Y4410386D01*
X9098797Y4443540D01*
X9086001Y4474434D01*
X9065644Y4500964D01*
X9039114Y4521321D01*
X9008220Y4534117D01*
X8975066Y4538482D01*
D02*
G37*
G36*
X8356531Y4284125D02*
X8323378Y4279760D01*
X8292483Y4266963D01*
X8265954Y4246606D01*
X8245597Y4220077D01*
X8232800Y4189182D01*
X8228435Y4156029D01*
Y4105229D01*
X8232800Y4072075D01*
X8245597Y4041181D01*
X8265954Y4014651D01*
X8279595Y4004184D01*
Y3845074D01*
X8266926Y3839826D01*
X8240397Y3819470D01*
X8220040Y3792940D01*
X8207243Y3762046D01*
X8202878Y3728892D01*
X8207243Y3695739D01*
X8220040Y3664844D01*
X8240397Y3638315D01*
X8266926Y3617958D01*
X8289119Y3608765D01*
Y3595019D01*
X8266926Y3585826D01*
X8240397Y3565470D01*
X8220040Y3538940D01*
X8207243Y3508046D01*
X8202878Y3474892D01*
X8207243Y3441739D01*
X8220040Y3410844D01*
X8240397Y3384315D01*
X8266926Y3363958D01*
X8297820Y3351161D01*
X8330974Y3346796D01*
X8381774D01*
X8414928Y3351161D01*
X8445822Y3363958D01*
X8472351Y3384315D01*
X8492708Y3410844D01*
X8505505Y3441739D01*
X8509870Y3474892D01*
X8505505Y3508046D01*
X8492708Y3538940D01*
X8472351Y3565470D01*
X8445822Y3585826D01*
X8423629Y3595019D01*
Y3608765D01*
X8445822Y3617958D01*
X8472351Y3638315D01*
X8492708Y3664844D01*
X8505505Y3695739D01*
X8509870Y3728892D01*
X8505505Y3762046D01*
X8492708Y3792940D01*
X8472351Y3819470D01*
X8445822Y3839826D01*
X8433310Y3845009D01*
Y4004064D01*
X8447109Y4014651D01*
X8467465Y4041181D01*
X8480262Y4072075D01*
X8484627Y4105229D01*
Y4156029D01*
X8480262Y4189182D01*
X8467465Y4220077D01*
X8447109Y4246606D01*
X8420579Y4266963D01*
X8389685Y4279760D01*
X8356531Y4284125D01*
D02*
G37*
G36*
X17083237Y3434646D02*
X17070537D01*
Y3344869D01*
X17184042D01*
X17182222Y3358692D01*
X17171985Y3383408D01*
X17155699Y3404631D01*
X17134476Y3420917D01*
X17109760Y3431154D01*
X17083237Y3434646D01*
D02*
G37*
G36*
X9618441Y3323369D02*
X9605741D01*
Y3233592D01*
X9719245D01*
X9717426Y3247415D01*
X9707188Y3272131D01*
X9690903Y3293354D01*
X9669679Y3309640D01*
X9644963Y3319877D01*
X9618441Y3323369D01*
D02*
G37*
G36*
X9002797D02*
X8990097D01*
Y3233592D01*
X9103602D01*
X9101782Y3247415D01*
X9091545Y3272131D01*
X9075259Y3293354D01*
X9054036Y3309640D01*
X9029320Y3319877D01*
X9002797Y3323369D01*
D02*
G37*
G36*
X9580341D02*
X9567641D01*
X9541118Y3319877D01*
X9516402Y3309640D01*
X9495178Y3293354D01*
X9478893Y3272131D01*
X9468655Y3247415D01*
X9466836Y3233592D01*
X9580341D01*
Y3323369D01*
D02*
G37*
G36*
X8964697D02*
X8951997D01*
X8925474Y3319877D01*
X8900759Y3309640D01*
X8879535Y3293354D01*
X8863250Y3272131D01*
X8853012Y3247415D01*
X8851192Y3233592D01*
X8964697D01*
Y3323369D01*
D02*
G37*
G36*
X17184042Y3319469D02*
X17070537D01*
Y3229692D01*
X17083237D01*
X17109760Y3233184D01*
X17134476Y3243422D01*
X17155699Y3259707D01*
X17171985Y3280931D01*
X17182222Y3305646D01*
X17184042Y3319469D01*
D02*
G37*
G36*
X23029245Y3575800D02*
X23012399D01*
Y3213100D01*
X23375101D01*
Y3229945D01*
X23365855Y3288306D01*
X23347597Y3344504D01*
X23320770Y3397152D01*
X23286040Y3444957D01*
X23244257Y3486739D01*
X23196452Y3521471D01*
X23143803Y3548297D01*
X23087605Y3566556D01*
X23029245Y3575800D01*
D02*
G37*
G36*
X22987000D02*
X22970155D01*
X22911794Y3566556D01*
X22855595Y3548297D01*
X22802948Y3521471D01*
X22755144Y3486739D01*
X22713361Y3444957D01*
X22678629Y3397152D01*
X22651804Y3344504D01*
X22633543Y3288306D01*
X22624300Y3229945D01*
Y3213100D01*
X22987000D01*
Y3575800D01*
D02*
G37*
G36*
X3229945D02*
X3213100D01*
Y3213100D01*
X3575800D01*
Y3229945D01*
X3566556Y3288306D01*
X3548297Y3344504D01*
X3521471Y3397152D01*
X3486739Y3444957D01*
X3444957Y3486739D01*
X3397152Y3521471D01*
X3344504Y3548297D01*
X3288306Y3566556D01*
X3229945Y3575800D01*
D02*
G37*
G36*
X3187700D02*
X3170855D01*
X3112494Y3566556D01*
X3056296Y3548297D01*
X3003648Y3521471D01*
X2955843Y3486739D01*
X2914061Y3444957D01*
X2879329Y3397152D01*
X2852503Y3344504D01*
X2834244Y3288306D01*
X2825000Y3229945D01*
Y3213100D01*
X3187700D01*
Y3575800D01*
D02*
G37*
G36*
X9719245Y3208192D02*
X9605741D01*
Y3118415D01*
X9618441D01*
X9644963Y3121907D01*
X9669679Y3132145D01*
X9690903Y3148430D01*
X9707188Y3169654D01*
X9717426Y3194369D01*
X9719245Y3208192D01*
D02*
G37*
G36*
X9580341D02*
X9466836D01*
X9468655Y3194369D01*
X9478893Y3169654D01*
X9495178Y3148430D01*
X9516402Y3132145D01*
X9541118Y3121907D01*
X9567641Y3118415D01*
X9580341D01*
Y3208192D01*
D02*
G37*
G36*
X9103602D02*
X8990097D01*
Y3118415D01*
X9002797D01*
X9029320Y3121907D01*
X9054036Y3132145D01*
X9075259Y3148430D01*
X9091545Y3169654D01*
X9101782Y3194369D01*
X9103602Y3208192D01*
D02*
G37*
G36*
X8964697D02*
X8851192D01*
X8853012Y3194369D01*
X8863250Y3169654D01*
X8879535Y3148430D01*
X8900759Y3132145D01*
X8925474Y3121907D01*
X8951997Y3118415D01*
X8964697D01*
Y3208192D01*
D02*
G37*
G36*
X17337238Y3193508D02*
X17324538D01*
Y3103732D01*
X17438042D01*
X17436221Y3117555D01*
X17425986Y3142270D01*
X17409698Y3163494D01*
X17388477Y3179779D01*
X17363760Y3190017D01*
X17337238Y3193508D01*
D02*
G37*
G36*
X17299136D02*
X17286436D01*
X17259914Y3190017D01*
X17235199Y3179779D01*
X17213976Y3163494D01*
X17197690Y3142270D01*
X17187453Y3117555D01*
X17185632Y3103732D01*
X17299136D01*
Y3193508D01*
D02*
G37*
G36*
X8381774Y3323369D02*
X8330974D01*
X8304451Y3319877D01*
X8279736Y3309640D01*
X8258512Y3293354D01*
X8242226Y3272131D01*
X8231989Y3247415D01*
X8228497Y3220892D01*
X8231989Y3194369D01*
X8242226Y3169654D01*
X8258512Y3148430D01*
X8279736Y3132145D01*
X8289101Y3128265D01*
X8289271Y3127856D01*
X8301485Y3111938D01*
X8302027Y3111396D01*
X8317945Y3099182D01*
X8336482Y3091503D01*
X8356374Y3088884D01*
X8376266Y3091503D01*
X8394803Y3099182D01*
X8410721Y3111396D01*
X8422935Y3127313D01*
X8423263Y3128106D01*
X8433012Y3132145D01*
X8454236Y3148430D01*
X8470522Y3169654D01*
X8480759Y3194369D01*
X8484251Y3220892D01*
X8480759Y3247415D01*
X8470522Y3272131D01*
X8454236Y3293354D01*
X8433012Y3309640D01*
X8408297Y3319877D01*
X8381774Y3323369D01*
D02*
G37*
G36*
X17438042Y3078332D02*
X17324538D01*
Y2988555D01*
X17337238D01*
X17363760Y2992047D01*
X17388477Y3002284D01*
X17409698Y3018570D01*
X17425986Y3039793D01*
X17436221Y3064509D01*
X17438042Y3078332D01*
D02*
G37*
G36*
X17299136D02*
X17185632D01*
X17187453Y3064509D01*
X17197690Y3039793D01*
X17213976Y3018570D01*
X17235199Y3002284D01*
X17259914Y2992047D01*
X17286436Y2988555D01*
X17299136D01*
Y3078332D01*
D02*
G37*
G36*
X23375101Y3187700D02*
X23012399D01*
Y2825000D01*
X23029245D01*
X23087605Y2834244D01*
X23143803Y2852503D01*
X23196452Y2879329D01*
X23244257Y2914061D01*
X23286040Y2955843D01*
X23320770Y3003648D01*
X23347597Y3056296D01*
X23365855Y3112494D01*
X23375101Y3170855D01*
Y3187700D01*
D02*
G37*
G36*
X22987000D02*
X22624300D01*
Y3170855D01*
X22633543Y3112494D01*
X22651804Y3056296D01*
X22678629Y3003648D01*
X22713361Y2955843D01*
X22755144Y2914061D01*
X22802948Y2879329D01*
X22855595Y2852503D01*
X22911794Y2834244D01*
X22970155Y2825000D01*
X22987000D01*
Y3187700D01*
D02*
G37*
G36*
X3575800D02*
X3213100D01*
Y2825000D01*
X3229945D01*
X3288306Y2834244D01*
X3344504Y2852503D01*
X3397152Y2879329D01*
X3444957Y2914061D01*
X3486739Y2955843D01*
X3521471Y3003648D01*
X3548297Y3056296D01*
X3566556Y3112494D01*
X3575800Y3170855D01*
Y3187700D01*
D02*
G37*
G36*
X3187700D02*
X2825000D01*
Y3170855D01*
X2834244Y3112494D01*
X2852503Y3056296D01*
X2879329Y3003648D01*
X2914061Y2955843D01*
X2955843Y2914061D01*
X3003648Y2879329D01*
X3056296Y2852503D01*
X3112494Y2834244D01*
X3170855Y2825000D01*
X3187700D01*
Y3187700D01*
D02*
G37*
%LPD*%
G36*
X16342368Y12571606D02*
X16364560Y12562413D01*
Y12548667D01*
X16342368Y12539474D01*
X16315837Y12519117D01*
X16299104Y12497311D01*
X16298209Y12497193D01*
X16279672Y12489515D01*
X16263754Y12477300D01*
X16263753Y12477299D01*
X16089168Y12302714D01*
X16076955Y12286797D01*
X16069276Y12268260D01*
X16066656Y12248368D01*
Y12220496D01*
X16053957Y12217970D01*
X16051685Y12223456D01*
X16035399Y12244680D01*
X16014175Y12260966D01*
X15989461Y12271203D01*
X15962936Y12274695D01*
X15950237D01*
Y12172218D01*
Y12069741D01*
X15962936D01*
X15989461Y12073233D01*
X16014175Y12083470D01*
X16035399Y12099756D01*
X16051685Y12120980D01*
X16053957Y12126466D01*
X16066656Y12123940D01*
Y12054978D01*
X15999982Y11988303D01*
X12904076D01*
X12904073Y11988304D01*
X12884180Y11985685D01*
X12865643Y11978007D01*
X12849725Y11965792D01*
X12849725Y11965791D01*
X11530327Y10646393D01*
X9689517D01*
X9689515Y10646393D01*
X9669623Y10643774D01*
X9651086Y10636096D01*
X9635168Y10623882D01*
X6481294Y7470008D01*
X6469080Y7454091D01*
X6461402Y7435554D01*
X6458783Y7415662D01*
Y7293958D01*
X6446193Y7288743D01*
X6419664Y7268386D01*
X6409029Y7254527D01*
X6193904D01*
X6183483Y7268108D01*
X6156954Y7288464D01*
X6126060Y7301261D01*
X6092906Y7305626D01*
X6042106D01*
X6008952Y7301261D01*
X5978058Y7288464D01*
X5951529Y7268108D01*
X5931172Y7241578D01*
X5927804Y7233448D01*
X5915104D01*
X5911736Y7241578D01*
X5891380Y7268108D01*
X5864850Y7288464D01*
X5833956Y7301261D01*
X5800802Y7305626D01*
X5750002D01*
X5716849Y7301261D01*
X5685954Y7288464D01*
X5659425Y7268108D01*
X5639068Y7241578D01*
X5626271Y7210684D01*
X5621906Y7177530D01*
X5626271Y7144377D01*
X5639068Y7113482D01*
X5659425Y7086953D01*
X5685954Y7066596D01*
X5708147Y7057403D01*
Y7043657D01*
X5685954Y7034464D01*
X5659425Y7014108D01*
X5639068Y6987578D01*
X5626271Y6956684D01*
X5621906Y6923530D01*
X5626271Y6890377D01*
X5639068Y6859482D01*
X5659425Y6832953D01*
X5685954Y6812596D01*
X5708147Y6803403D01*
Y6789657D01*
X5685954Y6780464D01*
X5659425Y6760108D01*
X5639068Y6733578D01*
X5626271Y6702684D01*
X5621906Y6669530D01*
X5626271Y6636377D01*
X5639068Y6605482D01*
X5659425Y6578953D01*
X5685954Y6558596D01*
X5708147Y6549403D01*
Y6535657D01*
X5685954Y6526464D01*
X5659425Y6506108D01*
X5639068Y6479578D01*
X5626271Y6448684D01*
X5621906Y6415530D01*
X5626271Y6382377D01*
X5639068Y6351482D01*
X5659425Y6324953D01*
X5685954Y6304596D01*
X5708147Y6295403D01*
Y6281657D01*
X5685954Y6272464D01*
X5659425Y6252108D01*
X5639068Y6225578D01*
X5626271Y6194684D01*
X5621994Y6162193D01*
X5618327Y6159515D01*
X5610547Y6155679D01*
X5598736Y6167490D01*
Y10924062D01*
X5596117Y10943954D01*
X5588439Y10962491D01*
X5576225Y10978408D01*
X5576224Y10978409D01*
X5453792Y11100841D01*
Y11194916D01*
X5466492Y11195748D01*
X5468708Y11178922D01*
X5478945Y11154207D01*
X5495231Y11132983D01*
X5624071Y11004143D01*
X5626271Y10987429D01*
X5639068Y10956535D01*
X5659425Y10930005D01*
X5685954Y10909648D01*
X5708147Y10900456D01*
Y10886709D01*
X5685954Y10877517D01*
X5659425Y10857160D01*
X5639068Y10830630D01*
X5626271Y10799736D01*
X5621906Y10766582D01*
X5626271Y10733429D01*
X5639068Y10702535D01*
X5659425Y10676005D01*
X5685954Y10655648D01*
X5708147Y10646456D01*
Y10632709D01*
X5685954Y10623517D01*
X5659425Y10603160D01*
X5639068Y10576630D01*
X5626271Y10545736D01*
X5621906Y10512582D01*
X5626271Y10479429D01*
X5639068Y10448535D01*
X5659425Y10422005D01*
X5685954Y10401648D01*
X5708147Y10392456D01*
Y10378709D01*
X5685954Y10369517D01*
X5659425Y10349160D01*
X5639068Y10322630D01*
X5626271Y10291736D01*
X5621906Y10258582D01*
X5626271Y10225429D01*
X5639068Y10194535D01*
X5659425Y10168005D01*
X5685954Y10147648D01*
X5708147Y10138456D01*
Y10124709D01*
X5685954Y10115517D01*
X5659425Y10095160D01*
X5639068Y10068630D01*
X5626271Y10037736D01*
X5621906Y10004582D01*
X5626271Y9971429D01*
X5639068Y9940535D01*
X5659425Y9914005D01*
X5685954Y9893648D01*
X5708147Y9884456D01*
Y9870709D01*
X5685954Y9861517D01*
X5659425Y9841160D01*
X5639068Y9814630D01*
X5626271Y9783736D01*
X5621906Y9750582D01*
X5626271Y9717429D01*
X5639068Y9686535D01*
X5659425Y9660005D01*
X5685954Y9639648D01*
X5708147Y9630456D01*
Y9616709D01*
X5685954Y9607517D01*
X5659425Y9587160D01*
X5639068Y9560630D01*
X5626271Y9529736D01*
X5621906Y9496582D01*
X5626271Y9463429D01*
X5639068Y9432535D01*
X5659425Y9406005D01*
X5685954Y9385648D01*
X5708147Y9376456D01*
Y9362709D01*
X5685954Y9353517D01*
X5659425Y9333160D01*
X5639068Y9306630D01*
X5626271Y9275736D01*
X5621906Y9242582D01*
X5626271Y9209429D01*
X5639068Y9178535D01*
X5659425Y9152005D01*
X5685954Y9131648D01*
X5708147Y9122456D01*
Y9108709D01*
X5685954Y9099517D01*
X5659425Y9079160D01*
X5639068Y9052630D01*
X5626271Y9021736D01*
X5621906Y8988582D01*
X5626271Y8955429D01*
X5639068Y8924535D01*
X5659425Y8898005D01*
X5685954Y8877648D01*
X5708147Y8868456D01*
Y8854709D01*
X5685954Y8845517D01*
X5659425Y8825160D01*
X5639068Y8798630D01*
X5626271Y8767736D01*
X5621906Y8734582D01*
X5626271Y8701429D01*
X5639068Y8670535D01*
X5659425Y8644005D01*
X5685954Y8623648D01*
X5708147Y8614456D01*
Y8600709D01*
X5685954Y8591517D01*
X5659425Y8571160D01*
X5639068Y8544630D01*
X5626271Y8513736D01*
X5621906Y8480582D01*
X5626271Y8447429D01*
X5639068Y8416535D01*
X5659425Y8390005D01*
X5685954Y8369648D01*
X5708147Y8360456D01*
Y8346709D01*
X5685954Y8337517D01*
X5659425Y8317160D01*
X5639068Y8290630D01*
X5626271Y8259736D01*
X5621906Y8226582D01*
X5626271Y8193429D01*
X5639068Y8162535D01*
X5659425Y8136005D01*
X5685954Y8115648D01*
X5708147Y8106456D01*
Y8092709D01*
X5685954Y8083517D01*
X5659425Y8063160D01*
X5639068Y8036630D01*
X5626271Y8005736D01*
X5621906Y7972582D01*
X5626271Y7939429D01*
X5639068Y7908535D01*
X5659425Y7882005D01*
X5685954Y7861648D01*
X5708147Y7852456D01*
Y7838709D01*
X5685954Y7829517D01*
X5659425Y7809160D01*
X5639068Y7782630D01*
X5626271Y7751736D01*
X5621906Y7718582D01*
X5626271Y7685429D01*
X5639068Y7654535D01*
X5659425Y7628005D01*
X5685954Y7607648D01*
X5716849Y7594851D01*
X5750002Y7590487D01*
X5800802D01*
X5833956Y7594851D01*
X5864850Y7607648D01*
X5891380Y7628005D01*
X5911736Y7654535D01*
X5915104Y7662665D01*
X5927804D01*
X5931172Y7654535D01*
X5951529Y7628005D01*
X5978058Y7607648D01*
X6008952Y7594851D01*
X6042106Y7590487D01*
X6092906D01*
X6126060Y7594851D01*
X6156954Y7607648D01*
X6183483Y7628005D01*
X6203840Y7654535D01*
X6216637Y7685429D01*
X6221002Y7718582D01*
X6216637Y7751736D01*
X6203840Y7782630D01*
X6183483Y7809160D01*
X6156954Y7829517D01*
X6134761Y7838709D01*
Y7852456D01*
X6156954Y7861648D01*
X6183483Y7882005D01*
X6203840Y7908535D01*
X6216637Y7939429D01*
X6221002Y7972582D01*
X6216637Y8005736D01*
X6203840Y8036630D01*
X6183483Y8063160D01*
X6156954Y8083517D01*
X6134761Y8092709D01*
Y8106456D01*
X6156954Y8115648D01*
X6183483Y8136005D01*
X6203840Y8162535D01*
X6216637Y8193429D01*
X6221002Y8226582D01*
X6216637Y8259736D01*
X6203840Y8290630D01*
X6183483Y8317160D01*
X6156954Y8337517D01*
X6134761Y8346709D01*
Y8360456D01*
X6156954Y8369648D01*
X6183483Y8390005D01*
X6203840Y8416535D01*
X6216637Y8447429D01*
X6221002Y8480582D01*
X6216637Y8513736D01*
X6203840Y8544630D01*
X6183483Y8571160D01*
X6156954Y8591517D01*
X6134761Y8600709D01*
Y8614456D01*
X6146447Y8619296D01*
X6322712D01*
X6348508Y8604403D01*
X6384038Y8594882D01*
X6420822D01*
X6456352Y8604403D01*
X6488208Y8622795D01*
X6514218Y8648805D01*
X6532610Y8680660D01*
X6542130Y8716191D01*
Y8752974D01*
X6532610Y8788505D01*
X6514218Y8820360D01*
X6488208Y8846370D01*
X6456352Y8864762D01*
X6420822Y8874282D01*
X6384038D01*
X6348508Y8864762D01*
X6322712Y8849869D01*
X6182792D01*
Y8892830D01*
X6188166Y8895056D01*
X6212043Y8913377D01*
X6368726Y9070060D01*
X6387047Y9093937D01*
X6398564Y9121741D01*
X6402492Y9151580D01*
Y9333585D01*
X6398564Y9363423D01*
X6387047Y9391228D01*
X6368726Y9415105D01*
X6212043Y9571788D01*
X6188166Y9590109D01*
X6169639Y9597783D01*
X6156954Y9607517D01*
X6134761Y9616709D01*
Y9630456D01*
X6156954Y9639648D01*
X6183483Y9660005D01*
X6194011Y9673725D01*
X6666362D01*
X6671577Y9661135D01*
X6691934Y9634605D01*
X6718464Y9614248D01*
X6749358Y9601451D01*
X6782512Y9597087D01*
X6815665Y9601451D01*
X6846560Y9614248D01*
X6873089Y9634605D01*
X6893446Y9661135D01*
X6898661Y9673725D01*
X7642364D01*
X7662256Y9676344D01*
X7680793Y9684022D01*
X7696710Y9696236D01*
X9232140Y11231665D01*
X11330074D01*
X11349967Y11234284D01*
X11368503Y11241962D01*
X11384421Y11254176D01*
X12479605Y12349360D01*
X15811032D01*
X15821559Y12335641D01*
X15848090Y12315284D01*
X15878983Y12302487D01*
X15912137Y12298122D01*
X15962936D01*
X15996091Y12302487D01*
X16026985Y12315284D01*
X16053514Y12335641D01*
X16073871Y12362170D01*
X16086668Y12393064D01*
X16091032Y12426218D01*
X16086668Y12459372D01*
X16073871Y12490266D01*
X16053514Y12516795D01*
X16026985Y12537152D01*
X16004791Y12546345D01*
Y12560091D01*
X16026985Y12569284D01*
X16039520Y12578902D01*
X16332858D01*
X16342368Y12571606D01*
D02*
G37*
G36*
X7652308Y11417648D02*
X7674501Y11408456D01*
Y11394709D01*
X7652308Y11385517D01*
X7625779Y11365160D01*
X7605422Y11338630D01*
X7592625Y11307736D01*
X7588260Y11274582D01*
X7592625Y11241429D01*
X7593294Y11239813D01*
X7463475Y11109994D01*
X7451261Y11094077D01*
X7443583Y11075540D01*
X7440964Y11055648D01*
Y10544275D01*
X7245494Y10348805D01*
X7226038Y10346244D01*
X7207501Y10338566D01*
X7203428Y10335440D01*
X7155501D01*
X7150286Y10348030D01*
X7129929Y10374560D01*
X7103400Y10394917D01*
X7072506Y10407713D01*
X7039352Y10412078D01*
X7006198Y10407713D01*
X6975304Y10394917D01*
X6948775Y10374560D01*
X6928418Y10348030D01*
X6923203Y10335440D01*
X6194011D01*
X6183483Y10349160D01*
X6156954Y10369517D01*
X6134761Y10378709D01*
Y10392456D01*
X6156954Y10401648D01*
X6183483Y10422005D01*
X6194011Y10435725D01*
X6666362D01*
X6671577Y10423135D01*
X6691934Y10396605D01*
X6718464Y10376248D01*
X6749358Y10363451D01*
X6782512Y10359087D01*
X6815665Y10363451D01*
X6846560Y10376248D01*
X6873089Y10396605D01*
X6893446Y10423135D01*
X6906243Y10454029D01*
X6910607Y10487182D01*
Y10537982D01*
X6906243Y10571136D01*
X6893446Y10602030D01*
X6873089Y10628560D01*
X6859369Y10639087D01*
Y10728614D01*
X6856751Y10748506D01*
X6849072Y10767043D01*
X6836858Y10782960D01*
X6836857Y10782961D01*
X6723187Y10896632D01*
X6731274Y10906435D01*
X6755989Y10896197D01*
X6769812Y10894378D01*
Y11020582D01*
X6782512D01*
Y11033282D01*
X6884989D01*
Y11045982D01*
X6881497Y11072505D01*
X6871259Y11097221D01*
X6854974Y11118445D01*
X6833750Y11134730D01*
X6809035Y11144968D01*
X6803845Y11145651D01*
X6799762Y11157677D01*
X6839810Y11197725D01*
X7141036D01*
X7151564Y11184005D01*
X7178093Y11163648D01*
X7208987Y11150851D01*
X7242141Y11146487D01*
X7292941D01*
X7326095Y11150851D01*
X7356989Y11163648D01*
X7383518Y11184005D01*
X7403875Y11210535D01*
X7416672Y11241429D01*
X7421037Y11274582D01*
X7416672Y11307736D01*
X7403875Y11338630D01*
X7383518Y11365160D01*
X7356989Y11385517D01*
X7334796Y11394709D01*
Y11408456D01*
X7356989Y11417648D01*
X7368011Y11426106D01*
X7641286D01*
X7652308Y11417648D01*
D02*
G37*
G36*
X8126523D02*
X8148716Y11408456D01*
Y11394709D01*
X8126523Y11385517D01*
X8099994Y11365160D01*
X8079637Y11338630D01*
X8066840Y11307736D01*
X8062476Y11274582D01*
X8066840Y11241429D01*
X8079637Y11210535D01*
X8099994Y11184005D01*
X8126523Y11163648D01*
X8157418Y11150851D01*
X8190571Y11146487D01*
X8241371D01*
X8274525Y11150851D01*
X8305419Y11163648D01*
X8310186Y11167306D01*
X8342390Y11135102D01*
Y11076796D01*
X8330976Y11072277D01*
X8329690Y11072380D01*
X8313834Y11093045D01*
X8292610Y11109330D01*
X8267894Y11119568D01*
X8241371Y11123059D01*
X8228671D01*
Y11020582D01*
Y10918106D01*
X8241371D01*
X8267894Y10921597D01*
X8292610Y10931835D01*
X8313834Y10948120D01*
X8329690Y10968785D01*
X8330976Y10968888D01*
X8342390Y10964369D01*
Y10924411D01*
X7499418Y10081440D01*
X7155501D01*
X7150286Y10094030D01*
X7129929Y10120560D01*
X7123840Y10125232D01*
Y10137932D01*
X7129929Y10142605D01*
X7150286Y10169135D01*
X7155501Y10181725D01*
X7232507D01*
X7252400Y10184344D01*
X7270936Y10192022D01*
X7275010Y10195148D01*
X7277387D01*
X7297280Y10197766D01*
X7315816Y10205444D01*
X7331734Y10217659D01*
X7572167Y10458092D01*
X7572168Y10458093D01*
X7584383Y10474011D01*
X7592061Y10492547D01*
X7594680Y10512440D01*
X7594680Y10512442D01*
Y11023812D01*
X7603311Y11032444D01*
X7614701Y11026827D01*
X7613879Y11020582D01*
X7617371Y10994060D01*
X7627609Y10969344D01*
X7643894Y10948120D01*
X7665118Y10931835D01*
X7689833Y10921597D01*
X7716356Y10918106D01*
X7729056D01*
Y11020582D01*
Y11123059D01*
X7716356D01*
X7710112Y11122237D01*
X7704495Y11133628D01*
X7717354Y11146487D01*
X7767156D01*
X7800310Y11150851D01*
X7831204Y11163648D01*
X7857734Y11184005D01*
X7878090Y11210535D01*
X7890887Y11241429D01*
X7895252Y11274582D01*
X7890887Y11307736D01*
X7878090Y11338630D01*
X7857734Y11365160D01*
X7831204Y11385517D01*
X7809011Y11394709D01*
Y11408456D01*
X7831204Y11417648D01*
X7842226Y11426106D01*
X8115502D01*
X8126523Y11417648D01*
D02*
G37*
%LPC*%
G36*
X15924837Y12274695D02*
X15912137D01*
X15885614Y12271203D01*
X15860898Y12260966D01*
X15839674Y12244680D01*
X15823389Y12223456D01*
X15813152Y12198741D01*
X15811333Y12184918D01*
X15924837D01*
Y12274695D01*
D02*
G37*
G36*
Y12159518D02*
X15811333D01*
X15813152Y12145695D01*
X15823389Y12120980D01*
X15839674Y12099756D01*
X15860898Y12083470D01*
X15885614Y12073233D01*
X15912137Y12069741D01*
X15924837D01*
Y12159518D01*
D02*
G37*
G36*
X7052052Y9622787D02*
Y9509282D01*
X7141829D01*
Y9521982D01*
X7138337Y9548505D01*
X7128100Y9573221D01*
X7111814Y9594445D01*
X7090590Y9610730D01*
X7065875Y9620968D01*
X7052052Y9622787D01*
D02*
G37*
G36*
X7026652D02*
X7012829Y9620968D01*
X6988114Y9610730D01*
X6966890Y9594445D01*
X6950604Y9573221D01*
X6940367Y9548505D01*
X6936875Y9521982D01*
Y9509282D01*
X7026652D01*
Y9622787D01*
D02*
G37*
G36*
X7141829Y9483882D02*
X7052052D01*
Y9370377D01*
X7065875Y9372197D01*
X7090590Y9382435D01*
X7111814Y9398720D01*
X7128100Y9419944D01*
X7138337Y9444660D01*
X7141829Y9471182D01*
Y9483882D01*
D02*
G37*
G36*
X7026652D02*
X6936875D01*
Y9471182D01*
X6940367Y9444660D01*
X6950604Y9419944D01*
X6966890Y9398720D01*
X6988114Y9382435D01*
X7012829Y9372197D01*
X7026652Y9370377D01*
Y9483882D01*
D02*
G37*
G36*
X7253218Y9360382D02*
X7250870D01*
Y9258782D01*
X7352470D01*
Y9261130D01*
X7344681Y9290201D01*
X7329633Y9316264D01*
X7308352Y9337545D01*
X7282288Y9352593D01*
X7253218Y9360382D01*
D02*
G37*
G36*
X7225470D02*
X7223122D01*
X7194052Y9352593D01*
X7167988Y9337545D01*
X7146707Y9316264D01*
X7131659Y9290201D01*
X7123870Y9261130D01*
Y9258782D01*
X7225470D01*
Y9360382D01*
D02*
G37*
G36*
X6795212Y9368787D02*
Y9255282D01*
X6884989D01*
Y9267982D01*
X6881497Y9294505D01*
X6871259Y9319221D01*
X6854974Y9340445D01*
X6833750Y9356730D01*
X6809035Y9366968D01*
X6795212Y9368787D01*
D02*
G37*
G36*
X6769812D02*
X6755989Y9366968D01*
X6731273Y9356730D01*
X6710050Y9340445D01*
X6693764Y9319221D01*
X6683527Y9294505D01*
X6680035Y9267982D01*
Y9255282D01*
X6769812D01*
Y9368787D01*
D02*
G37*
G36*
X7352470Y9233382D02*
X7250870D01*
Y9131782D01*
X7253218D01*
X7282288Y9139572D01*
X7308352Y9154619D01*
X7329633Y9175901D01*
X7344681Y9201964D01*
X7352470Y9231034D01*
Y9233382D01*
D02*
G37*
G36*
X7225470D02*
X7123870D01*
Y9231034D01*
X7131659Y9201964D01*
X7146707Y9175901D01*
X7167988Y9154619D01*
X7194052Y9139572D01*
X7223122Y9131782D01*
X7225470D01*
Y9233382D01*
D02*
G37*
G36*
X6884989Y9229882D02*
X6795212D01*
Y9116378D01*
X6809035Y9118197D01*
X6833750Y9128435D01*
X6854974Y9144720D01*
X6871259Y9165944D01*
X6881497Y9190660D01*
X6884989Y9217182D01*
Y9229882D01*
D02*
G37*
G36*
X6769812D02*
X6680035D01*
Y9217182D01*
X6683527Y9190660D01*
X6693764Y9165944D01*
X6710050Y9144720D01*
X6731273Y9128435D01*
X6755989Y9118197D01*
X6769812Y9116378D01*
Y9229882D01*
D02*
G37*
G36*
X5800802Y7534007D02*
X5788102D01*
Y7444230D01*
X5901607D01*
X5899787Y7458053D01*
X5889550Y7482769D01*
X5873264Y7503992D01*
X5852041Y7520278D01*
X5827325Y7530515D01*
X5800802Y7534007D01*
D02*
G37*
G36*
X5762702D02*
X5750002D01*
X5723479Y7530515D01*
X5698764Y7520278D01*
X5677540Y7503992D01*
X5661255Y7482769D01*
X5651017Y7458053D01*
X5649197Y7444230D01*
X5762702D01*
Y7534007D01*
D02*
G37*
G36*
X6092906D02*
X6080206D01*
Y7444230D01*
X6193711D01*
X6191891Y7458053D01*
X6181654Y7482769D01*
X6165368Y7503992D01*
X6144144Y7520278D01*
X6119429Y7530515D01*
X6092906Y7534007D01*
D02*
G37*
G36*
X6054806D02*
X6042106D01*
X6015583Y7530515D01*
X5990868Y7520278D01*
X5969644Y7503992D01*
X5953358Y7482769D01*
X5943121Y7458053D01*
X5941301Y7444230D01*
X6054806D01*
Y7534007D01*
D02*
G37*
G36*
X6193711Y7418830D02*
X6080206D01*
Y7329053D01*
X6092906D01*
X6119429Y7332545D01*
X6144144Y7342783D01*
X6165368Y7359068D01*
X6181654Y7380292D01*
X6191891Y7405007D01*
X6193711Y7418830D01*
D02*
G37*
G36*
X6054806D02*
X5941301D01*
X5943121Y7405007D01*
X5953358Y7380292D01*
X5969644Y7359068D01*
X5990868Y7342783D01*
X6015583Y7332545D01*
X6042106Y7329053D01*
X6054806D01*
Y7418830D01*
D02*
G37*
G36*
X5901607Y7418830D02*
X5788102D01*
Y7329053D01*
X5800802D01*
X5827325Y7332545D01*
X5852041Y7342783D01*
X5873264Y7359068D01*
X5889550Y7380292D01*
X5899787Y7405007D01*
X5901607Y7418830D01*
D02*
G37*
G36*
X5762702D02*
X5649197D01*
X5651017Y7405007D01*
X5661255Y7380292D01*
X5677540Y7359068D01*
X5698764Y7342783D01*
X5723479Y7332545D01*
X5750002Y7329053D01*
X5762702D01*
Y7418830D01*
D02*
G37*
G36*
X7292941Y11123059D02*
X7280241D01*
Y11033282D01*
X7393746D01*
X7391926Y11047105D01*
X7381689Y11071821D01*
X7365403Y11093045D01*
X7344179Y11109330D01*
X7319464Y11119568D01*
X7292941Y11123059D01*
D02*
G37*
G36*
X7254841D02*
X7242141D01*
X7215618Y11119568D01*
X7190903Y11109330D01*
X7169679Y11093045D01*
X7153393Y11071821D01*
X7143156Y11047105D01*
X7141336Y11033282D01*
X7254841D01*
Y11123059D01*
D02*
G37*
G36*
X7393746Y11007882D02*
X7280241D01*
Y10918106D01*
X7292941D01*
X7319464Y10921597D01*
X7344179Y10931835D01*
X7365403Y10948120D01*
X7381689Y10969344D01*
X7391926Y10994060D01*
X7393746Y11007882D01*
D02*
G37*
G36*
X7254841D02*
X7141336D01*
X7143156Y10994060D01*
X7153393Y10969344D01*
X7169679Y10948120D01*
X7190903Y10931835D01*
X7215618Y10921597D01*
X7242141Y10918106D01*
X7254841D01*
Y11007882D01*
D02*
G37*
G36*
X6884989D02*
X6795212D01*
Y10894378D01*
X6809035Y10896197D01*
X6833750Y10906435D01*
X6854974Y10922720D01*
X6871259Y10943944D01*
X6881497Y10968660D01*
X6884989Y10995182D01*
Y11007882D01*
D02*
G37*
G36*
X7052052Y10892787D02*
Y10779282D01*
X7141829D01*
Y10791982D01*
X7138337Y10818505D01*
X7128100Y10843221D01*
X7111814Y10864445D01*
X7090590Y10880730D01*
X7065875Y10890968D01*
X7052052Y10892787D01*
D02*
G37*
G36*
X7026652D02*
X7012829Y10890968D01*
X6988114Y10880730D01*
X6966890Y10864445D01*
X6950604Y10843221D01*
X6940367Y10818505D01*
X6936875Y10791982D01*
Y10779282D01*
X7026652D01*
Y10892787D01*
D02*
G37*
G36*
X7141829Y10753882D02*
X7052052D01*
Y10640377D01*
X7065875Y10642197D01*
X7090590Y10652435D01*
X7111814Y10668720D01*
X7128100Y10689944D01*
X7138337Y10714660D01*
X7141829Y10741182D01*
Y10753882D01*
D02*
G37*
G36*
X7026652D02*
X6936875D01*
Y10741182D01*
X6940367Y10714660D01*
X6950604Y10689944D01*
X6966890Y10668720D01*
X6988114Y10652435D01*
X7012829Y10642197D01*
X7026652Y10640377D01*
Y10753882D01*
D02*
G37*
G36*
X7282589Y10697291D02*
X7280241D01*
Y10595691D01*
X7381841D01*
Y10598039D01*
X7374052Y10627110D01*
X7359004Y10653173D01*
X7337723Y10674454D01*
X7311659Y10689502D01*
X7282589Y10697291D01*
D02*
G37*
G36*
X7254841D02*
X7252493D01*
X7223423Y10689502D01*
X7197359Y10674454D01*
X7176078Y10653173D01*
X7161030Y10627110D01*
X7153241Y10598039D01*
Y10595691D01*
X7254841D01*
Y10697291D01*
D02*
G37*
G36*
X7381841Y10570291D02*
X7280241D01*
Y10468691D01*
X7282589D01*
X7311659Y10476481D01*
X7337723Y10491528D01*
X7359004Y10512810D01*
X7374052Y10538873D01*
X7381841Y10567943D01*
Y10570291D01*
D02*
G37*
G36*
X7254841D02*
X7153241D01*
Y10567943D01*
X7161030Y10538873D01*
X7176078Y10512810D01*
X7197359Y10491528D01*
X7223423Y10476481D01*
X7252493Y10468691D01*
X7254841D01*
Y10570291D01*
D02*
G37*
G36*
X8203271Y11123059D02*
X8190571D01*
X8164048Y11119568D01*
X8139333Y11109330D01*
X8118109Y11093045D01*
X8101824Y11071821D01*
X8091586Y11047105D01*
X8089766Y11033282D01*
X8203271D01*
Y11123059D01*
D02*
G37*
G36*
X7767156D02*
X7754456D01*
Y11033282D01*
X7867961D01*
X7866141Y11047105D01*
X7855904Y11071821D01*
X7839618Y11093045D01*
X7818395Y11109330D01*
X7793679Y11119568D01*
X7767156Y11123059D01*
D02*
G37*
G36*
X8203271Y11007882D02*
X8089766D01*
X8091586Y10994060D01*
X8101824Y10969344D01*
X8118109Y10948120D01*
X8139333Y10931835D01*
X8164048Y10921597D01*
X8190571Y10918106D01*
X8203271D01*
Y11007882D01*
D02*
G37*
G36*
X7867961Y11007882D02*
X7754456D01*
Y10918106D01*
X7767156D01*
X7793679Y10921597D01*
X7818395Y10931835D01*
X7839618Y10948120D01*
X7855904Y10969344D01*
X7866141Y10994060D01*
X7867961Y11007882D01*
D02*
G37*
G36*
X7812775Y10697291D02*
X7810427D01*
Y10595691D01*
X7912027D01*
Y10598039D01*
X7904238Y10627110D01*
X7889190Y10653173D01*
X7867909Y10674454D01*
X7841846Y10689502D01*
X7812775Y10697291D01*
D02*
G37*
G36*
X7785027D02*
X7782679D01*
X7753609Y10689502D01*
X7727546Y10674454D01*
X7706264Y10653173D01*
X7691217Y10627110D01*
X7683427Y10598039D01*
Y10595691D01*
X7785027D01*
Y10697291D01*
D02*
G37*
G36*
X7912027Y10570291D02*
X7810427D01*
Y10468691D01*
X7812775D01*
X7841846Y10476481D01*
X7867909Y10491528D01*
X7889190Y10512810D01*
X7904238Y10538873D01*
X7912027Y10567943D01*
Y10570291D01*
D02*
G37*
G36*
X7785027D02*
X7683427D01*
Y10567943D01*
X7691217Y10538873D01*
X7706264Y10512810D01*
X7727546Y10491528D01*
X7753609Y10476481D01*
X7782679Y10468691D01*
X7785027D01*
Y10570291D01*
D02*
G37*
%LPD*%
D10*
X17738507Y12155197D02*
X18336572D01*
X18807257Y11684512D01*
X5020409Y5798188D02*
Y13177036D01*
Y5798188D02*
X5321102Y5497495D01*
Y3547516D02*
Y5497495D01*
Y3547516D02*
X5672840Y3195778D01*
X5020409Y13177036D02*
X5327702Y13484331D01*
X9635328D01*
X9807160Y13656161D01*
X20447725Y11993261D02*
X20607802Y12153338D01*
X20447725Y11858867D02*
Y11993261D01*
X20607802Y12153338D02*
X20692342D01*
X20447725Y11858867D02*
X20622079Y11684512D01*
X20692342Y12153338D02*
X20697202Y12158197D01*
X20622079Y11684512D02*
X21230452D01*
X20697202Y11904197D02*
X20926469D01*
X21214784Y12192512D01*
X22023482Y5715385D02*
Y10891481D01*
X21230452Y11684512D02*
X22023482Y10891481D01*
X12886792Y5136295D02*
Y5466872D01*
X11438642Y6379899D02*
Y6633899D01*
Y6125899D02*
Y6379899D01*
Y5871899D02*
Y6125899D01*
Y5617899D02*
Y5871899D01*
Y5363899D02*
Y5617899D01*
Y5109899D02*
Y5363899D01*
X13224358Y4798729D02*
X16803838D01*
X12886792Y5136295D02*
X13224358Y4798729D01*
X21214784Y12192512D02*
X21582066D01*
X20697202Y12412197D02*
X20942137D01*
X21230452Y12700512D01*
X21582066D02*
X21846936D01*
X21230452D02*
X21582066D01*
X21846936Y11684512D02*
Y12071195D01*
X21582066Y12192512D02*
X21725620D01*
X21846936Y12071195D01*
Y11684512D02*
X22245909D01*
X20910458Y13020505D02*
Y13364258D01*
Y13020505D02*
X21230452Y12700512D01*
X21106825Y4798729D02*
X22023482Y5715385D01*
X21006825Y4798729D02*
X21106825D01*
X6067506Y10766582D02*
Y11020582D01*
X19597379Y13148358D02*
X20325742D01*
X19526642Y13219093D02*
Y13364258D01*
Y13219093D02*
X19597379Y13148358D01*
X19182921Y12875372D02*
X19526642Y13219093D01*
X20677861Y13596857D02*
X20910458Y13364258D01*
X20264748Y13596857D02*
X20677861D01*
X20032149Y13364258D02*
X20264748Y13596857D01*
X20325742Y13148358D02*
X20541643Y13364258D01*
X9807160Y13656161D02*
Y13913890D01*
X9811561Y13918291D01*
X6067506Y9496582D02*
X6073820Y9490268D01*
X6130523D01*
X6287206Y9333585D01*
Y9151580D02*
Y9333585D01*
X6130523Y8994897D02*
X6287206Y9151580D01*
X6073820Y8994897D02*
X6130523D01*
X6067506Y8988582D02*
X6073820Y8994897D01*
X6067506Y8734582D02*
Y8988582D01*
X13238609Y11205299D02*
X16715254D01*
X17516074Y9866919D02*
Y10404480D01*
X16715254Y11205299D02*
X17516074Y10404480D01*
X17311838Y9662682D02*
X17516074Y9866919D01*
X17311836Y9180919D02*
Y9662682D01*
X12335126Y10301815D02*
X13238609Y11205299D01*
X11007793Y8687747D02*
X11438642Y8256898D01*
Y6633899D02*
Y8256898D01*
X11007793Y8687747D02*
Y10301815D01*
X14346550Y8041791D02*
X14507809Y7880532D01*
X15453490D02*
X15661134Y8088177D01*
X14507809Y7880532D02*
X15453490D01*
X8340446Y14686514D02*
X9049561D01*
X6067506Y11020582D02*
X6402430D01*
X6067506Y8734582D02*
X6402430D01*
X8208405Y2862958D02*
X9810194D01*
X10772917Y3825681D02*
X16549837D01*
X9810194Y2862958D02*
X10772917Y3825681D01*
X16549837Y3332169D02*
Y3825681D01*
X7875585Y3195778D02*
X8208405Y2862958D01*
X5672840Y3195778D02*
X7875585D01*
X18644092Y8088177D02*
X20906825D01*
X18462643Y10532359D02*
X20906825Y8088177D01*
X21006825D01*
X18462643Y10532359D02*
Y11684512D01*
X15661134Y8088177D02*
X16803838D01*
X13633057Y8041791D02*
X14346550D01*
X16803838Y3825681D02*
Y4798729D01*
X18644092D02*
X21006825D01*
X16803838Y3091032D02*
Y3825681D01*
Y4798729D02*
X18644092D01*
X16803838Y8088177D02*
X18644092D01*
X16803838D02*
Y9180919D01*
Y9662682D01*
X13624043Y8032779D02*
X13633057Y8041791D01*
X13125288Y8032779D02*
X13624043D01*
X13113423Y8044646D02*
X13125288Y8032779D01*
X12843111Y8041763D02*
X13110539D01*
X13113423Y8044646D01*
X12840228Y8038880D02*
X12843111Y8041763D01*
X13215234Y5795315D02*
X13404482D01*
X12886792Y5466872D02*
X13215234Y5795315D01*
X19182921Y12192512D02*
Y12875372D01*
X18245959Y11901197D02*
X18462643Y11684512D01*
X17738507Y11901197D02*
X18245959D01*
X18171330Y12409197D02*
X18462643Y12700512D01*
X17738507Y12409197D02*
X18171330D01*
X18831979Y12543455D02*
Y12675791D01*
X18807257Y12700512D02*
X18831979Y12675791D01*
Y12543455D02*
X19182921Y12192512D01*
Y11684512D02*
X19554086D01*
X18807257D02*
X19182921D01*
X18462643Y12700512D02*
X18807257D01*
X19526642Y14064258D02*
X20032149D01*
X19525848D02*
X19526642D01*
X20541643Y14081149D02*
X20909776D01*
X20910458Y14080467D01*
X20541643Y14081149D02*
Y15342825D01*
X19526642Y14064258D02*
Y15342825D01*
D11*
X15937537Y12680218D02*
D03*
Y12426218D02*
D03*
Y12172218D02*
D03*
X16431815Y12682540D02*
D03*
Y12428540D02*
D03*
Y12174540D02*
D03*
X11438642Y5109899D02*
D03*
Y5363899D02*
D03*
Y5617899D02*
D03*
Y5871899D02*
D03*
Y6125899D02*
D03*
Y6379899D02*
D03*
Y6633899D02*
D03*
X10643550Y6667815D02*
D03*
Y6413815D02*
D03*
Y6159815D02*
D03*
Y5905815D02*
D03*
Y5651815D02*
D03*
Y5397815D02*
D03*
Y5143815D02*
D03*
X5408269Y12295238D02*
D03*
Y12549238D02*
D03*
Y12803238D02*
D03*
Y13057237D02*
D03*
X5775402Y10512582D02*
D03*
Y10258582D02*
D03*
Y10004582D02*
D03*
Y7718582D02*
D03*
Y7972582D02*
D03*
Y8226582D02*
D03*
Y8480582D02*
D03*
Y8734582D02*
D03*
Y8988582D02*
D03*
Y9242582D02*
D03*
Y9496582D02*
D03*
Y9750582D02*
D03*
Y10766582D02*
D03*
Y11020582D02*
D03*
Y11274582D02*
D03*
Y11528582D02*
D03*
X13404482Y6049315D02*
D03*
Y5795315D02*
D03*
X14308334Y5540966D02*
D03*
Y5794966D02*
D03*
Y9195032D02*
D03*
Y9449032D02*
D03*
X6067506Y10512582D02*
D03*
Y10258582D02*
D03*
Y10004582D02*
D03*
Y7718582D02*
D03*
Y7972582D02*
D03*
Y8226582D02*
D03*
Y8480582D02*
D03*
Y8734582D02*
D03*
Y8988582D02*
D03*
Y9242582D02*
D03*
Y9496582D02*
D03*
Y9750582D02*
D03*
Y10766582D02*
D03*
Y11020582D02*
D03*
Y11274582D02*
D03*
Y11528582D02*
D03*
X9593041Y3220892D02*
D03*
Y3474892D02*
D03*
Y3728892D02*
D03*
X8977397Y3220892D02*
D03*
Y3474892D02*
D03*
Y3728892D02*
D03*
X9595062Y8552133D02*
D03*
Y8298133D02*
D03*
Y8044133D02*
D03*
X8971842Y8552133D02*
D03*
Y8298133D02*
D03*
Y8044133D02*
D03*
X10210212Y8552133D02*
D03*
Y8298133D02*
D03*
Y8044133D02*
D03*
X8355927Y8552133D02*
D03*
Y8298133D02*
D03*
Y8044133D02*
D03*
X8356374Y3220892D02*
D03*
Y3474892D02*
D03*
Y3728892D02*
D03*
X6067506Y6415530D02*
D03*
Y6161530D02*
D03*
Y5907530D02*
D03*
Y3621530D02*
D03*
Y3875530D02*
D03*
Y4129530D02*
D03*
Y4383530D02*
D03*
Y4637530D02*
D03*
Y4891530D02*
D03*
Y5145530D02*
D03*
Y5399530D02*
D03*
Y5653530D02*
D03*
Y6669530D02*
D03*
Y6923530D02*
D03*
Y7177530D02*
D03*
Y7431530D02*
D03*
X5775402Y6415530D02*
D03*
Y6161530D02*
D03*
Y5907530D02*
D03*
Y3621530D02*
D03*
Y3875530D02*
D03*
Y4129530D02*
D03*
Y4383530D02*
D03*
Y4637530D02*
D03*
Y4891530D02*
D03*
Y5145530D02*
D03*
Y5399530D02*
D03*
Y5653530D02*
D03*
Y6669530D02*
D03*
Y6923530D02*
D03*
Y7177530D02*
D03*
Y7431530D02*
D03*
X7267541Y11020582D02*
D03*
Y11274582D02*
D03*
Y11528582D02*
D03*
X7741756Y11020582D02*
D03*
Y11274582D02*
D03*
Y11528582D02*
D03*
X8215971Y11020582D02*
D03*
Y11274582D02*
D03*
Y11528582D02*
D03*
X17738507Y12409197D02*
D03*
Y12155197D02*
D03*
Y11901197D02*
D03*
X20697202Y11904197D02*
D03*
Y12158197D02*
D03*
Y12412197D02*
D03*
D12*
X3200400Y7343379D02*
D03*
Y13845779D02*
D03*
X13572556Y10365666D02*
D03*
X22999699Y3200400D02*
D03*
Y15341600D02*
D03*
X3200400Y3200400D02*
D03*
Y15341600D02*
D03*
D13*
X3305692Y5064197D02*
D03*
X3055692D02*
D03*
X3305692Y4214197D02*
D03*
Y6496560D02*
D03*
X3055692D02*
D03*
X3305692Y5646560D02*
D03*
D14*
X3055692Y4214197D02*
D03*
Y5646560D02*
D03*
D15*
X21846936Y11684512D02*
D03*
Y12700512D02*
D03*
X21230452D02*
D03*
Y11684512D02*
D03*
X8047264Y5146629D02*
D03*
Y4130629D02*
D03*
X8356531Y5146629D02*
D03*
Y4130629D02*
D03*
X8665799Y5400986D02*
D03*
Y4384986D02*
D03*
X5740516Y13057237D02*
D03*
Y12041238D02*
D03*
X12886792Y6047986D02*
D03*
Y5347986D02*
D03*
X13895567Y5541653D02*
D03*
Y5033653D02*
D03*
X13113423Y7536646D02*
D03*
Y8044646D02*
D03*
X12840228Y8038880D02*
D03*
Y8738880D02*
D03*
X21582066Y12700512D02*
D03*
Y12192512D02*
D03*
X19554086Y11684512D02*
D03*
Y12700512D02*
D03*
X11802045Y14915463D02*
D03*
Y15423463D02*
D03*
X11504818Y14407463D02*
D03*
Y15423463D02*
D03*
X11166152D02*
D03*
Y14407463D02*
D03*
X12118652Y15423463D02*
D03*
Y14407463D02*
D03*
X9284334Y6170328D02*
D03*
Y7186328D02*
D03*
X9593602Y6170328D02*
D03*
Y7186328D02*
D03*
X8047264Y6664503D02*
D03*
Y7680503D02*
D03*
X8356531Y6664503D02*
D03*
Y7680503D02*
D03*
X9902869Y5907287D02*
D03*
Y6923287D02*
D03*
X10212137Y5907287D02*
D03*
Y6923287D02*
D03*
X8975066Y6415305D02*
D03*
Y7431305D02*
D03*
X8665799Y6415305D02*
D03*
Y7431305D02*
D03*
X9284334Y5655640D02*
D03*
Y4639640D02*
D03*
X9593602Y5655640D02*
D03*
Y4639640D02*
D03*
X8975066Y5400986D02*
D03*
Y4384986D02*
D03*
X9303561Y13924515D02*
D03*
X9557561D02*
D03*
X9811561D02*
D03*
X9049561Y14686514D02*
D03*
X9303561D02*
D03*
X9557561D02*
D03*
X9811561D02*
D03*
X6782512Y11020582D02*
D03*
Y10512582D02*
D03*
X7039352Y10766582D02*
D03*
Y10258582D02*
D03*
Y9496582D02*
D03*
Y10004582D02*
D03*
X6031355Y13057237D02*
D03*
Y12041238D02*
D03*
X6782512Y9242582D02*
D03*
Y9750582D02*
D03*
X17311836Y10170682D02*
D03*
Y9662682D02*
D03*
X16803838Y10170682D02*
D03*
Y9662682D02*
D03*
X18462643Y12700512D02*
D03*
Y11684512D02*
D03*
X17738507Y12155197D02*
D03*
X18807257Y12700512D02*
D03*
Y11684512D02*
D03*
X19182921D02*
D03*
Y12192512D02*
D03*
X22245909Y12700512D02*
D03*
Y11684512D02*
D03*
X20697202Y12158197D02*
D03*
X6668207Y13879539D02*
D03*
Y14895540D02*
D03*
X7366707Y13879539D02*
D03*
Y14895540D02*
D03*
X7049207Y14387540D02*
D03*
Y13879539D02*
D03*
D16*
X18644092Y8088177D02*
D03*
X21006825D02*
D03*
X18644092Y5548729D02*
D03*
X21006825D02*
D03*
D17*
X18644092Y7338177D02*
D03*
X21006825D02*
D03*
X18644092Y4798729D02*
D03*
X21006825D02*
D03*
D18*
X13895787Y6599847D02*
D03*
X12879787D02*
D03*
X12831166Y9449982D02*
D03*
X13847166D02*
D03*
X16803838Y3091032D02*
D03*
X17311836D02*
D03*
X16549837Y3332169D02*
D03*
X17057837D02*
D03*
X12264804Y9679103D02*
D03*
X11564803D02*
D03*
Y9128876D02*
D03*
X12264804D02*
D03*
X6535641Y7177809D02*
D03*
X7551641D02*
D03*
X17057837Y9180919D02*
D03*
D19*
X15035402Y7125233D02*
D03*
Y5125233D02*
D03*
Y10160232D02*
D03*
Y8160232D02*
D03*
D20*
X13404482Y5541315D02*
D03*
X14308334Y5286966D02*
D03*
Y8941032D02*
D03*
D21*
X13633057Y8041791D02*
D03*
Y8168791D02*
D03*
D22*
Y8295791D02*
D03*
D23*
X17057837Y3825681D02*
D03*
D24*
X16803838D02*
D03*
X16549837D02*
D03*
X16803838Y9180919D02*
D03*
X17311836D02*
D03*
X17057837D02*
D03*
D25*
X16803838Y8088177D02*
D03*
Y5098729D02*
D03*
D26*
Y7788177D02*
D03*
Y4798729D02*
D03*
D27*
X9049561Y13924515D02*
D03*
D28*
X20541643Y13364258D02*
D03*
Y14064258D02*
D03*
X20910458D02*
D03*
Y13364258D02*
D03*
X19526642D02*
D03*
Y14064258D02*
D03*
X20032149D02*
D03*
Y13364258D02*
D03*
D29*
X20034143Y15342825D02*
D03*
X20541643D02*
D03*
X19526642D02*
D03*
D30*
X15574020Y15774515D02*
D03*
X17197021D02*
D03*
Y14504515D02*
D03*
X15574020D02*
D03*
X13337720Y15774515D02*
D03*
X14960719D02*
D03*
Y14504515D02*
D03*
X13337720D02*
D03*
D31*
X11007793Y10301815D02*
D03*
X12335126D02*
D03*
X7238170Y9246082D02*
D03*
X7267541Y10582991D02*
D03*
X8340446Y14686514D02*
D03*
X6402430Y8734582D02*
D03*
Y11020582D02*
D03*
X7797727Y10582991D02*
D03*
D32*
X3450222Y5795567D02*
X4506860Y6852205D01*
Y13585004D02*
X5995198Y15073340D01*
X4506860Y6852205D02*
Y13585004D01*
X3305692Y5692835D02*
X3337658Y5724801D01*
X3379456D02*
X3450222Y5795567D01*
X3450222D01*
X3337658Y5724801D02*
X3379456D01*
X3305692Y5651037D02*
Y5692835D01*
X6668207Y13896133D02*
X7366707D01*
X4621655Y5595160D02*
Y13185049D01*
X3305692Y4214197D02*
Y4279197D01*
X4621655Y5595160D01*
Y13185049D02*
X5316146Y13879539D01*
X6668207D01*
X5376935Y11069005D02*
X5521878Y10924062D01*
Y6135654D02*
X5750002Y5907530D01*
X5521878Y6135654D02*
Y10924062D01*
X5269895Y11032360D02*
X5413982Y10888274D01*
Y6028024D02*
X5712276Y5729730D01*
X5413982Y6028024D02*
Y10888274D01*
X5376935Y11069005D02*
Y11656454D01*
X5269895Y11032360D02*
Y11693099D01*
X5712276Y5718749D02*
Y5729730D01*
Y5718749D02*
X5775402Y5655623D01*
Y5653530D02*
Y5655623D01*
X5750002Y5907530D02*
X5775402D01*
X5269895Y11693099D02*
X5588116Y12011319D01*
X5376935Y11656454D02*
X5584324Y11863843D01*
X5588116Y12011319D02*
X5710597D01*
X5740516Y12041238D01*
X5584324Y11863843D02*
X5676984D01*
X5879360D02*
X6031355Y12015838D01*
X5676984Y11863843D02*
X5677390Y11863438D01*
X5804047Y11863843D02*
X5879360D01*
X5677390Y11863438D02*
X5803642D01*
X5804047Y11863843D01*
X6031355Y12015838D02*
Y12041238D01*
X5433669Y12803238D02*
X6017869Y12219038D01*
Y12054724D02*
X6031355Y12041238D01*
X6017869Y12054724D02*
Y12219038D01*
X5408269Y12803238D02*
X5433669D01*
X5740516Y12041238D02*
Y12242391D01*
X5433669Y12549238D02*
X5740516Y12242391D01*
X5408269Y12549238D02*
X5433669D01*
X9811561Y14686514D02*
Y14711916D01*
X9450136Y15073340D02*
X9811561Y14711916D01*
X5995198Y15073340D02*
X9450136D01*
X16031818Y11911446D02*
X16143515Y12023143D01*
Y12248368D01*
X16318102Y12422954D01*
X16426228D01*
X12447769Y12426218D02*
X15937537D01*
X12904073Y11911446D02*
X16031818D01*
X16426228Y12422954D02*
X16431815Y12428540D01*
X11330074Y11308523D02*
X12447769Y12426218D01*
X11562162Y10569535D02*
X12904073Y11911446D01*
X6857356Y5147921D02*
X8045971D01*
X8047264Y5146629D02*
X8356531D01*
X8356823Y5146337D01*
X8045971Y5147921D02*
X8047264Y5146629D01*
X8356823Y5146337D02*
X10641028D01*
X8356453Y3728971D02*
Y4130550D01*
X8356531Y4130629D01*
X8665799Y5400986D02*
X8975066D01*
X8975537Y5400516D01*
X6840041Y5400986D02*
X8665799D01*
X6076584Y4637530D02*
X6840041Y5400986D01*
X6067506Y4637530D02*
X6076584D01*
X8356374Y3728892D02*
X8356453Y3728971D01*
X10641028Y5146337D02*
X10643550Y5143815D01*
X6092965Y4383530D02*
X6857356Y5147921D01*
X6067506Y4383530D02*
X6092965D01*
X9689515Y10569535D02*
X11562162D01*
X11564803Y10041830D02*
X13094264Y11571290D01*
X16247089D01*
X11564803Y9679103D02*
Y10041830D01*
X16247089Y11571290D02*
X16744518Y12068720D01*
Y12895329D01*
X16024419Y13615430D02*
X16744518Y12895329D01*
X14226807Y13615430D02*
X16024419D01*
X12285712Y6857514D02*
Y9128876D01*
Y6857514D02*
X12543379Y6599847D01*
X12879787D01*
X11564803Y9290476D02*
X11585712Y9269568D01*
Y9128876D02*
Y9269568D01*
X11564803Y9290476D02*
Y9654935D01*
X8975437Y6415676D02*
X10641690D01*
X10643550Y6413815D01*
X8359303Y6667274D02*
X10643009D01*
X10643550Y6667815D01*
X9597743Y6166187D02*
X10637178D01*
X10643550Y6159815D01*
X8975537Y5400516D02*
X10640849D01*
X10643550Y5397815D01*
X9594398Y5654843D02*
X10640523D01*
X10643550Y5651815D01*
X10212516Y5907667D02*
X10641699D01*
X10643550Y5905815D01*
X10212137Y5907287D02*
X10212516Y5907667D01*
X9593602Y5655640D02*
X9594398Y5654843D01*
X9593602Y6170328D02*
X9597743Y6166187D01*
X8356531Y6664503D02*
X8359303Y6667274D01*
X8975066Y6415305D02*
X8975437Y6415676D01*
X13410316Y8168791D02*
X14782211D01*
X12840228Y8738880D02*
X13410316Y8168791D01*
X7267541Y11020582D02*
X7272889Y11015234D01*
Y10588340D02*
X7278237Y10582991D01*
X8419248Y10892576D02*
Y11166938D01*
X8323437Y11262748D02*
X8419248Y11166938D01*
X7531254Y10004582D02*
X8419248Y10892576D01*
X7039352Y10004582D02*
X7531254D01*
X8215971Y11274582D02*
X8227806Y11262748D01*
X8323437D01*
X6782512Y9750582D02*
X7642364D01*
X9200304Y11308523D02*
X11330074D01*
X7642364Y9750582D02*
X9200304Y11308523D01*
X8355831Y3166285D02*
X8356374Y3165742D01*
X6535641Y7415662D02*
X9689515Y10569535D01*
X12240636Y9679103D02*
X12602044D01*
X12831166Y9449982D01*
X13337720Y14504515D02*
X14226807Y13615430D01*
X6067506Y10004582D02*
X7039352D01*
X6535641Y7177809D02*
Y7415662D01*
X6535502Y7177670D02*
X6535641Y7177809D01*
X6067506Y7177530D02*
X6067645Y7177670D01*
X6535502D01*
X9734161Y14101115D02*
X12934320D01*
X13337720Y14504515D01*
X10601625Y14599065D02*
X11313218D01*
X11504818Y14407463D01*
X10385476Y14382915D02*
X10601625Y14599065D01*
X9607161Y14382915D02*
X10385476D01*
X10252603Y14509915D02*
X11166152Y15423463D01*
X9734161Y14509915D02*
X10252603D01*
X9557561Y13924515D02*
X9734161Y14101115D01*
X6620912Y11087519D02*
X6807975Y11274582D01*
X6620912Y10890214D02*
Y11087519D01*
Y10890214D02*
X6782512Y10728614D01*
Y10512582D02*
Y10728614D01*
X6807975Y11274582D02*
X7267541D01*
X6067506Y10512582D02*
X6782512D01*
X7517822Y10512440D02*
Y11055648D01*
X7736757Y11274582D01*
X7741756D01*
X7277387Y10272005D02*
X7517822Y10512440D01*
X7245930Y10272005D02*
X7277387D01*
X7232507Y10258582D02*
X7245930Y10272005D01*
X7039352Y10258582D02*
X7232507D01*
X6067506Y9750582D02*
X6782512D01*
X6067506Y10258582D02*
X7039352D01*
X9303561Y14686514D02*
X9607161Y14382915D01*
X9557561Y14686514D02*
X9734161Y14509915D01*
X11166152Y15423463D02*
X11504818D01*
Y14407463D02*
X12118652D01*
X11802045Y15423463D02*
X12118652D01*
X14337483D01*
X15256432Y14504515D01*
X15574020D01*
X7095744Y14895540D02*
X7568818Y14422467D01*
X8551609D01*
X6668207Y14895540D02*
X7095744D01*
X8551609Y14422467D02*
X9049561Y13924515D01*
X12879787Y6599847D02*
X13405174Y7125233D01*
X15042900D01*
X9049561Y13924515D02*
X9303561D01*
X14318175Y9449084D02*
X14494934Y9272324D01*
X14266412Y9449084D02*
X14318175D01*
X13633057Y8468256D02*
X14105832Y8941032D01*
X13633057Y8295791D02*
Y8468256D01*
X14308334Y5540966D02*
Y5794966D01*
X13895567Y5541653D02*
Y6599628D01*
Y5541653D02*
X13897424Y5539797D01*
X14307166D01*
X12886792Y6047986D02*
Y6592843D01*
X13404820Y5541653D02*
X13895567D01*
X13404482Y5541315D02*
X13404820Y5541653D01*
X12886792Y6047986D02*
X12887456Y6048651D01*
X13403818D01*
X13404482Y6049315D01*
X14494934Y9117739D02*
Y9272324D01*
X14308388Y8941084D02*
X14375734Y9008432D01*
X14385626D01*
X14494934Y9117739D01*
X12835696Y8743412D02*
Y9445450D01*
X12831166Y9449982D02*
X12835696Y9445450D01*
Y8743412D02*
X12840228Y8738880D01*
X14267084Y8941084D02*
X14308388D01*
X14105832Y8941032D02*
X14267032D01*
X13847166Y9449982D02*
X13848116Y9449032D01*
X14267032D01*
X14785709Y8165293D02*
X15041118D01*
X14782211Y8168791D02*
X14785709Y8165293D01*
X12879787Y6599847D02*
X12886792Y6592843D01*
X13895567Y6599628D02*
X13895787Y6599847D01*
X9593321Y3729173D02*
Y4639359D01*
X9593041Y3728892D02*
X9593321Y3729173D01*
Y4639359D02*
X9593602Y4639640D01*
X8975066Y4384986D02*
X8976232Y4383821D01*
Y3730058D02*
Y4383821D01*
Y3730058D02*
X8977397Y3728892D01*
X10211174Y6924250D02*
Y8043171D01*
X10210212Y8044133D02*
X10211174Y8043171D01*
Y6924250D02*
X10212137Y6923287D01*
X9593602Y7186328D02*
X9594332Y7187059D01*
Y8043403D02*
X9595062Y8044133D01*
X9594332Y7187059D02*
Y8043403D01*
X8973454Y7432917D02*
Y8042521D01*
X8971842Y8044133D02*
X8973454Y8042521D01*
Y7432917D02*
X8975066Y7431305D01*
X8356229Y7680805D02*
Y8043831D01*
Y7680805D02*
X8356531Y7680503D01*
X8355927Y8044133D02*
X8356229Y8043831D01*
X6067506Y6923530D02*
X6070327D01*
X6329355Y6664503D02*
X8047264D01*
X6070327Y6923530D02*
X6329355Y6664503D01*
X6324553Y6415305D02*
X8665799D01*
X6070327Y6669530D02*
X6324553Y6415305D01*
X6067506Y6669530D02*
X6070327D01*
Y6415530D02*
X6315529Y6170328D01*
X9284334D01*
X6067506Y6415530D02*
X6070327D01*
X6067627Y5907409D02*
X9902748D01*
X9902869Y5907287D01*
X6067506Y5907530D02*
X6067627Y5907409D01*
X6067506Y5653530D02*
X6068561Y5654585D01*
X9283279D02*
X9284334Y5655640D01*
X6068561Y5654585D02*
X9283279D01*
X8356531Y7680503D02*
X8358261Y7682232D01*
X8047264Y6664503D02*
X8356531D01*
X9902869Y5907287D02*
X10212137D01*
X9284334Y5655640D02*
X9593602D01*
X9284334Y6170328D02*
X9593602D01*
X8665799Y6415305D02*
X8975066D01*
D33*
X6031355Y13057237D02*
X6292350Y12796243D01*
Y11688169D02*
Y12796243D01*
X15938698Y12681379D02*
X16430653D01*
X12407425Y12680218D02*
X15937537D01*
Y12682540D02*
X15938698Y12681379D01*
X16430653D02*
X16431815Y12682540D01*
X11255789Y11528582D02*
X12407425Y12680218D01*
X5752555Y11020582D02*
X5775402D01*
X5567693Y11205445D02*
Y11626291D01*
Y11205445D02*
X5752555Y11020582D01*
X8215971Y11528582D02*
X11255789D01*
X7741756D02*
X8215971D01*
X7267541D02*
X7741756D01*
X6483552D02*
X7267541D01*
X6470147Y11541988D02*
X6483552Y11528582D01*
X6438531Y11541988D02*
X6470147D01*
X6270336Y11710183D02*
X6438531Y11541988D01*
X5651585Y11710183D02*
X6270336D01*
X5740516Y13057237D02*
X5740587Y13057309D01*
X5567693Y11626291D02*
X5651585Y11710183D01*
X6031284Y13057309D02*
X6031355Y13057237D01*
X5414202Y13051447D02*
X5734583D01*
X5740516Y13057381D01*
X5740587Y13057309D01*
X6031284D01*
%TF.MD5,00ecd6ff2bc08bc7b573b9f69be5951e*%
M02*
