%TF.GenerationSoftware,Altium Limited,Altium Designer,24.10.1 (45)*%
G04 Layer_Color=65535*
%FSLAX45Y45*%
%MOMM*%
%TF.SameCoordinates,38DBCD4E-7E83-4607-9FCA-708DEC94F610*%
%TF.FilePolarity,Positive*%
%TF.FileFunction,Legend,Top*%
%TF.Part,Single*%
G01*
G75*
%TA.AperFunction,NonConductor*%
%ADD37C,0.25400*%
%ADD38C,0.25000*%
%ADD39C,0.20000*%
%ADD40C,0.12700*%
%ADD41C,0.60000*%
D37*
X16962537Y7993391D02*
G03*
X16962537Y7993391I-400000J0D01*
G01*
X4102531Y12140228D02*
G03*
X4102531Y12674228I0J267000D01*
G01*
X3358001Y12673535D02*
G03*
X3358001Y12139536I0J-267000D01*
G01*
X9950755Y15268483D02*
G03*
X9950755Y14734483I0J-267000D01*
G01*
X16962537Y5228129D02*
G03*
X16962537Y5228129I-400000J0D01*
G01*
X19689145Y7763391D02*
G03*
X19689145Y7763391I-950000J0D01*
G01*
X22109225D02*
G03*
X22109225Y7763391I-950000J0D01*
G01*
X19689145Y5448129D02*
G03*
X19689145Y5448129I-950000J0D01*
G01*
X22109225D02*
G03*
X22109225Y5448129I-950000J0D01*
G01*
X16807536Y7790891D02*
Y7895891D01*
Y8090891D02*
Y8195891D01*
X16755037Y8143391D02*
X16860037D01*
X3902531Y12674228D02*
X4102531D01*
X3902531Y12140228D02*
X4102531D01*
X3902531D02*
Y12674228D01*
X3358001Y12139536D02*
X3558001D01*
X3358001Y12673535D02*
X3558001D01*
Y12139536D02*
Y12673535D01*
X10150755Y14734483D02*
Y15268483D01*
X9950755D02*
X10150755D01*
X9950755Y14734483D02*
X10150755D01*
X16755037Y5378129D02*
X16860037D01*
X16807536Y5325629D02*
Y5430629D01*
Y5025629D02*
Y5130629D01*
X19146654Y7340891D02*
Y7445891D01*
Y8090891D02*
Y8195891D01*
X19094153Y8143391D02*
X19199153D01*
X21566734Y7340891D02*
Y7445891D01*
Y8090891D02*
Y8195891D01*
X21514233Y8143391D02*
X21619234D01*
X19094153Y5828129D02*
X19199153D01*
X19146654Y5775629D02*
Y5880629D01*
Y5025629D02*
Y5130629D01*
X21514233Y5828129D02*
X21619234D01*
X21566734Y5775629D02*
Y5880629D01*
Y5025629D02*
Y5130629D01*
X15908020Y13220700D02*
Y13373051D01*
X15984195D01*
X16009587Y13347659D01*
Y13296875D01*
X15984195Y13271483D01*
X15908020D01*
X15958803D02*
X16009587Y13220700D01*
X16161938D02*
X16060371D01*
X16161938Y13322267D01*
Y13347659D01*
X16136546Y13373051D01*
X16085764D01*
X16060371Y13347659D01*
X16212721D02*
X16238113Y13373051D01*
X16288898D01*
X16314288Y13347659D01*
Y13246092D01*
X16288898Y13220700D01*
X16238113D01*
X16212721Y13246092D01*
Y13347659D01*
X16466640Y13373051D02*
X16415855Y13347659D01*
X16365073Y13296875D01*
Y13246092D01*
X16390463Y13220700D01*
X16441248D01*
X16466640Y13246092D01*
Y13271483D01*
X16441248Y13296875D01*
X16365073D01*
X9799287Y15382233D02*
Y15483800D01*
X9773895Y15509190D01*
X9723112D01*
X9697720Y15483800D01*
Y15382233D01*
X9723112Y15356841D01*
X9773895D01*
X9748503Y15407623D02*
X9799287Y15356841D01*
X9773895D02*
X9799287Y15382233D01*
X9951638Y15356841D02*
X9850071D01*
X9951638Y15458408D01*
Y15483800D01*
X9926246Y15509190D01*
X9875463D01*
X9850071Y15483800D01*
X10002421D02*
X10027813Y15509190D01*
X10078597D01*
X10103989Y15483800D01*
Y15382233D01*
X10078597Y15356841D01*
X10027813D01*
X10002421Y15382233D01*
Y15483800D01*
X10256339Y15356841D02*
X10154772D01*
X10256339Y15458408D01*
Y15483800D01*
X10230948Y15509190D01*
X10180164D01*
X10154772Y15483800D01*
X16888428Y12788851D02*
X16837643D01*
X16863036D01*
Y12661892D01*
X16837643Y12636500D01*
X16812251D01*
X16786861Y12661892D01*
X17040778Y12636500D02*
X16939211D01*
X17040778Y12738067D01*
Y12763459D01*
X17015385Y12788851D01*
X16964603D01*
X16939211Y12763459D01*
X17091560D02*
X17116953Y12788851D01*
X17167737D01*
X17193129Y12763459D01*
Y12661892D01*
X17167737Y12636500D01*
X17116953D01*
X17091560Y12661892D01*
Y12763459D01*
X17243912Y12636500D02*
X17294696D01*
X17269304D01*
Y12788851D01*
X17243912Y12763459D01*
X10033324Y4830798D02*
X9931757D01*
Y4754622D01*
X9982540D01*
X9931757D01*
Y4678447D01*
X10084107Y4780014D02*
X10185675Y4678447D01*
X10134891Y4729231D01*
X10185675Y4780014D01*
X10084107Y4678447D01*
X10236458Y4653055D02*
X10338025D01*
X10388809Y4678447D02*
X10464984D01*
X10490376Y4703839D01*
X10464984Y4729231D01*
X10414201D01*
X10388809Y4754622D01*
X10414201Y4780014D01*
X10490376D01*
X10541160D02*
Y4703839D01*
X10566551Y4678447D01*
X10591943Y4703839D01*
X10617335Y4678447D01*
X10642727Y4703839D01*
Y4780014D01*
X10693510Y4678447D02*
X10744294D01*
X10718902D01*
Y4780014D01*
X10693510D01*
X10845861Y4805406D02*
Y4780014D01*
X10820469D01*
X10871253D01*
X10845861D01*
Y4703839D01*
X10871253Y4678447D01*
X11048995Y4780014D02*
X10972820D01*
X10947428Y4754622D01*
Y4703839D01*
X10972820Y4678447D01*
X11048995D01*
X11099779Y4830798D02*
Y4678447D01*
Y4754622D01*
X11125171Y4780014D01*
X11175954D01*
X11201346Y4754622D01*
Y4678447D01*
X11328305D02*
X11277521D01*
X11252129Y4703839D01*
Y4754622D01*
X11277521Y4780014D01*
X11328305D01*
X11353697Y4754622D01*
Y4729231D01*
X11252129D01*
X11404480Y4678447D02*
X11480655D01*
X11506047Y4703839D01*
X11480655Y4729231D01*
X11429872D01*
X11404480Y4754622D01*
X11429872Y4780014D01*
X11506047D01*
X11556831Y4653055D02*
X11658398D01*
X11759965Y4627664D02*
X11785357D01*
X11810749Y4653055D01*
Y4780014D01*
X11734573D01*
X11709182Y4754622D01*
Y4703839D01*
X11734573Y4678447D01*
X11810749D01*
X11861532Y4627664D02*
Y4780014D01*
X11937708D01*
X11963100Y4754622D01*
Y4703839D01*
X11937708Y4678447D01*
X11861532D01*
X12013883D02*
X12064666D01*
X12039275D01*
Y4780014D01*
X12013883D01*
X12166234Y4678447D02*
X12217017D01*
X12242409Y4703839D01*
Y4754622D01*
X12217017Y4780014D01*
X12166234D01*
X12140842Y4754622D01*
Y4703839D01*
X12166234Y4678447D01*
X10668272Y6824852D02*
X10566705D01*
Y6748676D01*
X10617488D01*
X10566705D01*
Y6672501D01*
X10719055Y6774068D02*
X10820623Y6672501D01*
X10769839Y6723284D01*
X10820623Y6774068D01*
X10719055Y6672501D01*
X10871406Y6647109D02*
X10972973D01*
X11023757Y6672501D02*
X11099932D01*
X11125324Y6697893D01*
X11099932Y6723284D01*
X11049149D01*
X11023757Y6748676D01*
X11049149Y6774068D01*
X11125324D01*
X11176107D02*
Y6697893D01*
X11201499Y6672501D01*
X11226891Y6697893D01*
X11252283Y6672501D01*
X11277675Y6697893D01*
Y6774068D01*
X11328458Y6672501D02*
X11379242D01*
X11353850D01*
Y6774068D01*
X11328458D01*
X11480809Y6799460D02*
Y6774068D01*
X11455417D01*
X11506201D01*
X11480809D01*
Y6697893D01*
X11506201Y6672501D01*
X11683943Y6774068D02*
X11607768D01*
X11582376Y6748676D01*
Y6697893D01*
X11607768Y6672501D01*
X11683943D01*
X11734727Y6824852D02*
Y6672501D01*
Y6748676D01*
X11760118Y6774068D01*
X11810902D01*
X11836294Y6748676D01*
Y6672501D01*
X11963253D02*
X11912469D01*
X11887077Y6697893D01*
Y6748676D01*
X11912469Y6774068D01*
X11963253D01*
X11988645Y6748676D01*
Y6723284D01*
X11887077D01*
X12039428Y6672501D02*
X12115603D01*
X12140995Y6697893D01*
X12115603Y6723284D01*
X12064820D01*
X12039428Y6748676D01*
X12064820Y6774068D01*
X12140995D01*
X12191779Y6647109D02*
X12293346D01*
X12344129Y6799460D02*
X12369521Y6824852D01*
X12420305D01*
X12445697Y6799460D01*
Y6774068D01*
X12420305Y6748676D01*
X12394913D01*
X12420305D01*
X12445697Y6723284D01*
Y6697893D01*
X12420305Y6672501D01*
X12369521D01*
X12344129Y6697893D01*
X12496480Y6824852D02*
Y6723284D01*
X12547264Y6672501D01*
X12598047Y6723284D01*
Y6824852D01*
X12648831Y6799460D02*
X12674223Y6824852D01*
X12725006D01*
X12750398Y6799460D01*
Y6774068D01*
X12725006Y6748676D01*
X12699614D01*
X12725006D01*
X12750398Y6723284D01*
Y6697893D01*
X12725006Y6672501D01*
X12674223D01*
X12648831Y6697893D01*
X3751988Y14279916D02*
Y14432268D01*
X3828164D01*
X3853556Y14406876D01*
Y14356091D01*
X3828164Y14330701D01*
X3751988D01*
X3802772D02*
X3853556Y14279916D01*
X4005906D02*
X3904339D01*
X4005906Y14381483D01*
Y14406876D01*
X3980515Y14432268D01*
X3929731D01*
X3904339Y14406876D01*
X4056690D02*
X4082082Y14432268D01*
X4132865D01*
X4158257Y14406876D01*
Y14305309D01*
X4132865Y14279916D01*
X4082082D01*
X4056690Y14305309D01*
Y14406876D01*
X4310608Y14432268D02*
X4209041D01*
Y14356091D01*
X4259824Y14381483D01*
X4285216D01*
X4310608Y14356091D01*
Y14305309D01*
X4285216Y14279916D01*
X4234432D01*
X4209041Y14305309D01*
X4365183Y14285114D02*
Y14437463D01*
X4441358D01*
X4466750Y14412073D01*
Y14361288D01*
X4441358Y14335896D01*
X4365183D01*
X4415967D02*
X4466750Y14285114D01*
X4619101D02*
X4517534D01*
X4619101Y14386681D01*
Y14412073D01*
X4593709Y14437463D01*
X4542926D01*
X4517534Y14412073D01*
X4669884D02*
X4695276Y14437463D01*
X4746060D01*
X4771452Y14412073D01*
Y14310506D01*
X4746060Y14285114D01*
X4695276D01*
X4669884Y14310506D01*
Y14412073D01*
X4898411Y14285114D02*
Y14437463D01*
X4822235Y14361288D01*
X4923802D01*
X9451214Y9911873D02*
X9603565D01*
Y9835698D01*
X9578173Y9810306D01*
X9527390D01*
X9501998Y9835698D01*
Y9911873D01*
Y9861090D02*
X9451214Y9810306D01*
Y9657956D02*
Y9759523D01*
X9552782Y9657956D01*
X9578173D01*
X9603565Y9683347D01*
Y9734131D01*
X9578173Y9759523D01*
Y9607172D02*
X9603565Y9581780D01*
Y9530997D01*
X9578173Y9505605D01*
X9476606D01*
X9451214Y9530997D01*
Y9581780D01*
X9476606Y9607172D01*
X9578173D01*
Y9454821D02*
X9603565Y9429429D01*
Y9378646D01*
X9578173Y9353254D01*
X9552782D01*
X9527390Y9378646D01*
Y9404038D01*
Y9378646D01*
X9501998Y9353254D01*
X9476606D01*
X9451214Y9378646D01*
Y9429429D01*
X9476606Y9454821D01*
X5470387Y12419282D02*
Y12266931D01*
Y12317715D01*
X5571955Y12419282D01*
X5495779Y12343107D01*
X5571955Y12266931D01*
X5724305D02*
X5622738D01*
X5724305Y12368499D01*
Y12393890D01*
X5698913Y12419282D01*
X5648130D01*
X5622738Y12393890D01*
X5775089D02*
X5800481Y12419282D01*
X5851264D01*
X5876656Y12393890D01*
Y12292323D01*
X5851264Y12266931D01*
X5800481D01*
X5775089Y12292323D01*
Y12393890D01*
X5927440D02*
X5952831Y12419282D01*
X6003615D01*
X6029007Y12393890D01*
Y12368499D01*
X6003615Y12343107D01*
X5978223D01*
X6003615D01*
X6029007Y12317715D01*
Y12292323D01*
X6003615Y12266931D01*
X5952831D01*
X5927440Y12292323D01*
X2701343Y12044599D02*
Y11892249D01*
Y11943032D01*
X2802910Y12044599D01*
X2726734Y11968424D01*
X2802910Y11892249D01*
X2955261D02*
X2853693D01*
X2955261Y11993816D01*
Y12019208D01*
X2929869Y12044599D01*
X2879085D01*
X2853693Y12019208D01*
X3006044D02*
X3031436Y12044599D01*
X3082219D01*
X3107611Y12019208D01*
Y11917641D01*
X3082219Y11892249D01*
X3031436D01*
X3006044Y11917641D01*
Y12019208D01*
X3259962Y11892249D02*
X3158395D01*
X3259962Y11993816D01*
Y12019208D01*
X3234570Y12044599D01*
X3183787D01*
X3158395Y12019208D01*
X2651023Y13050130D02*
Y12897778D01*
Y12948561D01*
X2752591Y13050130D01*
X2676415Y12973953D01*
X2752591Y12897778D01*
X2904941D02*
X2803374D01*
X2904941Y12999345D01*
Y13024738D01*
X2879549Y13050130D01*
X2828766D01*
X2803374Y13024738D01*
X2955725D02*
X2981117Y13050130D01*
X3031900D01*
X3057292Y13024738D01*
Y12923170D01*
X3031900Y12897778D01*
X2981117D01*
X2955725Y12923170D01*
Y13024738D01*
X3108076Y12897778D02*
X3158859D01*
X3133467D01*
Y13050130D01*
X3108076Y13024738D01*
X5205959Y12663711D02*
Y12511361D01*
Y12562144D01*
X5307526Y12663711D01*
X5231351Y12587536D01*
X5307526Y12511361D01*
X5459877D02*
X5358310D01*
X5459877Y12612928D01*
Y12638319D01*
X5434485Y12663711D01*
X5383702D01*
X5358310Y12638319D01*
X5510661D02*
X5536052Y12663711D01*
X5586836D01*
X5612228Y12638319D01*
Y12536752D01*
X5586836Y12511361D01*
X5536052D01*
X5510661Y12536752D01*
Y12638319D01*
X5663011D02*
X5688403Y12663711D01*
X5739187D01*
X5764579Y12638319D01*
Y12536752D01*
X5739187Y12511361D01*
X5688403D01*
X5663011Y12536752D01*
Y12638319D01*
X3300452Y12768878D02*
Y12870445D01*
X3275060Y12895837D01*
X3224276D01*
X3198884Y12870445D01*
Y12768878D01*
X3224276Y12743486D01*
X3275060D01*
X3249668Y12794270D02*
X3300452Y12743486D01*
X3275060D02*
X3300452Y12768878D01*
X3452802Y12743486D02*
X3351235D01*
X3452802Y12845053D01*
Y12870445D01*
X3427410Y12895837D01*
X3376627D01*
X3351235Y12870445D01*
X3503586D02*
X3528978Y12895837D01*
X3579761D01*
X3605153Y12870445D01*
Y12768878D01*
X3579761Y12743486D01*
X3528978D01*
X3503586Y12768878D01*
Y12870445D01*
X3655937Y12743486D02*
X3706720D01*
X3681328D01*
Y12895837D01*
X3655937Y12870445D01*
X4044197Y12756813D02*
Y12858380D01*
X4018805Y12883772D01*
X3968021D01*
X3942629Y12858380D01*
Y12756813D01*
X3968021Y12731421D01*
X4018805D01*
X3993413Y12782205D02*
X4044197Y12731421D01*
X4018805D02*
X4044197Y12756813D01*
X4196547Y12731421D02*
X4094980D01*
X4196547Y12832988D01*
Y12858380D01*
X4171155Y12883772D01*
X4120372D01*
X4094980Y12858380D01*
X4247331D02*
X4272723Y12883772D01*
X4323506D01*
X4348898Y12858380D01*
Y12756813D01*
X4323506Y12731421D01*
X4272723D01*
X4247331Y12756813D01*
Y12858380D01*
X4399682D02*
X4425073Y12883772D01*
X4475857D01*
X4501249Y12858380D01*
Y12756813D01*
X4475857Y12731421D01*
X4425073D01*
X4399682Y12756813D01*
Y12858380D01*
X6778173Y10925605D02*
Y11077956D01*
X6828956Y11027172D01*
X6879740Y11077956D01*
Y10925605D01*
X7032091Y11077956D02*
X6930524D01*
Y10925605D01*
X7032091D01*
X6930524Y11001780D02*
X6981307D01*
X7082874Y10925605D02*
Y11077956D01*
X7184442Y10925605D01*
Y11077956D01*
X7235225D02*
Y10950997D01*
X7260617Y10925605D01*
X7311400D01*
X7336792Y10950997D01*
Y11077956D01*
X7387576Y10900213D02*
X7489143D01*
X7641494Y11052564D02*
X7616102Y11077956D01*
X7565318D01*
X7539926Y11052564D01*
Y10950997D01*
X7565318Y10925605D01*
X7616102D01*
X7641494Y10950997D01*
X7692277Y11077956D02*
X7793844D01*
X7743061D01*
Y10925605D01*
X7844628D02*
Y11077956D01*
X7920803D01*
X7946195Y11052564D01*
Y11001780D01*
X7920803Y10976389D01*
X7844628D01*
X7895411D02*
X7946195Y10925605D01*
X7996979Y11077956D02*
Y10925605D01*
X8098546D01*
X8250897D02*
X8149329D01*
X8250897Y11027172D01*
Y11052564D01*
X8225505Y11077956D01*
X8174721D01*
X8149329Y11052564D01*
X8301680D02*
X8327072Y11077956D01*
X8377855D01*
X8403247Y11052564D01*
Y10950997D01*
X8377855Y10925605D01*
X8327072D01*
X8301680Y10950997D01*
Y11052564D01*
X8454031Y10925605D02*
X8504814D01*
X8479423D01*
Y11077956D01*
X8454031Y11052564D01*
X22313901Y11394391D02*
Y11242040D01*
Y11292823D01*
X22415466Y11394391D01*
X22339291Y11318215D01*
X22415466Y11242040D01*
X22567818Y11394391D02*
X22466251D01*
Y11318215D01*
X22517033Y11343607D01*
X22542426D01*
X22567818Y11318215D01*
Y11267432D01*
X22542426Y11242040D01*
X22491643D01*
X22466251Y11267432D01*
X22618600Y11368999D02*
X22643993Y11394391D01*
X22694777D01*
X22720169Y11368999D01*
Y11267432D01*
X22694777Y11242040D01*
X22643993D01*
X22618600Y11267432D01*
Y11368999D01*
X22770952Y11242040D02*
X22821736D01*
X22796344D01*
Y11394391D01*
X22770952Y11368999D01*
X19001740Y11805871D02*
Y11653520D01*
Y11704303D01*
X19103307Y11805871D01*
X19027132Y11729695D01*
X19103307Y11653520D01*
X19255658Y11805871D02*
X19154091D01*
Y11729695D01*
X19204874Y11755087D01*
X19230266D01*
X19255658Y11729695D01*
Y11678912D01*
X19230266Y11653520D01*
X19179483D01*
X19154091Y11678912D01*
X19306441Y11780479D02*
X19331833Y11805871D01*
X19382617D01*
X19408009Y11780479D01*
Y11678912D01*
X19382617Y11653520D01*
X19331833D01*
X19306441Y11678912D01*
Y11780479D01*
X19458792D02*
X19484184Y11805871D01*
X19534969D01*
X19560359Y11780479D01*
Y11678912D01*
X19534969Y11653520D01*
X19484184D01*
X19458792Y11678912D01*
Y11780479D01*
X16131540Y11368991D02*
Y11216640D01*
Y11267423D01*
X16233107Y11368991D01*
X16156932Y11292815D01*
X16233107Y11216640D01*
X16283891D02*
X16334674D01*
X16309283D01*
Y11368991D01*
X16283891Y11343599D01*
X16410851D02*
X16436241Y11368991D01*
X16487025D01*
X16512418Y11343599D01*
Y11242032D01*
X16487025Y11216640D01*
X16436241D01*
X16410851Y11242032D01*
Y11343599D01*
X16664767Y11368991D02*
X16563200D01*
Y11292815D01*
X16613985Y11318207D01*
X16639375D01*
X16664767Y11292815D01*
Y11242032D01*
X16639375Y11216640D01*
X16588593D01*
X16563200Y11242032D01*
X15483839Y3726131D02*
Y3573780D01*
Y3624563D01*
X15585406Y3726131D01*
X15509232Y3649955D01*
X15585406Y3573780D01*
X15636191D02*
X15686974D01*
X15661583D01*
Y3726131D01*
X15636191Y3700739D01*
X15763150D02*
X15788541Y3726131D01*
X15839325D01*
X15864717Y3700739D01*
Y3599172D01*
X15839325Y3573780D01*
X15788541D01*
X15763150Y3599172D01*
Y3700739D01*
X15991676Y3573780D02*
Y3726131D01*
X15915500Y3649955D01*
X16017068D01*
X14706599Y12471351D02*
Y12319000D01*
Y12369783D01*
X14808167Y12471351D01*
X14731992Y12395175D01*
X14808167Y12319000D01*
X14858951D02*
X14909734D01*
X14884343D01*
Y12471351D01*
X14858951Y12445959D01*
X14985910D02*
X15011301Y12471351D01*
X15062085D01*
X15087477Y12445959D01*
Y12344392D01*
X15062085Y12319000D01*
X15011301D01*
X14985910Y12344392D01*
Y12445959D01*
X15138260D02*
X15163652Y12471351D01*
X15214436D01*
X15239828Y12445959D01*
Y12420567D01*
X15214436Y12395175D01*
X15189044D01*
X15214436D01*
X15239828Y12369783D01*
Y12344392D01*
X15214436Y12319000D01*
X15163652D01*
X15138260Y12344392D01*
X15618460Y8925511D02*
Y8773160D01*
Y8823943D01*
X15720027Y8925511D01*
X15643852Y8849335D01*
X15720027Y8773160D01*
X15770811D02*
X15821594D01*
X15796204D01*
Y8925511D01*
X15770811Y8900119D01*
X15897771D02*
X15923161Y8925511D01*
X15973946D01*
X15999336Y8900119D01*
Y8798552D01*
X15973946Y8773160D01*
X15923161D01*
X15897771Y8798552D01*
Y8900119D01*
X16151688Y8773160D02*
X16050121D01*
X16151688Y8874727D01*
Y8900119D01*
X16126295Y8925511D01*
X16075513D01*
X16050121Y8900119D01*
X12094914Y5718326D02*
Y5565975D01*
Y5616759D01*
X12196481Y5718326D01*
X12120306Y5642151D01*
X12196481Y5565975D01*
X12247265D02*
X12298048D01*
X12272657D01*
Y5718326D01*
X12247265Y5692934D01*
X12374224D02*
X12399616Y5718326D01*
X12450399D01*
X12475791Y5692934D01*
Y5591367D01*
X12450399Y5565975D01*
X12399616D01*
X12374224Y5591367D01*
Y5692934D01*
X12526574Y5565975D02*
X12577358D01*
X12551966D01*
Y5718326D01*
X12526574Y5692934D01*
X16019746Y12826952D02*
X15968964D01*
X15994354D01*
Y12699992D01*
X15968964Y12674600D01*
X15943571D01*
X15918179Y12699992D01*
X16172098Y12674600D02*
X16070531D01*
X16172098Y12776167D01*
Y12801559D01*
X16146706Y12826952D01*
X16095923D01*
X16070531Y12801559D01*
X16222881D02*
X16248273Y12826952D01*
X16299057D01*
X16324449Y12801559D01*
Y12699992D01*
X16299057Y12674600D01*
X16248273D01*
X16222881Y12699992D01*
Y12801559D01*
X16375232D02*
X16400624Y12826952D01*
X16451408D01*
X16476799Y12801559D01*
Y12699992D01*
X16451408Y12674600D01*
X16400624D01*
X16375232Y12699992D01*
Y12801559D01*
X20716240Y4467811D02*
Y4315460D01*
X20792415D01*
X20817807Y4340852D01*
Y4366243D01*
X20792415Y4391635D01*
X20716240D01*
X20792415D01*
X20817807Y4417027D01*
Y4442419D01*
X20792415Y4467811D01*
X20716240D01*
X20868591Y4315460D02*
X20919374D01*
X20893983D01*
Y4467811D01*
X20868591Y4442419D01*
X20995551D02*
X21020941Y4467811D01*
X21071725D01*
X21097118Y4442419D01*
Y4340852D01*
X21071725Y4315460D01*
X21020941D01*
X20995551Y4340852D01*
Y4442419D01*
X21249467Y4315460D02*
X21147900D01*
X21249467Y4417027D01*
Y4442419D01*
X21224075Y4467811D01*
X21173293D01*
X21147900Y4442419D01*
X17266920Y4460191D02*
Y4307840D01*
X17343095D01*
X17368488Y4333232D01*
Y4358623D01*
X17343095Y4384015D01*
X17266920D01*
X17343095D01*
X17368488Y4409407D01*
Y4434799D01*
X17343095Y4460191D01*
X17266920D01*
X17419270Y4307840D02*
X17470055D01*
X17444662D01*
Y4460191D01*
X17419270Y4434799D01*
X17546230D02*
X17571622Y4460191D01*
X17622404D01*
X17647797Y4434799D01*
Y4333232D01*
X17622404Y4307840D01*
X17571622D01*
X17546230Y4333232D01*
Y4434799D01*
X17698579Y4307840D02*
X17749364D01*
X17723972D01*
Y4460191D01*
X17698579Y4434799D01*
X18971260Y4417011D02*
Y4264660D01*
X19047435D01*
X19072827Y4290052D01*
Y4315443D01*
X19047435Y4340835D01*
X18971260D01*
X19047435D01*
X19072827Y4366227D01*
Y4391619D01*
X19047435Y4417011D01*
X18971260D01*
X19123611Y4264660D02*
X19174394D01*
X19149004D01*
Y4417011D01*
X19123611Y4391619D01*
X19250571D02*
X19275961Y4417011D01*
X19326746D01*
X19352138Y4391619D01*
Y4290052D01*
X19326746Y4264660D01*
X19275961D01*
X19250571Y4290052D01*
Y4391619D01*
X19402921D02*
X19428313Y4417011D01*
X19479095D01*
X19504488Y4391619D01*
Y4290052D01*
X19479095Y4264660D01*
X19428313D01*
X19402921Y4290052D01*
Y4391619D01*
X19624040Y13218111D02*
Y13065759D01*
X19700215D01*
X19725607Y13091151D01*
Y13192719D01*
X19700215Y13218111D01*
X19624040D01*
X19877959D02*
X19776392D01*
Y13141936D01*
X19827174Y13167326D01*
X19852567D01*
X19877959Y13141936D01*
Y13091151D01*
X19852567Y13065759D01*
X19801784D01*
X19776392Y13091151D01*
X19928741Y13192719D02*
X19954134Y13218111D01*
X20004916D01*
X20030309Y13192719D01*
Y13091151D01*
X20004916Y13065759D01*
X19954134D01*
X19928741Y13091151D01*
Y13192719D01*
X20182658Y13218111D02*
X20131876Y13192719D01*
X20081091Y13141936D01*
Y13091151D01*
X20106483Y13065759D01*
X20157268D01*
X20182658Y13091151D01*
Y13116544D01*
X20157268Y13141936D01*
X20081091D01*
X20238721Y13218111D02*
Y13065759D01*
X20314896D01*
X20340286Y13091151D01*
Y13192719D01*
X20314896Y13218111D01*
X20238721D01*
X20492638D02*
X20391071D01*
Y13141936D01*
X20441853Y13167326D01*
X20467245D01*
X20492638Y13141936D01*
Y13091151D01*
X20467245Y13065759D01*
X20416463D01*
X20391071Y13091151D01*
X20543420Y13192719D02*
X20568813Y13218111D01*
X20619597D01*
X20644989Y13192719D01*
Y13091151D01*
X20619597Y13065759D01*
X20568813D01*
X20543420Y13091151D01*
Y13192719D01*
X20797339Y13218111D02*
X20695772D01*
Y13141936D01*
X20746556Y13167326D01*
X20771948D01*
X20797339Y13141936D01*
Y13091151D01*
X20771948Y13065759D01*
X20721164D01*
X20695772Y13091151D01*
X20909280Y13218111D02*
Y13065759D01*
X20985455D01*
X21010847Y13091151D01*
Y13192719D01*
X20985455Y13218111D01*
X20909280D01*
X21163197D02*
X21061630D01*
Y13141936D01*
X21112415Y13167326D01*
X21137807D01*
X21163197Y13141936D01*
Y13091151D01*
X21137807Y13065759D01*
X21087022D01*
X21061630Y13091151D01*
X21213982Y13192719D02*
X21239372Y13218111D01*
X21290157D01*
X21315549Y13192719D01*
Y13091151D01*
X21290157Y13065759D01*
X21239372D01*
X21213982Y13091151D01*
Y13192719D01*
X21442508Y13065759D02*
Y13218111D01*
X21366331Y13141936D01*
X21467899D01*
X21521420Y13218111D02*
Y13065759D01*
X21597595D01*
X21622987Y13091151D01*
Y13192719D01*
X21597595Y13218111D01*
X21521420D01*
X21775339D02*
X21673772D01*
Y13141936D01*
X21724554Y13167326D01*
X21749947D01*
X21775339Y13141936D01*
Y13091151D01*
X21749947Y13065759D01*
X21699162D01*
X21673772Y13091151D01*
X21826122Y13192719D02*
X21851514Y13218111D01*
X21902296D01*
X21927689Y13192719D01*
Y13091151D01*
X21902296Y13065759D01*
X21851514D01*
X21826122Y13091151D01*
Y13192719D01*
X21978471D02*
X22003864Y13218111D01*
X22054648D01*
X22080038Y13192719D01*
Y13167326D01*
X22054648Y13141936D01*
X22029256D01*
X22054648D01*
X22080038Y13116544D01*
Y13091151D01*
X22054648Y13065759D01*
X22003864D01*
X21978471Y13091151D01*
X11634552Y12300449D02*
X11482201D01*
Y12224273D01*
X11507593Y12198882D01*
X11609160D01*
X11634552Y12224273D01*
Y12300449D01*
Y12046531D02*
Y12148098D01*
X11558377D01*
X11583769Y12097315D01*
Y12071923D01*
X11558377Y12046531D01*
X11507593D01*
X11482201Y12071923D01*
Y12122706D01*
X11507593Y12148098D01*
X11609160Y11995747D02*
X11634552Y11970356D01*
Y11919572D01*
X11609160Y11894180D01*
X11507593D01*
X11482201Y11919572D01*
Y11970356D01*
X11507593Y11995747D01*
X11609160D01*
X11482201Y11741829D02*
Y11843397D01*
X11583769Y11741829D01*
X11609160D01*
X11634552Y11767221D01*
Y11818005D01*
X11609160Y11843397D01*
X12636500Y5671771D02*
Y5519420D01*
X12712675D01*
X12738067Y5544812D01*
Y5646379D01*
X12712675Y5671771D01*
X12636500D01*
X12890417D02*
X12788851D01*
Y5595595D01*
X12839635Y5620987D01*
X12865025D01*
X12890417Y5595595D01*
Y5544812D01*
X12865025Y5519420D01*
X12814243D01*
X12788851Y5544812D01*
X12941200Y5646379D02*
X12966592Y5671771D01*
X13017377D01*
X13042769Y5646379D01*
Y5544812D01*
X13017377Y5519420D01*
X12966592D01*
X12941200Y5544812D01*
Y5646379D01*
X13093552Y5519420D02*
X13144336D01*
X13118944D01*
Y5671771D01*
X13093552Y5646379D01*
X11512548Y9509711D02*
Y9357360D01*
X11588724D01*
X11614115Y9382752D01*
Y9484319D01*
X11588724Y9509711D01*
X11512548D01*
X11664899Y9484319D02*
X11690291Y9509711D01*
X11741074D01*
X11766466Y9484319D01*
Y9458927D01*
X11741074Y9433535D01*
X11715682D01*
X11741074D01*
X11766466Y9408143D01*
Y9382752D01*
X11741074Y9357360D01*
X11690291D01*
X11664899Y9382752D01*
X11817250Y9484319D02*
X11842642Y9509711D01*
X11893425D01*
X11918817Y9484319D01*
Y9382752D01*
X11893425Y9357360D01*
X11842642D01*
X11817250Y9382752D01*
Y9484319D01*
X11969600Y9357360D02*
X12020384D01*
X11994992D01*
Y9509711D01*
X11969600Y9484319D01*
X11513820Y10109151D02*
Y9956800D01*
X11589995D01*
X11615387Y9982192D01*
Y10083759D01*
X11589995Y10109151D01*
X11513820D01*
X11666171Y10083759D02*
X11691563Y10109151D01*
X11742346D01*
X11767738Y10083759D01*
Y10058367D01*
X11742346Y10032975D01*
X11716954D01*
X11742346D01*
X11767738Y10007583D01*
Y9982192D01*
X11742346Y9956800D01*
X11691563D01*
X11666171Y9982192D01*
X11818521Y10083759D02*
X11843913Y10109151D01*
X11894697D01*
X11920089Y10083759D01*
Y9982192D01*
X11894697Y9956800D01*
X11843913D01*
X11818521Y9982192D01*
Y10083759D01*
X11970872D02*
X11996264Y10109151D01*
X12047048D01*
X12072439Y10083759D01*
Y9982192D01*
X12047048Y9956800D01*
X11996264D01*
X11970872Y9982192D01*
Y10083759D01*
X12702540Y8501331D02*
Y8348980D01*
X12778715D01*
X12804108Y8374372D01*
Y8475939D01*
X12778715Y8501331D01*
X12702540D01*
X12956458D02*
X12854890D01*
Y8425155D01*
X12905675Y8450547D01*
X12931065D01*
X12956458Y8425155D01*
Y8374372D01*
X12931065Y8348980D01*
X12880283D01*
X12854890Y8374372D01*
X13007240Y8475939D02*
X13032632Y8501331D01*
X13083417D01*
X13108809Y8475939D01*
Y8374372D01*
X13083417Y8348980D01*
X13032632D01*
X13007240Y8374372D01*
Y8475939D01*
X13159592D02*
X13184984Y8501331D01*
X13235768D01*
X13261159Y8475939D01*
Y8374372D01*
X13235768Y8348980D01*
X13184984D01*
X13159592Y8374372D01*
Y8475939D01*
X12387580Y12595811D02*
Y12468852D01*
X12412972Y12443460D01*
X12463755D01*
X12489147Y12468852D01*
Y12595811D01*
X12641498D02*
X12539931D01*
Y12519635D01*
X12590714Y12545027D01*
X12616106D01*
X12641498Y12519635D01*
Y12468852D01*
X12616106Y12443460D01*
X12565323D01*
X12539931Y12468852D01*
X12692281Y12570419D02*
X12717673Y12595811D01*
X12768457D01*
X12793849Y12570419D01*
Y12468852D01*
X12768457Y12443460D01*
X12717673D01*
X12692281Y12468852D01*
Y12570419D01*
X12920808Y12443460D02*
Y12595811D01*
X12844632Y12519635D01*
X12946199D01*
X11158220Y13096240D02*
Y13248592D01*
X11234395D01*
X11259787Y13223199D01*
Y13172415D01*
X11234395Y13147023D01*
X11158220D01*
X11209003D02*
X11259787Y13096240D01*
X11412138Y13248592D02*
X11310571D01*
Y13172415D01*
X11361354Y13197807D01*
X11386746D01*
X11412138Y13172415D01*
Y13121632D01*
X11386746Y13096240D01*
X11335963D01*
X11310571Y13121632D01*
X11462921Y13223199D02*
X11488313Y13248592D01*
X11539097D01*
X11564489Y13223199D01*
Y13121632D01*
X11539097Y13096240D01*
X11488313D01*
X11462921Y13121632D01*
Y13223199D01*
X11615272D02*
X11640664Y13248592D01*
X11691448D01*
X11716839Y13223199D01*
Y13197807D01*
X11691448Y13172415D01*
X11716839Y13147023D01*
Y13121632D01*
X11691448Y13096240D01*
X11640664D01*
X11615272Y13121632D01*
Y13147023D01*
X11640664Y13172415D01*
X11615272Y13197807D01*
Y13223199D01*
X11640664Y13172415D02*
X11691448D01*
X13225780Y12987019D02*
Y13139371D01*
X13301955D01*
X13327347Y13113979D01*
Y13063194D01*
X13301955Y13037804D01*
X13225780D01*
X13403523Y12987019D02*
X13454306D01*
X13479698Y13012411D01*
Y13063194D01*
X13454306Y13088586D01*
X13403523D01*
X13378131Y13063194D01*
Y13012411D01*
X13403523Y12987019D01*
X13555873Y13113979D02*
Y13088586D01*
X13530481D01*
X13581265D01*
X13555873D01*
Y13012411D01*
X13581265Y12987019D01*
X13759007Y13139371D02*
X13657440D01*
Y13063194D01*
X13708224Y13088586D01*
X13733617D01*
X13759007Y13063194D01*
Y13012411D01*
X13733617Y12987019D01*
X13682832D01*
X13657440Y13012411D01*
X13809792Y13113979D02*
X13835184Y13139371D01*
X13885966D01*
X13911359Y13113979D01*
Y13012411D01*
X13885966Y12987019D01*
X13835184D01*
X13809792Y13012411D01*
Y13113979D01*
X14063708Y12987019D02*
X13962141D01*
X14063708Y13088586D01*
Y13113979D01*
X14038316Y13139371D01*
X13987534D01*
X13962141Y13113979D01*
X10703560Y17345612D02*
Y17193260D01*
X10754343Y17244043D01*
X10805127Y17193260D01*
Y17345612D01*
X10855911Y17193260D02*
Y17294827D01*
X10906694Y17345612D01*
X10957478Y17294827D01*
Y17193260D01*
Y17269435D01*
X10855911D01*
X11008261Y17345612D02*
Y17193260D01*
Y17269435D01*
X11109829D01*
Y17345612D01*
Y17193260D01*
X11160612Y17167868D02*
X11262179D01*
X11389138Y17345612D02*
X11338355D01*
X11312963Y17320219D01*
Y17218652D01*
X11338355Y17193260D01*
X11389138D01*
X11414530Y17218652D01*
Y17320219D01*
X11389138Y17345612D01*
X11465314D02*
Y17218652D01*
X11490705Y17193260D01*
X11541489D01*
X11566881Y17218652D01*
Y17345612D01*
X11617664D02*
X11719232D01*
X11668448D01*
Y17193260D01*
X13131799Y17345612D02*
Y17193260D01*
X13182584Y17244043D01*
X13233366Y17193260D01*
Y17345612D01*
X13284151Y17193260D02*
Y17294827D01*
X13334933Y17345612D01*
X13385718Y17294827D01*
Y17193260D01*
Y17269435D01*
X13284151D01*
X13436501Y17345612D02*
Y17193260D01*
Y17269435D01*
X13538069D01*
Y17345612D01*
Y17193260D01*
X13588852Y17167868D02*
X13690419D01*
X13741203Y17345612D02*
X13791986D01*
X13766595D01*
Y17193260D01*
X13741203D01*
X13791986D01*
X13868163D02*
Y17345612D01*
X13969730Y17193260D01*
Y17345612D01*
X11872085Y12665503D02*
X11846693Y12690895D01*
X11795909D01*
X11770517Y12665503D01*
Y12563937D01*
X11795909Y12538545D01*
X11846693D01*
X11872085Y12563937D01*
X12024435Y12690895D02*
X11922868D01*
Y12614720D01*
X11973652Y12640112D01*
X11999044D01*
X12024435Y12614720D01*
Y12563937D01*
X11999044Y12538545D01*
X11948260D01*
X11922868Y12563937D01*
X12075219Y12538545D02*
X12126002D01*
X12100611D01*
Y12690895D01*
X12075219Y12665503D01*
X12202178Y12690895D02*
X12303745D01*
Y12665503D01*
X12202178Y12563937D01*
Y12538545D01*
X13692406Y11407971D02*
X13667014Y11433363D01*
X13616231D01*
X13590839Y11407971D01*
Y11306404D01*
X13616231Y11281012D01*
X13667014D01*
X13692406Y11306404D01*
X13844757Y11433363D02*
X13743190D01*
Y11357187D01*
X13793973Y11382579D01*
X13819365D01*
X13844757Y11357187D01*
Y11306404D01*
X13819365Y11281012D01*
X13768582D01*
X13743190Y11306404D01*
X13895540Y11281012D02*
X13946324D01*
X13920932D01*
Y11433363D01*
X13895540Y11407971D01*
X14124066Y11433363D02*
X14073283Y11407971D01*
X14022499Y11357187D01*
Y11306404D01*
X14047891Y11281012D01*
X14098676D01*
X14124066Y11306404D01*
Y11331795D01*
X14098676Y11357187D01*
X14022499D01*
X13637260Y8313371D02*
Y8186412D01*
X13662653Y8161020D01*
X13713435D01*
X13738828Y8186412D01*
Y8313371D01*
X13891177D02*
X13789610D01*
Y8237195D01*
X13840395Y8262587D01*
X13865787D01*
X13891177Y8237195D01*
Y8186412D01*
X13865787Y8161020D01*
X13815002D01*
X13789610Y8186412D01*
X13941962Y8287979D02*
X13967352Y8313371D01*
X14018137D01*
X14043529Y8287979D01*
Y8186412D01*
X14018137Y8161020D01*
X13967352D01*
X13941962Y8186412D01*
Y8287979D01*
X14195879Y8161020D02*
X14094312D01*
X14195879Y8262587D01*
Y8287979D01*
X14170488Y8313371D01*
X14119704D01*
X14094312Y8287979D01*
X2730500Y6992571D02*
Y6840220D01*
X2806675D01*
X2832067Y6865612D01*
Y6967179D01*
X2806675Y6992571D01*
X2730500D01*
X2984418Y6967179D02*
X2959026Y6992571D01*
X2908243D01*
X2882851Y6967179D01*
Y6941787D01*
X2908243Y6916395D01*
X2959026D01*
X2984418Y6891003D01*
Y6865612D01*
X2959026Y6840220D01*
X2908243D01*
X2882851Y6865612D01*
X3035201Y6840220D02*
Y6992571D01*
X3111377D01*
X3136769Y6967179D01*
Y6916395D01*
X3111377Y6891003D01*
X3035201D01*
X3187552Y6814828D02*
X3289119D01*
X3416078Y6992571D02*
X3365295D01*
X3339903Y6967179D01*
Y6865612D01*
X3365295Y6840220D01*
X3416078D01*
X3441470Y6865612D01*
Y6967179D01*
X3416078Y6992571D01*
X3492254D02*
Y6865612D01*
X3517645Y6840220D01*
X3568429D01*
X3593821Y6865612D01*
Y6992571D01*
X3644604D02*
X3746172D01*
X3695388D01*
Y6840220D01*
X2730500Y5532071D02*
Y5379720D01*
X2806675D01*
X2832067Y5405112D01*
Y5506679D01*
X2806675Y5532071D01*
X2730500D01*
X2984418Y5506679D02*
X2959026Y5532071D01*
X2908243D01*
X2882851Y5506679D01*
Y5481287D01*
X2908243Y5455895D01*
X2959026D01*
X2984418Y5430503D01*
Y5405112D01*
X2959026Y5379720D01*
X2908243D01*
X2882851Y5405112D01*
X3035201Y5379720D02*
Y5532071D01*
X3111377D01*
X3136769Y5506679D01*
Y5455895D01*
X3111377Y5430503D01*
X3035201D01*
X3187552Y5354328D02*
X3289119D01*
X3339903Y5532071D02*
X3390686D01*
X3365295D01*
Y5379720D01*
X3339903D01*
X3390686D01*
X3466862D02*
Y5532071D01*
X3568429Y5379720D01*
Y5532071D01*
X16040775Y4480511D02*
Y4353552D01*
X16066167Y4328160D01*
X16116949D01*
X16142342Y4353552D01*
Y4480511D01*
X16294693D02*
X16193126D01*
Y4404335D01*
X16243909Y4429727D01*
X16269301D01*
X16294693Y4404335D01*
Y4353552D01*
X16269301Y4328160D01*
X16218517D01*
X16193126Y4353552D01*
X16345476Y4455119D02*
X16370868Y4480511D01*
X16421652D01*
X16447044Y4455119D01*
Y4353552D01*
X16421652Y4328160D01*
X16370868D01*
X16345476Y4353552D01*
Y4455119D01*
X16497827Y4328160D02*
X16548611D01*
X16523219D01*
Y4480511D01*
X16497827Y4455119D01*
X13075920Y5869891D02*
Y5742932D01*
X13101312Y5717540D01*
X13152095D01*
X13177487Y5742932D01*
Y5869891D01*
X13329839D02*
X13228271D01*
Y5793715D01*
X13279054Y5819107D01*
X13304446D01*
X13329839Y5793715D01*
Y5742932D01*
X13304446Y5717540D01*
X13253664D01*
X13228271Y5742932D01*
X13380621Y5844499D02*
X13406013Y5869891D01*
X13456796D01*
X13482188Y5844499D01*
Y5742932D01*
X13456796Y5717540D01*
X13406013D01*
X13380621Y5742932D01*
Y5844499D01*
X13532973D02*
X13558363Y5869891D01*
X13609148D01*
X13634538Y5844499D01*
Y5819107D01*
X13609148Y5793715D01*
X13583755D01*
X13609148D01*
X13634538Y5768323D01*
Y5742932D01*
X13609148Y5717540D01*
X13558363D01*
X13532973Y5742932D01*
X16309340Y9733231D02*
Y9606272D01*
X16334732Y9580880D01*
X16385515D01*
X16410907Y9606272D01*
Y9733231D01*
X16563258D02*
X16461691D01*
Y9657055D01*
X16512474Y9682447D01*
X16537866D01*
X16563258Y9657055D01*
Y9606272D01*
X16537866Y9580880D01*
X16487083D01*
X16461691Y9606272D01*
X16614041Y9707839D02*
X16639433Y9733231D01*
X16690218D01*
X16715610Y9707839D01*
Y9606272D01*
X16690218Y9580880D01*
X16639433D01*
X16614041Y9606272D01*
Y9707839D01*
X16766393D02*
X16791785Y9733231D01*
X16842567D01*
X16867960Y9707839D01*
Y9606272D01*
X16842567Y9580880D01*
X16791785D01*
X16766393Y9606272D01*
Y9707839D01*
X3630134Y10205671D02*
Y10078712D01*
X3655526Y10053320D01*
X3706309D01*
X3731701Y10078712D01*
Y10205671D01*
X3782485Y10180279D02*
X3807877Y10205671D01*
X3858660D01*
X3884052Y10180279D01*
Y10154887D01*
X3858660Y10129495D01*
X3833268D01*
X3858660D01*
X3884052Y10104103D01*
Y10078712D01*
X3858660Y10053320D01*
X3807877D01*
X3782485Y10078712D01*
X3934835Y10180279D02*
X3960227Y10205671D01*
X4011011D01*
X4036403Y10180279D01*
Y10078712D01*
X4011011Y10053320D01*
X3960227D01*
X3934835Y10078712D01*
Y10180279D01*
X4087186D02*
X4112578Y10205671D01*
X4163361D01*
X4188753Y10180279D01*
Y10078712D01*
X4163361Y10053320D01*
X4112578D01*
X4087186Y10078712D01*
Y10180279D01*
X22781227Y13451799D02*
X22755835Y13477191D01*
X22705052D01*
X22679660Y13451799D01*
Y13426407D01*
X22705052Y13401015D01*
X22755835D01*
X22781227Y13375623D01*
Y13350232D01*
X22755835Y13324840D01*
X22705052D01*
X22679660Y13350232D01*
X22933578Y13477191D02*
X22832011D01*
Y13401015D01*
X22882794Y13426407D01*
X22908186D01*
X22933578Y13401015D01*
Y13350232D01*
X22908186Y13324840D01*
X22857404D01*
X22832011Y13350232D01*
X22984361Y13451799D02*
X23009753Y13477191D01*
X23060538D01*
X23085928Y13451799D01*
Y13350232D01*
X23060538Y13324840D01*
X23009753D01*
X22984361Y13350232D01*
Y13451799D01*
X23136713D02*
X23162103Y13477191D01*
X23212888D01*
X23238280Y13451799D01*
Y13350232D01*
X23212888Y13324840D01*
X23162103D01*
X23136713Y13350232D01*
Y13451799D01*
X21356320Y10973719D02*
Y11126070D01*
X21432495D01*
X21457887Y11100678D01*
Y11049895D01*
X21432495Y11024503D01*
X21356320D01*
X21407103D02*
X21457887Y10973719D01*
X21610239Y11126070D02*
X21508672D01*
Y11049895D01*
X21559454Y11075287D01*
X21584846D01*
X21610239Y11049895D01*
Y10999111D01*
X21584846Y10973719D01*
X21534064D01*
X21508672Y10999111D01*
X21661021Y11100678D02*
X21686414Y11126070D01*
X21737196D01*
X21762589Y11100678D01*
Y10999111D01*
X21737196Y10973719D01*
X21686414D01*
X21661021Y10999111D01*
Y11100678D01*
X21813371Y11126070D02*
X21914938D01*
Y11100678D01*
X21813371Y10999111D01*
Y10973719D01*
X22120235Y10292386D02*
X22272585D01*
Y10216210D01*
X22247192Y10190819D01*
X22196410D01*
X22171017Y10216210D01*
Y10292386D01*
Y10241602D02*
X22120235Y10190819D01*
X22272585Y10038468D02*
Y10140035D01*
X22196410D01*
X22221802Y10089252D01*
Y10063860D01*
X22196410Y10038468D01*
X22145625D01*
X22120235Y10063860D01*
Y10114643D01*
X22145625Y10140035D01*
X22247192Y9987684D02*
X22272585Y9962292D01*
Y9911509D01*
X22247192Y9886117D01*
X22145625D01*
X22120235Y9911509D01*
Y9962292D01*
X22145625Y9987684D01*
X22247192D01*
X22272585Y9733766D02*
X22247192Y9784550D01*
X22196410Y9835334D01*
X22145625D01*
X22120235Y9809942D01*
Y9759158D01*
X22145625Y9733766D01*
X22171017D01*
X22196410Y9759158D01*
Y9835334D01*
X23000009Y10288528D02*
X23152361D01*
Y10212353D01*
X23126968Y10186961D01*
X23076184D01*
X23050793Y10212353D01*
Y10288528D01*
Y10237745D02*
X23000009Y10186961D01*
X23152361Y10034610D02*
Y10136177D01*
X23076184D01*
X23101576Y10085394D01*
Y10060002D01*
X23076184Y10034610D01*
X23025401D01*
X23000009Y10060002D01*
Y10110785D01*
X23025401Y10136177D01*
X23126968Y9983827D02*
X23152361Y9958435D01*
Y9907651D01*
X23126968Y9882259D01*
X23025401D01*
X23000009Y9907651D01*
Y9958435D01*
X23025401Y9983827D01*
X23126968D01*
X23152361Y9729909D02*
Y9831476D01*
X23076184D01*
X23101576Y9780692D01*
Y9755301D01*
X23076184Y9729909D01*
X23025401D01*
X23000009Y9755301D01*
Y9806084D01*
X23025401Y9831476D01*
X19982179Y10690860D02*
Y10843211D01*
X20058356D01*
X20083746Y10817819D01*
Y10767035D01*
X20058356Y10741643D01*
X19982179D01*
X20032964D02*
X20083746Y10690860D01*
X20236098Y10843211D02*
X20134531D01*
Y10767035D01*
X20185313Y10792427D01*
X20210706D01*
X20236098Y10767035D01*
Y10716252D01*
X20210706Y10690860D01*
X20159923D01*
X20134531Y10716252D01*
X20286880Y10817819D02*
X20312273Y10843211D01*
X20363057D01*
X20388449Y10817819D01*
Y10716252D01*
X20363057Y10690860D01*
X20312273D01*
X20286880Y10716252D01*
Y10817819D01*
X20515408Y10690860D02*
Y10843211D01*
X20439232Y10767035D01*
X20540799D01*
X19095720Y10690860D02*
Y10843211D01*
X19171895D01*
X19197287Y10817819D01*
Y10767035D01*
X19171895Y10741643D01*
X19095720D01*
X19146503D02*
X19197287Y10690860D01*
X19349638Y10843211D02*
X19248071D01*
Y10767035D01*
X19298854Y10792427D01*
X19324246D01*
X19349638Y10767035D01*
Y10716252D01*
X19324246Y10690860D01*
X19273463D01*
X19248071Y10716252D01*
X19400421Y10817819D02*
X19425813Y10843211D01*
X19476598D01*
X19501990Y10817819D01*
Y10716252D01*
X19476598Y10690860D01*
X19425813D01*
X19400421Y10716252D01*
Y10817819D01*
X19552773D02*
X19578165Y10843211D01*
X19628947D01*
X19654340Y10817819D01*
Y10792427D01*
X19628947Y10767035D01*
X19603555D01*
X19628947D01*
X19654340Y10741643D01*
Y10716252D01*
X19628947Y10690860D01*
X19578165D01*
X19552773Y10716252D01*
X18564861Y10972800D02*
Y11125151D01*
X18641035D01*
X18666428Y11099759D01*
Y11048975D01*
X18641035Y11023583D01*
X18564861D01*
X18615643D02*
X18666428Y10972800D01*
X18818777Y11125151D02*
X18717210D01*
Y11048975D01*
X18767995Y11074367D01*
X18793385D01*
X18818777Y11048975D01*
Y10998192D01*
X18793385Y10972800D01*
X18742603D01*
X18717210Y10998192D01*
X18869560Y11099759D02*
X18894952Y11125151D01*
X18945737D01*
X18971129Y11099759D01*
Y10998192D01*
X18945737Y10972800D01*
X18894952D01*
X18869560Y10998192D01*
Y11099759D01*
X19123479Y10972800D02*
X19021912D01*
X19123479Y11074367D01*
Y11099759D01*
X19098088Y11125151D01*
X19047304D01*
X19021912Y11099759D01*
X13853677Y6228036D02*
Y6380386D01*
X13929854D01*
X13955244Y6354994D01*
Y6304211D01*
X13929854Y6278819D01*
X13853677D01*
X13904462D02*
X13955244Y6228036D01*
X14107596Y6380386D02*
X14006029D01*
Y6304211D01*
X14056812Y6329603D01*
X14082204D01*
X14107596Y6304211D01*
Y6253427D01*
X14082204Y6228036D01*
X14031421D01*
X14006029Y6253427D01*
X14158380Y6354994D02*
X14183771Y6380386D01*
X14234555D01*
X14259947Y6354994D01*
Y6253427D01*
X14234555Y6228036D01*
X14183771D01*
X14158380Y6253427D01*
Y6354994D01*
X14310730Y6228036D02*
X14361514D01*
X14336122D01*
Y6380386D01*
X14310730Y6354994D01*
X12701443Y8897620D02*
Y9049971D01*
X12777618D01*
X12803011Y9024579D01*
Y8973795D01*
X12777618Y8948403D01*
X12701443D01*
X12752226D02*
X12803011Y8897620D01*
X12955360Y9049971D02*
X12853793D01*
Y8973795D01*
X12904578Y8999187D01*
X12929968D01*
X12955360Y8973795D01*
Y8923012D01*
X12929968Y8897620D01*
X12879185D01*
X12853793Y8923012D01*
X13006145Y9024579D02*
X13031535Y9049971D01*
X13082320D01*
X13107710Y9024579D01*
Y8923012D01*
X13082320Y8897620D01*
X13031535D01*
X13006145Y8923012D01*
Y9024579D01*
X13158495D02*
X13183887Y9049971D01*
X13234669D01*
X13260062Y9024579D01*
Y8923012D01*
X13234669Y8897620D01*
X13183887D01*
X13158495Y8923012D01*
Y9024579D01*
X9183411Y7593636D02*
Y7745986D01*
X9259586D01*
X9284978Y7720594D01*
Y7669811D01*
X9259586Y7644419D01*
X9183411D01*
X9234194D02*
X9284978Y7593636D01*
X9411937D02*
Y7745986D01*
X9335761Y7669811D01*
X9437329D01*
X9488112Y7593636D02*
X9538896D01*
X9513504D01*
Y7745986D01*
X9488112Y7720594D01*
X9615071Y7593636D02*
X9665854D01*
X9640463D01*
Y7745986D01*
X9615071Y7720594D01*
X8580193Y7607712D02*
Y7760063D01*
X8656369D01*
X8681760Y7734671D01*
Y7683888D01*
X8656369Y7658496D01*
X8580193D01*
X8630977D02*
X8681760Y7607712D01*
X8808719D02*
Y7760063D01*
X8732544Y7683888D01*
X8834111D01*
X8884895Y7607712D02*
X8935678D01*
X8910286D01*
Y7760063D01*
X8884895Y7734671D01*
X9011853D02*
X9037245Y7760063D01*
X9088029D01*
X9113421Y7734671D01*
Y7633104D01*
X9088029Y7607712D01*
X9037245D01*
X9011853Y7633104D01*
Y7734671D01*
X9811494Y7364473D02*
Y7516823D01*
X9887669D01*
X9913061Y7491432D01*
Y7440648D01*
X9887669Y7415256D01*
X9811494D01*
X9862277D02*
X9913061Y7364473D01*
X10040020D02*
Y7516823D01*
X9963844Y7440648D01*
X10065412D01*
X10116195Y7491432D02*
X10141587Y7516823D01*
X10192371D01*
X10217762Y7491432D01*
Y7389865D01*
X10192371Y7364473D01*
X10141587D01*
X10116195Y7389865D01*
Y7491432D01*
X10268546Y7389865D02*
X10293938Y7364473D01*
X10344721D01*
X10370113Y7389865D01*
Y7491432D01*
X10344721Y7516823D01*
X10293938D01*
X10268546Y7491432D01*
Y7466040D01*
X10293938Y7440648D01*
X10370113D01*
X9197413Y7363872D02*
Y7516223D01*
X9273589D01*
X9298980Y7490831D01*
Y7440048D01*
X9273589Y7414656D01*
X9197413D01*
X9248197D02*
X9298980Y7363872D01*
X9425939D02*
Y7516223D01*
X9349764Y7440048D01*
X9451331D01*
X9502115Y7490831D02*
X9527506Y7516223D01*
X9578290D01*
X9603682Y7490831D01*
Y7389264D01*
X9578290Y7363872D01*
X9527506D01*
X9502115Y7389264D01*
Y7490831D01*
X9654465D02*
X9679857Y7516223D01*
X9730641D01*
X9756033Y7490831D01*
Y7465440D01*
X9730641Y7440048D01*
X9756033Y7414656D01*
Y7389264D01*
X9730641Y7363872D01*
X9679857D01*
X9654465Y7389264D01*
Y7414656D01*
X9679857Y7440048D01*
X9654465Y7465440D01*
Y7490831D01*
X9679857Y7440048D02*
X9730641D01*
X10467006Y7087345D02*
Y7239696D01*
X10543181D01*
X10568573Y7214304D01*
Y7163521D01*
X10543181Y7138129D01*
X10467006D01*
X10517789D02*
X10568573Y7087345D01*
X10695532D02*
Y7239696D01*
X10619356Y7163521D01*
X10720924D01*
X10771707Y7214304D02*
X10797099Y7239696D01*
X10847883D01*
X10873274Y7214304D01*
Y7112737D01*
X10847883Y7087345D01*
X10797099D01*
X10771707Y7112737D01*
Y7214304D01*
X10924058Y7239696D02*
X11025625D01*
Y7214304D01*
X10924058Y7112737D01*
Y7087345D01*
X9817173Y7099712D02*
Y7252063D01*
X9893349D01*
X9918740Y7226671D01*
Y7175888D01*
X9893349Y7150496D01*
X9817173D01*
X9867957D02*
X9918740Y7099712D01*
X10045699D02*
Y7252063D01*
X9969524Y7175888D01*
X10071091D01*
X10121875Y7226671D02*
X10147266Y7252063D01*
X10198050D01*
X10223442Y7226671D01*
Y7125104D01*
X10198050Y7099712D01*
X10147266D01*
X10121875Y7125104D01*
Y7226671D01*
X10375793Y7252063D02*
X10325009Y7226671D01*
X10274225Y7175888D01*
Y7125104D01*
X10299617Y7099712D01*
X10350401D01*
X10375793Y7125104D01*
Y7150496D01*
X10350401Y7175888D01*
X10274225D01*
X9171968Y5845602D02*
Y5997953D01*
X9248144D01*
X9273536Y5972561D01*
Y5921777D01*
X9248144Y5896385D01*
X9171968D01*
X9222752D02*
X9273536Y5845602D01*
X9400495D02*
Y5997953D01*
X9324319Y5921777D01*
X9425886D01*
X9476670Y5972561D02*
X9502062Y5997953D01*
X9552845D01*
X9578237Y5972561D01*
Y5870994D01*
X9552845Y5845602D01*
X9502062D01*
X9476670Y5870994D01*
Y5972561D01*
X9730588Y5997953D02*
X9629021D01*
Y5921777D01*
X9679804Y5947169D01*
X9705196D01*
X9730588Y5921777D01*
Y5870994D01*
X9705196Y5845602D01*
X9654412D01*
X9629021Y5870994D01*
X8505798Y5850931D02*
Y6003282D01*
X8581973D01*
X8607365Y5977890D01*
Y5927107D01*
X8581973Y5901715D01*
X8505798D01*
X8556581D02*
X8607365Y5850931D01*
X8734324D02*
Y6003282D01*
X8658148Y5927107D01*
X8759716D01*
X8810499Y5977890D02*
X8835891Y6003282D01*
X8886674D01*
X8912066Y5977890D01*
Y5876323D01*
X8886674Y5850931D01*
X8835891D01*
X8810499Y5876323D01*
Y5977890D01*
X9039025Y5850931D02*
Y6003282D01*
X8962850Y5927107D01*
X9064417D01*
X8580408Y5611111D02*
Y5763462D01*
X8656583D01*
X8681975Y5738070D01*
Y5687287D01*
X8656583Y5661895D01*
X8580408D01*
X8631191D02*
X8681975Y5611111D01*
X8808934D02*
Y5763462D01*
X8732758Y5687287D01*
X8834325D01*
X8885109Y5738070D02*
X8910501Y5763462D01*
X8961284D01*
X8986676Y5738070D01*
Y5636503D01*
X8961284Y5611111D01*
X8910501D01*
X8885109Y5636503D01*
Y5738070D01*
X9037460D02*
X9062852Y5763462D01*
X9113635D01*
X9139027Y5738070D01*
Y5712678D01*
X9113635Y5687287D01*
X9088243D01*
X9113635D01*
X9139027Y5661895D01*
Y5636503D01*
X9113635Y5611111D01*
X9062852D01*
X9037460Y5636503D01*
X7972861Y5616440D02*
Y5768790D01*
X8049036D01*
X8074428Y5743398D01*
Y5692615D01*
X8049036Y5667223D01*
X7972861D01*
X8023644D02*
X8074428Y5616440D01*
X8201387D02*
Y5768790D01*
X8125212Y5692615D01*
X8226779D01*
X8277562Y5743398D02*
X8302954Y5768790D01*
X8353738D01*
X8379130Y5743398D01*
Y5641831D01*
X8353738Y5616440D01*
X8302954D01*
X8277562Y5641831D01*
Y5743398D01*
X8531480Y5616440D02*
X8429913D01*
X8531480Y5718007D01*
Y5743398D01*
X8506088Y5768790D01*
X8455305D01*
X8429913Y5743398D01*
X8005049Y5326198D02*
Y5478549D01*
X8081225D01*
X8106617Y5453157D01*
Y5402374D01*
X8081225Y5376982D01*
X8005049D01*
X8055833D02*
X8106617Y5326198D01*
X8233575D02*
Y5478549D01*
X8157400Y5402374D01*
X8258967D01*
X8309751Y5453157D02*
X8335143Y5478549D01*
X8385926D01*
X8411318Y5453157D01*
Y5351590D01*
X8385926Y5326198D01*
X8335143D01*
X8309751Y5351590D01*
Y5453157D01*
X8462101Y5326198D02*
X8512885D01*
X8487493D01*
Y5478549D01*
X8462101Y5453157D01*
X7317348Y5339312D02*
Y5491663D01*
X7393524D01*
X7418916Y5466271D01*
Y5415488D01*
X7393524Y5390096D01*
X7317348D01*
X7368132D02*
X7418916Y5339312D01*
X7545874D02*
Y5491663D01*
X7469699Y5415488D01*
X7571266D01*
X7622050Y5466271D02*
X7647442Y5491663D01*
X7698225D01*
X7723617Y5466271D01*
Y5364704D01*
X7698225Y5339312D01*
X7647442D01*
X7622050Y5364704D01*
Y5466271D01*
X7774401D02*
X7799792Y5491663D01*
X7850576D01*
X7875968Y5466271D01*
Y5364704D01*
X7850576Y5339312D01*
X7799792D01*
X7774401Y5364704D01*
Y5466271D01*
X4371340Y8295640D02*
Y8447991D01*
X4447515D01*
X4472907Y8422599D01*
Y8371815D01*
X4447515Y8346423D01*
X4371340D01*
X4422123D02*
X4472907Y8295640D01*
X4523691Y8422599D02*
X4549083Y8447991D01*
X4599866D01*
X4625258Y8422599D01*
Y8397207D01*
X4599866Y8371815D01*
X4574474D01*
X4599866D01*
X4625258Y8346423D01*
Y8321032D01*
X4599866Y8295640D01*
X4549083D01*
X4523691Y8321032D01*
X4676041Y8422599D02*
X4701433Y8447991D01*
X4752217D01*
X4777609Y8422599D01*
Y8321032D01*
X4752217Y8295640D01*
X4701433D01*
X4676041Y8321032D01*
Y8422599D01*
X4828392Y8295640D02*
X4879176D01*
X4853784D01*
Y8447991D01*
X4828392Y8422599D01*
X3672840Y8295640D02*
Y8447991D01*
X3749015D01*
X3774407Y8422599D01*
Y8371815D01*
X3749015Y8346423D01*
X3672840D01*
X3723623D02*
X3774407Y8295640D01*
X3825191Y8422599D02*
X3850583Y8447991D01*
X3901366D01*
X3926758Y8422599D01*
Y8397207D01*
X3901366Y8371815D01*
X3875974D01*
X3901366D01*
X3926758Y8346423D01*
Y8321032D01*
X3901366Y8295640D01*
X3850583D01*
X3825191Y8321032D01*
X3977541Y8422599D02*
X4002933Y8447991D01*
X4053717D01*
X4079109Y8422599D01*
Y8321032D01*
X4053717Y8295640D01*
X4002933D01*
X3977541Y8321032D01*
Y8422599D01*
X4129892D02*
X4155284Y8447991D01*
X4206068D01*
X4231459Y8422599D01*
Y8321032D01*
X4206068Y8295640D01*
X4155284D01*
X4129892Y8321032D01*
Y8422599D01*
X3492500Y11488420D02*
Y11640771D01*
X3568675D01*
X3594067Y11615379D01*
Y11564595D01*
X3568675Y11539203D01*
X3492500D01*
X3543283D02*
X3594067Y11488420D01*
X3644851Y11615379D02*
X3670243Y11640771D01*
X3721026D01*
X3746418Y11615379D01*
Y11589987D01*
X3721026Y11564595D01*
X3695634D01*
X3721026D01*
X3746418Y11539203D01*
Y11513812D01*
X3721026Y11488420D01*
X3670243D01*
X3644851Y11513812D01*
X3797201Y11615379D02*
X3822593Y11640771D01*
X3873377D01*
X3898769Y11615379D01*
Y11513812D01*
X3873377Y11488420D01*
X3822593D01*
X3797201Y11513812D01*
Y11615379D01*
X4025728Y11488420D02*
Y11640771D01*
X3949552Y11564595D01*
X4051119D01*
X3492500Y11150600D02*
Y11302951D01*
X3568675D01*
X3594067Y11277559D01*
Y11226775D01*
X3568675Y11201383D01*
X3492500D01*
X3543283D02*
X3594067Y11150600D01*
X3644851Y11277559D02*
X3670243Y11302951D01*
X3721026D01*
X3746418Y11277559D01*
Y11252167D01*
X3721026Y11226775D01*
X3695634D01*
X3721026D01*
X3746418Y11201383D01*
Y11175992D01*
X3721026Y11150600D01*
X3670243D01*
X3644851Y11175992D01*
X3797201Y11277559D02*
X3822593Y11302951D01*
X3873377D01*
X3898769Y11277559D01*
Y11175992D01*
X3873377Y11150600D01*
X3822593D01*
X3797201Y11175992D01*
Y11277559D01*
X3949552D02*
X3974944Y11302951D01*
X4025728D01*
X4051119Y11277559D01*
Y11252167D01*
X4025728Y11226775D01*
X4000336D01*
X4025728D01*
X4051119Y11201383D01*
Y11175992D01*
X4025728Y11150600D01*
X3974944D01*
X3949552Y11175992D01*
X3492500Y10535920D02*
Y10688271D01*
X3568675D01*
X3594067Y10662879D01*
Y10612095D01*
X3568675Y10586703D01*
X3492500D01*
X3543283D02*
X3594067Y10535920D01*
X3644851Y10662879D02*
X3670243Y10688271D01*
X3721026D01*
X3746418Y10662879D01*
Y10637487D01*
X3721026Y10612095D01*
X3695634D01*
X3721026D01*
X3746418Y10586703D01*
Y10561312D01*
X3721026Y10535920D01*
X3670243D01*
X3644851Y10561312D01*
X3797201Y10662879D02*
X3822593Y10688271D01*
X3873377D01*
X3898769Y10662879D01*
Y10561312D01*
X3873377Y10535920D01*
X3822593D01*
X3797201Y10561312D01*
Y10662879D01*
X4051119Y10535920D02*
X3949552D01*
X4051119Y10637487D01*
Y10662879D01*
X4025728Y10688271D01*
X3974944D01*
X3949552Y10662879D01*
X2589257Y14279916D02*
Y14432268D01*
X2665433D01*
X2690824Y14406876D01*
Y14356091D01*
X2665433Y14330701D01*
X2589257D01*
X2640041D02*
X2690824Y14279916D01*
X2843175D02*
X2741608D01*
X2843175Y14381483D01*
Y14406876D01*
X2817783Y14432268D01*
X2767000D01*
X2741608Y14406876D01*
X2893959D02*
X2919351Y14432268D01*
X2970134D01*
X2995526Y14406876D01*
Y14305309D01*
X2970134Y14279916D01*
X2919351D01*
X2893959Y14305309D01*
Y14406876D01*
X3147877Y14279916D02*
X3046309D01*
X3147877Y14381483D01*
Y14406876D01*
X3122485Y14432268D01*
X3071701D01*
X3046309Y14406876D01*
X3245449Y14281216D02*
Y14433566D01*
X3321624D01*
X3347016Y14408176D01*
Y14357391D01*
X3321624Y14332001D01*
X3245449D01*
X3296232D02*
X3347016Y14281216D01*
X3499367D02*
X3397799D01*
X3499367Y14382784D01*
Y14408176D01*
X3473975Y14433566D01*
X3423191D01*
X3397799Y14408176D01*
X3550150D02*
X3575542Y14433566D01*
X3626325D01*
X3651717Y14408176D01*
Y14306609D01*
X3626325Y14281216D01*
X3575542D01*
X3550150Y14306609D01*
Y14408176D01*
X3702501Y14281216D02*
X3753284D01*
X3727893D01*
Y14433566D01*
X3702501Y14408176D01*
X8664789Y9975499D02*
X8817139D01*
Y9899324D01*
X8791747Y9873932D01*
X8740964D01*
X8715572Y9899324D01*
Y9975499D01*
Y9924716D02*
X8664789Y9873932D01*
Y9721582D02*
Y9823149D01*
X8766356Y9721582D01*
X8791747D01*
X8817139Y9746973D01*
Y9797757D01*
X8791747Y9823149D01*
Y9670798D02*
X8817139Y9645406D01*
Y9594623D01*
X8791747Y9569231D01*
X8690180D01*
X8664789Y9594623D01*
Y9645406D01*
X8690180Y9670798D01*
X8791747D01*
Y9518447D02*
X8817139Y9493055D01*
Y9442272D01*
X8791747Y9416880D01*
X8690180D01*
X8664789Y9442272D01*
Y9493055D01*
X8690180Y9518447D01*
X8791747D01*
X20810187Y10591792D02*
Y10693359D01*
X20784795Y10718751D01*
X20734012D01*
X20708620Y10693359D01*
Y10591792D01*
X20734012Y10566400D01*
X20784795D01*
X20759402Y10617183D02*
X20810187Y10566400D01*
X20784795D02*
X20810187Y10591792D01*
X20962538Y10718751D02*
X20860971D01*
Y10642575D01*
X20911754Y10667967D01*
X20937146D01*
X20962538Y10642575D01*
Y10591792D01*
X20937146Y10566400D01*
X20886363D01*
X20860971Y10591792D01*
X21013321Y10693359D02*
X21038713Y10718751D01*
X21089497D01*
X21114890Y10693359D01*
Y10591792D01*
X21089497Y10566400D01*
X21038713D01*
X21013321Y10591792D01*
Y10693359D01*
X21165672Y10566400D02*
X21216457D01*
X21191064D01*
Y10718751D01*
X21165672Y10693359D01*
X17990787Y10515592D02*
Y10617159D01*
X17965395Y10642551D01*
X17914612D01*
X17889220Y10617159D01*
Y10515592D01*
X17914612Y10490200D01*
X17965395D01*
X17940002Y10540983D02*
X17990787Y10490200D01*
X17965395D02*
X17990787Y10515592D01*
X18143138Y10642551D02*
X18041571D01*
Y10566375D01*
X18092354Y10591767D01*
X18117746D01*
X18143138Y10566375D01*
Y10515592D01*
X18117746Y10490200D01*
X18066963D01*
X18041571Y10515592D01*
X18193921Y10617159D02*
X18219313Y10642551D01*
X18270097D01*
X18295490Y10617159D01*
Y10515592D01*
X18270097Y10490200D01*
X18219313D01*
X18193921Y10515592D01*
Y10617159D01*
X18346272D02*
X18371664Y10642551D01*
X18422449D01*
X18447839Y10617159D01*
Y10515592D01*
X18422449Y10490200D01*
X18371664D01*
X18346272Y10515592D01*
Y10617159D01*
X14350999Y9011920D02*
Y9164271D01*
X14427174D01*
X14452567Y9138879D01*
Y9088095D01*
X14427174Y9062703D01*
X14350999D01*
X14528743Y9011920D02*
X14579526D01*
X14604918Y9037312D01*
Y9088095D01*
X14579526Y9113487D01*
X14528743D01*
X14503351Y9088095D01*
Y9037312D01*
X14528743Y9011920D01*
X14681093Y9138879D02*
Y9113487D01*
X14655701D01*
X14706485D01*
X14681093D01*
Y9037312D01*
X14706485Y9011920D01*
X14884229Y9164271D02*
X14782660D01*
Y9088095D01*
X14833444Y9113487D01*
X14858836D01*
X14884229Y9088095D01*
Y9037312D01*
X14858836Y9011920D01*
X14808052D01*
X14782660Y9037312D01*
X14935011Y9138879D02*
X14960403Y9164271D01*
X15011186D01*
X15036578Y9138879D01*
Y9037312D01*
X15011186Y9011920D01*
X14960403D01*
X14935011Y9037312D01*
Y9138879D01*
X15087363D02*
X15112753Y9164271D01*
X15163538D01*
X15188930Y9138879D01*
Y9037312D01*
X15163538Y9011920D01*
X15112753D01*
X15087363Y9037312D01*
Y9138879D01*
X14526260Y5415356D02*
Y5567706D01*
X14602435D01*
X14627827Y5542315D01*
Y5491531D01*
X14602435Y5466139D01*
X14526260D01*
X14704002Y5415356D02*
X14754787D01*
X14780177Y5440748D01*
Y5491531D01*
X14754787Y5516923D01*
X14704002D01*
X14678612Y5491531D01*
Y5440748D01*
X14704002Y5415356D01*
X14856354Y5542315D02*
Y5516923D01*
X14830962D01*
X14881744D01*
X14856354D01*
Y5440748D01*
X14881744Y5415356D01*
X15059488Y5567706D02*
X14957919D01*
Y5491531D01*
X15008704Y5516923D01*
X15034096D01*
X15059488Y5491531D01*
Y5440748D01*
X15034096Y5415356D01*
X14983311D01*
X14957919Y5440748D01*
X15110271Y5542315D02*
X15135663Y5567706D01*
X15186446D01*
X15211838Y5542315D01*
Y5440748D01*
X15186446Y5415356D01*
X15135663D01*
X15110271Y5440748D01*
Y5542315D01*
X15262622Y5415356D02*
X15313405D01*
X15288014D01*
Y5567706D01*
X15262622Y5542315D01*
X8577594Y10925605D02*
Y11077956D01*
X8628378Y11027172D01*
X8679161Y11077956D01*
Y10925605D01*
X8831512Y11077956D02*
X8729945D01*
Y10925605D01*
X8831512D01*
X8729945Y11001780D02*
X8780728D01*
X8882296Y10925605D02*
Y11077956D01*
X8983863Y10925605D01*
Y11077956D01*
X9034646D02*
Y10950997D01*
X9060038Y10925605D01*
X9110822D01*
X9136214Y10950997D01*
Y11077956D01*
X9186997Y10900213D02*
X9288564D01*
X9440915Y11052564D02*
X9415523Y11077956D01*
X9364740D01*
X9339348Y11052564D01*
Y10950997D01*
X9364740Y10925605D01*
X9415523D01*
X9440915Y10950997D01*
X9491699Y11077956D02*
X9593266D01*
X9542482D01*
Y10925605D01*
X9644049D02*
Y11077956D01*
X9720225D01*
X9745617Y11052564D01*
Y11001780D01*
X9720225Y10976389D01*
X9644049D01*
X9694833D02*
X9745617Y10925605D01*
X9796400Y11077956D02*
Y10925605D01*
X9897967D01*
X10050318D02*
X9948751D01*
X10050318Y11027172D01*
Y11052564D01*
X10024926Y11077956D01*
X9974143D01*
X9948751Y11052564D01*
X10101101D02*
X10126493Y11077956D01*
X10177277D01*
X10202669Y11052564D01*
Y10950997D01*
X10177277Y10925605D01*
X10126493D01*
X10101101Y10950997D01*
Y11052564D01*
X10253452D02*
X10278844Y11077956D01*
X10329628D01*
X10355019Y11052564D01*
Y10950997D01*
X10329628Y10925605D01*
X10278844D01*
X10253452Y10950997D01*
Y11052564D01*
X15857220Y6949440D02*
Y7101791D01*
X15908003Y7051007D01*
X15958788Y7101791D01*
Y6949440D01*
X16111137D02*
X16009570D01*
X16111137Y7051007D01*
Y7076399D01*
X16085745Y7101791D01*
X16034962D01*
X16009570Y7076399D01*
X16161922D02*
X16187312Y7101791D01*
X16238097D01*
X16263489Y7076399D01*
Y6974832D01*
X16238097Y6949440D01*
X16187312D01*
X16161922Y6974832D01*
Y7076399D01*
X16415839Y7101791D02*
X16314272D01*
Y7025615D01*
X16365056Y7051007D01*
X16390448D01*
X16415839Y7025615D01*
Y6974832D01*
X16390448Y6949440D01*
X16339664D01*
X16314272Y6974832D01*
X22727921Y3548380D02*
Y3700731D01*
X22778703Y3649947D01*
X22829488Y3700731D01*
Y3548380D01*
X22981837D02*
X22880270D01*
X22981837Y3649947D01*
Y3675339D01*
X22956445Y3700731D01*
X22905663D01*
X22880270Y3675339D01*
X23032620D02*
X23058012Y3700731D01*
X23108797D01*
X23134189Y3675339D01*
Y3573772D01*
X23108797Y3548380D01*
X23058012D01*
X23032620Y3573772D01*
Y3675339D01*
X23261148Y3548380D02*
Y3700731D01*
X23184972Y3624555D01*
X23286539D01*
X9166860Y12479020D02*
Y12631371D01*
X9217643Y12580587D01*
X9268427Y12631371D01*
Y12479020D01*
X9420778D02*
X9319211D01*
X9420778Y12580587D01*
Y12605979D01*
X9395386Y12631371D01*
X9344603D01*
X9319211Y12605979D01*
X9471561D02*
X9496953Y12631371D01*
X9547737D01*
X9573129Y12605979D01*
Y12504412D01*
X9547737Y12479020D01*
X9496953D01*
X9471561Y12504412D01*
Y12605979D01*
X9623912D02*
X9649304Y12631371D01*
X9700088D01*
X9725479Y12605979D01*
Y12580587D01*
X9700088Y12555195D01*
X9674696D01*
X9700088D01*
X9725479Y12529803D01*
Y12504412D01*
X9700088Y12479020D01*
X9649304D01*
X9623912Y12504412D01*
X22674580Y15768320D02*
Y15920671D01*
X22725363Y15869887D01*
X22776147Y15920671D01*
Y15768320D01*
X22928497D02*
X22826932D01*
X22928497Y15869887D01*
Y15895279D01*
X22903107Y15920671D01*
X22852322D01*
X22826932Y15895279D01*
X22979282D02*
X23004672Y15920671D01*
X23055457D01*
X23080849Y15895279D01*
Y15793712D01*
X23055457Y15768320D01*
X23004672D01*
X22979282Y15793712D01*
Y15895279D01*
X23233199Y15768320D02*
X23131631D01*
X23233199Y15869887D01*
Y15895279D01*
X23207808Y15920671D01*
X23157024D01*
X23131631Y15895279D01*
X2875280Y3627120D02*
Y3779471D01*
X2926063Y3728687D01*
X2976847Y3779471D01*
Y3627120D01*
X3129198D02*
X3027631D01*
X3129198Y3728687D01*
Y3754079D01*
X3103806Y3779471D01*
X3053023D01*
X3027631Y3754079D01*
X3179981D02*
X3205373Y3779471D01*
X3256157D01*
X3281549Y3754079D01*
Y3652512D01*
X3256157Y3627120D01*
X3205373D01*
X3179981Y3652512D01*
Y3754079D01*
X3332332Y3627120D02*
X3383116D01*
X3357724D01*
Y3779471D01*
X3332332Y3754079D01*
X2875280Y15768320D02*
Y15920671D01*
X2926063Y15869887D01*
X2976847Y15920671D01*
Y15768320D01*
X3129198D02*
X3027631D01*
X3129198Y15869887D01*
Y15895279D01*
X3103806Y15920671D01*
X3053023D01*
X3027631Y15895279D01*
X3179981D02*
X3205373Y15920671D01*
X3256157D01*
X3281549Y15895279D01*
Y15793712D01*
X3256157Y15768320D01*
X3205373D01*
X3179981Y15793712D01*
Y15895279D01*
X3332332D02*
X3357724Y15920671D01*
X3408508D01*
X3433899Y15895279D01*
Y15793712D01*
X3408508Y15768320D01*
X3357724D01*
X3332332Y15793712D01*
Y15895279D01*
X2738105Y14783958D02*
Y14631609D01*
X2839672D01*
X2992022Y14758566D02*
X2966631Y14783958D01*
X2915847D01*
X2890455Y14758566D01*
Y14657001D01*
X2915847Y14631609D01*
X2966631D01*
X2992022Y14657001D01*
X3042806Y14783958D02*
Y14631609D01*
X3118981D01*
X3144373Y14657001D01*
Y14758566D01*
X3118981Y14783958D01*
X3042806D01*
X3296724Y14631609D02*
X3195157D01*
X3296724Y14733176D01*
Y14758566D01*
X3271332Y14783958D01*
X3220549D01*
X3195157Y14758566D01*
X3347507D02*
X3372899Y14783958D01*
X3423683D01*
X3449075Y14758566D01*
Y14657001D01*
X3423683Y14631609D01*
X3372899D01*
X3347507Y14657001D01*
Y14758566D01*
X3499858D02*
X3525250Y14783958D01*
X3576033D01*
X3601425Y14758566D01*
Y14657001D01*
X3576033Y14631609D01*
X3525250D01*
X3499858Y14657001D01*
Y14758566D01*
X8966240Y8911514D02*
X8915457D01*
X8940849D01*
Y8784555D01*
X8915457Y8759164D01*
X8890065D01*
X8864673Y8784555D01*
X9093199Y8759164D02*
Y8911514D01*
X9017024Y8835339D01*
X9118591D01*
X9169375Y8886122D02*
X9194766Y8911514D01*
X9245550D01*
X9270942Y8886122D01*
Y8784555D01*
X9245550Y8759164D01*
X9194766D01*
X9169375Y8784555D01*
Y8886122D01*
X9423293Y8911514D02*
X9321725D01*
Y8835339D01*
X9372509Y8860731D01*
X9397901D01*
X9423293Y8835339D01*
Y8784555D01*
X9397901Y8759164D01*
X9347117D01*
X9321725Y8784555D01*
X9591080Y8912636D02*
X9540297D01*
X9565689D01*
Y8785677D01*
X9540297Y8760285D01*
X9514905D01*
X9489513Y8785677D01*
X9718039Y8760285D02*
Y8912636D01*
X9641864Y8836461D01*
X9743431D01*
X9794215Y8887244D02*
X9819606Y8912636D01*
X9870390D01*
X9895782Y8887244D01*
Y8785677D01*
X9870390Y8760285D01*
X9819606D01*
X9794215Y8785677D01*
Y8887244D01*
X10022741Y8760285D02*
Y8912636D01*
X9946565Y8836461D01*
X10048133D01*
X10205760Y8911794D02*
X10154977D01*
X10180369D01*
Y8784835D01*
X10154977Y8759443D01*
X10129585D01*
X10104193Y8784835D01*
X10332719Y8759443D02*
Y8911794D01*
X10256544Y8835618D01*
X10358111D01*
X10408895Y8886402D02*
X10434286Y8911794D01*
X10485070D01*
X10510462Y8886402D01*
Y8784835D01*
X10485070Y8759443D01*
X10434286D01*
X10408895Y8784835D01*
Y8886402D01*
X10561245D02*
X10586637Y8911794D01*
X10637421D01*
X10662813Y8886402D01*
Y8861010D01*
X10637421Y8835618D01*
X10612029D01*
X10637421D01*
X10662813Y8810226D01*
Y8784835D01*
X10637421Y8759443D01*
X10586637D01*
X10561245Y8784835D01*
X9651967Y4081731D02*
X9601183D01*
X9626575D01*
Y3954772D01*
X9601183Y3929380D01*
X9575792D01*
X9550400Y3954772D01*
X9778926Y3929380D02*
Y4081731D01*
X9702751Y4005555D01*
X9804318D01*
X9855101Y4056339D02*
X9880493Y4081731D01*
X9931277D01*
X9956669Y4056339D01*
Y3954772D01*
X9931277Y3929380D01*
X9880493D01*
X9855101Y3954772D01*
Y4056339D01*
X10109019Y3929380D02*
X10007452D01*
X10109019Y4030947D01*
Y4056339D01*
X10083628Y4081731D01*
X10032844D01*
X10007452Y4056339D01*
X8973860Y4087816D02*
X8923077D01*
X8948469D01*
Y3960857D01*
X8923077Y3935465D01*
X8897685D01*
X8872293Y3960857D01*
X9100819Y3935465D02*
Y4087816D01*
X9024644Y4011641D01*
X9126211D01*
X9176995Y4062424D02*
X9202386Y4087816D01*
X9253170D01*
X9278562Y4062424D01*
Y3960857D01*
X9253170Y3935465D01*
X9202386D01*
X9176995Y3960857D01*
Y4062424D01*
X9329345Y3935465D02*
X9380129D01*
X9354737D01*
Y4087816D01*
X9329345Y4062424D01*
X8351560Y4089763D02*
X8300777D01*
X8326169D01*
Y3962804D01*
X8300777Y3937412D01*
X8275385D01*
X8249993Y3962804D01*
X8478519Y3937412D02*
Y4089763D01*
X8402344Y4013588D01*
X8503911D01*
X8554695Y4064371D02*
X8580086Y4089763D01*
X8630870D01*
X8656262Y4064371D01*
Y3962804D01*
X8630870Y3937412D01*
X8580086D01*
X8554695Y3962804D01*
Y4064371D01*
X8707045D02*
X8732437Y4089763D01*
X8783221D01*
X8808613Y4064371D01*
Y3962804D01*
X8783221Y3937412D01*
X8732437D01*
X8707045Y3962804D01*
Y4064371D01*
X4919980Y17320210D02*
X4970763D01*
X4945372D01*
Y17167860D01*
X4919980D01*
X4970763D01*
X5046939D02*
Y17320210D01*
X5148506Y17167860D01*
Y17320210D01*
X7424395D02*
X7373612D01*
X7348220Y17294820D01*
Y17193253D01*
X7373612Y17167860D01*
X7424395D01*
X7449787Y17193253D01*
Y17294820D01*
X7424395Y17320210D01*
X7500571D02*
Y17193253D01*
X7525963Y17167860D01*
X7576746D01*
X7602138Y17193253D01*
Y17320210D01*
X7652921D02*
X7754489D01*
X7703705D01*
Y17167860D01*
X5165860Y7523364D02*
X5115076D01*
X5140468D01*
Y7396405D01*
X5115076Y7371013D01*
X5089684D01*
X5064292Y7396405D01*
X5216643Y7371013D02*
X5267427D01*
X5242035D01*
Y7523364D01*
X5216643Y7497972D01*
X5343602D02*
X5368994Y7523364D01*
X5419777D01*
X5445169Y7497972D01*
Y7396405D01*
X5419777Y7371013D01*
X5368994D01*
X5343602Y7396405D01*
Y7497972D01*
X5495953D02*
X5521345Y7523364D01*
X5572128D01*
X5597520Y7497972D01*
Y7472580D01*
X5572128Y7447188D01*
X5546736D01*
X5572128D01*
X5597520Y7421796D01*
Y7396405D01*
X5572128Y7371013D01*
X5521345D01*
X5495953Y7396405D01*
X6359660Y7523364D02*
X6308876D01*
X6334268D01*
Y7396405D01*
X6308876Y7371013D01*
X6283484D01*
X6258092Y7396405D01*
X6410443Y7371013D02*
X6461227D01*
X6435835D01*
Y7523364D01*
X6410443Y7497972D01*
X6537402D02*
X6562794Y7523364D01*
X6613577D01*
X6638969Y7497972D01*
Y7396405D01*
X6613577Y7371013D01*
X6562794D01*
X6537402Y7396405D01*
Y7497972D01*
X6791320Y7371013D02*
X6689753D01*
X6791320Y7472580D01*
Y7497972D01*
X6765928Y7523364D01*
X6715145D01*
X6689753Y7497972D01*
X5402624Y11128742D02*
Y11077958D01*
Y11103350D01*
X5529583D01*
X5554975Y11077958D01*
Y11052566D01*
X5529583Y11027174D01*
X5554975Y11179525D02*
Y11230309D01*
Y11204917D01*
X5402624D01*
X5428016Y11179525D01*
Y11306484D02*
X5402624Y11331876D01*
Y11382659D01*
X5428016Y11408051D01*
X5529583D01*
X5554975Y11382659D01*
Y11331876D01*
X5529583Y11306484D01*
X5428016D01*
X5554975Y11458835D02*
Y11509618D01*
Y11484226D01*
X5402624D01*
X5428016Y11458835D01*
X6397905Y11529816D02*
Y11580600D01*
Y11555208D01*
X6270946D01*
X6245554Y11580600D01*
Y11605992D01*
X6270946Y11631383D01*
X6245554Y11479033D02*
Y11428249D01*
Y11453641D01*
X6397905D01*
X6372513Y11479033D01*
Y11352074D02*
X6397905Y11326682D01*
Y11275898D01*
X6372513Y11250507D01*
X6270946D01*
X6245554Y11275898D01*
Y11326682D01*
X6270946Y11352074D01*
X6372513D01*
Y11199723D02*
X6397905Y11174331D01*
Y11123548D01*
X6372513Y11098156D01*
X6270946D01*
X6245554Y11123548D01*
Y11174331D01*
X6270946Y11199723D01*
X6372513D01*
X22047166Y10817819D02*
X22021774Y10843211D01*
X21970992D01*
X21945599Y10817819D01*
Y10716252D01*
X21970992Y10690860D01*
X22021774D01*
X22047166Y10716252D01*
X22199518Y10843211D02*
X22097951D01*
Y10767035D01*
X22148734Y10792427D01*
X22174126D01*
X22199518Y10767035D01*
Y10716252D01*
X22174126Y10690860D01*
X22123343D01*
X22097951Y10716252D01*
X22250301Y10817819D02*
X22275693Y10843211D01*
X22326477D01*
X22351869Y10817819D01*
Y10716252D01*
X22326477Y10690860D01*
X22275693D01*
X22250301Y10716252D01*
Y10817819D01*
X22402652Y10716252D02*
X22428044Y10690860D01*
X22478828D01*
X22504219Y10716252D01*
Y10817819D01*
X22478828Y10843211D01*
X22428044D01*
X22402652Y10817819D01*
Y10792427D01*
X22428044Y10767035D01*
X22504219D01*
X19674808Y10309819D02*
X19649416Y10335211D01*
X19598631D01*
X19573241Y10309819D01*
Y10208252D01*
X19598631Y10182860D01*
X19649416D01*
X19674808Y10208252D01*
X19827158Y10335211D02*
X19725591D01*
Y10259035D01*
X19776373Y10284427D01*
X19801765D01*
X19827158Y10259035D01*
Y10208252D01*
X19801765Y10182860D01*
X19750983D01*
X19725591Y10208252D01*
X19877940Y10309819D02*
X19903333Y10335211D01*
X19954117D01*
X19979509Y10309819D01*
Y10208252D01*
X19954117Y10182860D01*
X19903333D01*
X19877940Y10208252D01*
Y10309819D01*
X20030292D02*
X20055684Y10335211D01*
X20106468D01*
X20131859Y10309819D01*
Y10284427D01*
X20106468Y10259035D01*
X20131859Y10233643D01*
Y10208252D01*
X20106468Y10182860D01*
X20055684D01*
X20030292Y10208252D01*
Y10233643D01*
X20055684Y10259035D01*
X20030292Y10284427D01*
Y10309819D01*
X20055684Y10259035D02*
X20106468D01*
X16275734Y5844499D02*
X16250342Y5869891D01*
X16199557D01*
X16174165Y5844499D01*
Y5742932D01*
X16199557Y5717540D01*
X16250342D01*
X16275734Y5742932D01*
X16428084Y5869891D02*
X16326517D01*
Y5793715D01*
X16377299Y5819107D01*
X16402692D01*
X16428084Y5793715D01*
Y5742932D01*
X16402692Y5717540D01*
X16351909D01*
X16326517Y5742932D01*
X16478868Y5717540D02*
X16529651D01*
X16504260D01*
Y5869891D01*
X16478868Y5844499D01*
X16707394Y5869891D02*
X16605827D01*
Y5793715D01*
X16656610Y5819107D01*
X16682002D01*
X16707394Y5793715D01*
Y5742932D01*
X16682002Y5717540D01*
X16631218D01*
X16605827Y5742932D01*
X17902518Y6614119D02*
X17877126Y6639511D01*
X17826343D01*
X17800951Y6614119D01*
Y6512552D01*
X17826343Y6487160D01*
X17877126D01*
X17902518Y6512552D01*
X18054869Y6639511D02*
X17953302D01*
Y6563335D01*
X18004085Y6588727D01*
X18029477D01*
X18054869Y6563335D01*
Y6512552D01*
X18029477Y6487160D01*
X17978694D01*
X17953302Y6512552D01*
X18105652Y6487160D02*
X18156436D01*
X18131044D01*
Y6639511D01*
X18105652Y6614119D01*
X18232611D02*
X18258003Y6639511D01*
X18308788D01*
X18334178Y6614119D01*
Y6588727D01*
X18308788Y6563335D01*
X18283395D01*
X18308788D01*
X18334178Y6537943D01*
Y6512552D01*
X18308788Y6487160D01*
X18258003D01*
X18232611Y6512552D01*
X20322507Y6614119D02*
X20297115Y6639511D01*
X20246332D01*
X20220940Y6614119D01*
Y6512552D01*
X20246332Y6487160D01*
X20297115D01*
X20322507Y6512552D01*
X20474858Y6639511D02*
X20373291D01*
Y6563335D01*
X20424074Y6588727D01*
X20449466D01*
X20474858Y6563335D01*
Y6512552D01*
X20449466Y6487160D01*
X20398683D01*
X20373291Y6512552D01*
X20525641Y6487160D02*
X20576425D01*
X20551033D01*
Y6639511D01*
X20525641Y6614119D01*
X20652600Y6487160D02*
X20703384D01*
X20677992D01*
Y6639511D01*
X20652600Y6614119D01*
X17034995Y8374645D02*
X17009602Y8400037D01*
X16958820D01*
X16933427Y8374645D01*
Y8273078D01*
X16958820Y8247687D01*
X17009602D01*
X17034995Y8273078D01*
X17187344Y8400037D02*
X17085777D01*
Y8323862D01*
X17136562Y8349254D01*
X17161954D01*
X17187344Y8323862D01*
Y8273078D01*
X17161954Y8247687D01*
X17111169D01*
X17085777Y8273078D01*
X17238129Y8247687D02*
X17288911D01*
X17263519D01*
Y8400037D01*
X17238129Y8374645D01*
X17441263Y8247687D02*
Y8400037D01*
X17365086Y8323862D01*
X17466655D01*
X17902960Y8929031D02*
X17877568Y8954423D01*
X17826785D01*
X17801393Y8929031D01*
Y8827464D01*
X17826785Y8802072D01*
X17877568D01*
X17902960Y8827464D01*
X18055312Y8954423D02*
X17953745D01*
Y8878247D01*
X18004527Y8903639D01*
X18029919D01*
X18055312Y8878247D01*
Y8827464D01*
X18029919Y8802072D01*
X17979135D01*
X17953745Y8827464D01*
X18106094Y8802072D02*
X18156879D01*
X18131487D01*
Y8954423D01*
X18106094Y8929031D01*
X18334621Y8802072D02*
X18233054D01*
X18334621Y8903639D01*
Y8929031D01*
X18309229Y8954423D01*
X18258446D01*
X18233054Y8929031D01*
X20322507Y8929933D02*
X20297115Y8955325D01*
X20246332D01*
X20220940Y8929933D01*
Y8828366D01*
X20246332Y8802975D01*
X20297115D01*
X20322507Y8828366D01*
X20474858Y8955325D02*
X20373291D01*
Y8879150D01*
X20424074Y8904542D01*
X20449466D01*
X20474858Y8879150D01*
Y8828366D01*
X20449466Y8802975D01*
X20398683D01*
X20373291Y8828366D01*
X20525641Y8802975D02*
X20576425D01*
X20551033D01*
Y8955325D01*
X20525641Y8929933D01*
X20652600D02*
X20677992Y8955325D01*
X20728777D01*
X20754169Y8929933D01*
Y8828366D01*
X20728777Y8802975D01*
X20677992D01*
X20652600Y8828366D01*
Y8929933D01*
X15237427Y4147779D02*
X15212035Y4173171D01*
X15161252D01*
X15135860Y4147779D01*
Y4046212D01*
X15161252Y4020820D01*
X15212035D01*
X15237427Y4046212D01*
X15389778Y4173171D02*
X15288211D01*
Y4096995D01*
X15338994Y4122387D01*
X15364386D01*
X15389778Y4096995D01*
Y4046212D01*
X15364386Y4020820D01*
X15313603D01*
X15288211Y4046212D01*
X15440561Y4147779D02*
X15465953Y4173171D01*
X15516737D01*
X15542130Y4147779D01*
Y4046212D01*
X15516737Y4020820D01*
X15465953D01*
X15440561Y4046212D01*
Y4147779D01*
X15592912D02*
X15618304Y4173171D01*
X15669089D01*
X15694479Y4147779D01*
Y4122387D01*
X15669089Y4096995D01*
X15643697D01*
X15669089D01*
X15694479Y4071603D01*
Y4046212D01*
X15669089Y4020820D01*
X15618304D01*
X15592912Y4046212D01*
X16563307Y4876759D02*
X16537915Y4902151D01*
X16487132D01*
X16461740Y4876759D01*
Y4775192D01*
X16487132Y4749800D01*
X16537915D01*
X16563307Y4775192D01*
X16715659Y4902151D02*
X16614091D01*
Y4825975D01*
X16664874Y4851367D01*
X16690266D01*
X16715659Y4825975D01*
Y4775192D01*
X16690266Y4749800D01*
X16639484D01*
X16614091Y4775192D01*
X16766441Y4876759D02*
X16791833Y4902151D01*
X16842616D01*
X16868008Y4876759D01*
Y4775192D01*
X16842616Y4749800D01*
X16791833D01*
X16766441Y4775192D01*
Y4876759D01*
X17020358Y4749800D02*
X16918793D01*
X17020358Y4851367D01*
Y4876759D01*
X16994968Y4902151D01*
X16944183D01*
X16918793Y4876759D01*
X12974287Y6697939D02*
X12948895Y6723331D01*
X12898112D01*
X12872720Y6697939D01*
Y6596372D01*
X12898112Y6570980D01*
X12948895D01*
X12974287Y6596372D01*
X13126637Y6723331D02*
X13025072D01*
Y6647155D01*
X13075854Y6672547D01*
X13101247D01*
X13126637Y6647155D01*
Y6596372D01*
X13101247Y6570980D01*
X13050462D01*
X13025072Y6596372D01*
X13177422Y6697939D02*
X13202814Y6723331D01*
X13253596D01*
X13278989Y6697939D01*
Y6596372D01*
X13253596Y6570980D01*
X13202814D01*
X13177422Y6596372D01*
Y6697939D01*
X13431339Y6723331D02*
X13329771D01*
Y6647155D01*
X13380556Y6672547D01*
X13405948D01*
X13431339Y6647155D01*
Y6596372D01*
X13405948Y6570980D01*
X13355164D01*
X13329771Y6596372D01*
X14711647Y7617419D02*
X14686255Y7642811D01*
X14635472D01*
X14610080Y7617419D01*
Y7515852D01*
X14635472Y7490460D01*
X14686255D01*
X14711647Y7515852D01*
X14863998Y7642811D02*
X14762431D01*
Y7566635D01*
X14813214Y7592027D01*
X14838606D01*
X14863998Y7566635D01*
Y7515852D01*
X14838606Y7490460D01*
X14787823D01*
X14762431Y7515852D01*
X14914781Y7617419D02*
X14940173Y7642811D01*
X14990958D01*
X15016348Y7617419D01*
Y7515852D01*
X14990958Y7490460D01*
X14940173D01*
X14914781Y7515852D01*
Y7617419D01*
X15143307Y7490460D02*
Y7642811D01*
X15067133Y7566635D01*
X15168700D01*
X16568387Y10073599D02*
X16542995Y10098991D01*
X16492212D01*
X16466820Y10073599D01*
Y9972032D01*
X16492212Y9946640D01*
X16542995D01*
X16568387Y9972032D01*
X16720738Y10098991D02*
X16619171D01*
Y10022815D01*
X16669954Y10048207D01*
X16695346D01*
X16720738Y10022815D01*
Y9972032D01*
X16695346Y9946640D01*
X16644563D01*
X16619171Y9972032D01*
X16771521Y10073599D02*
X16796913Y10098991D01*
X16847697D01*
X16873090Y10073599D01*
Y9972032D01*
X16847697Y9946640D01*
X16796913D01*
X16771521Y9972032D01*
Y10073599D01*
X16923872Y9946640D02*
X16974657D01*
X16949265D01*
Y10098991D01*
X16923872Y10073599D01*
X16565846Y8935679D02*
X16540456Y8961071D01*
X16489671D01*
X16464281Y8935679D01*
Y8834112D01*
X16489671Y8808720D01*
X16540456D01*
X16565846Y8834112D01*
X16718198Y8961071D02*
X16616631D01*
Y8884895D01*
X16667413Y8910287D01*
X16692805D01*
X16718198Y8884895D01*
Y8834112D01*
X16692805Y8808720D01*
X16642023D01*
X16616631Y8834112D01*
X16768980Y8935679D02*
X16794373Y8961071D01*
X16845157D01*
X16870549Y8935679D01*
Y8834112D01*
X16845157Y8808720D01*
X16794373D01*
X16768980Y8834112D01*
Y8935679D01*
X16921332D02*
X16946724Y8961071D01*
X16997508D01*
X17022899Y8935679D01*
Y8834112D01*
X16997508Y8808720D01*
X16946724D01*
X16921332Y8834112D01*
Y8935679D01*
X13246066Y8389579D02*
X13220676Y8414971D01*
X13169891D01*
X13144501Y8389579D01*
Y8288012D01*
X13169891Y8262620D01*
X13220676D01*
X13246066Y8288012D01*
X13398418Y8414971D02*
X13296851D01*
Y8338795D01*
X13347633Y8364187D01*
X13373026D01*
X13398418Y8338795D01*
Y8288012D01*
X13373026Y8262620D01*
X13322243D01*
X13296851Y8288012D01*
X13449200Y8389579D02*
X13474593Y8414971D01*
X13525377D01*
X13550769Y8389579D01*
Y8288012D01*
X13525377Y8262620D01*
X13474593D01*
X13449200Y8288012D01*
Y8389579D01*
X13601552Y8414971D02*
X13703119D01*
Y8389579D01*
X13601552Y8288012D01*
Y8262620D01*
X14028387Y5171399D02*
X14002995Y5196791D01*
X13952213D01*
X13926820Y5171399D01*
Y5069832D01*
X13952213Y5044440D01*
X14002995D01*
X14028387Y5069832D01*
X14180737Y5196791D02*
X14079172D01*
Y5120615D01*
X14129955Y5146007D01*
X14155347D01*
X14180737Y5120615D01*
Y5069832D01*
X14155347Y5044440D01*
X14104562D01*
X14079172Y5069832D01*
X14231522Y5171399D02*
X14256914Y5196791D01*
X14307697D01*
X14333089Y5171399D01*
Y5069832D01*
X14307697Y5044440D01*
X14256914D01*
X14231522Y5069832D01*
Y5171399D01*
X14485439Y5196791D02*
X14434656Y5171399D01*
X14383871Y5120615D01*
Y5069832D01*
X14409264Y5044440D01*
X14460048D01*
X14485439Y5069832D01*
Y5095223D01*
X14460048Y5120615D01*
X14383871D01*
X4180807Y7914599D02*
X4155415Y7939991D01*
X4104632D01*
X4079240Y7914599D01*
Y7813032D01*
X4104632Y7787640D01*
X4155415D01*
X4180807Y7813032D01*
X4231591Y7914599D02*
X4256983Y7939991D01*
X4307766D01*
X4333158Y7914599D01*
Y7889207D01*
X4307766Y7863815D01*
X4282374D01*
X4307766D01*
X4333158Y7838423D01*
Y7813032D01*
X4307766Y7787640D01*
X4256983D01*
X4231591Y7813032D01*
X4383941Y7914599D02*
X4409333Y7939991D01*
X4460117D01*
X4485509Y7914599D01*
Y7813032D01*
X4460117Y7787640D01*
X4409333D01*
X4383941Y7813032D01*
Y7914599D01*
X4536292D02*
X4561684Y7939991D01*
X4612468D01*
X4637859Y7914599D01*
Y7813032D01*
X4612468Y7787640D01*
X4561684D01*
X4536292Y7813032D01*
Y7914599D01*
X4102067Y10967679D02*
X4076675Y10993071D01*
X4025892D01*
X4000500Y10967679D01*
Y10866112D01*
X4025892Y10840720D01*
X4076675D01*
X4102067Y10866112D01*
X4152851Y10967679D02*
X4178243Y10993071D01*
X4229026D01*
X4254418Y10967679D01*
Y10942287D01*
X4229026Y10916895D01*
X4203634D01*
X4229026D01*
X4254418Y10891503D01*
Y10866112D01*
X4229026Y10840720D01*
X4178243D01*
X4152851Y10866112D01*
X4305201Y10967679D02*
X4330593Y10993071D01*
X4381377D01*
X4406769Y10967679D01*
Y10866112D01*
X4381377Y10840720D01*
X4330593D01*
X4305201Y10866112D01*
Y10967679D01*
X4457552Y10840720D02*
X4508336D01*
X4482944D01*
Y10993071D01*
X4457552Y10967679D01*
X6839408Y10024873D02*
X6814017Y10050264D01*
X6763233D01*
X6737841Y10024873D01*
Y9923306D01*
X6763233Y9897914D01*
X6814017D01*
X6839408Y9923306D01*
X6991759Y9897914D02*
X6890192D01*
X6991759Y9999481D01*
Y10024873D01*
X6966367Y10050264D01*
X6915584D01*
X6890192Y10024873D01*
X7042543D02*
X7067935Y10050264D01*
X7118718D01*
X7144110Y10024873D01*
Y9923306D01*
X7118718Y9897914D01*
X7067935D01*
X7042543Y9923306D01*
Y10024873D01*
X7194893D02*
X7220285Y10050264D01*
X7271069D01*
X7296461Y10024873D01*
Y9999481D01*
X7271069Y9974089D01*
X7245677D01*
X7271069D01*
X7296461Y9948697D01*
Y9923306D01*
X7271069Y9897914D01*
X7220285D01*
X7194893Y9923306D01*
D38*
X10716706Y15731161D02*
G03*
X10716706Y15731161I-12500J0D01*
G01*
X7359486D02*
G03*
X7359486Y15731161I-12500J0D01*
G01*
X16829037Y4228081D02*
G03*
X16829037Y4228081I-12500J0D01*
G01*
X3642520Y9103075D02*
G03*
X3642520Y9103075I-12500J0D01*
G01*
X13143506Y15731161D02*
G03*
X13143506Y15731161I-12500J0D01*
G01*
X12449615Y12292551D02*
G03*
X12449615Y12292551I-12500J0D01*
G01*
X13699879Y8009547D02*
G03*
X13699879Y8009547I-12500J0D01*
G01*
X13467755Y4655905D02*
G03*
X13467755Y4655905I-12500J0D01*
G01*
X4932686Y15731161D02*
G03*
X4932686Y15731161I-12500J0D01*
G01*
D39*
X2770572Y6018271D02*
G03*
X2770572Y6198270I0J90000D01*
G01*
Y4558013D02*
G03*
X2770572Y4738013I0J90000D01*
G01*
X3631020Y9420575D02*
G03*
X3631020Y9547575I0J63500D01*
G01*
X8873466Y7228105D02*
X9076666D01*
Y6618505D02*
Y7228105D01*
X8873466Y6618505D02*
X9076666D01*
X8873466D02*
Y7228105D01*
X8975066D02*
Y7329705D01*
Y6516905D02*
Y6618505D01*
X9492002Y6983128D02*
X9695202D01*
Y6373528D02*
Y6983128D01*
X9492002Y6373528D02*
X9695202D01*
X9492002D02*
Y6983128D01*
X9593602D02*
Y7084728D01*
Y6271928D02*
Y6373528D01*
X10110537Y6720087D02*
X10313737D01*
Y6110487D02*
Y6720087D01*
X10110537Y6110487D02*
X10313737D01*
X10110537D02*
Y6720087D01*
X10212137D02*
Y6821687D01*
Y6008887D02*
Y6110487D01*
X9182734Y4842840D02*
X9385934D01*
X9182734D02*
Y5452440D01*
X9385934D01*
Y4842840D02*
Y5452440D01*
X9284334Y4741240D02*
Y4842840D01*
Y5452440D02*
Y5554040D01*
X9551905Y4841130D02*
X9755105D01*
X9551905D02*
Y5450730D01*
X9755105D01*
Y4841130D02*
Y5450730D01*
X9653505Y4739530D02*
Y4841130D01*
Y5450730D02*
Y5552330D01*
X8564199Y4588186D02*
X8767399D01*
X8564199D02*
Y5197786D01*
X8767399D01*
Y4588186D02*
Y5197786D01*
X8665799Y4486586D02*
Y4588186D01*
Y5197786D02*
Y5299386D01*
X8975066Y5197786D02*
Y5299386D01*
Y4486586D02*
Y4588186D01*
X9076666D02*
Y5197786D01*
X8873466D02*
X9076666D01*
X8873466Y4588186D02*
Y5197786D01*
Y4588186D02*
X9076666D01*
X7945664Y4333829D02*
X8148864D01*
X7945664D02*
Y4943429D01*
X8148864D01*
Y4333829D02*
Y4943429D01*
X8047264Y4232229D02*
Y4333829D01*
Y4943429D02*
Y5045029D01*
X8254931Y4333829D02*
X8458131D01*
X8254931D02*
Y4943429D01*
X8458131D01*
Y4333829D02*
Y4943429D01*
X8356531Y4232229D02*
Y4333829D01*
Y4943429D02*
Y5045029D01*
X13175941Y5966694D02*
Y6169894D01*
X13785541D01*
Y5966694D02*
Y6169894D01*
X13175941Y5966694D02*
X13785541D01*
X13074341Y6068294D02*
X13175941D01*
X13785541D02*
X13887141D01*
X22310422Y10300406D02*
X22513622D01*
Y9690806D02*
Y10300406D01*
X22310422Y9690806D02*
X22513622D01*
X22310422D02*
Y10300406D01*
X22412021D02*
Y10402006D01*
Y9589206D02*
Y9690806D01*
X22683994D02*
X22887193D01*
X22683994D02*
Y10300406D01*
X22887193D01*
Y9690806D02*
Y10300406D01*
X22785594Y9589206D02*
Y9690806D01*
Y10300406D02*
Y10402006D01*
X10759206Y13746162D02*
Y14316162D01*
Y14606161D02*
Y15586162D01*
X12599205Y13746162D02*
Y14316162D01*
Y14606161D02*
Y15586162D01*
X10759206Y13746162D02*
X12599205D01*
X9158295Y9615272D02*
X9361495D01*
X9158295D02*
Y10224872D01*
X9361495D01*
Y9615272D02*
Y10224872D01*
X9259895Y9513672D02*
Y9615272D01*
Y10224872D02*
Y10326472D01*
X4293827Y13310127D02*
X4497027D01*
X4293827D02*
Y13919727D01*
X4497027D01*
Y13310127D02*
Y13919727D01*
X4395427Y13208527D02*
Y13310127D01*
Y13919727D02*
Y14021327D01*
X3871681Y13310750D02*
X4074881D01*
X3871681D02*
Y13920351D01*
X4074881D01*
Y13310750D02*
Y13920351D01*
X3973281Y13209151D02*
Y13310750D01*
Y13920351D02*
Y14021950D01*
X3543689Y13304283D02*
X3746889D01*
X3543689D02*
Y13913882D01*
X3746889D01*
Y13304283D02*
Y13913882D01*
X3645289Y13202682D02*
Y13304283D01*
Y13913882D02*
Y14015483D01*
X3226045Y13304283D02*
X3429245D01*
X3226045D02*
Y13913882D01*
X3429245D01*
Y13304283D02*
Y13913882D01*
X3327645Y13202682D02*
Y13304283D01*
Y13913882D02*
Y14015483D01*
X11332285Y11988451D02*
Y12206851D01*
X11129085Y11825851D02*
Y12206851D01*
X11332285D01*
X11129097Y11900434D02*
X11332286Y11901872D01*
X11230685Y11583551D02*
Y11825851D01*
Y12206851D02*
Y12473551D01*
X11129085Y11825851D02*
X11332285D01*
Y11988451D01*
X8381892Y9611850D02*
X8585092D01*
X8381892D02*
Y10221450D01*
X8585092D01*
Y9611850D02*
Y10221450D01*
X8483492Y9510250D02*
Y9611850D01*
Y10221450D02*
Y10323050D01*
X2770572Y5821770D02*
X3490572D01*
Y6394771D01*
X2770572D02*
X3490572D01*
X2770572Y6198270D02*
Y6394771D01*
Y5821770D02*
Y6018271D01*
Y4361513D02*
X3490572D01*
Y4934513D01*
X2770572D02*
X3490572D01*
X2770572Y4738013D02*
Y4934513D01*
Y4361513D02*
Y4558013D01*
X7401986Y13746162D02*
Y14316162D01*
Y14606161D02*
Y15586162D01*
X9241986Y13746162D02*
Y14316162D01*
Y14606161D02*
Y15586162D01*
X7401986Y13746162D02*
X9241986D01*
X12890253Y7545702D02*
Y7708302D01*
X12687052Y7545702D02*
X12890253D01*
X12788652Y7926702D02*
Y8193402D01*
Y7303402D02*
Y7545702D01*
X12687064Y7620285D02*
X12890253Y7621722D01*
X12687052Y7926702D02*
X12890253D01*
X12687052Y7545702D02*
Y7926702D01*
X12890253Y7708302D02*
Y7926702D01*
X12621459Y4957493D02*
Y5120093D01*
X12824660D01*
X12723059Y4472393D02*
Y4739093D01*
Y5120093D02*
Y5362393D01*
X12621458Y5044072D02*
X12824648Y5045510D01*
X12621459Y4739093D02*
X12824660D01*
Y5120093D01*
X12621459Y4739093D02*
Y4957493D01*
X20993301Y12460920D02*
X21107602D01*
Y11895920D02*
Y12460920D01*
X20904402Y11895920D02*
X21107602D01*
X20904402D02*
Y12460920D01*
X20993301D01*
Y11478420D02*
Y11895920D01*
Y12460920D02*
Y12878419D01*
X20904402Y12040220D02*
X21107635Y12039640D01*
X21506863Y11895920D02*
X21621164D01*
X21506863D02*
Y12460920D01*
X21710065D01*
Y11895920D02*
Y12460920D01*
X21621164Y11895920D02*
X21710065D01*
X21621164Y12460920D02*
Y12878419D01*
Y11478420D02*
Y11895920D01*
X21506830Y12317199D02*
X21710065Y12316620D01*
X19709229Y12460920D02*
X19823528D01*
Y11895920D02*
Y12460920D01*
X19620328Y11895920D02*
X19823528D01*
X19620328D02*
Y12460920D01*
X19709229D01*
Y11478420D02*
Y11895920D01*
Y12460920D02*
Y12878419D01*
X19620328Y12040220D02*
X19823563Y12039640D01*
X20222791Y11895920D02*
X20337090D01*
X20222791D02*
Y12460920D01*
X20425990D01*
Y11895920D02*
Y12460920D01*
X20337090Y11895920D02*
X20425990D01*
X20337090Y12460920D02*
Y12878419D01*
Y11478420D02*
Y11895920D01*
X20222755Y12317199D02*
X20425990Y12316620D01*
X12052475Y9871021D02*
X12215075D01*
Y9667821D02*
Y9871021D01*
X11567375Y9769421D02*
X11834075D01*
X12215075D02*
X12457375D01*
X12139055Y9871022D02*
X12140492Y9667833D01*
X11834075Y9667821D02*
Y9871021D01*
Y9667821D02*
X12215075D01*
X11834075Y9871021D02*
X12052475D01*
X11809675Y9068277D02*
X11972276D01*
X11809675D02*
Y9271477D01*
X12190675Y9169877D02*
X12457375D01*
X11567375D02*
X11809675D01*
X11884259Y9271465D02*
X11885696Y9068275D01*
X12190675Y9068277D02*
Y9271477D01*
X11809675D02*
X12190675D01*
X11972276Y9068277D02*
X12190675D01*
X16027538Y3693081D02*
Y4163081D01*
X17097539Y3693081D02*
Y4163081D01*
X16027538D02*
X17097539D01*
X16027538Y3693081D02*
X17097539D01*
X16027538Y3743081D02*
X17097537D01*
X4356920Y7904748D02*
X4560120D01*
Y7295148D02*
Y7904748D01*
X4356920Y7295148D02*
X4560120D01*
X4356920D02*
Y7904748D01*
X4458520D02*
Y8006348D01*
Y7193548D02*
Y7295148D01*
X3658420Y7904748D02*
X3861620D01*
Y7295148D02*
Y7904748D01*
X3658420Y7295148D02*
X3861620D01*
X3658420D02*
Y7904748D01*
X3760020D02*
Y8006348D01*
Y7193548D02*
Y7295148D01*
X4651020Y9219075D02*
Y9749074D01*
X3631020Y9547575D02*
Y9749074D01*
Y9219075D02*
Y9420575D01*
Y9749074D02*
X4651020D01*
X3631020Y9219075D02*
X4651020D01*
X13186006Y13746162D02*
X15026006D01*
Y14606161D02*
Y15586162D01*
Y13746162D02*
Y14316162D01*
X13186006Y14606161D02*
Y15586162D01*
Y13746162D02*
Y14316162D01*
X12832115Y11317551D02*
Y12357551D01*
X12372115Y11317551D02*
X12832115D01*
X12372115D02*
Y12357551D01*
Y12357551D02*
X12832115D01*
X12782115Y11317551D02*
Y12357551D01*
X11332285Y12895683D02*
X11433885D01*
X12043485D02*
X12145085D01*
X11433885Y12997282D02*
X12043485D01*
X11433885Y12794083D02*
Y12997282D01*
Y12794083D02*
X12043485D01*
Y12997282D01*
X21340817Y9657306D02*
Y10620106D01*
Y9657306D02*
X21696419D01*
Y10620106D01*
X21340817D02*
X21696419D01*
X18548645Y9657306D02*
Y10620106D01*
Y9657306D02*
X18904245D01*
Y10620106D01*
X18548645D02*
X18904245D01*
X14082381Y7034547D02*
Y8074546D01*
X13622379Y7034547D02*
X14082381D01*
X13622379D02*
Y8074546D01*
Y8074547D02*
X14082381D01*
X14032381Y7034547D02*
Y8074546D01*
X4404893Y10861420D02*
Y11064620D01*
X3795293Y10861420D02*
X4404893D01*
X3795293D02*
Y11064620D01*
X4404893D01*
Y10963020D02*
X4506493D01*
X3693693D02*
X3795293D01*
Y10247587D02*
Y10450787D01*
X4404893D01*
Y10247587D02*
Y10450787D01*
X3795293Y10247587D02*
X4404893D01*
X3693693Y10349187D02*
X3795293D01*
X4404893D02*
X4506493D01*
X3795293Y11200087D02*
Y11403287D01*
X4404893D01*
Y11200087D02*
Y11403287D01*
X3795293Y11200087D02*
X4404893D01*
X3693693Y11301687D02*
X3795293D01*
X4404893D02*
X4506493D01*
X13110254Y4590906D02*
Y5630906D01*
X13060255Y4590905D02*
X13520255D01*
Y4590906D02*
Y5630906D01*
X13060255D02*
X13520255D01*
X13060255Y4590906D02*
Y5630906D01*
X12890253Y8708737D02*
X12991852D01*
X13601453D02*
X13703052D01*
X12991852Y8810337D02*
X13601453D01*
X12991852Y8607137D02*
Y8810337D01*
Y8607137D02*
X13601453D01*
Y8810337D01*
X20068372Y9589206D02*
Y9690806D01*
Y10300406D02*
Y10402006D01*
X19966771Y9690806D02*
Y10300406D01*
Y9690806D02*
X20169971D01*
Y10300406D01*
X19966771D02*
X20169971D01*
X9284334Y6271928D02*
Y6373528D01*
Y6983128D02*
Y7084728D01*
X9182734Y6373528D02*
Y6983128D01*
Y6373528D02*
X9385934D01*
Y6983128D01*
X9182734D02*
X9385934D01*
X9902869Y6008887D02*
Y6110487D01*
Y6720087D02*
Y6821687D01*
X9801269Y6110487D02*
Y6720087D01*
Y6110487D02*
X10004469D01*
Y6720087D01*
X9801269D02*
X10004469D01*
X8665799Y6516905D02*
Y6618505D01*
Y7228105D02*
Y7329705D01*
X8564199Y6618505D02*
Y7228105D01*
Y6618505D02*
X8767399D01*
Y7228105D01*
X8564199D02*
X8767399D01*
X19181842Y10300406D02*
Y10402006D01*
Y9589206D02*
Y9690806D01*
X19283443D02*
Y10300406D01*
X19080241D02*
X19283443D01*
X19080241Y9690806D02*
Y10300406D01*
Y9690806D02*
X19283443D01*
X4975186Y13746162D02*
X6815186D01*
Y14606161D02*
Y15586162D01*
Y13746162D02*
Y14316162D01*
X4975186Y14606161D02*
Y15586162D01*
Y13746162D02*
Y14316162D01*
D40*
X20453249Y3432533D02*
G03*
X20453249Y3432533I-750000J0D01*
G01*
X22196046Y3484149D02*
G03*
X22196046Y3484149I-750000J0D01*
G01*
X18747881Y3474425D02*
G03*
X18747881Y3474425I-750000J0D01*
G01*
X4145093Y10608294D02*
X4562593D01*
X4145093Y10723294D02*
X4562593D01*
X16765623Y12913229D02*
Y13138229D01*
X16120624D02*
X16765623D01*
X16120624Y12913229D02*
Y13138229D01*
Y12913229D02*
X16765623D01*
X9016992Y10049878D02*
Y10807878D01*
X8766992Y10049878D02*
Y10807878D01*
X9016992D01*
X8766992Y10049878D02*
X9016992D01*
X13502408Y11110650D02*
Y11528150D01*
X13387408Y11110650D02*
Y11528150D01*
X11957003Y11894250D02*
Y12311750D01*
X12072003Y11894250D02*
Y12311750D01*
X2778203Y14029382D02*
X3028203D01*
Y13017381D02*
Y14029382D01*
X2778203Y13017381D02*
Y14029382D01*
Y13017381D02*
X3028203D01*
X11545255Y5025890D02*
X11795255D01*
X11545255Y6545890D02*
X11795255D01*
X11545255Y5025890D02*
Y6545890D01*
X11795255Y5025890D02*
Y6545890D01*
X10857576Y6548302D02*
X11107576D01*
X10857576Y5028302D02*
X11107576D01*
Y6548302D01*
X10857576Y5028302D02*
Y6548302D01*
X16767841Y11796231D02*
X17017841D01*
X16767841Y12554231D02*
X17017841D01*
X16767841Y11796231D02*
Y12554231D01*
X17017841Y11796231D02*
Y12554231D01*
X16290038Y9498419D02*
X17340038D01*
X16290038Y9028419D02*
Y9498419D01*
Y9028419D02*
X17340038D01*
X17340038Y9498419D02*
X17340038Y9028419D01*
X17869386Y9356753D02*
Y10406753D01*
Y9356753D02*
X18339386D01*
Y10406753D01*
X17869386Y10406753D02*
X18339386Y10406753D01*
X15900175Y11834286D02*
X16150175D01*
X15900175Y12592286D02*
X16150175D01*
X15900175Y11834286D02*
Y12592286D01*
X16150175Y11834286D02*
Y12592286D01*
X15153101Y3358567D02*
Y3776067D01*
X15268102Y3358567D02*
Y3776067D01*
X4083520Y7137448D02*
Y7554948D01*
X4198520Y7137448D02*
Y7554948D01*
X13274901Y7600405D02*
Y8017905D01*
X13159901Y7600405D02*
Y8017905D01*
X13017741Y6453726D02*
X13435242D01*
X13017741Y6338726D02*
X13435242D01*
X13206735Y11950266D02*
Y12903265D01*
X13689735D01*
X13206735Y11950266D02*
X13689735D01*
Y12903265D01*
X8296474Y10051564D02*
Y10809564D01*
X8046474Y10051564D02*
Y10809564D01*
X8296474D01*
X8046474Y10051564D02*
X8296474D01*
X5650402Y7593582D02*
X5900402D01*
X5650402D02*
Y11653582D01*
X5900402Y7593582D02*
Y11653582D01*
X5650402D02*
X5900402D01*
X14046242Y4394743D02*
Y4812243D01*
X13931241Y4394743D02*
Y4812243D01*
X14507144Y4380743D02*
Y5333743D01*
X14990144D01*
X14507144Y4380743D02*
X14990144D01*
Y5333743D01*
X14332259Y7977287D02*
Y8930287D01*
X14815257D01*
X14332259Y7977287D02*
X14815257D01*
Y8930287D01*
X14625748Y6827818D02*
Y7245318D01*
X14740747Y6827818D02*
Y7245318D01*
X16605473Y4631894D02*
X17022974D01*
X16605473Y4516894D02*
X17022974D01*
X22064952Y10041106D02*
Y10458606D01*
X21949953Y10041106D02*
Y10458606D01*
X5942506Y7593582D02*
X6192506D01*
X5942506D02*
Y11653582D01*
X6192506Y7593582D02*
Y11653582D01*
X5942506D02*
X6192506D01*
X9532615Y3088171D02*
X9782615D01*
X9532615Y3846171D02*
X9782615D01*
X9532615Y3088171D02*
Y3846171D01*
X9782615Y3088171D02*
Y3846171D01*
X8852397Y3095892D02*
X9102397D01*
X8852397Y3853892D02*
X9102397D01*
X8852397Y3095892D02*
Y3853892D01*
X9102397Y3095892D02*
Y3853892D01*
X9470062Y8677133D02*
X9720062D01*
X9470062Y7919133D02*
X9720062D01*
Y8677133D01*
X9470062Y7919133D02*
Y8677133D01*
X8846842D02*
X9096842D01*
X8846842Y7919133D02*
X9096842D01*
Y8677133D01*
X8846842Y7919133D02*
Y8677133D01*
X10085212D02*
X10335212D01*
X10085212Y7919133D02*
X10335212D01*
Y8677133D01*
X10085212Y7919133D02*
Y8677133D01*
X8231374Y3095892D02*
X8481374D01*
X8231374Y3853892D02*
X8481374D01*
X8231374Y3095892D02*
Y3853892D01*
X8481374Y3095892D02*
Y3853892D01*
X5942506Y3496530D02*
X6192506D01*
X5942506D02*
Y7556530D01*
X6192506Y3496530D02*
Y7556530D01*
X5942506D02*
X6192506D01*
X5650402Y3496530D02*
X5900402D01*
X5650402D02*
Y7556530D01*
X5900402Y3496530D02*
Y7556530D01*
X5650402D02*
X5900402D01*
X6725012Y9287582D02*
Y9705082D01*
X6840012Y9287582D02*
Y9705082D01*
X16611002Y9827820D02*
X17028502D01*
X16611002Y9712820D02*
X17028502D01*
X16608037Y8576872D02*
X17025537D01*
X16608037Y8691872D02*
X17025537D01*
X23406500Y11752997D02*
Y13242998D01*
X22661501D02*
X23406500D01*
X22661501Y11752997D02*
Y13242998D01*
Y11752997D02*
X23406500D01*
X23349001D02*
Y13242998D01*
X19576205Y9532606D02*
Y9950106D01*
X19691206Y9532606D02*
Y9950106D01*
X20690787Y10484791D02*
X21160786Y10484792D01*
Y9434791D02*
Y10484792D01*
X20690787Y9434791D02*
X21160786D01*
X20690787D02*
Y10484791D01*
D41*
X3761020Y9319075D02*
G03*
X3761020Y9319075I-30000J0D01*
G01*
%TF.MD5,5ae6b749eb98960f94cbe4a2233e5b89*%
M02*
