%TF.GenerationSoftware,Altium Limited,Altium Designer,24.10.1 (45)*%
G04 Layer_Color=65535*
%FSLAX45Y45*%
%MOMM*%
%TF.SameCoordinates,313608DE-15D6-4D2F-AD32-991CA47BF39A*%
%TF.FilePolarity,Positive*%
%TF.FileFunction,Legend,Top*%
%TF.Part,Single*%
G01*
G75*
%TA.AperFunction,NonConductor*%
%ADD33C,0.25400*%
%ADD34C,0.25000*%
%ADD35C,0.12700*%
%ADD36C,0.60000*%
%ADD37C,0.20000*%
D33*
X16962537Y7993391D02*
G03*
X16962537Y7993391I-400000J0D01*
G01*
X19689145Y7763391D02*
G03*
X19689145Y7763391I-950000J0D01*
G01*
X22109225D02*
G03*
X22109225Y7763391I-950000J0D01*
G01*
X16962537Y5228129D02*
G03*
X16962537Y5228129I-400000J0D01*
G01*
X19689145Y5448129D02*
G03*
X19689145Y5448129I-950000J0D01*
G01*
X22109225D02*
G03*
X22109225Y5448129I-950000J0D01*
G01*
X16755037Y8143391D02*
X16860037D01*
X16807536Y8090891D02*
Y8195891D01*
Y7790891D02*
Y7895891D01*
X19146654Y7340891D02*
Y7445891D01*
Y8090891D02*
Y8195891D01*
X19094153Y8143391D02*
X19199153D01*
X21566734Y7340891D02*
Y7445891D01*
Y8090891D02*
Y8195891D01*
X21514233Y8143391D02*
X21619234D01*
X16755037Y5378129D02*
X16860037D01*
X16807536Y5325629D02*
Y5430629D01*
Y5025629D02*
Y5130629D01*
X19094153Y5828129D02*
X19199153D01*
X19146654Y5775629D02*
Y5880629D01*
Y5025629D02*
Y5130629D01*
X21514233Y5828129D02*
X21619234D01*
X21566734Y5775629D02*
Y5880629D01*
Y5025629D02*
Y5130629D01*
X16277715Y8609893D02*
X16252322Y8635285D01*
X16201540D01*
X16176147Y8609893D01*
Y8508326D01*
X16201540Y8482935D01*
X16252322D01*
X16277715Y8508326D01*
X16430064Y8635285D02*
X16328497D01*
Y8559110D01*
X16379282Y8584502D01*
X16404674D01*
X16430064Y8559110D01*
Y8508326D01*
X16404674Y8482935D01*
X16353889D01*
X16328497Y8508326D01*
X16480849Y8482935D02*
X16531631D01*
X16506241D01*
Y8635285D01*
X16480849Y8609893D01*
X16683983Y8482935D02*
Y8635285D01*
X16607808Y8559110D01*
X16709375D01*
X15453360Y3794711D02*
X15554927D01*
X15504143D01*
Y3642360D01*
X15605711D02*
Y3794711D01*
X15681886D01*
X15707278Y3769319D01*
Y3718535D01*
X15681886Y3693143D01*
X15605711D01*
X15758061Y3718535D02*
X15859628D01*
X16011980Y3794711D02*
X15910413D01*
Y3718535D01*
X15961195Y3743927D01*
X15986588D01*
X16011980Y3718535D01*
Y3667752D01*
X15986588Y3642360D01*
X15935805D01*
X15910413Y3667752D01*
X16062762Y3794711D02*
Y3693143D01*
X16113547Y3642360D01*
X16164330Y3693143D01*
Y3794711D01*
X14660880Y12509451D02*
X14762447D01*
X14711662D01*
Y12357100D01*
X14813231D02*
Y12509451D01*
X14889406D01*
X14914798Y12484059D01*
Y12433275D01*
X14889406Y12407883D01*
X14813231D01*
X14965581Y12433275D02*
X15067149D01*
X15016365Y12484059D02*
Y12382492D01*
X15219499Y12357100D02*
X15117932D01*
X15219499Y12458667D01*
Y12484059D01*
X15194109Y12509451D01*
X15143324D01*
X15117932Y12484059D01*
X15270284Y12509451D02*
Y12407883D01*
X15321066Y12357100D01*
X15371851Y12407883D01*
Y12509451D01*
X15590520Y8991551D02*
X15692087D01*
X15641302D01*
Y8839200D01*
X15742871D02*
Y8991551D01*
X15819046D01*
X15844438Y8966159D01*
Y8915375D01*
X15819046Y8889983D01*
X15742871D01*
X15895221Y8915375D02*
X15996790D01*
X15946005Y8966159D02*
Y8864592D01*
X16047572Y8839200D02*
X16098357D01*
X16072964D01*
Y8991551D01*
X16047572Y8966159D01*
X16174532Y8991551D02*
Y8889983D01*
X16225314Y8839200D01*
X16276099Y8889983D01*
Y8991551D01*
X16326881D02*
X16428448D01*
Y8966159D01*
X16326881Y8864592D01*
Y8839200D01*
X16580800Y8991551D02*
X16479231D01*
Y8915375D01*
X16530016Y8940767D01*
X16555408D01*
X16580800Y8915375D01*
Y8864592D01*
X16555408Y8839200D01*
X16504623D01*
X16479231Y8864592D01*
X12021820Y5769377D02*
X12123387D01*
X12072603D01*
Y5617026D01*
X12174171D02*
Y5769377D01*
X12250346D01*
X12275738Y5743985D01*
Y5693201D01*
X12250346Y5667809D01*
X12174171D01*
X12326521Y5693201D02*
X12428089D01*
X12478872Y5617026D02*
X12529656D01*
X12504264D01*
Y5769377D01*
X12478872Y5743985D01*
X12605831Y5769377D02*
Y5667809D01*
X12656615Y5617026D01*
X12707398Y5667809D01*
Y5769377D01*
X12758182D02*
X12859749D01*
Y5743985D01*
X12758182Y5642418D01*
Y5617026D01*
X13012100Y5769377D02*
X12910532D01*
Y5693201D01*
X12961316Y5718593D01*
X12986708D01*
X13012100Y5693201D01*
Y5642418D01*
X12986708Y5617026D01*
X12935924D01*
X12910532Y5642418D01*
X19624040Y13218111D02*
Y13065759D01*
X19700215D01*
X19725607Y13091151D01*
Y13192719D01*
X19700215Y13218111D01*
X19624040D01*
X19877959D02*
X19776392D01*
Y13141936D01*
X19827174Y13167326D01*
X19852567D01*
X19877959Y13141936D01*
Y13091151D01*
X19852567Y13065759D01*
X19801784D01*
X19776392Y13091151D01*
X19928741Y13192719D02*
X19954134Y13218111D01*
X20004916D01*
X20030309Y13192719D01*
Y13091151D01*
X20004916Y13065759D01*
X19954134D01*
X19928741Y13091151D01*
Y13192719D01*
X20182658Y13218111D02*
X20131876Y13192719D01*
X20081091Y13141936D01*
Y13091151D01*
X20106483Y13065759D01*
X20157268D01*
X20182658Y13091151D01*
Y13116544D01*
X20157268Y13141936D01*
X20081091D01*
X20238721Y13218111D02*
Y13065759D01*
X20314896D01*
X20340286Y13091151D01*
Y13192719D01*
X20314896Y13218111D01*
X20238721D01*
X20492638D02*
X20391071D01*
Y13141936D01*
X20441853Y13167326D01*
X20467245D01*
X20492638Y13141936D01*
Y13091151D01*
X20467245Y13065759D01*
X20416463D01*
X20391071Y13091151D01*
X20543420Y13192719D02*
X20568813Y13218111D01*
X20619597D01*
X20644989Y13192719D01*
Y13091151D01*
X20619597Y13065759D01*
X20568813D01*
X20543420Y13091151D01*
Y13192719D01*
X20797339Y13218111D02*
X20695772D01*
Y13141936D01*
X20746556Y13167326D01*
X20771948D01*
X20797339Y13141936D01*
Y13091151D01*
X20771948Y13065759D01*
X20721164D01*
X20695772Y13091151D01*
X20909280Y13218111D02*
Y13065759D01*
X20985455D01*
X21010847Y13091151D01*
Y13192719D01*
X20985455Y13218111D01*
X20909280D01*
X21163197D02*
X21061630D01*
Y13141936D01*
X21112415Y13167326D01*
X21137807D01*
X21163197Y13141936D01*
Y13091151D01*
X21137807Y13065759D01*
X21087022D01*
X21061630Y13091151D01*
X21213982Y13192719D02*
X21239372Y13218111D01*
X21290157D01*
X21315549Y13192719D01*
Y13091151D01*
X21290157Y13065759D01*
X21239372D01*
X21213982Y13091151D01*
Y13192719D01*
X21442508Y13065759D02*
Y13218111D01*
X21366331Y13141936D01*
X21467899D01*
X21521420Y13218111D02*
Y13065759D01*
X21597595D01*
X21622987Y13091151D01*
Y13192719D01*
X21597595Y13218111D01*
X21521420D01*
X21775339D02*
X21673772D01*
Y13141936D01*
X21724554Y13167326D01*
X21749947D01*
X21775339Y13141936D01*
Y13091151D01*
X21749947Y13065759D01*
X21699162D01*
X21673772Y13091151D01*
X21826122Y13192719D02*
X21851514Y13218111D01*
X21902296D01*
X21927689Y13192719D01*
Y13091151D01*
X21902296Y13065759D01*
X21851514D01*
X21826122Y13091151D01*
Y13192719D01*
X21978471D02*
X22003864Y13218111D01*
X22054648D01*
X22080038Y13192719D01*
Y13167326D01*
X22054648Y13141936D01*
X22029256D01*
X22054648D01*
X22080038Y13116544D01*
Y13091151D01*
X22054648Y13065759D01*
X22003864D01*
X21978471Y13091151D01*
X11145520Y12826952D02*
Y12674600D01*
X11221695D01*
X11247087Y12699992D01*
Y12801559D01*
X11221695Y12826952D01*
X11145520D01*
X11399438D02*
X11297871D01*
Y12750775D01*
X11348654Y12776167D01*
X11374046D01*
X11399438Y12750775D01*
Y12699992D01*
X11374046Y12674600D01*
X11323263D01*
X11297871Y12699992D01*
X11450221Y12801559D02*
X11475613Y12826952D01*
X11526397D01*
X11551789Y12801559D01*
Y12699992D01*
X11526397Y12674600D01*
X11475613D01*
X11450221Y12699992D01*
Y12801559D01*
X11704139Y12674600D02*
X11602572D01*
X11704139Y12776167D01*
Y12801559D01*
X11678748Y12826952D01*
X11627964D01*
X11602572Y12801559D01*
X12636500Y5671771D02*
Y5519420D01*
X12712675D01*
X12738067Y5544812D01*
Y5646379D01*
X12712675Y5671771D01*
X12636500D01*
X12890417D02*
X12788851D01*
Y5595595D01*
X12839635Y5620987D01*
X12865025D01*
X12890417Y5595595D01*
Y5544812D01*
X12865025Y5519420D01*
X12814243D01*
X12788851Y5544812D01*
X12941200Y5646379D02*
X12966592Y5671771D01*
X13017377D01*
X13042769Y5646379D01*
Y5544812D01*
X13017377Y5519420D01*
X12966592D01*
X12941200Y5544812D01*
Y5646379D01*
X13093552Y5519420D02*
X13144336D01*
X13118944D01*
Y5671771D01*
X13093552Y5646379D01*
X11512548Y9509711D02*
Y9357360D01*
X11588724D01*
X11614115Y9382752D01*
Y9484319D01*
X11588724Y9509711D01*
X11512548D01*
X11664899Y9484319D02*
X11690291Y9509711D01*
X11741074D01*
X11766466Y9484319D01*
Y9458927D01*
X11741074Y9433535D01*
X11715682D01*
X11741074D01*
X11766466Y9408143D01*
Y9382752D01*
X11741074Y9357360D01*
X11690291D01*
X11664899Y9382752D01*
X11817250Y9484319D02*
X11842642Y9509711D01*
X11893425D01*
X11918817Y9484319D01*
Y9382752D01*
X11893425Y9357360D01*
X11842642D01*
X11817250Y9382752D01*
Y9484319D01*
X11969600Y9357360D02*
X12020384D01*
X11994992D01*
Y9509711D01*
X11969600Y9484319D01*
X11513820Y10109151D02*
Y9956800D01*
X11589995D01*
X11615387Y9982192D01*
Y10083759D01*
X11589995Y10109151D01*
X11513820D01*
X11666171Y10083759D02*
X11691563Y10109151D01*
X11742346D01*
X11767738Y10083759D01*
Y10058367D01*
X11742346Y10032975D01*
X11716954D01*
X11742346D01*
X11767738Y10007583D01*
Y9982192D01*
X11742346Y9956800D01*
X11691563D01*
X11666171Y9982192D01*
X11818521Y10083759D02*
X11843913Y10109151D01*
X11894697D01*
X11920089Y10083759D01*
Y9982192D01*
X11894697Y9956800D01*
X11843913D01*
X11818521Y9982192D01*
Y10083759D01*
X11970872D02*
X11996264Y10109151D01*
X12047048D01*
X12072439Y10083759D01*
Y9982192D01*
X12047048Y9956800D01*
X11996264D01*
X11970872Y9982192D01*
Y10083759D01*
X12702540Y8501331D02*
Y8348980D01*
X12778715D01*
X12804108Y8374372D01*
Y8475939D01*
X12778715Y8501331D01*
X12702540D01*
X12956458D02*
X12854890D01*
Y8425155D01*
X12905675Y8450547D01*
X12931065D01*
X12956458Y8425155D01*
Y8374372D01*
X12931065Y8348980D01*
X12880283D01*
X12854890Y8374372D01*
X13007240Y8475939D02*
X13032632Y8501331D01*
X13083417D01*
X13108809Y8475939D01*
Y8374372D01*
X13083417Y8348980D01*
X13032632D01*
X13007240Y8374372D01*
Y8475939D01*
X13159592D02*
X13184984Y8501331D01*
X13235768D01*
X13261159Y8475939D01*
Y8374372D01*
X13235768Y8348980D01*
X13184984D01*
X13159592Y8374372D01*
Y8475939D01*
X19270979Y4411931D02*
Y4259580D01*
X19347156D01*
X19372546Y4284972D01*
Y4310363D01*
X19347156Y4335755D01*
X19270979D01*
X19347156D01*
X19372546Y4361147D01*
Y4386539D01*
X19347156Y4411931D01*
X19270979D01*
X19423331Y4335755D02*
X19524898D01*
X19677249Y4411931D02*
X19626465Y4386539D01*
X19575681Y4335755D01*
Y4284972D01*
X19601073Y4259580D01*
X19651857D01*
X19677249Y4284972D01*
Y4310363D01*
X19651857Y4335755D01*
X19575681D01*
X19728032Y4411931D02*
Y4310363D01*
X19778816Y4259580D01*
X19829599Y4310363D01*
Y4411931D01*
X15486380Y15793671D02*
Y15641319D01*
X15562555D01*
X15587947Y15666711D01*
Y15692104D01*
X15562555Y15717496D01*
X15486380D01*
X15562555D01*
X15587947Y15742886D01*
Y15768279D01*
X15562555Y15793671D01*
X15486380D01*
X15638731Y15717496D02*
X15740298D01*
X15689514Y15768279D02*
Y15666711D01*
X15892648Y15793671D02*
X15841866Y15768279D01*
X15791081Y15717496D01*
Y15666711D01*
X15816473Y15641319D01*
X15867258D01*
X15892648Y15666711D01*
Y15692104D01*
X15867258Y15717496D01*
X15791081D01*
X15943433Y15793671D02*
Y15692104D01*
X15994215Y15641319D01*
X16045000Y15692104D01*
Y15793671D01*
X17462500D02*
Y15641319D01*
X17538675D01*
X17564067Y15666711D01*
Y15692104D01*
X17538675Y15717496D01*
X17462500D01*
X17538675D01*
X17564067Y15742886D01*
Y15768279D01*
X17538675Y15793671D01*
X17462500D01*
X17716418Y15768279D02*
X17691026Y15793671D01*
X17640244D01*
X17614851Y15768279D01*
Y15666711D01*
X17640244Y15641319D01*
X17691026D01*
X17716418Y15666711D01*
Y15717496D01*
X17665634D01*
X17767201Y15641319D02*
Y15793671D01*
X17868768Y15641319D01*
Y15793671D01*
X17919553D02*
Y15641319D01*
X17995728D01*
X18021120Y15666711D01*
Y15768279D01*
X17995728Y15793671D01*
X17919553D01*
X17231360Y12219891D02*
X17332927D01*
X17282143D01*
Y12067540D01*
X17383711D02*
Y12219891D01*
X17459886D01*
X17485278Y12194499D01*
Y12143715D01*
X17459886Y12118323D01*
X17383711D01*
X17637630Y12194499D02*
X17612238Y12219891D01*
X17561453D01*
X17536061Y12194499D01*
Y12092932D01*
X17561453Y12067540D01*
X17612238D01*
X17637630Y12092932D01*
Y12143715D01*
X17586845D01*
X17688412Y12067540D02*
Y12219891D01*
X17789980Y12067540D01*
Y12219891D01*
X17840762D02*
Y12067540D01*
X17916937D01*
X17942329Y12092932D01*
Y12194499D01*
X17916937Y12219891D01*
X17840762D01*
X16261079Y11379151D02*
X16362646D01*
X16311864D01*
Y11226800D01*
X16413431D02*
Y11379151D01*
X16489606D01*
X16514998Y11353759D01*
Y11302975D01*
X16489606Y11277583D01*
X16413431D01*
X16565781Y11302975D02*
X16667349D01*
X16616565Y11353759D02*
Y11252192D01*
X16819699Y11379151D02*
X16718132D01*
Y11302975D01*
X16768916Y11328367D01*
X16794308D01*
X16819699Y11302975D01*
Y11252192D01*
X16794308Y11226800D01*
X16743524D01*
X16718132Y11252192D01*
X16870483Y11379151D02*
Y11277583D01*
X16921266Y11226800D01*
X16972050Y11277583D01*
Y11379151D01*
X22491701Y12420551D02*
X22593266D01*
X22542484D01*
Y12268200D01*
X22644051D02*
Y12420551D01*
X22720226D01*
X22745618Y12395159D01*
Y12344375D01*
X22720226Y12318983D01*
X22644051D01*
X22796400Y12242808D02*
X22897969D01*
X22948752Y12420551D02*
Y12268200D01*
X23024928D01*
X23050319Y12293592D01*
Y12318983D01*
Y12344375D01*
X23024928Y12369767D01*
X22948752D01*
X23101103D02*
Y12268200D01*
Y12318983D01*
X23126495Y12344375D01*
X23151886Y12369767D01*
X23177278D01*
X23253455Y12268200D02*
X23304237D01*
X23278845D01*
Y12369767D01*
X23253455D01*
X23481979Y12420551D02*
Y12268200D01*
X23405804D01*
X23380412Y12293592D01*
Y12344375D01*
X23405804Y12369767D01*
X23481979D01*
X23583546Y12217417D02*
X23608939D01*
X23634331Y12242808D01*
Y12369767D01*
X23558154D01*
X23532764Y12344375D01*
Y12293592D01*
X23558154Y12268200D01*
X23634331D01*
X23761288D02*
X23710506D01*
X23685114Y12293592D01*
Y12344375D01*
X23710506Y12369767D01*
X23761288D01*
X23786681Y12344375D01*
Y12318983D01*
X23685114D01*
X23837465Y12242808D02*
X23939032D01*
X23989815Y12268200D02*
Y12420551D01*
X24091383Y12268200D01*
Y12420551D01*
X24243733D02*
X24142166D01*
Y12268200D01*
X24243733D01*
X24142166Y12344375D02*
X24192950D01*
X24396085Y12395159D02*
X24370692Y12420551D01*
X24319910D01*
X24294518Y12395159D01*
Y12293592D01*
X24319910Y12268200D01*
X24370692D01*
X24396085Y12293592D01*
Y12344375D01*
X24345300D01*
X22270720Y13220651D02*
X22372287D01*
X22321503D01*
Y13068300D01*
X22423071D02*
Y13220651D01*
X22499246D01*
X22524638Y13195259D01*
Y13144475D01*
X22499246Y13119083D01*
X22423071D01*
X22575421Y13042908D02*
X22676990D01*
X22727773Y13220651D02*
Y13068300D01*
X22803947D01*
X22829340Y13093692D01*
Y13119083D01*
Y13144475D01*
X22803947Y13169867D01*
X22727773D01*
X22880122D02*
Y13068300D01*
Y13119083D01*
X22905515Y13144475D01*
X22930907Y13169867D01*
X22956297D01*
X23032474Y13068300D02*
X23083257D01*
X23057864D01*
Y13169867D01*
X23032474D01*
X23261000Y13220651D02*
Y13068300D01*
X23184824D01*
X23159431Y13093692D01*
Y13144475D01*
X23184824Y13169867D01*
X23261000D01*
X23362567Y13017517D02*
X23387959D01*
X23413350Y13042908D01*
Y13169867D01*
X23337175D01*
X23311783Y13144475D01*
Y13093692D01*
X23337175Y13068300D01*
X23413350D01*
X23540309D02*
X23489526D01*
X23464134Y13093692D01*
Y13144475D01*
X23489526Y13169867D01*
X23540309D01*
X23565701Y13144475D01*
Y13119083D01*
X23464134D01*
X23616486Y13042908D02*
X23718053D01*
X23768835Y13068300D02*
Y13220651D01*
X23845010D01*
X23870403Y13195259D01*
Y13144475D01*
X23845010Y13119083D01*
X23768835D01*
X23997362Y13220651D02*
X23946577D01*
X23921185Y13195259D01*
Y13093692D01*
X23946577Y13068300D01*
X23997362D01*
X24022752Y13093692D01*
Y13195259D01*
X23997362Y13220651D01*
X24175104Y13195259D02*
X24149712Y13220651D01*
X24098929D01*
X24073537Y13195259D01*
Y13169867D01*
X24098929Y13144475D01*
X24149712D01*
X24175104Y13119083D01*
Y13093692D01*
X24149712Y13068300D01*
X24098929D01*
X24073537Y13093692D01*
X12387580Y12595811D02*
Y12468852D01*
X12412972Y12443460D01*
X12463755D01*
X12489147Y12468852D01*
Y12595811D01*
X12641498D02*
X12539931D01*
Y12519635D01*
X12590714Y12545027D01*
X12616106D01*
X12641498Y12519635D01*
Y12468852D01*
X12616106Y12443460D01*
X12565323D01*
X12539931Y12468852D01*
X12692281Y12570419D02*
X12717673Y12595811D01*
X12768457D01*
X12793849Y12570419D01*
Y12468852D01*
X12768457Y12443460D01*
X12717673D01*
X12692281Y12468852D01*
Y12570419D01*
X12920808Y12443460D02*
Y12595811D01*
X12844632Y12519635D01*
X12946199D01*
X11158220Y13096240D02*
Y13248592D01*
X11234395D01*
X11259787Y13223199D01*
Y13172415D01*
X11234395Y13147023D01*
X11158220D01*
X11209003D02*
X11259787Y13096240D01*
X11412138Y13248592D02*
X11310571D01*
Y13172415D01*
X11361354Y13197807D01*
X11386746D01*
X11412138Y13172415D01*
Y13121632D01*
X11386746Y13096240D01*
X11335963D01*
X11310571Y13121632D01*
X11462921Y13223199D02*
X11488313Y13248592D01*
X11539097D01*
X11564489Y13223199D01*
Y13121632D01*
X11539097Y13096240D01*
X11488313D01*
X11462921Y13121632D01*
Y13223199D01*
X11615272D02*
X11640664Y13248592D01*
X11691448D01*
X11716839Y13223199D01*
Y13197807D01*
X11691448Y13172415D01*
X11716839Y13147023D01*
Y13121632D01*
X11691448Y13096240D01*
X11640664D01*
X11615272Y13121632D01*
Y13147023D01*
X11640664Y13172415D01*
X11615272Y13197807D01*
Y13223199D01*
X11640664Y13172415D02*
X11691448D01*
X13225780Y12987019D02*
Y13139371D01*
X13301955D01*
X13327347Y13113979D01*
Y13063194D01*
X13301955Y13037804D01*
X13225780D01*
X13403523Y12987019D02*
X13454306D01*
X13479698Y13012411D01*
Y13063194D01*
X13454306Y13088586D01*
X13403523D01*
X13378131Y13063194D01*
Y13012411D01*
X13403523Y12987019D01*
X13555873Y13113979D02*
Y13088586D01*
X13530481D01*
X13581265D01*
X13555873D01*
Y13012411D01*
X13581265Y12987019D01*
X13759007Y13139371D02*
X13657440D01*
Y13063194D01*
X13708224Y13088586D01*
X13733617D01*
X13759007Y13063194D01*
Y13012411D01*
X13733617Y12987019D01*
X13682832D01*
X13657440Y13012411D01*
X13809792Y13113979D02*
X13835184Y13139371D01*
X13885966D01*
X13911359Y13113979D01*
Y13012411D01*
X13885966Y12987019D01*
X13835184D01*
X13809792Y13012411D01*
Y13113979D01*
X14063708Y12987019D02*
X13962141D01*
X14063708Y13088586D01*
Y13113979D01*
X14038316Y13139371D01*
X13987534D01*
X13962141Y13113979D01*
X10703560Y17345612D02*
Y17193260D01*
X10754343Y17244043D01*
X10805127Y17193260D01*
Y17345612D01*
X10855911Y17193260D02*
Y17294827D01*
X10906694Y17345612D01*
X10957478Y17294827D01*
Y17193260D01*
Y17269435D01*
X10855911D01*
X11008261Y17345612D02*
Y17193260D01*
Y17269435D01*
X11109829D01*
Y17345612D01*
Y17193260D01*
X11160612Y17167868D02*
X11262179D01*
X11312963Y17193260D02*
Y17345612D01*
X11389138D01*
X11414530Y17320219D01*
Y17269435D01*
X11389138Y17244043D01*
X11312963D01*
X11363746D02*
X11414530Y17193260D01*
X11566881Y17345612D02*
X11465314D01*
Y17193260D01*
X11566881D01*
X11465314Y17269435D02*
X11516097D01*
X11719232Y17345612D02*
X11617664D01*
Y17269435D01*
X11668448D01*
X11617664D01*
Y17193260D01*
X13131799Y17345612D02*
Y17193260D01*
X13182584Y17244043D01*
X13233366Y17193260D01*
Y17345612D01*
X13284151Y17193260D02*
Y17294827D01*
X13334933Y17345612D01*
X13385718Y17294827D01*
Y17193260D01*
Y17269435D01*
X13284151D01*
X13436501Y17345612D02*
Y17193260D01*
Y17269435D01*
X13538069D01*
Y17345612D01*
Y17193260D01*
X13588852Y17167868D02*
X13690419D01*
X13817378Y17345612D02*
X13766595D01*
X13741203Y17320219D01*
Y17218652D01*
X13766595Y17193260D01*
X13817378D01*
X13842770Y17218652D01*
Y17320219D01*
X13817378Y17345612D01*
X13893555D02*
Y17218652D01*
X13918945Y17193260D01*
X13969730D01*
X13995120Y17218652D01*
Y17345612D01*
X14045905D02*
X14147472D01*
X14096687D01*
Y17193260D01*
X14102048Y12672019D02*
X14076656Y12697411D01*
X14025871D01*
X14000481Y12672019D01*
Y12570452D01*
X14025871Y12545060D01*
X14076656D01*
X14102048Y12570452D01*
X14254398Y12697411D02*
X14152831D01*
Y12621235D01*
X14203613Y12646627D01*
X14229005D01*
X14254398Y12621235D01*
Y12570452D01*
X14229005Y12545060D01*
X14178223D01*
X14152831Y12570452D01*
X14305180Y12545060D02*
X14355965D01*
X14330573D01*
Y12697411D01*
X14305180Y12672019D01*
X14432140Y12697411D02*
X14533708D01*
Y12672019D01*
X14432140Y12570452D01*
Y12545060D01*
X11805887Y11910019D02*
X11780495Y11935411D01*
X11729712D01*
X11704320Y11910019D01*
Y11808452D01*
X11729712Y11783060D01*
X11780495D01*
X11805887Y11808452D01*
X11958238Y11935411D02*
X11856671D01*
Y11859235D01*
X11907454Y11884627D01*
X11932846D01*
X11958238Y11859235D01*
Y11808452D01*
X11932846Y11783060D01*
X11882063D01*
X11856671Y11808452D01*
X12009021Y11783060D02*
X12059805D01*
X12034413D01*
Y11935411D01*
X12009021Y11910019D01*
X12237548Y11935411D02*
X12186764Y11910019D01*
X12135980Y11859235D01*
Y11808452D01*
X12161372Y11783060D01*
X12212156D01*
X12237548Y11808452D01*
Y11833843D01*
X12212156Y11859235D01*
X12135980D01*
X13637260Y8313371D02*
Y8186412D01*
X13662653Y8161020D01*
X13713435D01*
X13738828Y8186412D01*
Y8313371D01*
X13891177D02*
X13789610D01*
Y8237195D01*
X13840395Y8262587D01*
X13865787D01*
X13891177Y8237195D01*
Y8186412D01*
X13865787Y8161020D01*
X13815002D01*
X13789610Y8186412D01*
X13941962Y8287979D02*
X13967352Y8313371D01*
X14018137D01*
X14043529Y8287979D01*
Y8186412D01*
X14018137Y8161020D01*
X13967352D01*
X13941962Y8186412D01*
Y8287979D01*
X14195879Y8161020D02*
X14094312D01*
X14195879Y8262587D01*
Y8287979D01*
X14170488Y8313371D01*
X14119704D01*
X14094312Y8287979D01*
X2730500Y6992571D02*
Y6840220D01*
X2806675D01*
X2832067Y6865612D01*
Y6967179D01*
X2806675Y6992571D01*
X2730500D01*
X2984418Y6967179D02*
X2959026Y6992571D01*
X2908243D01*
X2882851Y6967179D01*
Y6941787D01*
X2908243Y6916395D01*
X2959026D01*
X2984418Y6891003D01*
Y6865612D01*
X2959026Y6840220D01*
X2908243D01*
X2882851Y6865612D01*
X3035201Y6840220D02*
Y6992571D01*
X3111377D01*
X3136769Y6967179D01*
Y6916395D01*
X3111377Y6891003D01*
X3035201D01*
X3187552Y6814828D02*
X3289119D01*
X3416078Y6992571D02*
X3365295D01*
X3339903Y6967179D01*
Y6865612D01*
X3365295Y6840220D01*
X3416078D01*
X3441470Y6865612D01*
Y6967179D01*
X3416078Y6992571D01*
X3492254D02*
Y6865612D01*
X3517645Y6840220D01*
X3568429D01*
X3593821Y6865612D01*
Y6992571D01*
X3644604D02*
X3746172D01*
X3695388D01*
Y6840220D01*
X2730500Y5532071D02*
Y5379720D01*
X2806675D01*
X2832067Y5405112D01*
Y5506679D01*
X2806675Y5532071D01*
X2730500D01*
X2984418Y5506679D02*
X2959026Y5532071D01*
X2908243D01*
X2882851Y5506679D01*
Y5481287D01*
X2908243Y5455895D01*
X2959026D01*
X2984418Y5430503D01*
Y5405112D01*
X2959026Y5379720D01*
X2908243D01*
X2882851Y5405112D01*
X3035201Y5379720D02*
Y5532071D01*
X3111377D01*
X3136769Y5506679D01*
Y5455895D01*
X3111377Y5430503D01*
X3035201D01*
X3187552Y5354328D02*
X3289119D01*
X3339903Y5532071D02*
X3390686D01*
X3365295D01*
Y5379720D01*
X3339903D01*
X3390686D01*
X3466862D02*
Y5532071D01*
X3568429Y5379720D01*
Y5532071D01*
X16040775Y4480511D02*
Y4353552D01*
X16066167Y4328160D01*
X16116949D01*
X16142342Y4353552D01*
Y4480511D01*
X16294693D02*
X16193126D01*
Y4404335D01*
X16243909Y4429727D01*
X16269301D01*
X16294693Y4404335D01*
Y4353552D01*
X16269301Y4328160D01*
X16218517D01*
X16193126Y4353552D01*
X16345476Y4455119D02*
X16370868Y4480511D01*
X16421652D01*
X16447044Y4455119D01*
Y4353552D01*
X16421652Y4328160D01*
X16370868D01*
X16345476Y4353552D01*
Y4455119D01*
X16497827Y4328160D02*
X16548611D01*
X16523219D01*
Y4480511D01*
X16497827Y4455119D01*
X13075920Y5869891D02*
Y5742932D01*
X13101312Y5717540D01*
X13152095D01*
X13177487Y5742932D01*
Y5869891D01*
X13329839D02*
X13228271D01*
Y5793715D01*
X13279054Y5819107D01*
X13304446D01*
X13329839Y5793715D01*
Y5742932D01*
X13304446Y5717540D01*
X13253664D01*
X13228271Y5742932D01*
X13380621Y5844499D02*
X13406013Y5869891D01*
X13456796D01*
X13482188Y5844499D01*
Y5742932D01*
X13456796Y5717540D01*
X13406013D01*
X13380621Y5742932D01*
Y5844499D01*
X13532973D02*
X13558363Y5869891D01*
X13609148D01*
X13634538Y5844499D01*
Y5819107D01*
X13609148Y5793715D01*
X13583755D01*
X13609148D01*
X13634538Y5768323D01*
Y5742932D01*
X13609148Y5717540D01*
X13558363D01*
X13532973Y5742932D01*
X16309340Y9733231D02*
Y9606272D01*
X16334732Y9580880D01*
X16385515D01*
X16410907Y9606272D01*
Y9733231D01*
X16563258D02*
X16461691D01*
Y9657055D01*
X16512474Y9682447D01*
X16537866D01*
X16563258Y9657055D01*
Y9606272D01*
X16537866Y9580880D01*
X16487083D01*
X16461691Y9606272D01*
X16614041Y9707839D02*
X16639433Y9733231D01*
X16690218D01*
X16715610Y9707839D01*
Y9606272D01*
X16690218Y9580880D01*
X16639433D01*
X16614041Y9606272D01*
Y9707839D01*
X16766393D02*
X16791785Y9733231D01*
X16842567D01*
X16867960Y9707839D01*
Y9606272D01*
X16842567Y9580880D01*
X16791785D01*
X16766393Y9606272D01*
Y9707839D01*
X3630134Y10205671D02*
Y10078712D01*
X3655526Y10053320D01*
X3706309D01*
X3731701Y10078712D01*
Y10205671D01*
X3782485Y10180279D02*
X3807877Y10205671D01*
X3858660D01*
X3884052Y10180279D01*
Y10154887D01*
X3858660Y10129495D01*
X3833268D01*
X3858660D01*
X3884052Y10104103D01*
Y10078712D01*
X3858660Y10053320D01*
X3807877D01*
X3782485Y10078712D01*
X3934835Y10180279D02*
X3960227Y10205671D01*
X4011011D01*
X4036403Y10180279D01*
Y10078712D01*
X4011011Y10053320D01*
X3960227D01*
X3934835Y10078712D01*
Y10180279D01*
X4087186D02*
X4112578Y10205671D01*
X4163361D01*
X4188753Y10180279D01*
Y10078712D01*
X4163361Y10053320D01*
X4112578D01*
X4087186Y10078712D01*
Y10180279D01*
X19593361Y14818320D02*
X19567969Y14843710D01*
X19517184D01*
X19491792Y14818320D01*
Y14792928D01*
X19517184Y14767535D01*
X19567969D01*
X19593361Y14742143D01*
Y14716753D01*
X19567969Y14691360D01*
X19517184D01*
X19491792Y14716753D01*
X19745711Y14843710D02*
X19644144D01*
Y14767535D01*
X19694928Y14792928D01*
X19720319D01*
X19745711Y14767535D01*
Y14716753D01*
X19720319Y14691360D01*
X19669536D01*
X19644144Y14716753D01*
X19796495Y14818320D02*
X19821887Y14843710D01*
X19872670D01*
X19898062Y14818320D01*
Y14716753D01*
X19872670Y14691360D01*
X19821887D01*
X19796495Y14716753D01*
Y14818320D01*
X19948846D02*
X19974237Y14843710D01*
X20025021D01*
X20050414Y14818320D01*
Y14716753D01*
X20025021Y14691360D01*
X19974237D01*
X19948846Y14716753D01*
Y14818320D01*
X21356320Y10973719D02*
Y11126070D01*
X21432495D01*
X21457887Y11100678D01*
Y11049895D01*
X21432495Y11024503D01*
X21356320D01*
X21407103D02*
X21457887Y10973719D01*
X21610239Y11126070D02*
X21508672D01*
Y11049895D01*
X21559454Y11075287D01*
X21584846D01*
X21610239Y11049895D01*
Y10999111D01*
X21584846Y10973719D01*
X21534064D01*
X21508672Y10999111D01*
X21661021Y11100678D02*
X21686414Y11126070D01*
X21737196D01*
X21762589Y11100678D01*
Y10999111D01*
X21737196Y10973719D01*
X21686414D01*
X21661021Y10999111D01*
Y11100678D01*
X21813371Y11126070D02*
X21914938D01*
Y11100678D01*
X21813371Y10999111D01*
Y10973719D01*
X22326601Y10690860D02*
Y10843211D01*
X22402776D01*
X22428168Y10817819D01*
Y10767035D01*
X22402776Y10741643D01*
X22326601D01*
X22377383D02*
X22428168Y10690860D01*
X22580518Y10843211D02*
X22478951D01*
Y10767035D01*
X22529733Y10792427D01*
X22555125D01*
X22580518Y10767035D01*
Y10716252D01*
X22555125Y10690860D01*
X22504343D01*
X22478951Y10716252D01*
X22631300Y10817819D02*
X22656693Y10843211D01*
X22707477D01*
X22732869Y10817819D01*
Y10716252D01*
X22707477Y10690860D01*
X22656693D01*
X22631300Y10716252D01*
Y10817819D01*
X22885219Y10843211D02*
X22834436Y10817819D01*
X22783652Y10767035D01*
Y10716252D01*
X22809044Y10690860D01*
X22859828D01*
X22885219Y10716252D01*
Y10741643D01*
X22859828Y10767035D01*
X22783652D01*
X22699980Y10690860D02*
Y10843211D01*
X22776155D01*
X22801547Y10817819D01*
Y10767035D01*
X22776155Y10741643D01*
X22699980D01*
X22750763D02*
X22801547Y10690860D01*
X22953899Y10843211D02*
X22852332D01*
Y10767035D01*
X22903114Y10792427D01*
X22928506D01*
X22953899Y10767035D01*
Y10716252D01*
X22928506Y10690860D01*
X22877724D01*
X22852332Y10716252D01*
X23004681Y10817819D02*
X23030074Y10843211D01*
X23080856D01*
X23106248Y10817819D01*
Y10716252D01*
X23080856Y10690860D01*
X23030074D01*
X23004681Y10716252D01*
Y10817819D01*
X23258598Y10843211D02*
X23157031D01*
Y10767035D01*
X23207816Y10792427D01*
X23233208D01*
X23258598Y10767035D01*
Y10716252D01*
X23233208Y10690860D01*
X23182423D01*
X23157031Y10716252D01*
X19982179Y10690860D02*
Y10843211D01*
X20058356D01*
X20083746Y10817819D01*
Y10767035D01*
X20058356Y10741643D01*
X19982179D01*
X20032964D02*
X20083746Y10690860D01*
X20236098Y10843211D02*
X20134531D01*
Y10767035D01*
X20185313Y10792427D01*
X20210706D01*
X20236098Y10767035D01*
Y10716252D01*
X20210706Y10690860D01*
X20159923D01*
X20134531Y10716252D01*
X20286880Y10817819D02*
X20312273Y10843211D01*
X20363057D01*
X20388449Y10817819D01*
Y10716252D01*
X20363057Y10690860D01*
X20312273D01*
X20286880Y10716252D01*
Y10817819D01*
X20515408Y10690860D02*
Y10843211D01*
X20439232Y10767035D01*
X20540799D01*
X19095720Y10690860D02*
Y10843211D01*
X19171895D01*
X19197287Y10817819D01*
Y10767035D01*
X19171895Y10741643D01*
X19095720D01*
X19146503D02*
X19197287Y10690860D01*
X19349638Y10843211D02*
X19248071D01*
Y10767035D01*
X19298854Y10792427D01*
X19324246D01*
X19349638Y10767035D01*
Y10716252D01*
X19324246Y10690860D01*
X19273463D01*
X19248071Y10716252D01*
X19400421Y10817819D02*
X19425813Y10843211D01*
X19476598D01*
X19501990Y10817819D01*
Y10716252D01*
X19476598Y10690860D01*
X19425813D01*
X19400421Y10716252D01*
Y10817819D01*
X19552773D02*
X19578165Y10843211D01*
X19628947D01*
X19654340Y10817819D01*
Y10792427D01*
X19628947Y10767035D01*
X19603555D01*
X19628947D01*
X19654340Y10741643D01*
Y10716252D01*
X19628947Y10690860D01*
X19578165D01*
X19552773Y10716252D01*
X18564861Y10972800D02*
Y11125151D01*
X18641035D01*
X18666428Y11099759D01*
Y11048975D01*
X18641035Y11023583D01*
X18564861D01*
X18615643D02*
X18666428Y10972800D01*
X18818777Y11125151D02*
X18717210D01*
Y11048975D01*
X18767995Y11074367D01*
X18793385D01*
X18818777Y11048975D01*
Y10998192D01*
X18793385Y10972800D01*
X18742603D01*
X18717210Y10998192D01*
X18869560Y11099759D02*
X18894952Y11125151D01*
X18945737D01*
X18971129Y11099759D01*
Y10998192D01*
X18945737Y10972800D01*
X18894952D01*
X18869560Y10998192D01*
Y11099759D01*
X19123479Y10972800D02*
X19021912D01*
X19123479Y11074367D01*
Y11099759D01*
X19098088Y11125151D01*
X19047304D01*
X19021912Y11099759D01*
X12887473Y6256020D02*
Y6408371D01*
X12963647D01*
X12989040Y6382979D01*
Y6332195D01*
X12963647Y6306803D01*
X12887473D01*
X12938255D02*
X12989040Y6256020D01*
X13141389Y6408371D02*
X13039822D01*
Y6332195D01*
X13090607Y6357587D01*
X13115997D01*
X13141389Y6332195D01*
Y6281412D01*
X13115997Y6256020D01*
X13065215D01*
X13039822Y6281412D01*
X13192172Y6382979D02*
X13217564Y6408371D01*
X13268349D01*
X13293739Y6382979D01*
Y6281412D01*
X13268349Y6256020D01*
X13217564D01*
X13192172Y6281412D01*
Y6382979D01*
X13344524Y6256020D02*
X13395306D01*
X13369916D01*
Y6408371D01*
X13344524Y6382979D01*
X12701443Y8897620D02*
Y9049971D01*
X12777618D01*
X12803011Y9024579D01*
Y8973795D01*
X12777618Y8948403D01*
X12701443D01*
X12752226D02*
X12803011Y8897620D01*
X12955360Y9049971D02*
X12853793D01*
Y8973795D01*
X12904578Y8999187D01*
X12929968D01*
X12955360Y8973795D01*
Y8923012D01*
X12929968Y8897620D01*
X12879185D01*
X12853793Y8923012D01*
X13006145Y9024579D02*
X13031535Y9049971D01*
X13082320D01*
X13107710Y9024579D01*
Y8923012D01*
X13082320Y8897620D01*
X13031535D01*
X13006145Y8923012D01*
Y9024579D01*
X13158495D02*
X13183887Y9049971D01*
X13234669D01*
X13260062Y9024579D01*
Y8923012D01*
X13234669Y8897620D01*
X13183887D01*
X13158495Y8923012D01*
Y9024579D01*
X8270313Y7856632D02*
Y8008983D01*
X8346489D01*
X8371880Y7983591D01*
Y7932808D01*
X8346489Y7907416D01*
X8270313D01*
X8321097D02*
X8371880Y7856632D01*
X8498839D02*
Y8008983D01*
X8422664Y7932808D01*
X8524231D01*
X8575015Y7856632D02*
X8625798D01*
X8600406D01*
Y8008983D01*
X8575015Y7983591D01*
X8701973D02*
X8727365Y8008983D01*
X8778149D01*
X8803541Y7983591D01*
Y7958200D01*
X8778149Y7932808D01*
X8752757D01*
X8778149D01*
X8803541Y7907416D01*
Y7882024D01*
X8778149Y7856632D01*
X8727365D01*
X8701973Y7882024D01*
X7960433Y7856632D02*
Y8008983D01*
X8036609D01*
X8062000Y7983591D01*
Y7932808D01*
X8036609Y7907416D01*
X7960433D01*
X8011217D02*
X8062000Y7856632D01*
X8188959D02*
Y8008983D01*
X8112784Y7932808D01*
X8214351D01*
X8265135Y7856632D02*
X8315918D01*
X8290526D01*
Y8008983D01*
X8265135Y7983591D01*
X8493661Y7856632D02*
X8392093D01*
X8493661Y7958200D01*
Y7983591D01*
X8468269Y8008983D01*
X8417485D01*
X8392093Y7983591D01*
X8890073Y7607712D02*
Y7760063D01*
X8966249D01*
X8991640Y7734671D01*
Y7683888D01*
X8966249Y7658496D01*
X8890073D01*
X8940857D02*
X8991640Y7607712D01*
X9118599D02*
Y7760063D01*
X9042424Y7683888D01*
X9143991D01*
X9194775Y7607712D02*
X9245558D01*
X9220166D01*
Y7760063D01*
X9194775Y7734671D01*
X9321733Y7607712D02*
X9372517D01*
X9347125D01*
Y7760063D01*
X9321733Y7734671D01*
X8580193Y7607712D02*
Y7760063D01*
X8656369D01*
X8681760Y7734671D01*
Y7683888D01*
X8656369Y7658496D01*
X8580193D01*
X8630977D02*
X8681760Y7607712D01*
X8808719D02*
Y7760063D01*
X8732544Y7683888D01*
X8834111D01*
X8884895Y7607712D02*
X8935678D01*
X8910286D01*
Y7760063D01*
X8884895Y7734671D01*
X9011853D02*
X9037245Y7760063D01*
X9088029D01*
X9113421Y7734671D01*
Y7633104D01*
X9088029Y7607712D01*
X9037245D01*
X9011853Y7633104D01*
Y7734671D01*
X9507293Y7363872D02*
Y7516223D01*
X9583469D01*
X9608860Y7490831D01*
Y7440048D01*
X9583469Y7414656D01*
X9507293D01*
X9558077D02*
X9608860Y7363872D01*
X9735819D02*
Y7516223D01*
X9659644Y7440048D01*
X9761211D01*
X9811995Y7490831D02*
X9837386Y7516223D01*
X9888170D01*
X9913562Y7490831D01*
Y7389264D01*
X9888170Y7363872D01*
X9837386D01*
X9811995Y7389264D01*
Y7490831D01*
X9964345Y7389264D02*
X9989737Y7363872D01*
X10040521D01*
X10065913Y7389264D01*
Y7490831D01*
X10040521Y7516223D01*
X9989737D01*
X9964345Y7490831D01*
Y7465440D01*
X9989737Y7440048D01*
X10065913D01*
X9197413Y7363872D02*
Y7516223D01*
X9273589D01*
X9298980Y7490831D01*
Y7440048D01*
X9273589Y7414656D01*
X9197413D01*
X9248197D02*
X9298980Y7363872D01*
X9425939D02*
Y7516223D01*
X9349764Y7440048D01*
X9451331D01*
X9502115Y7490831D02*
X9527506Y7516223D01*
X9578290D01*
X9603682Y7490831D01*
Y7389264D01*
X9578290Y7363872D01*
X9527506D01*
X9502115Y7389264D01*
Y7490831D01*
X9654465D02*
X9679857Y7516223D01*
X9730641D01*
X9756033Y7490831D01*
Y7465440D01*
X9730641Y7440048D01*
X9756033Y7414656D01*
Y7389264D01*
X9730641Y7363872D01*
X9679857D01*
X9654465Y7389264D01*
Y7414656D01*
X9679857Y7440048D01*
X9654465Y7465440D01*
Y7490831D01*
X9679857Y7440048D02*
X9730641D01*
X10127053Y7099712D02*
Y7252063D01*
X10203229D01*
X10228620Y7226671D01*
Y7175888D01*
X10203229Y7150496D01*
X10127053D01*
X10177837D02*
X10228620Y7099712D01*
X10355579D02*
Y7252063D01*
X10279404Y7175888D01*
X10380971D01*
X10431755Y7226671D02*
X10457146Y7252063D01*
X10507930D01*
X10533322Y7226671D01*
Y7125104D01*
X10507930Y7099712D01*
X10457146D01*
X10431755Y7125104D01*
Y7226671D01*
X10584105Y7252063D02*
X10685673D01*
Y7226671D01*
X10584105Y7125104D01*
Y7099712D01*
X9817173D02*
Y7252063D01*
X9893349D01*
X9918740Y7226671D01*
Y7175888D01*
X9893349Y7150496D01*
X9817173D01*
X9867957D02*
X9918740Y7099712D01*
X10045699D02*
Y7252063D01*
X9969524Y7175888D01*
X10071091D01*
X10121875Y7226671D02*
X10147266Y7252063D01*
X10198050D01*
X10223442Y7226671D01*
Y7125104D01*
X10198050Y7099712D01*
X10147266D01*
X10121875Y7125104D01*
Y7226671D01*
X10375793Y7252063D02*
X10325009Y7226671D01*
X10274225Y7175888D01*
Y7125104D01*
X10299617Y7099712D01*
X10350401D01*
X10375793Y7125104D01*
Y7150496D01*
X10350401Y7175888D01*
X10274225D01*
X9507293Y5832252D02*
Y5984603D01*
X9583469D01*
X9608860Y5959211D01*
Y5908428D01*
X9583469Y5883036D01*
X9507293D01*
X9558077D02*
X9608860Y5832252D01*
X9735819D02*
Y5984603D01*
X9659644Y5908428D01*
X9761211D01*
X9811995Y5959211D02*
X9837386Y5984603D01*
X9888170D01*
X9913562Y5959211D01*
Y5857644D01*
X9888170Y5832252D01*
X9837386D01*
X9811995Y5857644D01*
Y5959211D01*
X10065913Y5984603D02*
X9964345D01*
Y5908428D01*
X10015129Y5933820D01*
X10040521D01*
X10065913Y5908428D01*
Y5857644D01*
X10040521Y5832252D01*
X9989737D01*
X9964345Y5857644D01*
X9197413Y5832252D02*
Y5984603D01*
X9273589D01*
X9298980Y5959211D01*
Y5908428D01*
X9273589Y5883036D01*
X9197413D01*
X9248197D02*
X9298980Y5832252D01*
X9425939D02*
Y5984603D01*
X9349764Y5908428D01*
X9451331D01*
X9502115Y5959211D02*
X9527506Y5984603D01*
X9578290D01*
X9603682Y5959211D01*
Y5857644D01*
X9578290Y5832252D01*
X9527506D01*
X9502115Y5857644D01*
Y5959211D01*
X9730641Y5832252D02*
Y5984603D01*
X9654465Y5908428D01*
X9756033D01*
X8890073Y5578252D02*
Y5730603D01*
X8966249D01*
X8991640Y5705211D01*
Y5654428D01*
X8966249Y5629036D01*
X8890073D01*
X8940857D02*
X8991640Y5578252D01*
X9118599D02*
Y5730603D01*
X9042424Y5654428D01*
X9143991D01*
X9194775Y5705211D02*
X9220166Y5730603D01*
X9270950D01*
X9296342Y5705211D01*
Y5603644D01*
X9270950Y5578252D01*
X9220166D01*
X9194775Y5603644D01*
Y5705211D01*
X9347125D02*
X9372517Y5730603D01*
X9423301D01*
X9448693Y5705211D01*
Y5679820D01*
X9423301Y5654428D01*
X9397909D01*
X9423301D01*
X9448693Y5629036D01*
Y5603644D01*
X9423301Y5578252D01*
X9372517D01*
X9347125Y5603644D01*
X8580193Y5578252D02*
Y5730603D01*
X8656369D01*
X8681760Y5705211D01*
Y5654428D01*
X8656369Y5629036D01*
X8580193D01*
X8630977D02*
X8681760Y5578252D01*
X8808719D02*
Y5730603D01*
X8732544Y5654428D01*
X8834111D01*
X8884895Y5705211D02*
X8910286Y5730603D01*
X8961070D01*
X8986462Y5705211D01*
Y5603644D01*
X8961070Y5578252D01*
X8910286D01*
X8884895Y5603644D01*
Y5705211D01*
X9138813Y5578252D02*
X9037245D01*
X9138813Y5679820D01*
Y5705211D01*
X9113421Y5730603D01*
X9062637D01*
X9037245Y5705211D01*
X8270313Y5324252D02*
Y5476603D01*
X8346489D01*
X8371880Y5451211D01*
Y5400428D01*
X8346489Y5375036D01*
X8270313D01*
X8321097D02*
X8371880Y5324252D01*
X8498839D02*
Y5476603D01*
X8422664Y5400428D01*
X8524231D01*
X8575015Y5451211D02*
X8600406Y5476603D01*
X8651190D01*
X8676582Y5451211D01*
Y5349644D01*
X8651190Y5324252D01*
X8600406D01*
X8575015Y5349644D01*
Y5451211D01*
X8727365Y5324252D02*
X8778149D01*
X8752757D01*
Y5476603D01*
X8727365Y5451211D01*
X7960433Y5324252D02*
Y5476603D01*
X8036609D01*
X8062000Y5451211D01*
Y5400428D01*
X8036609Y5375036D01*
X7960433D01*
X8011217D02*
X8062000Y5324252D01*
X8188959D02*
Y5476603D01*
X8112784Y5400428D01*
X8214351D01*
X8265135Y5451211D02*
X8290526Y5476603D01*
X8341310D01*
X8366702Y5451211D01*
Y5349644D01*
X8341310Y5324252D01*
X8290526D01*
X8265135Y5349644D01*
Y5451211D01*
X8417485D02*
X8442877Y5476603D01*
X8493661D01*
X8519053Y5451211D01*
Y5349644D01*
X8493661Y5324252D01*
X8442877D01*
X8417485Y5349644D01*
Y5451211D01*
X4371340Y8295640D02*
Y8447991D01*
X4447515D01*
X4472907Y8422599D01*
Y8371815D01*
X4447515Y8346423D01*
X4371340D01*
X4422123D02*
X4472907Y8295640D01*
X4523691Y8422599D02*
X4549083Y8447991D01*
X4599866D01*
X4625258Y8422599D01*
Y8397207D01*
X4599866Y8371815D01*
X4574474D01*
X4599866D01*
X4625258Y8346423D01*
Y8321032D01*
X4599866Y8295640D01*
X4549083D01*
X4523691Y8321032D01*
X4676041Y8422599D02*
X4701433Y8447991D01*
X4752217D01*
X4777609Y8422599D01*
Y8321032D01*
X4752217Y8295640D01*
X4701433D01*
X4676041Y8321032D01*
Y8422599D01*
X4828392Y8295640D02*
X4879176D01*
X4853784D01*
Y8447991D01*
X4828392Y8422599D01*
X3672840Y8295640D02*
Y8447991D01*
X3749015D01*
X3774407Y8422599D01*
Y8371815D01*
X3749015Y8346423D01*
X3672840D01*
X3723623D02*
X3774407Y8295640D01*
X3825191Y8422599D02*
X3850583Y8447991D01*
X3901366D01*
X3926758Y8422599D01*
Y8397207D01*
X3901366Y8371815D01*
X3875974D01*
X3901366D01*
X3926758Y8346423D01*
Y8321032D01*
X3901366Y8295640D01*
X3850583D01*
X3825191Y8321032D01*
X3977541Y8422599D02*
X4002933Y8447991D01*
X4053717D01*
X4079109Y8422599D01*
Y8321032D01*
X4053717Y8295640D01*
X4002933D01*
X3977541Y8321032D01*
Y8422599D01*
X4129892D02*
X4155284Y8447991D01*
X4206068D01*
X4231459Y8422599D01*
Y8321032D01*
X4206068Y8295640D01*
X4155284D01*
X4129892Y8321032D01*
Y8422599D01*
X3581400Y12242800D02*
Y12395151D01*
X3657575D01*
X3682967Y12369759D01*
Y12318975D01*
X3657575Y12293583D01*
X3581400D01*
X3632183D02*
X3682967Y12242800D01*
X3733751Y12369759D02*
X3759143Y12395151D01*
X3809926D01*
X3835318Y12369759D01*
Y12344367D01*
X3809926Y12318975D01*
X3784534D01*
X3809926D01*
X3835318Y12293583D01*
Y12268192D01*
X3809926Y12242800D01*
X3759143D01*
X3733751Y12268192D01*
X3886101Y12369759D02*
X3911493Y12395151D01*
X3962277D01*
X3987669Y12369759D01*
Y12268192D01*
X3962277Y12242800D01*
X3911493D01*
X3886101Y12268192D01*
Y12369759D01*
X4114628Y12242800D02*
Y12395151D01*
X4038452Y12318975D01*
X4140019D01*
X3921760Y12242800D02*
Y12395151D01*
X3997935D01*
X4023327Y12369759D01*
Y12318975D01*
X3997935Y12293583D01*
X3921760D01*
X3972543D02*
X4023327Y12242800D01*
X4074111Y12369759D02*
X4099503Y12395151D01*
X4150286D01*
X4175678Y12369759D01*
Y12344367D01*
X4150286Y12318975D01*
X4124894D01*
X4150286D01*
X4175678Y12293583D01*
Y12268192D01*
X4150286Y12242800D01*
X4099503D01*
X4074111Y12268192D01*
X4226461Y12369759D02*
X4251853Y12395151D01*
X4302637D01*
X4328029Y12369759D01*
Y12268192D01*
X4302637Y12242800D01*
X4251853D01*
X4226461Y12268192D01*
Y12369759D01*
X4378812D02*
X4404204Y12395151D01*
X4454988D01*
X4480379Y12369759D01*
Y12344367D01*
X4454988Y12318975D01*
X4429596D01*
X4454988D01*
X4480379Y12293583D01*
Y12268192D01*
X4454988Y12242800D01*
X4404204D01*
X4378812Y12268192D01*
X4533900Y12242800D02*
Y12395151D01*
X4610075D01*
X4635467Y12369759D01*
Y12318975D01*
X4610075Y12293583D01*
X4533900D01*
X4584683D02*
X4635467Y12242800D01*
X4686251Y12369759D02*
X4711643Y12395151D01*
X4762426D01*
X4787818Y12369759D01*
Y12344367D01*
X4762426Y12318975D01*
X4737034D01*
X4762426D01*
X4787818Y12293583D01*
Y12268192D01*
X4762426Y12242800D01*
X4711643D01*
X4686251Y12268192D01*
X4838601Y12369759D02*
X4863993Y12395151D01*
X4914777D01*
X4940169Y12369759D01*
Y12268192D01*
X4914777Y12242800D01*
X4863993D01*
X4838601Y12268192D01*
Y12369759D01*
X5092519Y12242800D02*
X4990952D01*
X5092519Y12344367D01*
Y12369759D01*
X5067128Y12395151D01*
X5016344D01*
X4990952Y12369759D01*
X6022340Y13246100D02*
Y13398451D01*
X6098515D01*
X6123907Y13373059D01*
Y13322275D01*
X6098515Y13296883D01*
X6022340D01*
X6073123D02*
X6123907Y13246100D01*
X6276258D02*
X6174691D01*
X6276258Y13347667D01*
Y13373059D01*
X6250866Y13398451D01*
X6200083D01*
X6174691Y13373059D01*
X6327041D02*
X6352433Y13398451D01*
X6403217D01*
X6428609Y13373059D01*
Y13271492D01*
X6403217Y13246100D01*
X6352433D01*
X6327041Y13271492D01*
Y13373059D01*
X6580959Y13246100D02*
X6479392D01*
X6580959Y13347667D01*
Y13373059D01*
X6555568Y13398451D01*
X6504784D01*
X6479392Y13373059D01*
X6314440Y13246100D02*
Y13398451D01*
X6390615D01*
X6416007Y13373059D01*
Y13322275D01*
X6390615Y13296883D01*
X6314440D01*
X6365223D02*
X6416007Y13246100D01*
X6568358D02*
X6466791D01*
X6568358Y13347667D01*
Y13373059D01*
X6542966Y13398451D01*
X6492183D01*
X6466791Y13373059D01*
X6619141D02*
X6644533Y13398451D01*
X6695317D01*
X6720709Y13373059D01*
Y13271492D01*
X6695317Y13246100D01*
X6644533D01*
X6619141Y13271492D01*
Y13373059D01*
X6771492Y13246100D02*
X6822276D01*
X6796884D01*
Y13398451D01*
X6771492Y13373059D01*
X6461833Y7366412D02*
Y7518763D01*
X6538009D01*
X6563400Y7493371D01*
Y7442588D01*
X6538009Y7417196D01*
X6461833D01*
X6512617D02*
X6563400Y7366412D01*
X6715751D02*
X6614184D01*
X6715751Y7467980D01*
Y7493371D01*
X6690359Y7518763D01*
X6639576D01*
X6614184Y7493371D01*
X6766535D02*
X6791926Y7518763D01*
X6842710D01*
X6868102Y7493371D01*
Y7391804D01*
X6842710Y7366412D01*
X6791926D01*
X6766535Y7391804D01*
Y7493371D01*
X6918885D02*
X6944277Y7518763D01*
X6995061D01*
X7020453Y7493371D01*
Y7391804D01*
X6995061Y7366412D01*
X6944277D01*
X6918885Y7391804D01*
Y7493371D01*
X20810187Y10591792D02*
Y10693359D01*
X20784795Y10718751D01*
X20734012D01*
X20708620Y10693359D01*
Y10591792D01*
X20734012Y10566400D01*
X20784795D01*
X20759402Y10617183D02*
X20810187Y10566400D01*
X20784795D02*
X20810187Y10591792D01*
X20962538Y10718751D02*
X20860971D01*
Y10642575D01*
X20911754Y10667967D01*
X20937146D01*
X20962538Y10642575D01*
Y10591792D01*
X20937146Y10566400D01*
X20886363D01*
X20860971Y10591792D01*
X21013321Y10693359D02*
X21038713Y10718751D01*
X21089497D01*
X21114890Y10693359D01*
Y10591792D01*
X21089497Y10566400D01*
X21038713D01*
X21013321Y10591792D01*
Y10693359D01*
X21165672Y10566400D02*
X21216457D01*
X21191064D01*
Y10718751D01*
X21165672Y10693359D01*
X17990787Y10515592D02*
Y10617159D01*
X17965395Y10642551D01*
X17914612D01*
X17889220Y10617159D01*
Y10515592D01*
X17914612Y10490200D01*
X17965395D01*
X17940002Y10540983D02*
X17990787Y10490200D01*
X17965395D02*
X17990787Y10515592D01*
X18143138Y10642551D02*
X18041571D01*
Y10566375D01*
X18092354Y10591767D01*
X18117746D01*
X18143138Y10566375D01*
Y10515592D01*
X18117746Y10490200D01*
X18066963D01*
X18041571Y10515592D01*
X18193921Y10617159D02*
X18219313Y10642551D01*
X18270097D01*
X18295490Y10617159D01*
Y10515592D01*
X18270097Y10490200D01*
X18219313D01*
X18193921Y10515592D01*
Y10617159D01*
X18346272D02*
X18371664Y10642551D01*
X18422449D01*
X18447839Y10617159D01*
Y10515592D01*
X18422449Y10490200D01*
X18371664D01*
X18346272Y10515592D01*
Y10617159D01*
X14350999Y9011920D02*
Y9164271D01*
X14427174D01*
X14452567Y9138879D01*
Y9088095D01*
X14427174Y9062703D01*
X14350999D01*
X14528743Y9011920D02*
X14579526D01*
X14604918Y9037312D01*
Y9088095D01*
X14579526Y9113487D01*
X14528743D01*
X14503351Y9088095D01*
Y9037312D01*
X14528743Y9011920D01*
X14681093Y9138879D02*
Y9113487D01*
X14655701D01*
X14706485D01*
X14681093D01*
Y9037312D01*
X14706485Y9011920D01*
X14884229Y9164271D02*
X14782660D01*
Y9088095D01*
X14833444Y9113487D01*
X14858836D01*
X14884229Y9088095D01*
Y9037312D01*
X14858836Y9011920D01*
X14808052D01*
X14782660Y9037312D01*
X14935011Y9138879D02*
X14960403Y9164271D01*
X15011186D01*
X15036578Y9138879D01*
Y9037312D01*
X15011186Y9011920D01*
X14960403D01*
X14935011Y9037312D01*
Y9138879D01*
X15087363D02*
X15112753Y9164271D01*
X15163538D01*
X15188930Y9138879D01*
Y9037312D01*
X15163538Y9011920D01*
X15112753D01*
X15087363Y9037312D01*
Y9138879D01*
X14526260Y5415356D02*
Y5567706D01*
X14602435D01*
X14627827Y5542315D01*
Y5491531D01*
X14602435Y5466139D01*
X14526260D01*
X14704002Y5415356D02*
X14754787D01*
X14780177Y5440748D01*
Y5491531D01*
X14754787Y5516923D01*
X14704002D01*
X14678612Y5491531D01*
Y5440748D01*
X14704002Y5415356D01*
X14856354Y5542315D02*
Y5516923D01*
X14830962D01*
X14881744D01*
X14856354D01*
Y5440748D01*
X14881744Y5415356D01*
X15059488Y5567706D02*
X14957919D01*
Y5491531D01*
X15008704Y5516923D01*
X15034096D01*
X15059488Y5491531D01*
Y5440748D01*
X15034096Y5415356D01*
X14983311D01*
X14957919Y5440748D01*
X15110271Y5542315D02*
X15135663Y5567706D01*
X15186446D01*
X15211838Y5542315D01*
Y5440748D01*
X15186446Y5415356D01*
X15135663D01*
X15110271Y5440748D01*
Y5542315D01*
X15262622Y5415356D02*
X15313405D01*
X15288014D01*
Y5567706D01*
X15262622Y5542315D01*
X7043889Y8491560D02*
Y8643910D01*
X7094673Y8593127D01*
X7145457Y8643910D01*
Y8491560D01*
X7297807Y8643910D02*
X7196240D01*
Y8491560D01*
X7297807D01*
X7196240Y8567735D02*
X7247024D01*
X7348591Y8491560D02*
Y8643910D01*
X7450158Y8491560D01*
Y8643910D01*
X7500942D02*
Y8516951D01*
X7526333Y8491560D01*
X7577117D01*
X7602509Y8516951D01*
Y8643910D01*
X7653292Y8466168D02*
X7754860D01*
X7907210Y8618518D02*
X7881818Y8643910D01*
X7831035D01*
X7805643Y8618518D01*
Y8516951D01*
X7831035Y8491560D01*
X7881818D01*
X7907210Y8516951D01*
X7957994Y8643910D02*
X8059561D01*
X8008777D01*
Y8491560D01*
X8110344D02*
Y8643910D01*
X8186520D01*
X8211912Y8618518D01*
Y8567735D01*
X8186520Y8542343D01*
X8110344D01*
X8161128D02*
X8211912Y8491560D01*
X8262695Y8643910D02*
Y8491560D01*
X8364262D01*
X8516613D02*
X8415046D01*
X8516613Y8593127D01*
Y8618518D01*
X8491221Y8643910D01*
X8440438D01*
X8415046Y8618518D01*
X8567397D02*
X8592789Y8643910D01*
X8643572D01*
X8668964Y8618518D01*
Y8516951D01*
X8643572Y8491560D01*
X8592789D01*
X8567397Y8516951D01*
Y8618518D01*
X8719747D02*
X8745139Y8643910D01*
X8795923D01*
X8821315Y8618518D01*
Y8516951D01*
X8795923Y8491560D01*
X8745139D01*
X8719747Y8516951D01*
Y8618518D01*
X15857220Y6949440D02*
Y7101791D01*
X15908003Y7051007D01*
X15958788Y7101791D01*
Y6949440D01*
X16111137D02*
X16009570D01*
X16111137Y7051007D01*
Y7076399D01*
X16085745Y7101791D01*
X16034962D01*
X16009570Y7076399D01*
X16161922D02*
X16187312Y7101791D01*
X16238097D01*
X16263489Y7076399D01*
Y6974832D01*
X16238097Y6949440D01*
X16187312D01*
X16161922Y6974832D01*
Y7076399D01*
X16415839Y7101791D02*
X16314272D01*
Y7025615D01*
X16365056Y7051007D01*
X16390448D01*
X16415839Y7025615D01*
Y6974832D01*
X16390448Y6949440D01*
X16339664D01*
X16314272Y6974832D01*
X22727921Y3548380D02*
Y3700731D01*
X22778703Y3649947D01*
X22829488Y3700731D01*
Y3548380D01*
X22981837D02*
X22880270D01*
X22981837Y3649947D01*
Y3675339D01*
X22956445Y3700731D01*
X22905663D01*
X22880270Y3675339D01*
X23032620D02*
X23058012Y3700731D01*
X23108797D01*
X23134189Y3675339D01*
Y3573772D01*
X23108797Y3548380D01*
X23058012D01*
X23032620Y3573772D01*
Y3675339D01*
X23261148Y3548380D02*
Y3700731D01*
X23184972Y3624555D01*
X23286539D01*
X9166860Y12479020D02*
Y12631371D01*
X9217643Y12580587D01*
X9268427Y12631371D01*
Y12479020D01*
X9420778D02*
X9319211D01*
X9420778Y12580587D01*
Y12605979D01*
X9395386Y12631371D01*
X9344603D01*
X9319211Y12605979D01*
X9471561D02*
X9496953Y12631371D01*
X9547737D01*
X9573129Y12605979D01*
Y12504412D01*
X9547737Y12479020D01*
X9496953D01*
X9471561Y12504412D01*
Y12605979D01*
X9623912D02*
X9649304Y12631371D01*
X9700088D01*
X9725479Y12605979D01*
Y12580587D01*
X9700088Y12555195D01*
X9674696D01*
X9700088D01*
X9725479Y12529803D01*
Y12504412D01*
X9700088Y12479020D01*
X9649304D01*
X9623912Y12504412D01*
X22674580Y15768320D02*
Y15920671D01*
X22725363Y15869887D01*
X22776147Y15920671D01*
Y15768320D01*
X22928497D02*
X22826932D01*
X22928497Y15869887D01*
Y15895279D01*
X22903107Y15920671D01*
X22852322D01*
X22826932Y15895279D01*
X22979282D02*
X23004672Y15920671D01*
X23055457D01*
X23080849Y15895279D01*
Y15793712D01*
X23055457Y15768320D01*
X23004672D01*
X22979282Y15793712D01*
Y15895279D01*
X23233199Y15768320D02*
X23131631D01*
X23233199Y15869887D01*
Y15895279D01*
X23207808Y15920671D01*
X23157024D01*
X23131631Y15895279D01*
X2875280Y3627120D02*
Y3779471D01*
X2926063Y3728687D01*
X2976847Y3779471D01*
Y3627120D01*
X3129198D02*
X3027631D01*
X3129198Y3728687D01*
Y3754079D01*
X3103806Y3779471D01*
X3053023D01*
X3027631Y3754079D01*
X3179981D02*
X3205373Y3779471D01*
X3256157D01*
X3281549Y3754079D01*
Y3652512D01*
X3256157Y3627120D01*
X3205373D01*
X3179981Y3652512D01*
Y3754079D01*
X3332332Y3627120D02*
X3383116D01*
X3357724D01*
Y3779471D01*
X3332332Y3754079D01*
X2875280Y15768320D02*
Y15920671D01*
X2926063Y15869887D01*
X2976847Y15920671D01*
Y15768320D01*
X3129198D02*
X3027631D01*
X3129198Y15869887D01*
Y15895279D01*
X3103806Y15920671D01*
X3053023D01*
X3027631Y15895279D01*
X3179981D02*
X3205373Y15920671D01*
X3256157D01*
X3281549Y15895279D01*
Y15793712D01*
X3256157Y15768320D01*
X3205373D01*
X3179981Y15793712D01*
Y15895279D01*
X3332332D02*
X3357724Y15920671D01*
X3408508D01*
X3433899Y15895279D01*
Y15793712D01*
X3408508Y15768320D01*
X3357724D01*
X3332332Y15793712D01*
Y15895279D01*
X5671820Y13416231D02*
Y13263879D01*
X5773387D01*
X5925738Y13390839D02*
X5900346Y13416231D01*
X5849563D01*
X5824171Y13390839D01*
Y13289272D01*
X5849563Y13263879D01*
X5900346D01*
X5925738Y13289272D01*
X5976521Y13416231D02*
Y13263879D01*
X6052697D01*
X6078089Y13289272D01*
Y13390839D01*
X6052697Y13416231D01*
X5976521D01*
X6230439Y13263879D02*
X6128872D01*
X6230439Y13365446D01*
Y13390839D01*
X6205048Y13416231D01*
X6154264D01*
X6128872Y13390839D01*
X6281223D02*
X6306615Y13416231D01*
X6357398D01*
X6382790Y13390839D01*
Y13289272D01*
X6357398Y13263879D01*
X6306615D01*
X6281223Y13289272D01*
Y13390839D01*
X6433574D02*
X6458965Y13416231D01*
X6509749D01*
X6535141Y13390839D01*
Y13289272D01*
X6509749Y13263879D01*
X6458965D01*
X6433574Y13289272D01*
Y13390839D01*
X8351560Y8913223D02*
X8300777D01*
X8326169D01*
Y8786264D01*
X8300777Y8760872D01*
X8275385D01*
X8249993Y8786264D01*
X8478519Y8760872D02*
Y8913223D01*
X8402344Y8837048D01*
X8503911D01*
X8554695Y8887831D02*
X8580086Y8913223D01*
X8630870D01*
X8656262Y8887831D01*
Y8786264D01*
X8630870Y8760872D01*
X8580086D01*
X8554695Y8786264D01*
Y8887831D01*
X8808613Y8913223D02*
X8757829Y8887831D01*
X8707045Y8837048D01*
Y8786264D01*
X8732437Y8760872D01*
X8783221D01*
X8808613Y8786264D01*
Y8811656D01*
X8783221Y8837048D01*
X8707045D01*
X8966240Y8911514D02*
X8915457D01*
X8940849D01*
Y8784555D01*
X8915457Y8759164D01*
X8890065D01*
X8864673Y8784555D01*
X9093199Y8759164D02*
Y8911514D01*
X9017024Y8835339D01*
X9118591D01*
X9169375Y8886122D02*
X9194766Y8911514D01*
X9245550D01*
X9270942Y8886122D01*
Y8784555D01*
X9245550Y8759164D01*
X9194766D01*
X9169375Y8784555D01*
Y8886122D01*
X9423293Y8911514D02*
X9321725D01*
Y8835339D01*
X9372509Y8860731D01*
X9397901D01*
X9423293Y8835339D01*
Y8784555D01*
X9397901Y8759164D01*
X9347117D01*
X9321725Y8784555D01*
X9591080Y8912636D02*
X9540297D01*
X9565689D01*
Y8785677D01*
X9540297Y8760285D01*
X9514905D01*
X9489513Y8785677D01*
X9718039Y8760285D02*
Y8912636D01*
X9641864Y8836461D01*
X9743431D01*
X9794215Y8887244D02*
X9819606Y8912636D01*
X9870390D01*
X9895782Y8887244D01*
Y8785677D01*
X9870390Y8760285D01*
X9819606D01*
X9794215Y8785677D01*
Y8887244D01*
X10022741Y8760285D02*
Y8912636D01*
X9946565Y8836461D01*
X10048133D01*
X10205760Y8911794D02*
X10154977D01*
X10180369D01*
Y8784835D01*
X10154977Y8759443D01*
X10129585D01*
X10104193Y8784835D01*
X10332719Y8759443D02*
Y8911794D01*
X10256544Y8835618D01*
X10358111D01*
X10408895Y8886402D02*
X10434286Y8911794D01*
X10485070D01*
X10510462Y8886402D01*
Y8784835D01*
X10485070Y8759443D01*
X10434286D01*
X10408895Y8784835D01*
Y8886402D01*
X10561245D02*
X10586637Y8911794D01*
X10637421D01*
X10662813Y8886402D01*
Y8861010D01*
X10637421Y8835618D01*
X10612029D01*
X10637421D01*
X10662813Y8810226D01*
Y8784835D01*
X10637421Y8759443D01*
X10586637D01*
X10561245Y8784835D01*
X9588540Y4089752D02*
X9537757D01*
X9563149D01*
Y3962793D01*
X9537757Y3937401D01*
X9512365D01*
X9486973Y3962793D01*
X9715499Y3937401D02*
Y4089752D01*
X9639324Y4013576D01*
X9740891D01*
X9791675Y4064360D02*
X9817066Y4089752D01*
X9867850D01*
X9893242Y4064360D01*
Y3962793D01*
X9867850Y3937401D01*
X9817066D01*
X9791675Y3962793D01*
Y4064360D01*
X10045593Y3937401D02*
X9944025D01*
X10045593Y4038968D01*
Y4064360D01*
X10020201Y4089752D01*
X9969417D01*
X9944025Y4064360D01*
X8973860Y4087816D02*
X8923077D01*
X8948469D01*
Y3960857D01*
X8923077Y3935465D01*
X8897685D01*
X8872293Y3960857D01*
X9100819Y3935465D02*
Y4087816D01*
X9024644Y4011641D01*
X9126211D01*
X9176995Y4062424D02*
X9202386Y4087816D01*
X9253170D01*
X9278562Y4062424D01*
Y3960857D01*
X9253170Y3935465D01*
X9202386D01*
X9176995Y3960857D01*
Y4062424D01*
X9329345Y3935465D02*
X9380129D01*
X9354737D01*
Y4087816D01*
X9329345Y4062424D01*
X8351560Y4089763D02*
X8300777D01*
X8326169D01*
Y3962804D01*
X8300777Y3937412D01*
X8275385D01*
X8249993Y3962804D01*
X8478519Y3937412D02*
Y4089763D01*
X8402344Y4013588D01*
X8503911D01*
X8554695Y4064371D02*
X8580086Y4089763D01*
X8630870D01*
X8656262Y4064371D01*
Y3962804D01*
X8630870Y3937412D01*
X8580086D01*
X8554695Y3962804D01*
Y4064371D01*
X8707045D02*
X8732437Y4089763D01*
X8783221D01*
X8808613Y4064371D01*
Y3962804D01*
X8783221Y3937412D01*
X8732437D01*
X8707045Y3962804D01*
Y4064371D01*
X4919980Y17320210D02*
X4970763D01*
X4945372D01*
Y17167860D01*
X4919980D01*
X4970763D01*
X5046939D02*
Y17320210D01*
X5148506Y17167860D01*
Y17320210D01*
X7424395D02*
X7373612D01*
X7348220Y17294820D01*
Y17193253D01*
X7373612Y17167860D01*
X7424395D01*
X7449787Y17193253D01*
Y17294820D01*
X7424395Y17320210D01*
X7500571D02*
Y17193253D01*
X7525963Y17167860D01*
X7576746D01*
X7602138Y17193253D01*
Y17320210D01*
X7652921D02*
X7754489D01*
X7703705D01*
Y17167860D01*
X5165860Y7523364D02*
X5115076D01*
X5140468D01*
Y7396405D01*
X5115076Y7371013D01*
X5089684D01*
X5064292Y7396405D01*
X5216643Y7371013D02*
X5267427D01*
X5242035D01*
Y7523364D01*
X5216643Y7497972D01*
X5343602D02*
X5368994Y7523364D01*
X5419777D01*
X5445169Y7497972D01*
Y7396405D01*
X5419777Y7371013D01*
X5368994D01*
X5343602Y7396405D01*
Y7497972D01*
X5495953D02*
X5521345Y7523364D01*
X5572128D01*
X5597520Y7497972D01*
Y7472580D01*
X5572128Y7447188D01*
X5546736D01*
X5572128D01*
X5597520Y7421796D01*
Y7396405D01*
X5572128Y7371013D01*
X5521345D01*
X5495953Y7396405D01*
X6359660Y7523364D02*
X6308876D01*
X6334268D01*
Y7396405D01*
X6308876Y7371013D01*
X6283484D01*
X6258092Y7396405D01*
X6410443Y7371013D02*
X6461227D01*
X6435835D01*
Y7523364D01*
X6410443Y7497972D01*
X6537402D02*
X6562794Y7523364D01*
X6613577D01*
X6638969Y7497972D01*
Y7396405D01*
X6613577Y7371013D01*
X6562794D01*
X6537402Y7396405D01*
Y7497972D01*
X6791320Y7371013D02*
X6689753D01*
X6791320Y7472580D01*
Y7497972D01*
X6765928Y7523364D01*
X6715145D01*
X6689753Y7497972D01*
X5229351Y11600064D02*
X5178568D01*
X5203960D01*
Y11473105D01*
X5178568Y11447713D01*
X5153176D01*
X5127784Y11473105D01*
X5280135Y11447713D02*
X5330918D01*
X5305527D01*
Y11600064D01*
X5280135Y11574672D01*
X5407094D02*
X5432486Y11600064D01*
X5483269D01*
X5508661Y11574672D01*
Y11473105D01*
X5483269Y11447713D01*
X5432486D01*
X5407094Y11473105D01*
Y11574672D01*
X5559445Y11447713D02*
X5610228D01*
X5584836D01*
Y11600064D01*
X5559445Y11574672D01*
X6334260Y11600064D02*
X6283476D01*
X6308868D01*
Y11473105D01*
X6283476Y11447713D01*
X6258084D01*
X6232692Y11473105D01*
X6385043Y11447713D02*
X6435827D01*
X6410435D01*
Y11600064D01*
X6385043Y11574672D01*
X6512002D02*
X6537394Y11600064D01*
X6588177D01*
X6613569Y11574672D01*
Y11473105D01*
X6588177Y11447713D01*
X6537394D01*
X6512002Y11473105D01*
Y11574672D01*
X6664353D02*
X6689745Y11600064D01*
X6740528D01*
X6765920Y11574672D01*
Y11473105D01*
X6740528Y11447713D01*
X6689745D01*
X6664353Y11473105D01*
Y11574672D01*
X10640100Y7028543D02*
X10538533D01*
Y6952368D01*
X10589317D01*
X10538533D01*
Y6876192D01*
X10690884Y7028543D02*
X10792451Y6876192D01*
Y7028543D02*
X10690884Y6876192D01*
X11097153Y7003151D02*
X11071761Y7028543D01*
X11020977D01*
X10995585Y7003151D01*
Y6977760D01*
X11020977Y6952368D01*
X11071761D01*
X11097153Y6926976D01*
Y6901584D01*
X11071761Y6876192D01*
X11020977D01*
X10995585Y6901584D01*
X11147936Y6977760D02*
Y6901584D01*
X11173328Y6876192D01*
X11198720Y6901584D01*
X11224111Y6876192D01*
X11249503Y6901584D01*
Y6977760D01*
X11300287Y6876192D02*
X11351070D01*
X11325679D01*
Y6977760D01*
X11300287D01*
X11452637Y7003151D02*
Y6977760D01*
X11427246D01*
X11478029D01*
X11452637D01*
Y6901584D01*
X11478029Y6876192D01*
X11655772Y6977760D02*
X11579596D01*
X11554204Y6952368D01*
Y6901584D01*
X11579596Y6876192D01*
X11655772D01*
X11706555Y7028543D02*
Y6876192D01*
Y6952368D01*
X11731947Y6977760D01*
X11782731D01*
X11808122Y6952368D01*
Y6876192D01*
X11935081D02*
X11884298D01*
X11858906Y6901584D01*
Y6952368D01*
X11884298Y6977760D01*
X11935081D01*
X11960473Y6952368D01*
Y6926976D01*
X11858906D01*
X12011257Y6876192D02*
X12087432D01*
X12112824Y6901584D01*
X12087432Y6926976D01*
X12036649D01*
X12011257Y6952368D01*
X12036649Y6977760D01*
X12112824D01*
X12239783Y6876192D02*
Y7028543D01*
X12163607Y6952368D01*
X12265175D01*
X12315958Y7003151D02*
X12341350Y7028543D01*
X12392133D01*
X12417525Y7003151D01*
Y6901584D01*
X12392133Y6876192D01*
X12341350D01*
X12315958Y6901584D01*
Y7003151D01*
X12468309D02*
X12493701Y7028543D01*
X12544484D01*
X12569876Y7003151D01*
Y6901584D01*
X12544484Y6876192D01*
X12493701D01*
X12468309Y6901584D01*
Y7003151D01*
X11435047Y6992571D02*
X11333480D01*
Y6916395D01*
X11384263D01*
X11333480D01*
Y6840220D01*
X11485831Y6992571D02*
X11587398Y6840220D01*
Y6992571D02*
X11485831Y6840220D01*
X11892099Y6967179D02*
X11866708Y6992571D01*
X11815924D01*
X11790532Y6967179D01*
Y6941787D01*
X11815924Y6916395D01*
X11866708D01*
X11892099Y6891003D01*
Y6865612D01*
X11866708Y6840220D01*
X11815924D01*
X11790532Y6865612D01*
X11942883Y6941787D02*
Y6865612D01*
X11968275Y6840220D01*
X11993666Y6865612D01*
X12019058Y6840220D01*
X12044450Y6865612D01*
Y6941787D01*
X12095234Y6840220D02*
X12146017D01*
X12120625D01*
Y6941787D01*
X12095234D01*
X12247584Y6967179D02*
Y6941787D01*
X12222192D01*
X12272976D01*
X12247584D01*
Y6865612D01*
X12272976Y6840220D01*
X12450719Y6941787D02*
X12374543D01*
X12349151Y6916395D01*
Y6865612D01*
X12374543Y6840220D01*
X12450719D01*
X12501502Y6992571D02*
Y6840220D01*
Y6916395D01*
X12526894Y6941787D01*
X12577677D01*
X12603069Y6916395D01*
Y6840220D01*
X12730028D02*
X12679245D01*
X12653853Y6865612D01*
Y6916395D01*
X12679245Y6941787D01*
X12730028D01*
X12755420Y6916395D01*
Y6891003D01*
X12653853D01*
X12806203Y6840220D02*
X12882379D01*
X12907771Y6865612D01*
X12882379Y6891003D01*
X12831595D01*
X12806203Y6916395D01*
X12831595Y6941787D01*
X12907771D01*
X13212473Y6992571D02*
X13110905D01*
Y6916395D01*
X13161688Y6941787D01*
X13187080D01*
X13212473Y6916395D01*
Y6865612D01*
X13187080Y6840220D01*
X13136298D01*
X13110905Y6865612D01*
X13263255Y6992571D02*
Y6891003D01*
X13314040Y6840220D01*
X13364822Y6891003D01*
Y6992571D01*
X22047166Y10817819D02*
X22021774Y10843211D01*
X21970992D01*
X21945599Y10817819D01*
Y10716252D01*
X21970992Y10690860D01*
X22021774D01*
X22047166Y10716252D01*
X22199518Y10843211D02*
X22097951D01*
Y10767035D01*
X22148734Y10792427D01*
X22174126D01*
X22199518Y10767035D01*
Y10716252D01*
X22174126Y10690860D01*
X22123343D01*
X22097951Y10716252D01*
X22250301Y10817819D02*
X22275693Y10843211D01*
X22326477D01*
X22351869Y10817819D01*
Y10716252D01*
X22326477Y10690860D01*
X22275693D01*
X22250301Y10716252D01*
Y10817819D01*
X22402652Y10716252D02*
X22428044Y10690860D01*
X22478828D01*
X22504219Y10716252D01*
Y10817819D01*
X22478828Y10843211D01*
X22428044D01*
X22402652Y10817819D01*
Y10792427D01*
X22428044Y10767035D01*
X22504219D01*
X19674808Y10309819D02*
X19649416Y10335211D01*
X19598631D01*
X19573241Y10309819D01*
Y10208252D01*
X19598631Y10182860D01*
X19649416D01*
X19674808Y10208252D01*
X19827158Y10335211D02*
X19725591D01*
Y10259035D01*
X19776373Y10284427D01*
X19801765D01*
X19827158Y10259035D01*
Y10208252D01*
X19801765Y10182860D01*
X19750983D01*
X19725591Y10208252D01*
X19877940Y10309819D02*
X19903333Y10335211D01*
X19954117D01*
X19979509Y10309819D01*
Y10208252D01*
X19954117Y10182860D01*
X19903333D01*
X19877940Y10208252D01*
Y10309819D01*
X20030292D02*
X20055684Y10335211D01*
X20106468D01*
X20131859Y10309819D01*
Y10284427D01*
X20106468Y10259035D01*
X20131859Y10233643D01*
Y10208252D01*
X20106468Y10182860D01*
X20055684D01*
X20030292Y10208252D01*
Y10233643D01*
X20055684Y10259035D01*
X20030292Y10284427D01*
Y10309819D01*
X20055684Y10259035D02*
X20106468D01*
X16275734Y5844499D02*
X16250342Y5869891D01*
X16199557D01*
X16174165Y5844499D01*
Y5742932D01*
X16199557Y5717540D01*
X16250342D01*
X16275734Y5742932D01*
X16428084Y5869891D02*
X16326517D01*
Y5793715D01*
X16377299Y5819107D01*
X16402692D01*
X16428084Y5793715D01*
Y5742932D01*
X16402692Y5717540D01*
X16351909D01*
X16326517Y5742932D01*
X16478868Y5717540D02*
X16529651D01*
X16504260D01*
Y5869891D01*
X16478868Y5844499D01*
X16707394Y5869891D02*
X16605827D01*
Y5793715D01*
X16656610Y5819107D01*
X16682002D01*
X16707394Y5793715D01*
Y5742932D01*
X16682002Y5717540D01*
X16631218D01*
X16605827Y5742932D01*
X17902518Y6614119D02*
X17877126Y6639511D01*
X17826343D01*
X17800951Y6614119D01*
Y6512552D01*
X17826343Y6487160D01*
X17877126D01*
X17902518Y6512552D01*
X18054869Y6639511D02*
X17953302D01*
Y6563335D01*
X18004085Y6588727D01*
X18029477D01*
X18054869Y6563335D01*
Y6512552D01*
X18029477Y6487160D01*
X17978694D01*
X17953302Y6512552D01*
X18105652Y6487160D02*
X18156436D01*
X18131044D01*
Y6639511D01*
X18105652Y6614119D01*
X18232611D02*
X18258003Y6639511D01*
X18308788D01*
X18334178Y6614119D01*
Y6588727D01*
X18308788Y6563335D01*
X18283395D01*
X18308788D01*
X18334178Y6537943D01*
Y6512552D01*
X18308788Y6487160D01*
X18258003D01*
X18232611Y6512552D01*
X20322507Y6614119D02*
X20297115Y6639511D01*
X20246332D01*
X20220940Y6614119D01*
Y6512552D01*
X20246332Y6487160D01*
X20297115D01*
X20322507Y6512552D01*
X20474858Y6639511D02*
X20373291D01*
Y6563335D01*
X20424074Y6588727D01*
X20449466D01*
X20474858Y6563335D01*
Y6512552D01*
X20449466Y6487160D01*
X20398683D01*
X20373291Y6512552D01*
X20525641Y6487160D02*
X20576425D01*
X20551033D01*
Y6639511D01*
X20525641Y6614119D01*
X20652600Y6487160D02*
X20703384D01*
X20677992D01*
Y6639511D01*
X20652600Y6614119D01*
X17902960Y8929031D02*
X17877568Y8954423D01*
X17826785D01*
X17801393Y8929031D01*
Y8827464D01*
X17826785Y8802072D01*
X17877568D01*
X17902960Y8827464D01*
X18055312Y8954423D02*
X17953745D01*
Y8878247D01*
X18004527Y8903639D01*
X18029919D01*
X18055312Y8878247D01*
Y8827464D01*
X18029919Y8802072D01*
X17979135D01*
X17953745Y8827464D01*
X18106094Y8802072D02*
X18156879D01*
X18131487D01*
Y8954423D01*
X18106094Y8929031D01*
X18334621Y8802072D02*
X18233054D01*
X18334621Y8903639D01*
Y8929031D01*
X18309229Y8954423D01*
X18258446D01*
X18233054Y8929031D01*
X20322507Y8929933D02*
X20297115Y8955325D01*
X20246332D01*
X20220940Y8929933D01*
Y8828366D01*
X20246332Y8802975D01*
X20297115D01*
X20322507Y8828366D01*
X20474858Y8955325D02*
X20373291D01*
Y8879150D01*
X20424074Y8904542D01*
X20449466D01*
X20474858Y8879150D01*
Y8828366D01*
X20449466Y8802975D01*
X20398683D01*
X20373291Y8828366D01*
X20525641Y8802975D02*
X20576425D01*
X20551033D01*
Y8955325D01*
X20525641Y8929933D01*
X20652600D02*
X20677992Y8955325D01*
X20728777D01*
X20754169Y8929933D01*
Y8828366D01*
X20728777Y8802975D01*
X20677992D01*
X20652600Y8828366D01*
Y8929933D01*
X16365862Y3657559D02*
X16340469Y3682951D01*
X16289687D01*
X16264294Y3657559D01*
Y3555992D01*
X16289687Y3530600D01*
X16340469D01*
X16365862Y3555992D01*
X16518213Y3682951D02*
X16416646D01*
Y3606775D01*
X16467429Y3632167D01*
X16492821D01*
X16518213Y3606775D01*
Y3555992D01*
X16492821Y3530600D01*
X16442036D01*
X16416646Y3555992D01*
X16568996Y3657559D02*
X16594388Y3682951D01*
X16645172D01*
X16670564Y3657559D01*
Y3555992D01*
X16645172Y3530600D01*
X16594388D01*
X16568996Y3555992D01*
Y3657559D01*
X16721347D02*
X16746739Y3682951D01*
X16797522D01*
X16822914Y3657559D01*
Y3632167D01*
X16797522Y3606775D01*
X16772131D01*
X16797522D01*
X16822914Y3581383D01*
Y3555992D01*
X16797522Y3530600D01*
X16746739D01*
X16721347Y3555992D01*
X16619862Y3200359D02*
X16594470Y3225751D01*
X16543687D01*
X16518295Y3200359D01*
Y3098792D01*
X16543687Y3073400D01*
X16594470D01*
X16619862Y3098792D01*
X16772214Y3225751D02*
X16670647D01*
Y3149575D01*
X16721429Y3174967D01*
X16746822D01*
X16772214Y3149575D01*
Y3098792D01*
X16746822Y3073400D01*
X16696037D01*
X16670647Y3098792D01*
X16822997Y3200359D02*
X16848389Y3225751D01*
X16899171D01*
X16924564Y3200359D01*
Y3098792D01*
X16899171Y3073400D01*
X16848389D01*
X16822997Y3098792D01*
Y3200359D01*
X17076913Y3073400D02*
X16975346D01*
X17076913Y3174967D01*
Y3200359D01*
X17051521Y3225751D01*
X17000739D01*
X16975346Y3200359D01*
X14805264Y6609039D02*
X14779874Y6634431D01*
X14729089D01*
X14703697Y6609039D01*
Y6507472D01*
X14729089Y6482080D01*
X14779874D01*
X14805264Y6507472D01*
X14957616Y6634431D02*
X14856049D01*
Y6558255D01*
X14906831Y6583647D01*
X14932224D01*
X14957616Y6558255D01*
Y6507472D01*
X14932224Y6482080D01*
X14881441D01*
X14856049Y6507472D01*
X15008398Y6609039D02*
X15033791Y6634431D01*
X15084573D01*
X15109966Y6609039D01*
Y6507472D01*
X15084573Y6482080D01*
X15033791D01*
X15008398Y6507472D01*
Y6609039D01*
X15262317Y6634431D02*
X15160748D01*
Y6558255D01*
X15211533Y6583647D01*
X15236925D01*
X15262317Y6558255D01*
Y6507472D01*
X15236925Y6482080D01*
X15186140D01*
X15160748Y6507472D01*
X13266386Y7617419D02*
X13240994Y7642811D01*
X13190211D01*
X13164819Y7617419D01*
Y7515852D01*
X13190211Y7490460D01*
X13240994D01*
X13266386Y7515852D01*
X13418738Y7642811D02*
X13317171D01*
Y7566635D01*
X13367953Y7592027D01*
X13393346D01*
X13418738Y7566635D01*
Y7515852D01*
X13393346Y7490460D01*
X13342563D01*
X13317171Y7515852D01*
X13469521Y7617419D02*
X13494913Y7642811D01*
X13545697D01*
X13571089Y7617419D01*
Y7515852D01*
X13545697Y7490460D01*
X13494913D01*
X13469521Y7515852D01*
Y7617419D01*
X13698048Y7490460D02*
Y7642811D01*
X13621872Y7566635D01*
X13723439D01*
X17269427Y10660339D02*
X17244035Y10685731D01*
X17193253D01*
X17167860Y10660339D01*
Y10558772D01*
X17193253Y10533380D01*
X17244035D01*
X17269427Y10558772D01*
X17421777Y10685731D02*
X17320210D01*
Y10609555D01*
X17370995Y10634947D01*
X17396387D01*
X17421777Y10609555D01*
Y10558772D01*
X17396387Y10533380D01*
X17345602D01*
X17320210Y10558772D01*
X17472562Y10660339D02*
X17497952Y10685731D01*
X17548737D01*
X17574129Y10660339D01*
Y10558772D01*
X17548737Y10533380D01*
X17497952D01*
X17472562Y10558772D01*
Y10660339D01*
X17624911Y10533380D02*
X17675696D01*
X17650304D01*
Y10685731D01*
X17624911Y10660339D01*
X16233107Y10660827D02*
X16207715Y10686218D01*
X16156932D01*
X16131540Y10660827D01*
Y10559260D01*
X16156932Y10533868D01*
X16207715D01*
X16233107Y10559260D01*
X16385458Y10686218D02*
X16283891D01*
Y10610043D01*
X16334674Y10635435D01*
X16360066D01*
X16385458Y10610043D01*
Y10559260D01*
X16360066Y10533868D01*
X16309283D01*
X16283891Y10559260D01*
X16436241Y10660827D02*
X16461633Y10686218D01*
X16512418D01*
X16537810Y10660827D01*
Y10559260D01*
X16512418Y10533868D01*
X16461633D01*
X16436241Y10559260D01*
Y10660827D01*
X16588593D02*
X16613985Y10686218D01*
X16664767D01*
X16690160Y10660827D01*
Y10559260D01*
X16664767Y10533868D01*
X16613985D01*
X16588593Y10559260D01*
Y10660827D01*
X15321246Y8336240D02*
X15295856Y8361631D01*
X15245071D01*
X15219679Y8336240D01*
Y8234673D01*
X15245071Y8209281D01*
X15295856D01*
X15321246Y8234673D01*
X15473598Y8361631D02*
X15372031D01*
Y8285456D01*
X15422813Y8310848D01*
X15448206D01*
X15473598Y8285456D01*
Y8234673D01*
X15448206Y8209281D01*
X15397423D01*
X15372031Y8234673D01*
X15524380Y8336240D02*
X15549773Y8361631D01*
X15600557D01*
X15625949Y8336240D01*
Y8234673D01*
X15600557Y8209281D01*
X15549773D01*
X15524380Y8234673D01*
Y8336240D01*
X15676732Y8361631D02*
X15778299D01*
Y8336240D01*
X15676732Y8234673D01*
Y8209281D01*
X14028387Y5171399D02*
X14002995Y5196791D01*
X13952213D01*
X13926820Y5171399D01*
Y5069832D01*
X13952213Y5044440D01*
X14002995D01*
X14028387Y5069832D01*
X14180737Y5196791D02*
X14079172D01*
Y5120615D01*
X14129955Y5146007D01*
X14155347D01*
X14180737Y5120615D01*
Y5069832D01*
X14155347Y5044440D01*
X14104562D01*
X14079172Y5069832D01*
X14231522Y5171399D02*
X14256914Y5196791D01*
X14307697D01*
X14333089Y5171399D01*
Y5069832D01*
X14307697Y5044440D01*
X14256914D01*
X14231522Y5069832D01*
Y5171399D01*
X14485439Y5196791D02*
X14434656Y5171399D01*
X14383871Y5120615D01*
Y5069832D01*
X14409264Y5044440D01*
X14460048D01*
X14485439Y5069832D01*
Y5095223D01*
X14460048Y5120615D01*
X14383871D01*
X4180807Y7914599D02*
X4155415Y7939991D01*
X4104632D01*
X4079240Y7914599D01*
Y7813032D01*
X4104632Y7787640D01*
X4155415D01*
X4180807Y7813032D01*
X4231591Y7914599D02*
X4256983Y7939991D01*
X4307766D01*
X4333158Y7914599D01*
Y7889207D01*
X4307766Y7863815D01*
X4282374D01*
X4307766D01*
X4333158Y7838423D01*
Y7813032D01*
X4307766Y7787640D01*
X4256983D01*
X4231591Y7813032D01*
X4383941Y7914599D02*
X4409333Y7939991D01*
X4460117D01*
X4485509Y7914599D01*
Y7813032D01*
X4460117Y7787640D01*
X4409333D01*
X4383941Y7813032D01*
Y7914599D01*
X4536292D02*
X4561684Y7939991D01*
X4612468D01*
X4637859Y7914599D01*
Y7813032D01*
X4612468Y7787640D01*
X4561684D01*
X4536292Y7813032D01*
Y7914599D01*
X4345907Y12369759D02*
X4320515Y12395151D01*
X4269732D01*
X4244340Y12369759D01*
Y12268192D01*
X4269732Y12242800D01*
X4320515D01*
X4345907Y12268192D01*
X4396691Y12369759D02*
X4422083Y12395151D01*
X4472866D01*
X4498258Y12369759D01*
Y12344367D01*
X4472866Y12318975D01*
X4447474D01*
X4472866D01*
X4498258Y12293583D01*
Y12268192D01*
X4472866Y12242800D01*
X4422083D01*
X4396691Y12268192D01*
X4549041Y12369759D02*
X4574433Y12395151D01*
X4625217D01*
X4650609Y12369759D01*
Y12268192D01*
X4625217Y12242800D01*
X4574433D01*
X4549041Y12268192D01*
Y12369759D01*
X4701392Y12242800D02*
X4752176D01*
X4726784D01*
Y12395151D01*
X4701392Y12369759D01*
X6839408Y10024873D02*
X6814017Y10050264D01*
X6763233D01*
X6737841Y10024873D01*
Y9923306D01*
X6763233Y9897914D01*
X6814017D01*
X6839408Y9923306D01*
X6991759Y9897914D02*
X6890192D01*
X6991759Y9999481D01*
Y10024873D01*
X6966367Y10050264D01*
X6915584D01*
X6890192Y10024873D01*
X7042543D02*
X7067935Y10050264D01*
X7118718D01*
X7144110Y10024873D01*
Y9923306D01*
X7118718Y9897914D01*
X7067935D01*
X7042543Y9923306D01*
Y10024873D01*
X7194893D02*
X7220285Y10050264D01*
X7271069D01*
X7296461Y10024873D01*
Y9999481D01*
X7271069Y9974089D01*
X7245677D01*
X7271069D01*
X7296461Y9948697D01*
Y9923306D01*
X7271069Y9897914D01*
X7220285D01*
X7194893Y9923306D01*
D34*
X10716706Y15731161D02*
G03*
X10716706Y15731161I-12500J0D01*
G01*
X7359486D02*
G03*
X7359486Y15731161I-12500J0D01*
G01*
X16829037Y4228081D02*
G03*
X16829037Y4228081I-12500J0D01*
G01*
X3642520Y9103075D02*
G03*
X3642520Y9103075I-12500J0D01*
G01*
X13143506Y15731161D02*
G03*
X13143506Y15731161I-12500J0D01*
G01*
X12449615Y12292551D02*
G03*
X12449615Y12292551I-12500J0D01*
G01*
X13699879Y8009547D02*
G03*
X13699879Y8009547I-12500J0D01*
G01*
X13467755Y4655905D02*
G03*
X13467755Y4655905I-12500J0D01*
G01*
X4932686Y15731161D02*
G03*
X4932686Y15731161I-12500J0D01*
G01*
D35*
X18944170Y14808807D02*
G03*
X18944170Y14808807I-750000J0D01*
G01*
X20751508Y3426254D02*
G03*
X20751508Y3426254I-750000J0D01*
G01*
X16968021Y14808807D02*
G03*
X16968021Y14808807I-750000J0D01*
G01*
X15599541Y3238487D02*
Y3244637D01*
Y3532337D02*
Y3538487D01*
X15536540Y3532337D02*
Y3538487D01*
Y3238487D02*
Y3244637D01*
Y3538487D02*
X15599541D01*
X15536540Y3238487D02*
X15599541D01*
X14806583Y11954332D02*
Y11960482D01*
Y12248183D02*
Y12254332D01*
X14743581Y12248183D02*
Y12254332D01*
Y11954332D02*
Y11960482D01*
Y12254332D02*
X14806583D01*
X14743581Y11954332D02*
X14806583D01*
X15735690Y8436509D02*
Y8442659D01*
Y8730359D02*
Y8736509D01*
X15672690Y8730359D02*
Y8736509D01*
Y8436509D02*
Y8442659D01*
Y8736509D02*
X15735690D01*
X15672690Y8436509D02*
X15735690D01*
X12166985Y5212393D02*
Y5218543D01*
Y5506243D02*
Y5512393D01*
X12103985Y5506243D02*
Y5512393D01*
Y5212393D02*
Y5218543D01*
Y5512393D02*
X12166985D01*
X12103985Y5212393D02*
X12166985D01*
X16353537Y3325469D02*
X16771037D01*
X16353537Y3440469D02*
X16771037D01*
X4083520Y7137448D02*
Y7554948D01*
X4198520Y7137448D02*
Y7554948D01*
X22416805Y12613470D02*
Y12619619D01*
Y12907320D02*
Y12913469D01*
X22353804Y12907320D02*
Y12913469D01*
Y12613470D02*
Y12619619D01*
Y12913469D02*
X22416805D01*
X22353804Y12613470D02*
X22416805D01*
X22637688Y11813519D02*
Y11819669D01*
Y12107369D02*
Y12113519D01*
X22574687Y12107369D02*
Y12113519D01*
Y11813519D02*
Y11819669D01*
Y12113519D02*
X22637688D01*
X22574687Y11813519D02*
X22637688D01*
X17234419Y11820007D02*
X17240570D01*
X17528271D02*
X17534419D01*
X17528271Y11883007D02*
X17534419D01*
X17234419D02*
X17240570D01*
X17534419Y11820007D02*
Y11883007D01*
X17234419Y11820007D02*
Y11883007D01*
X16262729Y10978246D02*
X16268880D01*
X16556580D02*
X16562729D01*
X16556580Y11041246D02*
X16562729D01*
X16262729D02*
X16268880D01*
X16562729Y10978246D02*
Y11041246D01*
X16262729Y10978246D02*
Y11041246D01*
X14132787Y11883051D02*
Y12300551D01*
X14017786Y11883051D02*
Y12300551D01*
X15322073Y7600047D02*
Y8017547D01*
X15207072Y7600047D02*
Y8017547D01*
X14806644Y5872181D02*
Y6289681D01*
X14691644Y5872181D02*
Y6289681D01*
X11720297Y11120551D02*
Y11538051D01*
X11835297Y11120551D02*
Y11538051D01*
X13206735Y11950266D02*
Y12903265D01*
X13689735D01*
X13206735Y11950266D02*
X13689735D01*
Y12903265D01*
X7348074Y7634604D02*
Y8392605D01*
X7098074Y7634604D02*
Y8392605D01*
X7348074D01*
X7098074Y7634604D02*
X7348074D01*
X11313642Y4984899D02*
X11563642D01*
X11313642D02*
Y6758899D01*
X11563642Y4984899D02*
Y6758899D01*
X11313642D02*
X11563642D01*
X10518550Y6792815D02*
X10768550D01*
Y5018815D02*
Y6792815D01*
X10518550Y5018815D02*
Y6792815D01*
Y5018815D02*
X10768550D01*
X5651569Y12170238D02*
X5901569D01*
X5651569D02*
Y13182237D01*
X5901569Y12170238D02*
Y13182237D01*
X5651569D02*
X5901569D01*
X5650402Y7593582D02*
X5900402D01*
X5650402D02*
Y11653582D01*
X5900402Y7593582D02*
Y11653582D01*
X5650402D02*
X5900402D01*
X14046242Y4394743D02*
Y4812243D01*
X13931241Y4394743D02*
Y4812243D01*
X14507144Y4380743D02*
Y5333743D01*
X14990144D01*
X14507144Y4380743D02*
X14990144D01*
Y5333743D01*
X14332259Y7977287D02*
Y8930287D01*
X14815257D01*
X14332259Y7977287D02*
X14815257D01*
Y8930287D01*
X13169446Y6840402D02*
Y7257902D01*
X13284447Y6840402D02*
Y7257902D01*
X16607536Y2983432D02*
X17025037D01*
X16607536Y2868432D02*
X17025037D01*
X22064952Y10041106D02*
Y10458606D01*
X21949953Y10041106D02*
Y10458606D01*
X5942506Y7593582D02*
X6192506D01*
X5942506D02*
Y11653582D01*
X6192506Y7593582D02*
Y11653582D01*
X5942506D02*
X6192506D01*
X4246798Y11592375D02*
Y12009875D01*
X4361798Y11592375D02*
Y12009875D01*
X9468040Y3095892D02*
X9718041D01*
X9468040Y3853892D02*
X9718041D01*
X9468040Y3095892D02*
Y3853892D01*
X9718041Y3095892D02*
Y3853892D01*
X8852397Y3095892D02*
X9102397D01*
X8852397Y3853892D02*
X9102397D01*
X8852397Y3095892D02*
Y3853892D01*
X9102397Y3095892D02*
Y3853892D01*
X9470062Y8677133D02*
X9720062D01*
X9470062Y7919133D02*
X9720062D01*
Y8677133D01*
X9470062Y7919133D02*
Y8677133D01*
X8846842D02*
X9096842D01*
X8846842Y7919133D02*
X9096842D01*
Y8677133D01*
X8846842Y7919133D02*
Y8677133D01*
X10085212D02*
X10335212D01*
X10085212Y7919133D02*
X10335212D01*
Y8677133D01*
X10085212Y7919133D02*
Y8677133D01*
X8230927D02*
X8480927D01*
X8230927Y7919133D02*
X8480927D01*
Y8677133D01*
X8230927Y7919133D02*
Y8677133D01*
X8231374Y3095892D02*
X8481374D01*
X8231374Y3853892D02*
X8481374D01*
X8231374Y3095892D02*
Y3853892D01*
X8481374Y3095892D02*
Y3853892D01*
X5942506Y3496530D02*
X6192506D01*
X5942506D02*
Y7556530D01*
X6192506Y3496530D02*
Y7556530D01*
X5942506D02*
X6192506D01*
X5650402Y3496530D02*
X5900402D01*
X5650402D02*
Y7556530D01*
X5900402Y3496530D02*
Y7556530D01*
X5650402D02*
X5900402D01*
X6725012Y9287582D02*
Y9705082D01*
X6840012Y9287582D02*
Y9705082D01*
X17340038Y9498419D02*
X17340038Y9028419D01*
X16290038D02*
X17340038D01*
X16290038D02*
Y9498419D01*
X17340038D01*
X17287103Y9883912D02*
Y10301412D01*
X17172104Y9883912D02*
Y10301412D01*
X16251170Y9883912D02*
Y10301412D01*
X16136171Y9883912D02*
Y10301412D01*
X17869386Y10406753D02*
X18339386Y10406753D01*
Y9356753D02*
Y10406753D01*
X17869386Y9356753D02*
X18339386D01*
X17869386D02*
Y10406753D01*
X19471729Y14538342D02*
X20961726D01*
X19471729Y13793341D02*
Y14538342D01*
Y13793341D02*
X20961726D01*
Y14538342D01*
X19471729Y14480841D02*
X20961726D01*
X19576205Y9532606D02*
Y9950106D01*
X19691206Y9532606D02*
Y9950106D01*
X20690787Y10484791D02*
X21160786Y10484792D01*
Y9434791D02*
Y10484792D01*
X20690787Y9434791D02*
X21160786D01*
X20690787D02*
Y10484791D01*
D36*
X3761020Y9319075D02*
G03*
X3761020Y9319075I-30000J0D01*
G01*
D37*
X3631020Y9420575D02*
G03*
X3631020Y9547575I0J63500D01*
G01*
X2715572Y4530513D02*
G03*
X2715572Y4765513I0J117500D01*
G01*
Y5990771D02*
G03*
X2715572Y6225770I0J117500D01*
G01*
X10759206Y13746162D02*
X12599205D01*
Y14606161D02*
Y15586162D01*
Y13746162D02*
Y14316162D01*
X10759206Y14606161D02*
Y15586162D01*
Y13746162D02*
Y14316162D01*
X7401986Y13746162D02*
Y14316162D01*
Y14606161D02*
Y15586162D01*
X9241986Y13746162D02*
Y14316162D01*
Y14606161D02*
Y15586162D01*
X7401986Y13746162D02*
X9241986D01*
X12890253Y7545702D02*
Y7708302D01*
X12687052Y7545702D02*
X12890253D01*
X12788652Y7926702D02*
Y8193402D01*
Y7303402D02*
Y7545702D01*
X12687064Y7620285D02*
X12890253Y7621722D01*
X12687052Y7926702D02*
X12890253D01*
X12687052Y7545702D02*
Y7926702D01*
X12890253Y7708302D02*
Y7926702D01*
X12621459Y4957493D02*
Y5120093D01*
X12824660D01*
X12723059Y4472393D02*
Y4739093D01*
Y5120093D02*
Y5362393D01*
X12621458Y5044072D02*
X12824648Y5045510D01*
X12621459Y4739093D02*
X12824660D01*
Y5120093D01*
X12621459Y4739093D02*
Y4957493D01*
X20993301Y12460920D02*
X21107602D01*
Y11895920D02*
Y12460920D01*
X20904402Y11895920D02*
X21107602D01*
X20904402D02*
Y12460920D01*
X20993301D01*
Y11478420D02*
Y11895920D01*
Y12460920D02*
Y12878419D01*
X20904402Y12040220D02*
X21107635Y12039640D01*
X21506863Y11895920D02*
X21621164D01*
X21506863D02*
Y12460920D01*
X21710065D01*
Y11895920D02*
Y12460920D01*
X21621164Y11895920D02*
X21710065D01*
X21621164Y12460920D02*
Y12878419D01*
Y11478420D02*
Y11895920D01*
X21506830Y12317199D02*
X21710065Y12316620D01*
X19709229Y12460920D02*
X19823528D01*
Y11895920D02*
Y12460920D01*
X19620328Y11895920D02*
X19823528D01*
X19620328D02*
Y12460920D01*
X19709229D01*
Y11478420D02*
Y11895920D01*
Y12460920D02*
Y12878419D01*
X19620328Y12040220D02*
X19823563Y12039640D01*
X20222791Y11895920D02*
X20337090D01*
X20222791D02*
Y12460920D01*
X20425990D01*
Y11895920D02*
Y12460920D01*
X20337090Y11895920D02*
X20425990D01*
X20337090Y12460920D02*
Y12878419D01*
Y11478420D02*
Y11895920D01*
X20222755Y12317199D02*
X20425990Y12316620D01*
X11332285Y11825851D02*
Y11988451D01*
X11129085Y11825851D02*
X11332285D01*
X11230685Y12206851D02*
Y12473551D01*
Y11583551D02*
Y11825851D01*
X11129097Y11900434D02*
X11332286Y11901872D01*
X11129085Y12206851D02*
X11332285D01*
X11129085Y11825851D02*
Y12206851D01*
X11332285Y11988451D02*
Y12206851D01*
X12052475Y9871021D02*
X12215075D01*
Y9667821D02*
Y9871021D01*
X11567375Y9769421D02*
X11834075D01*
X12215075D02*
X12457375D01*
X12139055Y9871022D02*
X12140492Y9667833D01*
X11834075Y9667821D02*
Y9871021D01*
Y9667821D02*
X12215075D01*
X11834075Y9871021D02*
X12052475D01*
X11809675Y9068277D02*
X11972276D01*
X11809675D02*
Y9271477D01*
X12190675Y9169877D02*
X12457375D01*
X11567375D02*
X11809675D01*
X11884259Y9271465D02*
X11885696Y9068275D01*
X12190675Y9068277D02*
Y9271477D01*
X11809675D02*
X12190675D01*
X11972276Y9068277D02*
X12190675D01*
X16027538Y3693081D02*
Y4163081D01*
X17097539Y3693081D02*
Y4163081D01*
X16027538D02*
X17097539D01*
X16027538Y3693081D02*
X17097539D01*
X16027538Y3743081D02*
X17097537D01*
X4356920Y7904748D02*
X4560120D01*
Y7295148D02*
Y7904748D01*
X4356920Y7295148D02*
X4560120D01*
X4356920D02*
Y7904748D01*
X4458520D02*
Y8006348D01*
Y7193548D02*
Y7295148D01*
X3658420Y7904748D02*
X3861620D01*
Y7295148D02*
Y7904748D01*
X3658420Y7295148D02*
X3861620D01*
X3658420D02*
Y7904748D01*
X3760020D02*
Y8006348D01*
Y7193548D02*
Y7295148D01*
X4651020Y9219075D02*
Y9749074D01*
X3631020Y9547575D02*
Y9749074D01*
Y9219075D02*
Y9420575D01*
Y9749074D02*
X4651020D01*
X3631020Y9219075D02*
X4651020D01*
X13186006Y13746162D02*
X15026006D01*
Y14606161D02*
Y15586162D01*
Y13746162D02*
Y14316162D01*
X13186006Y14606161D02*
Y15586162D01*
Y13746162D02*
Y14316162D01*
X12832115Y11317551D02*
Y12357551D01*
X12372115Y11317551D02*
X12832115D01*
X12372115D02*
Y12357551D01*
Y12357551D02*
X12832115D01*
X12782115Y11317551D02*
Y12357551D01*
X11332285Y12895683D02*
X11433885D01*
X12043485D02*
X12145085D01*
X11433885Y12997282D02*
X12043485D01*
X11433885Y12794083D02*
Y12997282D01*
Y12794083D02*
X12043485D01*
Y12997282D01*
X21340817Y9657306D02*
Y10620106D01*
Y9657306D02*
X21696419D01*
Y10620106D01*
X21340817D02*
X21696419D01*
X18548645Y9657306D02*
Y10620106D01*
Y9657306D02*
X18904245D01*
Y10620106D01*
X18548645D02*
X18904245D01*
X14082381Y7034547D02*
Y8074546D01*
X13622379Y7034547D02*
X14082381D01*
X13622379D02*
Y8074546D01*
Y8074547D02*
X14082381D01*
X14032381Y7034547D02*
Y8074546D01*
X2715572Y4361513D02*
X3655572D01*
Y4934513D01*
X2715572D02*
X3655572D01*
X2715572Y4765513D02*
Y4934513D01*
Y4361513D02*
Y4530513D01*
Y5821770D02*
X3655572D01*
Y6394771D01*
X2715572D02*
X3655572D01*
X2715572Y6225770D02*
Y6394771D01*
Y5821770D02*
Y5990771D01*
X3905472Y11852175D02*
X4108672D01*
Y11242575D02*
Y11852175D01*
X3905472Y11242575D02*
X4108672D01*
X3905472D02*
Y11852175D01*
X4007072D02*
Y11953775D01*
Y11140975D02*
Y11242575D01*
X4519305D02*
X4722505D01*
X4519305D02*
Y11852175D01*
X4722505D01*
Y11242575D02*
Y11852175D01*
X4620905Y11140975D02*
Y11242575D01*
Y11852175D02*
Y11953775D01*
X3566805Y11242575D02*
X3770005D01*
X3566805D02*
Y11852175D01*
X3770005D01*
Y11242575D02*
Y11852175D01*
X3668405Y11140975D02*
Y11242575D01*
Y11852175D02*
Y11953775D01*
X7945664Y4333829D02*
X8148864D01*
X7945664D02*
Y4943429D01*
X8148864D01*
Y4333829D02*
Y4943429D01*
X8047264Y4232229D02*
Y4333829D01*
Y4943429D02*
Y5045029D01*
X22412021Y9589206D02*
Y9690806D01*
Y10300406D02*
Y10402006D01*
X22310422Y9690806D02*
Y10300406D01*
Y9690806D02*
X22513622D01*
Y10300406D01*
X22310422D02*
X22513622D01*
X8356531Y4943429D02*
Y5045029D01*
Y4232229D02*
Y4333829D01*
X8458131D02*
Y4943429D01*
X8254931D02*
X8458131D01*
X8254931Y4333829D02*
Y4943429D01*
Y4333829D02*
X8458131D01*
X8665799Y5197786D02*
Y5299386D01*
Y4486586D02*
Y4588186D01*
X8767399D02*
Y5197786D01*
X8564199D02*
X8767399D01*
X8564199Y4588186D02*
Y5197786D01*
Y4588186D02*
X8767399D01*
X6108816Y12854037D02*
Y12955638D01*
Y12142838D02*
Y12244438D01*
X6210416D02*
Y12854037D01*
X6007216D02*
X6210416D01*
X6007216Y12244438D02*
Y12854037D01*
Y12244438D02*
X6210416D01*
X13785541Y6068294D02*
X13887141D01*
X13074341D02*
X13175941D01*
Y5966694D02*
X13785541D01*
Y6169894D01*
X13175941D02*
X13785541D01*
X13175941Y5966694D02*
Y6169894D01*
X13110254Y4590906D02*
Y5630906D01*
X13060255Y4590905D02*
X13520255D01*
Y4590906D02*
Y5630906D01*
X13060255D02*
X13520255D01*
X13060255Y4590906D02*
Y5630906D01*
X12890253Y8708737D02*
X12991852D01*
X13601453D02*
X13703052D01*
X12991852Y8810337D02*
X13601453D01*
X12991852Y8607137D02*
Y8810337D01*
Y8607137D02*
X13601453D01*
Y8810337D01*
X20068372Y9589206D02*
Y9690806D01*
Y10300406D02*
Y10402006D01*
X19966771Y9690806D02*
Y10300406D01*
Y9690806D02*
X20169971D01*
Y10300406D01*
X19966771D02*
X20169971D01*
X9284334Y6271928D02*
Y6373528D01*
Y6983128D02*
Y7084728D01*
X9182734Y6373528D02*
Y6983128D01*
Y6373528D02*
X9385934D01*
Y6983128D01*
X9182734D02*
X9385934D01*
X9593602Y6271928D02*
Y6373528D01*
Y6983128D02*
Y7084728D01*
X9492002Y6373528D02*
Y6983128D01*
Y6373528D02*
X9695202D01*
Y6983128D01*
X9492002D02*
X9695202D01*
X8047264Y6766103D02*
Y6867703D01*
Y7477303D02*
Y7578903D01*
X7945664Y6867703D02*
Y7477303D01*
Y6867703D02*
X8148864D01*
Y7477303D01*
X7945664D02*
X8148864D01*
X8356531Y6766103D02*
Y6867703D01*
Y7477303D02*
Y7578903D01*
X8254931Y6867703D02*
Y7477303D01*
Y6867703D02*
X8458131D01*
Y7477303D01*
X8254931D02*
X8458131D01*
X9902869Y6008887D02*
Y6110487D01*
Y6720087D02*
Y6821687D01*
X9801269Y6110487D02*
Y6720087D01*
Y6110487D02*
X10004469D01*
Y6720087D01*
X9801269D02*
X10004469D01*
X10212137Y6008887D02*
Y6110487D01*
Y6720087D02*
Y6821687D01*
X10110537Y6110487D02*
Y6720087D01*
Y6110487D02*
X10313737D01*
Y6720087D01*
X10110537D02*
X10313737D01*
X8975066Y6516905D02*
Y6618505D01*
Y7228105D02*
Y7329705D01*
X8873466Y6618505D02*
Y7228105D01*
Y6618505D02*
X9076666D01*
Y7228105D01*
X8873466D02*
X9076666D01*
X8665799Y6516905D02*
Y6618505D01*
Y7228105D02*
Y7329705D01*
X8564199Y6618505D02*
Y7228105D01*
Y6618505D02*
X8767399D01*
Y7228105D01*
X8564199D02*
X8767399D01*
X9284334Y5452440D02*
Y5554040D01*
Y4741240D02*
Y4842840D01*
X9385934D02*
Y5452440D01*
X9182734D02*
X9385934D01*
X9182734Y4842840D02*
Y5452440D01*
Y4842840D02*
X9385934D01*
X9593602Y5452440D02*
Y5554040D01*
Y4741240D02*
Y4842840D01*
X9695202D02*
Y5452440D01*
X9492002D02*
X9695202D01*
X9492002Y4842840D02*
Y5452440D01*
Y4842840D02*
X9695202D01*
X8975066Y5197786D02*
Y5299386D01*
Y4486586D02*
Y4588186D01*
X9076666D02*
Y5197786D01*
X8873466D02*
X9076666D01*
X8873466Y4588186D02*
Y5197786D01*
Y4588186D02*
X9076666D01*
X6637241Y7177809D02*
X6738841D01*
X7348441D02*
X7450041D01*
X6738841Y7279409D02*
X7348441D01*
X6738841Y7076209D02*
Y7279409D01*
Y7076209D02*
X7348441D01*
Y7279409D01*
X6399655Y12854037D02*
Y12955638D01*
Y12142838D02*
Y12244438D01*
X6501255D02*
Y12854037D01*
X6298055D02*
X6501255D01*
X6298055Y12244438D02*
Y12854037D01*
Y12244438D02*
X6501255D01*
X19181842Y10300406D02*
Y10402006D01*
Y9589206D02*
Y9690806D01*
X19283443D02*
Y10300406D01*
X19080241D02*
X19283443D01*
X19080241Y9690806D02*
Y10300406D01*
Y9690806D02*
X19283443D01*
X22785594Y10300406D02*
Y10402006D01*
Y9589206D02*
Y9690806D01*
X22887193D02*
Y10300406D01*
X22683994D02*
X22887193D01*
X22683994Y9690806D02*
Y10300406D01*
Y9690806D02*
X22887193D01*
X4975186Y13746162D02*
X6815186D01*
Y14606161D02*
Y15586162D01*
Y13746162D02*
Y14316162D01*
X4975186Y14606161D02*
Y15586162D01*
Y13746162D02*
Y14316162D01*
%TF.MD5,0dc44d8deb7274263d2b0763226cdd94*%
M02*
