%TF.GenerationSoftware,Altium Limited,Altium Designer,24.10.1 (45)*%
G04 Layer_Color=0*
%FSLAX45Y45*%
%MOMM*%
%TF.SameCoordinates,38DBCD4E-7E83-4607-9FCA-708DEC94F610*%
%TF.FilePolarity,Positive*%
%TF.FileFunction,Plated,1,2,PTH,Drill*%
%TF.Part,Single*%
G01*
G75*
%TA.AperFunction,ComponentDrill*%
%ADD43C,0.80000*%
%ADD44C,0.80000*%
%ADD45C,1.50000*%
%ADD46C,0.70000*%
%ADD47C,0.70000*%
%ADD48C,1.40000*%
%ADD49C,0.85000*%
%ADD50C,1.00000*%
%ADD51C,0.90000*%
%ADD52C,1.00000*%
%ADD53C,1.10000*%
%ADD54C,5.00000*%
%ADD55C,3.30000*%
%ADD56C,1.60000*%
%ADD57C,0.90000*%
%ADD58C,1.00000*%
%ADD59C,0.71000*%
%ADD60C,1.20000*%
%TA.AperFunction,ViaDrill,NotFilled*%
%ADD61C,1.60020*%
%ADD62C,0.71120*%
D43*
X8975066Y7431305D02*
D03*
Y6415305D02*
D03*
X9593602Y7186328D02*
D03*
Y6170328D02*
D03*
X10212137Y6923287D02*
D03*
Y5907287D02*
D03*
X9284334Y4639640D02*
D03*
Y5655640D02*
D03*
X9653505Y4637930D02*
D03*
Y5653930D02*
D03*
X8665799Y4384986D02*
D03*
Y5400986D02*
D03*
X8975066D02*
D03*
Y4384986D02*
D03*
X8047264Y4130629D02*
D03*
Y5146629D02*
D03*
X8356531Y4130629D02*
D03*
Y5146629D02*
D03*
X22412021Y10503606D02*
D03*
Y9487606D02*
D03*
X22785594D02*
D03*
Y10503606D02*
D03*
X9259895Y9412072D02*
D03*
Y10428072D02*
D03*
X4395427Y13106927D02*
D03*
Y14122926D02*
D03*
X3973281Y13107550D02*
D03*
Y14123550D02*
D03*
X3645289Y13101083D02*
D03*
Y14117084D02*
D03*
X3327645Y13101083D02*
D03*
Y14117084D02*
D03*
X8483492Y9408650D02*
D03*
Y10424650D02*
D03*
X4458520Y8107948D02*
D03*
Y7091948D02*
D03*
X3760020Y8107948D02*
D03*
Y7091948D02*
D03*
X20068372Y9487606D02*
D03*
Y10503606D02*
D03*
X9284334Y6170328D02*
D03*
Y7186328D02*
D03*
X9902869Y5907287D02*
D03*
Y6923287D02*
D03*
X8665799Y6415305D02*
D03*
Y7431305D02*
D03*
X19181842Y10503606D02*
D03*
Y9487606D02*
D03*
D44*
X12972742Y6068294D02*
D03*
X13988741D02*
D03*
X16893124Y13025729D02*
D03*
X15993124D02*
D03*
X11230685Y12895683D02*
D03*
X12246685D02*
D03*
X4608093Y10963020D02*
D03*
X3592093D02*
D03*
Y10349187D02*
D03*
X4608093D02*
D03*
X3592093Y11301687D02*
D03*
X4608093D02*
D03*
X12788652Y8708737D02*
D03*
X13804652D02*
D03*
D45*
X12398340Y5363226D02*
D03*
X2831469Y12741185D02*
D03*
X2786067Y12274793D02*
D03*
X5294603Y12358356D02*
D03*
X5545382Y12115986D02*
D03*
X22399271Y11055294D02*
D03*
X19085831Y11466072D02*
D03*
X16217114Y11029136D02*
D03*
X15568040Y3388487D02*
D03*
X14792416Y12132650D02*
D03*
X15704190Y8586509D02*
D03*
D46*
X16562537Y7843391D02*
D03*
Y8143391D02*
D03*
X13444908Y11573650D02*
D03*
Y11065650D02*
D03*
X12014503Y11848749D02*
D03*
Y12356749D02*
D03*
X16562537Y5378129D02*
D03*
Y5078129D02*
D03*
X15210600Y3313067D02*
D03*
Y3821067D02*
D03*
X4141020Y7091948D02*
D03*
Y7599948D02*
D03*
X13217401Y8062905D02*
D03*
Y7554905D02*
D03*
X13988741Y4857243D02*
D03*
Y4349243D02*
D03*
X14683247Y6782818D02*
D03*
Y7290818D02*
D03*
X22007452Y10503606D02*
D03*
Y9995606D02*
D03*
X6782512Y9242582D02*
D03*
Y9750582D02*
D03*
X19633707Y9487606D02*
D03*
Y9995606D02*
D03*
D47*
X4608093Y10665794D02*
D03*
X4100093D02*
D03*
X12972742Y6396226D02*
D03*
X13480740D02*
D03*
X16560474Y4574394D02*
D03*
X17068472D02*
D03*
X16566002Y9770320D02*
D03*
X17074002D02*
D03*
X17070537Y8634372D02*
D03*
X16562537D02*
D03*
D48*
X10867705Y14461162D02*
D03*
X12490706D02*
D03*
Y15731161D02*
D03*
X10867705D02*
D03*
X7510486Y14461162D02*
D03*
X9133486D02*
D03*
Y15731161D02*
D03*
X7510486D02*
D03*
X13294505D02*
D03*
X14917506D02*
D03*
Y14461162D02*
D03*
X13294505D02*
D03*
X5083686Y15731161D02*
D03*
X6706686D02*
D03*
Y14461162D02*
D03*
X5083686D02*
D03*
D49*
X4102531Y12585028D02*
D03*
Y12407228D02*
D03*
Y12229428D02*
D03*
X3358001Y12228736D02*
D03*
Y12406536D02*
D03*
Y12584336D02*
D03*
X9950755Y15179285D02*
D03*
Y15001483D02*
D03*
Y14823685D02*
D03*
D50*
X8891992Y10682878D02*
D03*
Y10428878D02*
D03*
Y10174878D02*
D03*
X2903203Y13904382D02*
D03*
Y13650381D02*
D03*
Y13396382D02*
D03*
Y13142381D02*
D03*
X11670255Y5150890D02*
D03*
Y5404890D02*
D03*
Y5658890D02*
D03*
Y5912890D02*
D03*
Y6166890D02*
D03*
Y6420890D02*
D03*
X10982576Y6423302D02*
D03*
Y6169302D02*
D03*
Y5915302D02*
D03*
Y5661302D02*
D03*
Y5407302D02*
D03*
Y5153302D02*
D03*
X16892841Y11921231D02*
D03*
Y12175231D02*
D03*
Y12429231D02*
D03*
X18186887Y10137253D02*
D03*
Y9883253D02*
D03*
Y9629253D02*
D03*
X16025175Y11959286D02*
D03*
Y12213286D02*
D03*
Y12467286D02*
D03*
X21531319Y9487606D02*
D03*
Y10787606D02*
D03*
X18739145Y9487606D02*
D03*
Y10787606D02*
D03*
Y7393391D02*
D03*
Y8143391D02*
D03*
X21159225Y7393391D02*
D03*
Y8143391D02*
D03*
X8171474Y10684564D02*
D03*
Y10430564D02*
D03*
Y10176564D02*
D03*
X5775402Y10512582D02*
D03*
Y10258582D02*
D03*
Y10004582D02*
D03*
Y7718582D02*
D03*
Y7972582D02*
D03*
Y8226582D02*
D03*
Y8480582D02*
D03*
Y8734582D02*
D03*
Y8988582D02*
D03*
Y9242582D02*
D03*
Y9496582D02*
D03*
Y9750582D02*
D03*
Y10766582D02*
D03*
Y11020582D02*
D03*
Y11274582D02*
D03*
Y11528582D02*
D03*
X6067506Y10512582D02*
D03*
Y10258582D02*
D03*
Y10004582D02*
D03*
Y7718582D02*
D03*
Y7972582D02*
D03*
Y8226582D02*
D03*
Y8480582D02*
D03*
Y8734582D02*
D03*
Y8988582D02*
D03*
Y9242582D02*
D03*
Y9496582D02*
D03*
Y9750582D02*
D03*
Y10766582D02*
D03*
Y11020582D02*
D03*
Y11274582D02*
D03*
Y11528582D02*
D03*
X9657615Y3213171D02*
D03*
Y3467171D02*
D03*
Y3721171D02*
D03*
X8977397Y3220892D02*
D03*
Y3474892D02*
D03*
Y3728892D02*
D03*
X9595062Y8552133D02*
D03*
Y8298133D02*
D03*
Y8044133D02*
D03*
X8971842Y8552133D02*
D03*
Y8298133D02*
D03*
Y8044133D02*
D03*
X10210212Y8552133D02*
D03*
Y8298133D02*
D03*
Y8044133D02*
D03*
X8356374Y3220892D02*
D03*
Y3474892D02*
D03*
Y3728892D02*
D03*
X6067506Y6415530D02*
D03*
Y6161530D02*
D03*
Y5907530D02*
D03*
Y3621530D02*
D03*
Y3875530D02*
D03*
Y4129530D02*
D03*
Y4383530D02*
D03*
Y4637530D02*
D03*
Y4891530D02*
D03*
Y5145530D02*
D03*
Y5399530D02*
D03*
Y5653530D02*
D03*
Y6669530D02*
D03*
Y6923530D02*
D03*
Y7177530D02*
D03*
Y7431530D02*
D03*
X5775402Y6415530D02*
D03*
Y6161530D02*
D03*
Y5907530D02*
D03*
Y3621530D02*
D03*
Y3875530D02*
D03*
Y4129530D02*
D03*
Y4383530D02*
D03*
Y4637530D02*
D03*
Y4891530D02*
D03*
Y5145530D02*
D03*
Y5399530D02*
D03*
Y5653530D02*
D03*
Y6669530D02*
D03*
Y6923530D02*
D03*
Y7177530D02*
D03*
Y7431530D02*
D03*
X18739145Y5828129D02*
D03*
Y5078129D02*
D03*
X21159225Y5828129D02*
D03*
Y5078129D02*
D03*
X21008287Y9707291D02*
D03*
Y9961291D02*
D03*
Y10215291D02*
D03*
D51*
X11230685Y12473551D02*
D03*
Y11583551D02*
D03*
X12788652Y7303402D02*
D03*
Y8193402D02*
D03*
X12723059Y5362393D02*
D03*
Y4472393D02*
D03*
X4522020Y9865075D02*
D03*
X4268020D02*
D03*
X4014020D02*
D03*
X3760020D02*
D03*
X4522020Y9103075D02*
D03*
X4268020D02*
D03*
X4014020D02*
D03*
X3760020D02*
D03*
D52*
X16816537Y9180919D02*
D03*
X17070537D02*
D03*
X16562537D02*
D03*
D53*
X3310572Y6603271D02*
D03*
X2950572D02*
D03*
X3310572Y5613270D02*
D03*
X2950572D02*
D03*
X3310572Y5143013D02*
D03*
X2950572D02*
D03*
X3310572Y4153013D02*
D03*
X2950572D02*
D03*
X12547115Y12091551D02*
D03*
Y11837551D02*
D03*
Y11583551D02*
D03*
X13797380Y7808546D02*
D03*
Y7554546D02*
D03*
Y7300546D02*
D03*
X13345255Y5364906D02*
D03*
Y5110906D02*
D03*
Y4856906D02*
D03*
D54*
X19703249Y3432533D02*
D03*
X21446046Y3484149D02*
D03*
X17997881Y3474425D02*
D03*
D55*
X9492415Y12051890D02*
D03*
X16180994Y6524125D02*
D03*
X23052298Y3122038D02*
D03*
X22999699Y15341600D02*
D03*
X3200400Y3200400D02*
D03*
Y15341600D02*
D03*
D56*
X20993301Y12878419D02*
D03*
Y11478420D02*
D03*
X21621164D02*
D03*
Y12878419D02*
D03*
X19709229D02*
D03*
Y11478420D02*
D03*
X20337090D02*
D03*
Y12878419D02*
D03*
D57*
X12457375Y9769421D02*
D03*
X11567375D02*
D03*
Y9169877D02*
D03*
X12457375D02*
D03*
D58*
X16308537Y3978081D02*
D03*
X16562537D02*
D03*
X16816537D02*
D03*
D59*
X13448735Y12172766D02*
D03*
Y12426766D02*
D03*
Y12680766D02*
D03*
X14749144Y4603243D02*
D03*
Y4857243D02*
D03*
Y5111243D02*
D03*
X14574258Y8199787D02*
D03*
Y8453787D02*
D03*
Y8707787D02*
D03*
D60*
X23104001Y12497997D02*
D03*
Y11990497D02*
D03*
Y13005498D02*
D03*
D61*
X8362246Y11333210D02*
D03*
X2950895Y10262312D02*
D03*
X5949697Y12475348D02*
D03*
X6803940Y11336803D02*
D03*
X17264894Y6443036D02*
D03*
X12299273Y10574831D02*
D03*
D62*
X5409585Y11892078D02*
D03*
X5265144Y12112302D02*
D03*
%TF.MD5,3abb9275715054f80b9e57d165bd165d*%
M02*
