%TF.GenerationSoftware,Altium Limited,Altium Designer,24.10.1 (45)*%
G04 Layer_Color=0*
%FSLAX45Y45*%
%MOMM*%
%TF.SameCoordinates,313608DE-15D6-4D2F-AD32-991CA47BF39A*%
%TF.FilePolarity,Positive*%
%TF.FileFunction,Plated,1,2,PTH,Drill*%
%TF.Part,Single*%
G01*
G75*
%TA.AperFunction,ComponentDrill*%
%ADD39C,0.70000*%
%ADD40C,1.50000*%
%ADD41C,1.40000*%
%ADD42C,3.30000*%
%ADD43C,0.90000*%
%ADD44C,1.60000*%
%ADD45C,0.90000*%
%ADD46C,12.00000*%
%ADD47C,0.70000*%
%ADD48C,1.00000*%
%ADD49C,0.80000*%
%ADD50C,1.50000*%
%ADD51C,1.10000*%
%ADD52C,0.80000*%
%ADD53C,0.71000*%
%ADD54C,1.00000*%
%ADD55C,1.00000*%
%ADD56C,1.20000*%
%TA.AperFunction,ViaDrill,NotFilled*%
%ADD57C,0.71120*%
D39*
X16562537Y8143391D02*
D03*
Y7843391D02*
D03*
X4141020Y7091948D02*
D03*
Y7599948D02*
D03*
X14075285Y12345551D02*
D03*
Y11837551D02*
D03*
X15264574Y8062546D02*
D03*
Y7554546D02*
D03*
X14749144Y6334681D02*
D03*
Y5826681D02*
D03*
X11777797Y11075551D02*
D03*
Y11583551D02*
D03*
X13988741Y4857243D02*
D03*
Y4349243D02*
D03*
X13226945Y6795402D02*
D03*
Y7303402D02*
D03*
X22007452Y10503606D02*
D03*
Y9995606D02*
D03*
X4304298Y11547375D02*
D03*
Y12055375D02*
D03*
X6782512Y9242582D02*
D03*
Y9750582D02*
D03*
X17229604Y10346412D02*
D03*
Y9838412D02*
D03*
X16193671Y10346412D02*
D03*
Y9838412D02*
D03*
X19633707Y9487606D02*
D03*
Y9995606D02*
D03*
X16562537Y5378129D02*
D03*
Y5078129D02*
D03*
D40*
X15568040Y3388487D02*
D03*
X14775081Y12104332D02*
D03*
X15704190Y8586509D02*
D03*
X12135485Y5362393D02*
D03*
X22385304Y12763470D02*
D03*
X22606187Y11963519D02*
D03*
D41*
X10867705Y15731161D02*
D03*
X12490706D02*
D03*
Y14461162D02*
D03*
X10867705D02*
D03*
X7510486D02*
D03*
X9133486D02*
D03*
Y15731161D02*
D03*
X7510486D02*
D03*
X13294505D02*
D03*
X14917506D02*
D03*
Y14461162D02*
D03*
X13294505D02*
D03*
X5083686Y15731161D02*
D03*
X6706686D02*
D03*
Y14461162D02*
D03*
X5083686D02*
D03*
D42*
X9492415Y12051890D02*
D03*
X16180994Y6524125D02*
D03*
X23052298Y3122038D02*
D03*
X22999699Y15341600D02*
D03*
X3200400Y3200400D02*
D03*
Y15341600D02*
D03*
D43*
X12788652Y7303402D02*
D03*
Y8193402D02*
D03*
X12723059Y5362393D02*
D03*
Y4472393D02*
D03*
X11230685Y11583551D02*
D03*
Y12473551D02*
D03*
X4522020Y9865075D02*
D03*
X4268020D02*
D03*
X4014020D02*
D03*
X3760020D02*
D03*
X4522020Y9103075D02*
D03*
X4268020D02*
D03*
X4014020D02*
D03*
X3760020D02*
D03*
D44*
X20993301Y12878419D02*
D03*
Y11478420D02*
D03*
X21621164D02*
D03*
Y12878419D02*
D03*
X19709229D02*
D03*
Y11478420D02*
D03*
X20337090D02*
D03*
Y12878419D02*
D03*
D45*
X12457375Y9769421D02*
D03*
X11567375D02*
D03*
Y9169877D02*
D03*
X12457375D02*
D03*
D46*
X18194170Y14808807D02*
D03*
X20001508Y3426254D02*
D03*
X16218021Y14808807D02*
D03*
D47*
X16816537Y3382969D02*
D03*
X16308537D02*
D03*
X16562537Y2925932D02*
D03*
X17070537D02*
D03*
D48*
X16308537Y3978081D02*
D03*
X16562537D02*
D03*
X16816537D02*
D03*
D49*
X4458520Y8107948D02*
D03*
Y7091948D02*
D03*
X3760020Y8107948D02*
D03*
Y7091948D02*
D03*
X4007072Y12055375D02*
D03*
Y11039375D02*
D03*
X4620905D02*
D03*
Y12055375D02*
D03*
X3668405Y11039375D02*
D03*
Y12055375D02*
D03*
X8047264Y4130629D02*
D03*
Y5146629D02*
D03*
X22412021Y9487606D02*
D03*
Y10503606D02*
D03*
X8356531Y5146629D02*
D03*
Y4130629D02*
D03*
X8665799Y5400986D02*
D03*
Y4384986D02*
D03*
X6108816Y13057237D02*
D03*
Y12041238D02*
D03*
X20068372Y9487606D02*
D03*
Y10503606D02*
D03*
X9284334Y6170328D02*
D03*
Y7186328D02*
D03*
X9593602Y6170328D02*
D03*
Y7186328D02*
D03*
X8047264Y6664503D02*
D03*
Y7680503D02*
D03*
X8356531Y6664503D02*
D03*
Y7680503D02*
D03*
X9902869Y5907287D02*
D03*
Y6923287D02*
D03*
X10212137Y5907287D02*
D03*
Y6923287D02*
D03*
X8975066Y6415305D02*
D03*
Y7431305D02*
D03*
X8665799Y6415305D02*
D03*
Y7431305D02*
D03*
X9284334Y5655640D02*
D03*
Y4639640D02*
D03*
X9593602Y5655640D02*
D03*
Y4639640D02*
D03*
X8975066Y5400986D02*
D03*
Y4384986D02*
D03*
X6399655Y13057237D02*
D03*
Y12041238D02*
D03*
X19181842Y10503606D02*
D03*
Y9487606D02*
D03*
X22785594Y10503606D02*
D03*
Y9487606D02*
D03*
D50*
X17384419Y11851507D02*
D03*
X16412729Y11009746D02*
D03*
D51*
X12547115Y12091551D02*
D03*
Y11837551D02*
D03*
Y11583551D02*
D03*
X13797380Y7808546D02*
D03*
Y7554546D02*
D03*
Y7300546D02*
D03*
X13345255Y5364906D02*
D03*
Y5110906D02*
D03*
Y4856906D02*
D03*
D52*
X11230685Y12895683D02*
D03*
X12246685D02*
D03*
X13988741Y6068294D02*
D03*
X12972742D02*
D03*
X12788652Y8708737D02*
D03*
X13804652D02*
D03*
X6535641Y7177809D02*
D03*
X7551641D02*
D03*
D53*
X13448735Y12172766D02*
D03*
Y12426766D02*
D03*
Y12680766D02*
D03*
X14749144Y4603243D02*
D03*
Y4857243D02*
D03*
Y5111243D02*
D03*
X14574258Y8199787D02*
D03*
Y8453787D02*
D03*
Y8707787D02*
D03*
D54*
X21531319Y9487606D02*
D03*
Y10787606D02*
D03*
X18739145Y9487606D02*
D03*
Y10787606D02*
D03*
Y7393391D02*
D03*
Y8143391D02*
D03*
X21159225Y7393391D02*
D03*
Y8143391D02*
D03*
X3420572Y5143013D02*
D03*
X2950572D02*
D03*
X3420572Y4153013D02*
D03*
X2950572D02*
D03*
X3420572Y6603271D02*
D03*
X2950572D02*
D03*
X3420572Y5613270D02*
D03*
X2950572D02*
D03*
X7223074Y8267604D02*
D03*
Y8013604D02*
D03*
Y7759604D02*
D03*
X11438642Y5109899D02*
D03*
Y5363899D02*
D03*
Y5617899D02*
D03*
Y5871899D02*
D03*
Y6125899D02*
D03*
Y6379899D02*
D03*
Y6633899D02*
D03*
X10643550Y6667815D02*
D03*
Y6413815D02*
D03*
Y6159815D02*
D03*
Y5905815D02*
D03*
Y5651815D02*
D03*
Y5397815D02*
D03*
Y5143815D02*
D03*
X5776569Y12295238D02*
D03*
Y12549238D02*
D03*
Y12803238D02*
D03*
Y13057237D02*
D03*
X5775402Y10512582D02*
D03*
Y10258582D02*
D03*
Y10004582D02*
D03*
Y7718582D02*
D03*
Y7972582D02*
D03*
Y8226582D02*
D03*
Y8480582D02*
D03*
Y8734582D02*
D03*
Y8988582D02*
D03*
Y9242582D02*
D03*
Y9496582D02*
D03*
Y9750582D02*
D03*
Y10766582D02*
D03*
Y11020582D02*
D03*
Y11274582D02*
D03*
Y11528582D02*
D03*
X6067506Y10512582D02*
D03*
Y10258582D02*
D03*
Y10004582D02*
D03*
Y7718582D02*
D03*
Y7972582D02*
D03*
Y8226582D02*
D03*
Y8480582D02*
D03*
Y8734582D02*
D03*
Y8988582D02*
D03*
Y9242582D02*
D03*
Y9496582D02*
D03*
Y9750582D02*
D03*
Y10766582D02*
D03*
Y11020582D02*
D03*
Y11274582D02*
D03*
Y11528582D02*
D03*
X9593041Y3220892D02*
D03*
Y3474892D02*
D03*
Y3728892D02*
D03*
X8977397Y3220892D02*
D03*
Y3474892D02*
D03*
Y3728892D02*
D03*
X9595062Y8552133D02*
D03*
Y8298133D02*
D03*
Y8044133D02*
D03*
X8971842Y8552133D02*
D03*
Y8298133D02*
D03*
Y8044133D02*
D03*
X10210212Y8552133D02*
D03*
Y8298133D02*
D03*
Y8044133D02*
D03*
X8355927Y8552133D02*
D03*
Y8298133D02*
D03*
Y8044133D02*
D03*
X8356374Y3220892D02*
D03*
Y3474892D02*
D03*
Y3728892D02*
D03*
X6067506Y6415530D02*
D03*
Y6161530D02*
D03*
Y5907530D02*
D03*
Y3621530D02*
D03*
Y3875530D02*
D03*
Y4129530D02*
D03*
Y4383530D02*
D03*
Y4637530D02*
D03*
Y4891530D02*
D03*
Y5145530D02*
D03*
Y5399530D02*
D03*
Y5653530D02*
D03*
Y6669530D02*
D03*
Y6923530D02*
D03*
Y7177530D02*
D03*
Y7431530D02*
D03*
X5775402Y6415530D02*
D03*
Y6161530D02*
D03*
Y5907530D02*
D03*
Y3621530D02*
D03*
Y3875530D02*
D03*
Y4129530D02*
D03*
Y4383530D02*
D03*
Y4637530D02*
D03*
Y4891530D02*
D03*
Y5145530D02*
D03*
Y5399530D02*
D03*
Y5653530D02*
D03*
Y6669530D02*
D03*
Y6923530D02*
D03*
Y7177530D02*
D03*
Y7431530D02*
D03*
X18186887Y9629253D02*
D03*
Y9883253D02*
D03*
Y10137253D02*
D03*
Y9883253D02*
D03*
X18739145Y5828129D02*
D03*
Y5078129D02*
D03*
X21159225Y5828129D02*
D03*
Y5078129D02*
D03*
X21008287Y9707291D02*
D03*
Y9961291D02*
D03*
Y10215291D02*
D03*
Y9961291D02*
D03*
D55*
X16562537Y9180919D02*
D03*
X16816537D02*
D03*
X17070537D02*
D03*
X16816537D02*
D03*
D56*
X20216728Y14235841D02*
D03*
X20724228D02*
D03*
X19709229D02*
D03*
D57*
X10987360Y10574831D02*
D03*
X12299273D02*
D03*
X4200112Y13505293D02*
D03*
X6402430Y8734582D02*
D03*
Y11020582D02*
D03*
%TF.MD5,9c468e24faae4bb4e0999fd5b9704246*%
M02*
