%TF.GenerationSoftware,Altium Limited,Altium Designer,24.10.1 (45)*%
G04 Layer_Color=65535*
%FSLAX45Y45*%
%MOMM*%
%TF.SameCoordinates,66D1A1B5-90F7-41B0-AF59-7CED98AD6AFD*%
%TF.FilePolarity,Positive*%
%TF.FileFunction,Legend,Top*%
%TF.Part,Single*%
G01*
G75*
%TA.AperFunction,NonConductor*%
%ADD34C,0.20000*%
%ADD35C,0.25400*%
%ADD36C,0.25000*%
%ADD37C,0.60000*%
%ADD38C,0.12700*%
D34*
X2930692Y4576697D02*
G03*
X2930692Y4701697I0J62500D01*
G01*
Y6009060D02*
G03*
X2930692Y6134060I0J62500D01*
G01*
X8920561Y14242015D02*
G03*
X8920561Y14369016I0J63500D01*
G01*
X2930692Y4422697D02*
X3430692D01*
Y4855697D01*
X2930692D02*
X3430692D01*
X2930692Y4701697D02*
Y4855697D01*
Y4422697D02*
Y4576697D01*
Y5855060D02*
X3430692D01*
Y6288060D01*
X2930692D02*
X3430692D01*
X2930692Y6134060D02*
Y6288060D01*
Y5855060D02*
Y6009060D01*
X21846936Y11786112D02*
Y11887712D01*
Y12497312D02*
Y12598912D01*
X21745335Y11887712D02*
Y12497312D01*
Y11887712D02*
X21948537D01*
Y12497312D01*
X21745335D02*
X21948537D01*
X21230452D02*
Y12598912D01*
Y11786112D02*
Y11887712D01*
X21332053D02*
Y12497312D01*
X21128851D02*
X21332053D01*
X21128851Y11887712D02*
Y12497312D01*
Y11887712D02*
X21332053D01*
X8047264Y4943429D02*
Y5045029D01*
Y4232229D02*
Y4333829D01*
X8148864D02*
Y4943429D01*
X7945664D02*
X8148864D01*
X7945664Y4333829D02*
Y4943429D01*
Y4333829D02*
X8148864D01*
X8356531Y4943429D02*
Y5045029D01*
Y4232229D02*
Y4333829D01*
X8458131D02*
Y4943429D01*
X8254931D02*
X8458131D01*
X8254931Y4333829D02*
Y4943429D01*
Y4333829D02*
X8458131D01*
X8665799Y5197786D02*
Y5299386D01*
Y4486586D02*
Y4588186D01*
X8767399D02*
Y5197786D01*
X8564199D02*
X8767399D01*
X8564199Y4588186D02*
Y5197786D01*
Y4588186D02*
X8767399D01*
X5740516Y12854037D02*
Y12955638D01*
Y12142838D02*
Y12244438D01*
X5842116D02*
Y12854037D01*
X5638916D02*
X5842116D01*
X5638916Y12244438D02*
Y12854037D01*
Y12244438D02*
X5842116D01*
X13692587Y6599847D02*
X13794186D01*
X12981387D02*
X13082986D01*
Y6498247D02*
X13692587D01*
Y6701447D01*
X13082986D02*
X13692587D01*
X13082986Y6498247D02*
Y6701447D01*
X13169482Y5275315D02*
Y6315315D01*
X13119482Y5275315D02*
X13579482D01*
Y5275315D02*
Y6315315D01*
X13119482D02*
X13579482D01*
X13119482Y5275315D02*
Y6315315D01*
X12932767Y9449982D02*
X13034366D01*
X13643967D02*
X13745566D01*
X13034366Y9551582D02*
X13643967D01*
X13034366Y9348382D02*
Y9551582D01*
Y9348382D02*
X13643967D01*
Y9551582D01*
X16268837Y3590681D02*
X17338837D01*
X16268837Y3540681D02*
X17338838D01*
X16268837Y4010681D02*
X17338838D01*
Y3540681D02*
Y4010681D01*
X16268837Y3540681D02*
Y4010681D01*
X19554086Y11786112D02*
Y11887712D01*
Y12497312D02*
Y12598912D01*
X19452486Y11887712D02*
Y12497312D01*
Y11887712D02*
X19655685D01*
Y12497312D01*
X19452486D02*
X19655685D01*
X11504818Y14509064D02*
Y14610663D01*
Y15220264D02*
Y15321863D01*
X11403218Y14610663D02*
Y15220264D01*
Y14610663D02*
X11606418D01*
Y15220264D01*
X11403218D02*
X11606418D01*
X11166152D02*
Y15321863D01*
Y14509064D02*
Y14610663D01*
X11267752D02*
Y15220264D01*
X11064552D02*
X11267752D01*
X11064552Y14610663D02*
Y15220264D01*
Y14610663D02*
X11267752D01*
X12118652Y15220264D02*
Y15321863D01*
Y14509064D02*
Y14610663D01*
X12220252D02*
Y15220264D01*
X12017052D02*
X12220252D01*
X12017052Y14610663D02*
Y15220264D01*
Y14610663D02*
X12220252D01*
X9284334Y6271928D02*
Y6373528D01*
Y6983128D02*
Y7084728D01*
X9182734Y6373528D02*
Y6983128D01*
Y6373528D02*
X9385934D01*
Y6983128D01*
X9182734D02*
X9385934D01*
X9593602Y6271928D02*
Y6373528D01*
Y6983128D02*
Y7084728D01*
X9492002Y6373528D02*
Y6983128D01*
Y6373528D02*
X9695202D01*
Y6983128D01*
X9492002D02*
X9695202D01*
X8047264Y6766103D02*
Y6867703D01*
Y7477303D02*
Y7578903D01*
X7945664Y6867703D02*
Y7477303D01*
Y6867703D02*
X8148864D01*
Y7477303D01*
X7945664D02*
X8148864D01*
X8356531Y6766103D02*
Y6867703D01*
Y7477303D02*
Y7578903D01*
X8254931Y6867703D02*
Y7477303D01*
Y6867703D02*
X8458131D01*
Y7477303D01*
X8254931D02*
X8458131D01*
X9902869Y6008887D02*
Y6110487D01*
Y6720087D02*
Y6821687D01*
X9801269Y6110487D02*
Y6720087D01*
Y6110487D02*
X10004469D01*
Y6720087D01*
X9801269D02*
X10004469D01*
X10212137Y6008887D02*
Y6110487D01*
Y6720087D02*
Y6821687D01*
X10110537Y6110487D02*
Y6720087D01*
Y6110487D02*
X10313737D01*
Y6720087D01*
X10110537D02*
X10313737D01*
X8975066Y6516905D02*
Y6618505D01*
Y7228105D02*
Y7329705D01*
X8873466Y6618505D02*
Y7228105D01*
Y6618505D02*
X9076666D01*
Y7228105D01*
X8873466D02*
X9076666D01*
X8665799Y6516905D02*
Y6618505D01*
Y7228105D02*
Y7329705D01*
X8564199Y6618505D02*
Y7228105D01*
Y6618505D02*
X8767399D01*
Y7228105D01*
X8564199D02*
X8767399D01*
X9284334Y5452440D02*
Y5554040D01*
Y4741240D02*
Y4842840D01*
X9385934D02*
Y5452440D01*
X9182734D02*
X9385934D01*
X9182734Y4842840D02*
Y5452440D01*
Y4842840D02*
X9385934D01*
X9593602Y5452440D02*
Y5554040D01*
Y4741240D02*
Y4842840D01*
X9695202D02*
Y5452440D01*
X9492002D02*
X9695202D01*
X9492002Y4842840D02*
Y5452440D01*
Y4842840D02*
X9695202D01*
X8975066Y5197786D02*
Y5299386D01*
Y4486586D02*
Y4588186D01*
X9076666D02*
Y5197786D01*
X8873466D02*
X9076666D01*
X8873466Y4588186D02*
Y5197786D01*
Y4588186D02*
X9076666D01*
X8920561Y14040515D02*
X9940561D01*
X8920561Y14570515D02*
X9940561D01*
X8920561Y14040515D02*
Y14242015D01*
Y14369016D02*
Y14570515D01*
X9940561Y14040515D02*
Y14570515D01*
X6637241Y7177809D02*
X6738841D01*
X7348441D02*
X7450041D01*
X6738841Y7279409D02*
X7348441D01*
X6738841Y7076209D02*
Y7279409D01*
Y7076209D02*
X7348441D01*
Y7279409D01*
X6031355Y12854037D02*
Y12955638D01*
Y12142838D02*
Y12244438D01*
X6132955D02*
Y12854037D01*
X5929755D02*
X6132955D01*
X5929755Y12244438D02*
Y12854037D01*
Y12244438D02*
X6132955D01*
X18462643Y12497312D02*
Y12598912D01*
Y11786112D02*
Y11887712D01*
X18564244D02*
Y12497312D01*
X18361044D02*
X18564244D01*
X18361044Y11887712D02*
Y12497312D01*
Y11887712D02*
X18564244D01*
X18807257Y12497312D02*
Y12598912D01*
Y11786112D02*
Y11887712D01*
X18908858D02*
Y12497312D01*
X18705656D02*
X18908858D01*
X18705656Y11887712D02*
Y12497312D01*
Y11887712D02*
X18908858D01*
X22245909Y12497312D02*
Y12598912D01*
Y11786112D02*
Y11887712D01*
X22347508D02*
Y12497312D01*
X22144308D02*
X22347508D01*
X22144308Y11887712D02*
Y12497312D01*
Y11887712D02*
X22347508D01*
X15465521Y13789516D02*
X17305521D01*
Y14649515D02*
Y15629515D01*
Y13789516D02*
Y14359515D01*
X15465521Y14649515D02*
Y15629515D01*
Y13789516D02*
Y14359515D01*
X13229221Y13789516D02*
X15069220D01*
Y14649515D02*
Y15629515D01*
Y13789516D02*
Y14359515D01*
X13229221Y14649515D02*
Y15629515D01*
Y13789516D02*
Y14359515D01*
X6668207Y13981140D02*
Y14082739D01*
Y14692340D02*
Y14793941D01*
X6566607Y14082739D02*
Y14692340D01*
Y14082739D02*
X6769807D01*
Y14692340D01*
X6566607D02*
X6769807D01*
X7366707Y13981140D02*
Y14082739D01*
Y14692340D02*
Y14793941D01*
X7265107Y14082739D02*
Y14692340D01*
Y14082739D02*
X7468307D01*
Y14692340D01*
X7265107D02*
X7468307D01*
D35*
X19594092Y7708177D02*
G03*
X19594092Y7708177I-950000J0D01*
G01*
X21956825D02*
G03*
X21956825Y7708177I-950000J0D01*
G01*
X13633057Y7901791D02*
G03*
X13633057Y8435791I0J267000D01*
G01*
X17203838Y7938177D02*
G03*
X17203838Y7938177I-400000J0D01*
G01*
Y4948729D02*
G03*
X17203838Y4948729I-400000J0D01*
G01*
X19594092Y5168729D02*
G03*
X19594092Y5168729I-950000J0D01*
G01*
X21956825D02*
G03*
X21956825Y5168729I-950000J0D01*
G01*
X18999100Y8088177D02*
X19104100D01*
X19051601Y8035677D02*
Y8140677D01*
Y7285677D02*
Y7390677D01*
X21361835Y8088177D02*
X21466833D01*
X21414334Y8035677D02*
Y8140677D01*
Y7285677D02*
Y7390677D01*
X15385402Y4925233D02*
Y7325234D01*
X14685402Y4925233D02*
Y7325234D01*
X15385402D01*
X14685402Y4925233D02*
X15385402D01*
Y7960232D02*
Y10360232D01*
X14685402Y7960232D02*
Y10360232D01*
X15385402D01*
X14685402Y7960232D02*
X15385402D01*
X13433057Y7901791D02*
Y8435791D01*
Y7901791D02*
X13633057D01*
X13433057Y8435791D02*
X13633057D01*
X16996336Y8088177D02*
X17101337D01*
X17048837Y8035677D02*
Y8140677D01*
Y7735677D02*
Y7840677D01*
X16996336Y5098729D02*
X17101337D01*
X17048837Y5046229D02*
Y5151229D01*
Y4746229D02*
Y4851229D01*
X18999100Y5548729D02*
X19104100D01*
X19051601Y5496229D02*
Y5601229D01*
Y4746229D02*
Y4851229D01*
X21361835Y5548729D02*
X21466833D01*
X21414334Y5496229D02*
Y5601229D01*
Y4746229D02*
Y4851229D01*
X14646381Y12877087D02*
Y13029439D01*
X14722556D01*
X14747948Y13004047D01*
Y12953262D01*
X14722556Y12927872D01*
X14646381D01*
X14874905Y13029439D02*
X14824123D01*
X14798730Y13004047D01*
Y12902480D01*
X14824123Y12877087D01*
X14874905D01*
X14900298Y12902480D01*
Y13004047D01*
X14874905Y13029439D01*
X14951082D02*
X15052649D01*
X15001865D01*
Y12877087D01*
X15103432Y12851695D02*
X15205000D01*
X15255783Y13029439D02*
Y12877087D01*
X15306567Y12927872D01*
X15357350Y12877087D01*
Y13029439D01*
X15408134Y12877087D02*
Y12978654D01*
X15458917Y13029439D01*
X15509702Y12978654D01*
Y12877087D01*
Y12953262D01*
X15408134D01*
X15560484Y13029439D02*
Y12877087D01*
Y12953262D01*
X15662051D01*
Y13029439D01*
Y12877087D01*
X15814401D02*
X15712836D01*
X15814401Y12978654D01*
Y13004047D01*
X15789011Y13029439D01*
X15738226D01*
X15712836Y13004047D01*
X15865186D02*
X15890578Y13029439D01*
X15941360D01*
X15966753Y13004047D01*
Y12902480D01*
X15941360Y12877087D01*
X15890578D01*
X15865186Y12902480D01*
Y13004047D01*
X16017537D02*
X16042929Y13029439D01*
X16093712D01*
X16119104Y13004047D01*
Y12902480D01*
X16093712Y12877087D01*
X16042929D01*
X16017537Y12902480D01*
Y13004047D01*
X16252631Y12906496D02*
Y13058846D01*
X16303413Y13008063D01*
X16354198Y13058846D01*
Y12906496D01*
X16506548Y13058846D02*
X16404980D01*
Y12906496D01*
X16506548D01*
X16404980Y12982671D02*
X16455763D01*
X16557330Y12906496D02*
Y13058846D01*
X16658899Y12906496D01*
Y13058846D01*
X16709682D02*
Y12931886D01*
X16735074Y12906496D01*
X16785857D01*
X16811249Y12931886D01*
Y13058846D01*
X16862033Y12881104D02*
X16963600D01*
X17115952Y13033453D02*
X17090559Y13058846D01*
X17039775D01*
X17014384Y13033453D01*
Y12931886D01*
X17039775Y12906496D01*
X17090559D01*
X17115952Y12931886D01*
X17166734Y13058846D02*
X17268301D01*
X17217519D01*
Y12906496D01*
X17319086D02*
Y13058846D01*
X17395261D01*
X17420651Y13033453D01*
Y12982671D01*
X17395261Y12957278D01*
X17319086D01*
X17369868D02*
X17420651Y12906496D01*
X17471436Y13058846D02*
Y12906496D01*
X17573003D01*
X17725354D02*
X17623785D01*
X17725354Y13008063D01*
Y13033453D01*
X17699962Y13058846D01*
X17649178D01*
X17623785Y13033453D01*
X17776137D02*
X17801529Y13058846D01*
X17852313D01*
X17877704Y13033453D01*
Y12931886D01*
X17852313Y12906496D01*
X17801529D01*
X17776137Y12931886D01*
Y13033453D01*
X17928488D02*
X17953880Y13058846D01*
X18004663D01*
X18030055Y13033453D01*
Y12931886D01*
X18004663Y12906496D01*
X17953880D01*
X17928488Y12931886D01*
Y13033453D01*
X2876259Y7769860D02*
Y7922211D01*
X2927043Y7871427D01*
X2977826Y7922211D01*
Y7769860D01*
X3130177D02*
X3028610D01*
X3130177Y7871427D01*
Y7896819D01*
X3104785Y7922211D01*
X3054002D01*
X3028610Y7896819D01*
X3180961D02*
X3206352Y7922211D01*
X3257136D01*
X3282528Y7896819D01*
Y7795252D01*
X3257136Y7769860D01*
X3206352D01*
X3180961Y7795252D01*
Y7896819D01*
X3434879Y7922211D02*
X3333311D01*
Y7846035D01*
X3384095Y7871427D01*
X3409487D01*
X3434879Y7846035D01*
Y7795252D01*
X3409487Y7769860D01*
X3358703D01*
X3333311Y7795252D01*
X2876259Y14272260D02*
Y14424611D01*
X2927043Y14373827D01*
X2977826Y14424611D01*
Y14272260D01*
X3130177D02*
X3028610D01*
X3130177Y14373827D01*
Y14399219D01*
X3104785Y14424611D01*
X3054002D01*
X3028610Y14399219D01*
X3180961D02*
X3206352Y14424611D01*
X3257136D01*
X3282528Y14399219D01*
Y14297652D01*
X3257136Y14272260D01*
X3206352D01*
X3180961Y14297652D01*
Y14399219D01*
X3409487Y14272260D02*
Y14424611D01*
X3333311Y14348434D01*
X3434879D01*
X3047967Y5427931D02*
X2997183D01*
X3022575D01*
Y5300972D01*
X2997183Y5275580D01*
X2971792D01*
X2946400Y5300972D01*
X3098751Y5402539D02*
X3124143Y5427931D01*
X3174926D01*
X3200318Y5402539D01*
Y5377147D01*
X3174926Y5351755D01*
X3149534D01*
X3174926D01*
X3200318Y5326363D01*
Y5300972D01*
X3174926Y5275580D01*
X3124143D01*
X3098751Y5300972D01*
X3251101Y5402539D02*
X3276493Y5427931D01*
X3327277D01*
X3352669Y5402539D01*
Y5300972D01*
X3327277Y5275580D01*
X3276493D01*
X3251101Y5300972D01*
Y5402539D01*
X3403452Y5275580D02*
X3454236D01*
X3428844D01*
Y5427931D01*
X3403452Y5402539D01*
X3047967Y6860491D02*
X2997183D01*
X3022575D01*
Y6733532D01*
X2997183Y6708140D01*
X2971792D01*
X2946400Y6733532D01*
X3098751Y6835099D02*
X3124143Y6860491D01*
X3174926D01*
X3200318Y6835099D01*
Y6809707D01*
X3174926Y6784315D01*
X3149534D01*
X3174926D01*
X3200318Y6758923D01*
Y6733532D01*
X3174926Y6708140D01*
X3124143D01*
X3098751Y6733532D01*
X3251101Y6835099D02*
X3276493Y6860491D01*
X3327277D01*
X3352669Y6835099D01*
Y6733532D01*
X3327277Y6708140D01*
X3276493D01*
X3251101Y6733532D01*
Y6835099D01*
X3505019Y6708140D02*
X3403452D01*
X3505019Y6809707D01*
Y6835099D01*
X3479628Y6860491D01*
X3428844D01*
X3403452Y6835099D01*
X16282076Y4328111D02*
Y4201152D01*
X16307468Y4175760D01*
X16358250D01*
X16383643Y4201152D01*
Y4328111D01*
X16535992D02*
X16434425D01*
Y4251935D01*
X16485210Y4277327D01*
X16510600D01*
X16535992Y4251935D01*
Y4201152D01*
X16510600Y4175760D01*
X16459818D01*
X16434425Y4201152D01*
X16586777Y4302719D02*
X16612167Y4328111D01*
X16662952D01*
X16688344Y4302719D01*
Y4201152D01*
X16662952Y4175760D01*
X16612167D01*
X16586777Y4201152D01*
Y4302719D01*
X16739127Y4175760D02*
X16789911D01*
X16764519D01*
Y4328111D01*
X16739127Y4302719D01*
X13134340Y6553151D02*
Y6426192D01*
X13159732Y6400800D01*
X13210515D01*
X13235907Y6426192D01*
Y6553151D01*
X13388258D02*
X13286691D01*
Y6476975D01*
X13337474Y6502367D01*
X13362866D01*
X13388258Y6476975D01*
Y6426192D01*
X13362866Y6400800D01*
X13312083D01*
X13286691Y6426192D01*
X13439041Y6527759D02*
X13464433Y6553151D01*
X13515218D01*
X13540610Y6527759D01*
Y6426192D01*
X13515218Y6400800D01*
X13464433D01*
X13439041Y6426192D01*
Y6527759D01*
X13591393D02*
X13616785Y6553151D01*
X13667567D01*
X13692960Y6527759D01*
Y6502367D01*
X13667567Y6476975D01*
X13642175D01*
X13667567D01*
X13692960Y6451583D01*
Y6426192D01*
X13667567Y6400800D01*
X13616785D01*
X13591393Y6426192D01*
X13446761Y8676591D02*
Y8549632D01*
X13472153Y8524240D01*
X13522935D01*
X13548328Y8549632D01*
Y8676591D01*
X13700677D02*
X13599110D01*
Y8600415D01*
X13649895Y8625807D01*
X13675285D01*
X13700677Y8600415D01*
Y8549632D01*
X13675285Y8524240D01*
X13624503D01*
X13599110Y8549632D01*
X13751460Y8651199D02*
X13776852Y8676591D01*
X13827637D01*
X13853029Y8651199D01*
Y8549632D01*
X13827637Y8524240D01*
X13776852D01*
X13751460Y8549632D01*
Y8651199D01*
X14005379Y8524240D02*
X13903812D01*
X14005379Y8625807D01*
Y8651199D01*
X13979988Y8676591D01*
X13929204D01*
X13903812Y8651199D01*
X16550639Y9733231D02*
Y9606272D01*
X16576031Y9580880D01*
X16626814D01*
X16652206Y9606272D01*
Y9733231D01*
X16804558D02*
X16702991D01*
Y9657055D01*
X16753773Y9682447D01*
X16779166D01*
X16804558Y9657055D01*
Y9606272D01*
X16779166Y9580880D01*
X16728383D01*
X16702991Y9606272D01*
X16855341Y9707839D02*
X16880733Y9733231D01*
X16931517D01*
X16956909Y9707839D01*
Y9606272D01*
X16931517Y9580880D01*
X16880733D01*
X16855341Y9606272D01*
Y9707839D01*
X17007692D02*
X17033084Y9733231D01*
X17083868D01*
X17109259Y9707839D01*
Y9606272D01*
X17083868Y9580880D01*
X17033084D01*
X17007692Y9606272D01*
Y9707839D01*
X8917940Y15021510D02*
Y14894553D01*
X8943332Y14869160D01*
X8994115D01*
X9019507Y14894553D01*
Y15021510D01*
X9070291Y14996120D02*
X9095683Y15021510D01*
X9146466D01*
X9171858Y14996120D01*
Y14970728D01*
X9146466Y14945335D01*
X9121074D01*
X9146466D01*
X9171858Y14919943D01*
Y14894553D01*
X9146466Y14869160D01*
X9095683D01*
X9070291Y14894553D01*
X9222641Y14996120D02*
X9248033Y15021510D01*
X9298817D01*
X9324209Y14996120D01*
Y14894553D01*
X9298817Y14869160D01*
X9248033D01*
X9222641Y14894553D01*
Y14996120D01*
X9374992D02*
X9400384Y15021510D01*
X9451168D01*
X9476559Y14996120D01*
Y14894553D01*
X9451168Y14869160D01*
X9400384D01*
X9374992Y14894553D01*
Y14996120D01*
X19410648Y15925758D02*
X19385255Y15951151D01*
X19334473D01*
X19309081Y15925758D01*
Y15900368D01*
X19334473Y15874976D01*
X19385255D01*
X19410648Y15849583D01*
Y15824191D01*
X19385255Y15798801D01*
X19334473D01*
X19309081Y15824191D01*
X19562997Y15951151D02*
X19461430D01*
Y15874976D01*
X19512215Y15900368D01*
X19537605D01*
X19562997Y15874976D01*
Y15824191D01*
X19537605Y15798801D01*
X19486823D01*
X19461430Y15824191D01*
X19613782Y15925758D02*
X19639172Y15951151D01*
X19689957D01*
X19715349Y15925758D01*
Y15824191D01*
X19689957Y15798801D01*
X19639172D01*
X19613782Y15824191D01*
Y15925758D01*
X19766132D02*
X19791524Y15951151D01*
X19842308D01*
X19867699Y15925758D01*
Y15824191D01*
X19842308Y15798801D01*
X19791524D01*
X19766132Y15824191D01*
Y15925758D01*
X21145500Y12877290D02*
Y13029642D01*
X21221675D01*
X21247067Y13004250D01*
Y12953467D01*
X21221675Y12928075D01*
X21145500D01*
X21196283D02*
X21247067Y12877290D01*
X21399419Y13029642D02*
X21297852D01*
Y12953467D01*
X21348634Y12978857D01*
X21374026D01*
X21399419Y12953467D01*
Y12902682D01*
X21374026Y12877290D01*
X21323244D01*
X21297852Y12902682D01*
X21450201Y13004250D02*
X21475594Y13029642D01*
X21526376D01*
X21551768Y13004250D01*
Y12902682D01*
X21526376Y12877290D01*
X21475594D01*
X21450201Y12902682D01*
Y13004250D01*
X21602551Y13029642D02*
X21704118D01*
Y13004250D01*
X21602551Y12902682D01*
Y12877290D01*
X21760181Y12876430D02*
Y13028781D01*
X21836356D01*
X21861748Y13003389D01*
Y12952606D01*
X21836356Y12927214D01*
X21760181D01*
X21810963D02*
X21861748Y12876430D01*
X22014098Y13028781D02*
X21912531D01*
Y12952606D01*
X21963313Y12977998D01*
X21988705D01*
X22014098Y12952606D01*
Y12901822D01*
X21988705Y12876430D01*
X21937923D01*
X21912531Y12901822D01*
X22064880Y13003389D02*
X22090273Y13028781D01*
X22141057D01*
X22166449Y13003389D01*
Y12901822D01*
X22141057Y12876430D01*
X22090273D01*
X22064880Y12901822D01*
Y13003389D01*
X22318799Y13028781D02*
X22268016Y13003389D01*
X22217232Y12952606D01*
Y12901822D01*
X22242624Y12876430D01*
X22293408D01*
X22318799Y12901822D01*
Y12927214D01*
X22293408Y12952606D01*
X22217232D01*
X22158960Y12876430D02*
Y13028781D01*
X22235135D01*
X22260527Y13003389D01*
Y12952606D01*
X22235135Y12927214D01*
X22158960D01*
X22209743D02*
X22260527Y12876430D01*
X22412878Y13028781D02*
X22311311D01*
Y12952606D01*
X22362094Y12977998D01*
X22387486D01*
X22412878Y12952606D01*
Y12901822D01*
X22387486Y12876430D01*
X22336703D01*
X22311311Y12901822D01*
X22463661Y13003389D02*
X22489053Y13028781D01*
X22539838D01*
X22565228Y13003389D01*
Y12901822D01*
X22539838Y12876430D01*
X22489053D01*
X22463661Y12901822D01*
Y13003389D01*
X22717580Y13028781D02*
X22616013D01*
Y12952606D01*
X22666795Y12977998D01*
X22692188D01*
X22717580Y12952606D01*
Y12901822D01*
X22692188Y12876430D01*
X22641405D01*
X22616013Y12901822D01*
X19469099Y12877800D02*
Y13030151D01*
X19545274D01*
X19570667Y13004759D01*
Y12953975D01*
X19545274Y12928583D01*
X19469099D01*
X19519884D02*
X19570667Y12877800D01*
X19723018Y13030151D02*
X19621451D01*
Y12953975D01*
X19672234Y12979367D01*
X19697626D01*
X19723018Y12953975D01*
Y12903192D01*
X19697626Y12877800D01*
X19646843D01*
X19621451Y12903192D01*
X19773801Y13004759D02*
X19799193Y13030151D01*
X19849977D01*
X19875369Y13004759D01*
Y12903192D01*
X19849977Y12877800D01*
X19799193D01*
X19773801Y12903192D01*
Y13004759D01*
X20002328Y12877800D02*
Y13030151D01*
X19926152Y12953975D01*
X20027719D01*
X18719800Y12877800D02*
Y13030151D01*
X18795975D01*
X18821367Y13004759D01*
Y12953975D01*
X18795975Y12928583D01*
X18719800D01*
X18770583D02*
X18821367Y12877800D01*
X18973718Y13030151D02*
X18872151D01*
Y12953975D01*
X18922934Y12979367D01*
X18948326D01*
X18973718Y12953975D01*
Y12903192D01*
X18948326Y12877800D01*
X18897543D01*
X18872151Y12903192D01*
X19024501Y13004759D02*
X19049893Y13030151D01*
X19100677D01*
X19126070Y13004759D01*
Y12903192D01*
X19100677Y12877800D01*
X19049893D01*
X19024501Y12903192D01*
Y13004759D01*
X19176852D02*
X19202245Y13030151D01*
X19253027D01*
X19278419Y13004759D01*
Y12979367D01*
X19253027Y12953975D01*
X19227637D01*
X19253027D01*
X19278419Y12928583D01*
Y12903192D01*
X19253027Y12877800D01*
X19202245D01*
X19176852Y12903192D01*
X18376900Y12877800D02*
Y13030151D01*
X18453075D01*
X18478467Y13004759D01*
Y12953975D01*
X18453075Y12928583D01*
X18376900D01*
X18427682D02*
X18478467Y12877800D01*
X18630818Y13030151D02*
X18529251D01*
Y12953975D01*
X18580034Y12979367D01*
X18605426D01*
X18630818Y12953975D01*
Y12903192D01*
X18605426Y12877800D01*
X18554643D01*
X18529251Y12903192D01*
X18681601Y13004759D02*
X18706993Y13030151D01*
X18757777D01*
X18783170Y13004759D01*
Y12903192D01*
X18757777Y12877800D01*
X18706993D01*
X18681601Y12903192D01*
Y13004759D01*
X18935519Y12877800D02*
X18833952D01*
X18935519Y12979367D01*
Y13004759D01*
X18910127Y13030151D01*
X18859344D01*
X18833952Y13004759D01*
X12804140Y6786880D02*
Y6939231D01*
X12880315D01*
X12905707Y6913839D01*
Y6863055D01*
X12880315Y6837663D01*
X12804140D01*
X12854922D02*
X12905707Y6786880D01*
X13058058Y6939231D02*
X12956491D01*
Y6863055D01*
X13007274Y6888447D01*
X13032666D01*
X13058058Y6863055D01*
Y6812272D01*
X13032666Y6786880D01*
X12981883D01*
X12956491Y6812272D01*
X13108841Y6913839D02*
X13134233Y6939231D01*
X13185017D01*
X13210410Y6913839D01*
Y6812272D01*
X13185017Y6786880D01*
X13134233D01*
X13108841Y6812272D01*
Y6913839D01*
X13261192Y6786880D02*
X13311977D01*
X13286584D01*
Y6939231D01*
X13261192Y6913839D01*
X12755880Y9636760D02*
Y9789111D01*
X12832056D01*
X12857446Y9763719D01*
Y9712935D01*
X12832056Y9687543D01*
X12755880D01*
X12806664D02*
X12857446Y9636760D01*
X13009798Y9789111D02*
X12908231D01*
Y9712935D01*
X12959013Y9738327D01*
X12984406D01*
X13009798Y9712935D01*
Y9662152D01*
X12984406Y9636760D01*
X12933623D01*
X12908231Y9662152D01*
X13060580Y9763719D02*
X13085973Y9789111D01*
X13136757D01*
X13162149Y9763719D01*
Y9662152D01*
X13136757Y9636760D01*
X13085973D01*
X13060580Y9662152D01*
Y9763719D01*
X13212932D02*
X13238324Y9789111D01*
X13289108D01*
X13314499Y9763719D01*
Y9662152D01*
X13289108Y9636760D01*
X13238324D01*
X13212932Y9662152D01*
Y9763719D01*
X8270313Y7856632D02*
Y8008983D01*
X8346489D01*
X8371880Y7983591D01*
Y7932808D01*
X8346489Y7907416D01*
X8270313D01*
X8321097D02*
X8371880Y7856632D01*
X8498839D02*
Y8008983D01*
X8422664Y7932808D01*
X8524231D01*
X8575015Y7856632D02*
X8625798D01*
X8600406D01*
Y8008983D01*
X8575015Y7983591D01*
X8701973D02*
X8727365Y8008983D01*
X8778149D01*
X8803541Y7983591D01*
Y7958200D01*
X8778149Y7932808D01*
X8752757D01*
X8778149D01*
X8803541Y7907416D01*
Y7882024D01*
X8778149Y7856632D01*
X8727365D01*
X8701973Y7882024D01*
X7960433Y7856632D02*
Y8008983D01*
X8036609D01*
X8062000Y7983591D01*
Y7932808D01*
X8036609Y7907416D01*
X7960433D01*
X8011217D02*
X8062000Y7856632D01*
X8188959D02*
Y8008983D01*
X8112784Y7932808D01*
X8214351D01*
X8265135Y7856632D02*
X8315918D01*
X8290526D01*
Y8008983D01*
X8265135Y7983591D01*
X8493661Y7856632D02*
X8392093D01*
X8493661Y7958200D01*
Y7983591D01*
X8468269Y8008983D01*
X8417485D01*
X8392093Y7983591D01*
X8890073Y7607712D02*
Y7760063D01*
X8966249D01*
X8991640Y7734671D01*
Y7683888D01*
X8966249Y7658496D01*
X8890073D01*
X8940857D02*
X8991640Y7607712D01*
X9118599D02*
Y7760063D01*
X9042424Y7683888D01*
X9143991D01*
X9194775Y7607712D02*
X9245558D01*
X9220166D01*
Y7760063D01*
X9194775Y7734671D01*
X9321733Y7607712D02*
X9372517D01*
X9347125D01*
Y7760063D01*
X9321733Y7734671D01*
X8580193Y7607712D02*
Y7760063D01*
X8656369D01*
X8681760Y7734671D01*
Y7683888D01*
X8656369Y7658496D01*
X8580193D01*
X8630977D02*
X8681760Y7607712D01*
X8808719D02*
Y7760063D01*
X8732544Y7683888D01*
X8834111D01*
X8884895Y7607712D02*
X8935678D01*
X8910286D01*
Y7760063D01*
X8884895Y7734671D01*
X9011853D02*
X9037245Y7760063D01*
X9088029D01*
X9113421Y7734671D01*
Y7633104D01*
X9088029Y7607712D01*
X9037245D01*
X9011853Y7633104D01*
Y7734671D01*
X9507293Y7363872D02*
Y7516223D01*
X9583469D01*
X9608860Y7490831D01*
Y7440048D01*
X9583469Y7414656D01*
X9507293D01*
X9558077D02*
X9608860Y7363872D01*
X9735819D02*
Y7516223D01*
X9659644Y7440048D01*
X9761211D01*
X9811995Y7490831D02*
X9837386Y7516223D01*
X9888170D01*
X9913562Y7490831D01*
Y7389264D01*
X9888170Y7363872D01*
X9837386D01*
X9811995Y7389264D01*
Y7490831D01*
X9964345Y7389264D02*
X9989737Y7363872D01*
X10040521D01*
X10065913Y7389264D01*
Y7490831D01*
X10040521Y7516223D01*
X9989737D01*
X9964345Y7490831D01*
Y7465440D01*
X9989737Y7440048D01*
X10065913D01*
X9197413Y7363872D02*
Y7516223D01*
X9273589D01*
X9298980Y7490831D01*
Y7440048D01*
X9273589Y7414656D01*
X9197413D01*
X9248197D02*
X9298980Y7363872D01*
X9425939D02*
Y7516223D01*
X9349764Y7440048D01*
X9451331D01*
X9502115Y7490831D02*
X9527506Y7516223D01*
X9578290D01*
X9603682Y7490831D01*
Y7389264D01*
X9578290Y7363872D01*
X9527506D01*
X9502115Y7389264D01*
Y7490831D01*
X9654465D02*
X9679857Y7516223D01*
X9730641D01*
X9756033Y7490831D01*
Y7465440D01*
X9730641Y7440048D01*
X9756033Y7414656D01*
Y7389264D01*
X9730641Y7363872D01*
X9679857D01*
X9654465Y7389264D01*
Y7414656D01*
X9679857Y7440048D01*
X9654465Y7465440D01*
Y7490831D01*
X9679857Y7440048D02*
X9730641D01*
X10127053Y7099712D02*
Y7252063D01*
X10203229D01*
X10228620Y7226671D01*
Y7175888D01*
X10203229Y7150496D01*
X10127053D01*
X10177837D02*
X10228620Y7099712D01*
X10355579D02*
Y7252063D01*
X10279404Y7175888D01*
X10380971D01*
X10431755Y7226671D02*
X10457146Y7252063D01*
X10507930D01*
X10533322Y7226671D01*
Y7125104D01*
X10507930Y7099712D01*
X10457146D01*
X10431755Y7125104D01*
Y7226671D01*
X10584105Y7252063D02*
X10685673D01*
Y7226671D01*
X10584105Y7125104D01*
Y7099712D01*
X9817173D02*
Y7252063D01*
X9893349D01*
X9918740Y7226671D01*
Y7175888D01*
X9893349Y7150496D01*
X9817173D01*
X9867957D02*
X9918740Y7099712D01*
X10045699D02*
Y7252063D01*
X9969524Y7175888D01*
X10071091D01*
X10121875Y7226671D02*
X10147266Y7252063D01*
X10198050D01*
X10223442Y7226671D01*
Y7125104D01*
X10198050Y7099712D01*
X10147266D01*
X10121875Y7125104D01*
Y7226671D01*
X10375793Y7252063D02*
X10325009Y7226671D01*
X10274225Y7175888D01*
Y7125104D01*
X10299617Y7099712D01*
X10350401D01*
X10375793Y7125104D01*
Y7150496D01*
X10350401Y7175888D01*
X10274225D01*
X9507293Y5832252D02*
Y5984603D01*
X9583469D01*
X9608860Y5959211D01*
Y5908428D01*
X9583469Y5883036D01*
X9507293D01*
X9558077D02*
X9608860Y5832252D01*
X9735819D02*
Y5984603D01*
X9659644Y5908428D01*
X9761211D01*
X9811995Y5959211D02*
X9837386Y5984603D01*
X9888170D01*
X9913562Y5959211D01*
Y5857644D01*
X9888170Y5832252D01*
X9837386D01*
X9811995Y5857644D01*
Y5959211D01*
X10065913Y5984603D02*
X9964345D01*
Y5908428D01*
X10015129Y5933820D01*
X10040521D01*
X10065913Y5908428D01*
Y5857644D01*
X10040521Y5832252D01*
X9989737D01*
X9964345Y5857644D01*
X9197413Y5832252D02*
Y5984603D01*
X9273589D01*
X9298980Y5959211D01*
Y5908428D01*
X9273589Y5883036D01*
X9197413D01*
X9248197D02*
X9298980Y5832252D01*
X9425939D02*
Y5984603D01*
X9349764Y5908428D01*
X9451331D01*
X9502115Y5959211D02*
X9527506Y5984603D01*
X9578290D01*
X9603682Y5959211D01*
Y5857644D01*
X9578290Y5832252D01*
X9527506D01*
X9502115Y5857644D01*
Y5959211D01*
X9730641Y5832252D02*
Y5984603D01*
X9654465Y5908428D01*
X9756033D01*
X8890073Y5578252D02*
Y5730603D01*
X8966249D01*
X8991640Y5705211D01*
Y5654428D01*
X8966249Y5629036D01*
X8890073D01*
X8940857D02*
X8991640Y5578252D01*
X9118599D02*
Y5730603D01*
X9042424Y5654428D01*
X9143991D01*
X9194775Y5705211D02*
X9220166Y5730603D01*
X9270950D01*
X9296342Y5705211D01*
Y5603644D01*
X9270950Y5578252D01*
X9220166D01*
X9194775Y5603644D01*
Y5705211D01*
X9347125D02*
X9372517Y5730603D01*
X9423301D01*
X9448693Y5705211D01*
Y5679820D01*
X9423301Y5654428D01*
X9397909D01*
X9423301D01*
X9448693Y5629036D01*
Y5603644D01*
X9423301Y5578252D01*
X9372517D01*
X9347125Y5603644D01*
X8580193Y5578252D02*
Y5730603D01*
X8656369D01*
X8681760Y5705211D01*
Y5654428D01*
X8656369Y5629036D01*
X8580193D01*
X8630977D02*
X8681760Y5578252D01*
X8808719D02*
Y5730603D01*
X8732544Y5654428D01*
X8834111D01*
X8884895Y5705211D02*
X8910286Y5730603D01*
X8961070D01*
X8986462Y5705211D01*
Y5603644D01*
X8961070Y5578252D01*
X8910286D01*
X8884895Y5603644D01*
Y5705211D01*
X9138813Y5578252D02*
X9037245D01*
X9138813Y5679820D01*
Y5705211D01*
X9113421Y5730603D01*
X9062637D01*
X9037245Y5705211D01*
X8270313Y5324252D02*
Y5476603D01*
X8346489D01*
X8371880Y5451211D01*
Y5400428D01*
X8346489Y5375036D01*
X8270313D01*
X8321097D02*
X8371880Y5324252D01*
X8498839D02*
Y5476603D01*
X8422664Y5400428D01*
X8524231D01*
X8575015Y5451211D02*
X8600406Y5476603D01*
X8651190D01*
X8676582Y5451211D01*
Y5349644D01*
X8651190Y5324252D01*
X8600406D01*
X8575015Y5349644D01*
Y5451211D01*
X8727365Y5324252D02*
X8778149D01*
X8752757D01*
Y5476603D01*
X8727365Y5451211D01*
X7960433Y5324252D02*
Y5476603D01*
X8036609D01*
X8062000Y5451211D01*
Y5400428D01*
X8036609Y5375036D01*
X7960433D01*
X8011217D02*
X8062000Y5324252D01*
X8188959D02*
Y5476603D01*
X8112784Y5400428D01*
X8214351D01*
X8265135Y5451211D02*
X8290526Y5476603D01*
X8341310D01*
X8366702Y5451211D01*
Y5349644D01*
X8341310Y5324252D01*
X8290526D01*
X8265135Y5349644D01*
Y5451211D01*
X8417485D02*
X8442877Y5476603D01*
X8493661D01*
X8519053Y5451211D01*
Y5349644D01*
X8493661Y5324252D01*
X8442877D01*
X8417485Y5349644D01*
Y5451211D01*
X7279640Y15072360D02*
Y15224712D01*
X7355815D01*
X7381207Y15199319D01*
Y15148535D01*
X7355815Y15123143D01*
X7279640D01*
X7330423D02*
X7381207Y15072360D01*
X7431991Y15199319D02*
X7457383Y15224712D01*
X7508166D01*
X7533558Y15199319D01*
Y15173927D01*
X7508166Y15148535D01*
X7482774D01*
X7508166D01*
X7533558Y15123143D01*
Y15097752D01*
X7508166Y15072360D01*
X7457383D01*
X7431991Y15097752D01*
X7584341Y15199319D02*
X7609733Y15224712D01*
X7660517D01*
X7685909Y15199319D01*
Y15097752D01*
X7660517Y15072360D01*
X7609733D01*
X7584341Y15097752D01*
Y15199319D01*
X7736692Y15072360D02*
X7787476D01*
X7762084D01*
Y15224712D01*
X7736692Y15199319D01*
X6581140Y15072360D02*
Y15224712D01*
X6657315D01*
X6682707Y15199319D01*
Y15148535D01*
X6657315Y15123143D01*
X6581140D01*
X6631923D02*
X6682707Y15072360D01*
X6733491Y15199319D02*
X6758883Y15224712D01*
X6809666D01*
X6835058Y15199319D01*
Y15173927D01*
X6809666Y15148535D01*
X6784274D01*
X6809666D01*
X6835058Y15123143D01*
Y15097752D01*
X6809666Y15072360D01*
X6758883D01*
X6733491Y15097752D01*
X6885841Y15199319D02*
X6911233Y15224712D01*
X6962017D01*
X6987409Y15199319D01*
Y15097752D01*
X6962017Y15072360D01*
X6911233D01*
X6885841Y15097752D01*
Y15199319D01*
X7038192D02*
X7063584Y15224712D01*
X7114368D01*
X7139759Y15199319D01*
Y15097752D01*
X7114368Y15072360D01*
X7063584D01*
X7038192Y15097752D01*
Y15199319D01*
X11079480Y15600681D02*
Y15753030D01*
X11155655D01*
X11181047Y15727638D01*
Y15676855D01*
X11155655Y15651463D01*
X11079480D01*
X11130263D02*
X11181047Y15600681D01*
X11231831Y15727638D02*
X11257223Y15753030D01*
X11308006D01*
X11333398Y15727638D01*
Y15702248D01*
X11308006Y15676855D01*
X11282614D01*
X11308006D01*
X11333398Y15651463D01*
Y15626073D01*
X11308006Y15600681D01*
X11257223D01*
X11231831Y15626073D01*
X11384181Y15727638D02*
X11409573Y15753030D01*
X11460357D01*
X11485749Y15727638D01*
Y15626073D01*
X11460357Y15600681D01*
X11409573D01*
X11384181Y15626073D01*
Y15727638D01*
X11612708Y15600681D02*
Y15753030D01*
X11536532Y15676855D01*
X11638099D01*
X11419840Y15600681D02*
Y15753030D01*
X11496015D01*
X11521407Y15727638D01*
Y15676855D01*
X11496015Y15651463D01*
X11419840D01*
X11470623D02*
X11521407Y15600681D01*
X11572191Y15727638D02*
X11597583Y15753030D01*
X11648366D01*
X11673758Y15727638D01*
Y15702248D01*
X11648366Y15676855D01*
X11622974D01*
X11648366D01*
X11673758Y15651463D01*
Y15626073D01*
X11648366Y15600681D01*
X11597583D01*
X11572191Y15626073D01*
X11724541Y15727638D02*
X11749933Y15753030D01*
X11800717D01*
X11826109Y15727638D01*
Y15626073D01*
X11800717Y15600681D01*
X11749933D01*
X11724541Y15626073D01*
Y15727638D01*
X11876892D02*
X11902284Y15753030D01*
X11953068D01*
X11978459Y15727638D01*
Y15702248D01*
X11953068Y15676855D01*
X11927676D01*
X11953068D01*
X11978459Y15651463D01*
Y15626073D01*
X11953068Y15600681D01*
X11902284D01*
X11876892Y15626073D01*
X12031980Y15600681D02*
Y15753030D01*
X12108155D01*
X12133547Y15727638D01*
Y15676855D01*
X12108155Y15651463D01*
X12031980D01*
X12082763D02*
X12133547Y15600681D01*
X12184331Y15727638D02*
X12209723Y15753030D01*
X12260506D01*
X12285898Y15727638D01*
Y15702248D01*
X12260506Y15676855D01*
X12235114D01*
X12260506D01*
X12285898Y15651463D01*
Y15626073D01*
X12260506Y15600681D01*
X12209723D01*
X12184331Y15626073D01*
X12336681Y15727638D02*
X12362073Y15753030D01*
X12412857D01*
X12438249Y15727638D01*
Y15626073D01*
X12412857Y15600681D01*
X12362073D01*
X12336681Y15626073D01*
Y15727638D01*
X12590599Y15600681D02*
X12489032D01*
X12590599Y15702248D01*
Y15727638D01*
X12565208Y15753030D01*
X12514424D01*
X12489032Y15727638D01*
X5654040Y13246100D02*
Y13398451D01*
X5730215D01*
X5755607Y13373059D01*
Y13322275D01*
X5730215Y13296883D01*
X5654040D01*
X5704823D02*
X5755607Y13246100D01*
X5907958D02*
X5806391D01*
X5907958Y13347667D01*
Y13373059D01*
X5882566Y13398451D01*
X5831783D01*
X5806391Y13373059D01*
X5958741D02*
X5984133Y13398451D01*
X6034917D01*
X6060309Y13373059D01*
Y13271492D01*
X6034917Y13246100D01*
X5984133D01*
X5958741Y13271492D01*
Y13373059D01*
X6212659Y13246100D02*
X6111092D01*
X6212659Y13347667D01*
Y13373059D01*
X6187268Y13398451D01*
X6136484D01*
X6111092Y13373059D01*
X5946140Y13246100D02*
Y13398451D01*
X6022315D01*
X6047707Y13373059D01*
Y13322275D01*
X6022315Y13296883D01*
X5946140D01*
X5996923D02*
X6047707Y13246100D01*
X6200058D02*
X6098491D01*
X6200058Y13347667D01*
Y13373059D01*
X6174666Y13398451D01*
X6123883D01*
X6098491Y13373059D01*
X6250841D02*
X6276233Y13398451D01*
X6327017D01*
X6352409Y13373059D01*
Y13271492D01*
X6327017Y13246100D01*
X6276233D01*
X6250841Y13271492D01*
Y13373059D01*
X6403192Y13246100D02*
X6453976D01*
X6428584D01*
Y13398451D01*
X6403192Y13373059D01*
X6461833Y7366412D02*
Y7518763D01*
X6538009D01*
X6563400Y7493371D01*
Y7442588D01*
X6538009Y7417196D01*
X6461833D01*
X6512617D02*
X6563400Y7366412D01*
X6715751D02*
X6614184D01*
X6715751Y7467980D01*
Y7493371D01*
X6690359Y7518763D01*
X6639576D01*
X6614184Y7493371D01*
X6766535D02*
X6791926Y7518763D01*
X6842710D01*
X6868102Y7493371D01*
Y7391804D01*
X6842710Y7366412D01*
X6791926D01*
X6766535Y7391804D01*
Y7493371D01*
X6918885D02*
X6944277Y7518763D01*
X6995061D01*
X7020453Y7493371D01*
Y7391804D01*
X6995061Y7366412D01*
X6944277D01*
X6918885Y7391804D01*
Y7493371D01*
X20500307Y12789102D02*
Y12890669D01*
X20474915Y12916061D01*
X20424132D01*
X20398740Y12890669D01*
Y12789102D01*
X20424132Y12763710D01*
X20474915D01*
X20449522Y12814494D02*
X20500307Y12763710D01*
X20474915D02*
X20500307Y12789102D01*
X20652658Y12916061D02*
X20551091D01*
Y12839885D01*
X20601874Y12865277D01*
X20627266D01*
X20652658Y12839885D01*
Y12789102D01*
X20627266Y12763710D01*
X20576483D01*
X20551091Y12789102D01*
X20703441Y12890669D02*
X20728833Y12916061D01*
X20779617D01*
X20805009Y12890669D01*
Y12789102D01*
X20779617Y12763710D01*
X20728833D01*
X20703441Y12789102D01*
Y12890669D01*
X20855792Y12763710D02*
X20906577D01*
X20881184D01*
Y12916061D01*
X20855792Y12890669D01*
X17680907Y12788892D02*
Y12890459D01*
X17655515Y12915851D01*
X17604732D01*
X17579340Y12890459D01*
Y12788892D01*
X17604732Y12763500D01*
X17655515D01*
X17630122Y12814284D02*
X17680907Y12763500D01*
X17655515D02*
X17680907Y12788892D01*
X17833258Y12915851D02*
X17731691D01*
Y12839674D01*
X17782474Y12865067D01*
X17807866D01*
X17833258Y12839674D01*
Y12788892D01*
X17807866Y12763500D01*
X17757083D01*
X17731691Y12788892D01*
X17884041Y12890459D02*
X17909433Y12915851D01*
X17960217D01*
X17985609Y12890459D01*
Y12788892D01*
X17960217Y12763500D01*
X17909433D01*
X17884041Y12788892D01*
Y12890459D01*
X18036392D02*
X18061784Y12915851D01*
X18112569D01*
X18137959Y12890459D01*
Y12788892D01*
X18112569Y12763500D01*
X18061784D01*
X18036392Y12788892D01*
Y12890459D01*
X14084300Y9753600D02*
Y9905951D01*
X14160475D01*
X14185867Y9880559D01*
Y9829775D01*
X14160475Y9804383D01*
X14084300D01*
X14262044Y9753600D02*
X14312827D01*
X14338219Y9778992D01*
Y9829775D01*
X14312827Y9855167D01*
X14262044D01*
X14236652Y9829775D01*
Y9778992D01*
X14262044Y9753600D01*
X14414394Y9880559D02*
Y9855167D01*
X14389001D01*
X14439784D01*
X14414394D01*
Y9778992D01*
X14439784Y9753600D01*
X14617528Y9905951D02*
X14515961D01*
Y9829775D01*
X14566743Y9855167D01*
X14592136D01*
X14617528Y9829775D01*
Y9778992D01*
X14592136Y9753600D01*
X14541351D01*
X14515961Y9778992D01*
X14668311Y9880559D02*
X14693703Y9905951D01*
X14744485D01*
X14769878Y9880559D01*
Y9778992D01*
X14744485Y9753600D01*
X14693703D01*
X14668311Y9778992D01*
Y9880559D01*
X14820662D02*
X14846054Y9905951D01*
X14896837D01*
X14922229Y9880559D01*
Y9778992D01*
X14896837Y9753600D01*
X14846054D01*
X14820662Y9778992D01*
Y9880559D01*
X14084300Y6101080D02*
Y6253431D01*
X14160475D01*
X14185867Y6228039D01*
Y6177255D01*
X14160475Y6151863D01*
X14084300D01*
X14262044Y6101080D02*
X14312827D01*
X14338219Y6126472D01*
Y6177255D01*
X14312827Y6202647D01*
X14262044D01*
X14236652Y6177255D01*
Y6126472D01*
X14262044Y6101080D01*
X14414394Y6228039D02*
Y6202647D01*
X14389001D01*
X14439784D01*
X14414394D01*
Y6126472D01*
X14439784Y6101080D01*
X14617528Y6253431D02*
X14515961D01*
Y6177255D01*
X14566743Y6202647D01*
X14592136D01*
X14617528Y6177255D01*
Y6126472D01*
X14592136Y6101080D01*
X14541351D01*
X14515961Y6126472D01*
X14668311Y6228039D02*
X14693703Y6253431D01*
X14744485D01*
X14769878Y6228039D01*
Y6126472D01*
X14744485Y6101080D01*
X14693703D01*
X14668311Y6126472D01*
Y6228039D01*
X14820662Y6101080D02*
X14871445D01*
X14846054D01*
Y6253431D01*
X14820662Y6228039D01*
X8110293Y11735361D02*
Y11887712D01*
X8186469D01*
X8211860Y11862320D01*
Y11811536D01*
X8186469Y11786144D01*
X8110293D01*
X8338819Y11887712D02*
X8288036D01*
X8262644Y11862320D01*
Y11760753D01*
X8288036Y11735361D01*
X8338819D01*
X8364211Y11760753D01*
Y11862320D01*
X8338819Y11887712D01*
X8414995D02*
X8516562D01*
X8465778D01*
Y11735361D01*
X8668913D02*
X8567345D01*
X8668913Y11836928D01*
Y11862320D01*
X8643521Y11887712D01*
X8592737D01*
X8567345Y11862320D01*
X8719696D02*
X8745088Y11887712D01*
X8795871D01*
X8821263Y11862320D01*
Y11760753D01*
X8795871Y11735361D01*
X8745088D01*
X8719696Y11760753D01*
Y11862320D01*
X8973614Y11735361D02*
X8872047D01*
X8973614Y11836928D01*
Y11862320D01*
X8948222Y11887712D01*
X8897439D01*
X8872047Y11862320D01*
X7635313Y11735361D02*
Y11887712D01*
X7711489D01*
X7736880Y11862320D01*
Y11811536D01*
X7711489Y11786144D01*
X7635313D01*
X7863839Y11887712D02*
X7813056D01*
X7787664Y11862320D01*
Y11760753D01*
X7813056Y11735361D01*
X7863839D01*
X7889231Y11760753D01*
Y11862320D01*
X7863839Y11887712D01*
X7940015D02*
X8041582D01*
X7990798D01*
Y11735361D01*
X8193933D02*
X8092365D01*
X8193933Y11836928D01*
Y11862320D01*
X8168541Y11887712D01*
X8117757D01*
X8092365Y11862320D01*
X8244716D02*
X8270108Y11887712D01*
X8320891D01*
X8346283Y11862320D01*
Y11760753D01*
X8320891Y11735361D01*
X8270108D01*
X8244716Y11760753D01*
Y11862320D01*
X8397067Y11735361D02*
X8447850D01*
X8422459D01*
Y11887712D01*
X8397067Y11862320D01*
X7160333Y11735361D02*
Y11887712D01*
X7236509D01*
X7261900Y11862320D01*
Y11811536D01*
X7236509Y11786144D01*
X7160333D01*
X7388859Y11887712D02*
X7338076D01*
X7312684Y11862320D01*
Y11760753D01*
X7338076Y11735361D01*
X7388859D01*
X7414251Y11760753D01*
Y11862320D01*
X7388859Y11887712D01*
X7465035D02*
X7566602D01*
X7515818D01*
Y11735361D01*
X7718953D02*
X7617385D01*
X7718953Y11836928D01*
Y11862320D01*
X7693561Y11887712D01*
X7642777D01*
X7617385Y11862320D01*
X7769736D02*
X7795128Y11887712D01*
X7845911D01*
X7871303Y11862320D01*
Y11760753D01*
X7845911Y11735361D01*
X7795128D01*
X7769736Y11760753D01*
Y11862320D01*
X7922087D02*
X7947479Y11887712D01*
X7998262D01*
X8023654Y11862320D01*
Y11760753D01*
X7998262Y11735361D01*
X7947479D01*
X7922087Y11760753D01*
Y11862320D01*
X13248640Y10792460D02*
Y10944811D01*
X13299423Y10894027D01*
X13350208Y10944811D01*
Y10792460D01*
X13502557D02*
X13400990D01*
X13502557Y10894027D01*
Y10919419D01*
X13477167Y10944811D01*
X13426382D01*
X13400990Y10919419D01*
X13553342D02*
X13578732Y10944811D01*
X13629517D01*
X13654909Y10919419D01*
Y10817852D01*
X13629517Y10792460D01*
X13578732D01*
X13553342Y10817852D01*
Y10919419D01*
X13807259Y10944811D02*
X13756476Y10919419D01*
X13705692Y10868635D01*
Y10817852D01*
X13731084Y10792460D01*
X13781868D01*
X13807259Y10817852D01*
Y10843243D01*
X13781868Y10868635D01*
X13705692D01*
X22674580Y3627120D02*
Y3779471D01*
X22725363Y3728687D01*
X22776147Y3779471D01*
Y3627120D01*
X22928497D02*
X22826932D01*
X22928497Y3728687D01*
Y3754079D01*
X22903107Y3779471D01*
X22852322D01*
X22826932Y3754079D01*
X22979282D02*
X23004672Y3779471D01*
X23055457D01*
X23080849Y3754079D01*
Y3652512D01*
X23055457Y3627120D01*
X23004672D01*
X22979282Y3652512D01*
Y3754079D01*
X23131631D02*
X23157024Y3779471D01*
X23207808D01*
X23233199Y3754079D01*
Y3728687D01*
X23207808Y3703295D01*
X23182416D01*
X23207808D01*
X23233199Y3677903D01*
Y3652512D01*
X23207808Y3627120D01*
X23157024D01*
X23131631Y3652512D01*
X22674580Y15768320D02*
Y15920671D01*
X22725363Y15869887D01*
X22776147Y15920671D01*
Y15768320D01*
X22928497D02*
X22826932D01*
X22928497Y15869887D01*
Y15895279D01*
X22903107Y15920671D01*
X22852322D01*
X22826932Y15895279D01*
X22979282D02*
X23004672Y15920671D01*
X23055457D01*
X23080849Y15895279D01*
Y15793712D01*
X23055457Y15768320D01*
X23004672D01*
X22979282Y15793712D01*
Y15895279D01*
X23233199Y15768320D02*
X23131631D01*
X23233199Y15869887D01*
Y15895279D01*
X23207808Y15920671D01*
X23157024D01*
X23131631Y15895279D01*
X2875280Y3627120D02*
Y3779471D01*
X2926063Y3728687D01*
X2976847Y3779471D01*
Y3627120D01*
X3129198D02*
X3027631D01*
X3129198Y3728687D01*
Y3754079D01*
X3103806Y3779471D01*
X3053023D01*
X3027631Y3754079D01*
X3179981D02*
X3205373Y3779471D01*
X3256157D01*
X3281549Y3754079D01*
Y3652512D01*
X3256157Y3627120D01*
X3205373D01*
X3179981Y3652512D01*
Y3754079D01*
X3332332Y3627120D02*
X3383116D01*
X3357724D01*
Y3779471D01*
X3332332Y3754079D01*
X2875280Y15768320D02*
Y15920671D01*
X2926063Y15869887D01*
X2976847Y15920671D01*
Y15768320D01*
X3129198D02*
X3027631D01*
X3129198Y15869887D01*
Y15895279D01*
X3103806Y15920671D01*
X3053023D01*
X3027631Y15895279D01*
X3179981D02*
X3205373Y15920671D01*
X3256157D01*
X3281549Y15895279D01*
Y15793712D01*
X3256157Y15768320D01*
X3205373D01*
X3179981Y15793712D01*
Y15895279D01*
X3332332D02*
X3357724Y15920671D01*
X3408508D01*
X3433899Y15895279D01*
Y15793712D01*
X3408508Y15768320D01*
X3357724D01*
X3332332Y15793712D01*
Y15895279D01*
X5303520Y13416231D02*
Y13263879D01*
X5405087D01*
X5557438Y13390839D02*
X5532046Y13416231D01*
X5481263D01*
X5455871Y13390839D01*
Y13289272D01*
X5481263Y13263879D01*
X5532046D01*
X5557438Y13289272D01*
X5608221Y13416231D02*
Y13263879D01*
X5684397D01*
X5709789Y13289272D01*
Y13390839D01*
X5684397Y13416231D01*
X5608221D01*
X5862139Y13263879D02*
X5760572D01*
X5862139Y13365446D01*
Y13390839D01*
X5836748Y13416231D01*
X5785964D01*
X5760572Y13390839D01*
X5912923D02*
X5938315Y13416231D01*
X5989098D01*
X6014490Y13390839D01*
Y13289272D01*
X5989098Y13263879D01*
X5938315D01*
X5912923Y13289272D01*
Y13390839D01*
X6065274D02*
X6090665Y13416231D01*
X6141449D01*
X6166841Y13390839D01*
Y13289272D01*
X6141449Y13263879D01*
X6090665D01*
X6065274Y13289272D01*
Y13390839D01*
X8351560Y8913223D02*
X8300777D01*
X8326169D01*
Y8786264D01*
X8300777Y8760872D01*
X8275385D01*
X8249993Y8786264D01*
X8478519Y8760872D02*
Y8913223D01*
X8402344Y8837048D01*
X8503911D01*
X8554695Y8887831D02*
X8580086Y8913223D01*
X8630870D01*
X8656262Y8887831D01*
Y8786264D01*
X8630870Y8760872D01*
X8580086D01*
X8554695Y8786264D01*
Y8887831D01*
X8808613Y8913223D02*
X8757829Y8887831D01*
X8707045Y8837048D01*
Y8786264D01*
X8732437Y8760872D01*
X8783221D01*
X8808613Y8786264D01*
Y8811656D01*
X8783221Y8837048D01*
X8707045D01*
X8966240Y8911514D02*
X8915457D01*
X8940849D01*
Y8784555D01*
X8915457Y8759164D01*
X8890065D01*
X8864673Y8784555D01*
X9093199Y8759164D02*
Y8911514D01*
X9017024Y8835339D01*
X9118591D01*
X9169375Y8886122D02*
X9194766Y8911514D01*
X9245550D01*
X9270942Y8886122D01*
Y8784555D01*
X9245550Y8759164D01*
X9194766D01*
X9169375Y8784555D01*
Y8886122D01*
X9423293Y8911514D02*
X9321725D01*
Y8835339D01*
X9372509Y8860731D01*
X9397901D01*
X9423293Y8835339D01*
Y8784555D01*
X9397901Y8759164D01*
X9347117D01*
X9321725Y8784555D01*
X9591080Y8912636D02*
X9540297D01*
X9565689D01*
Y8785677D01*
X9540297Y8760285D01*
X9514905D01*
X9489513Y8785677D01*
X9718039Y8760285D02*
Y8912636D01*
X9641864Y8836461D01*
X9743431D01*
X9794215Y8887244D02*
X9819606Y8912636D01*
X9870390D01*
X9895782Y8887244D01*
Y8785677D01*
X9870390Y8760285D01*
X9819606D01*
X9794215Y8785677D01*
Y8887244D01*
X10022741Y8760285D02*
Y8912636D01*
X9946565Y8836461D01*
X10048133D01*
X10205760Y8911794D02*
X10154977D01*
X10180369D01*
Y8784835D01*
X10154977Y8759443D01*
X10129585D01*
X10104193Y8784835D01*
X10332719Y8759443D02*
Y8911794D01*
X10256544Y8835618D01*
X10358111D01*
X10408895Y8886402D02*
X10434286Y8911794D01*
X10485070D01*
X10510462Y8886402D01*
Y8784835D01*
X10485070Y8759443D01*
X10434286D01*
X10408895Y8784835D01*
Y8886402D01*
X10561245D02*
X10586637Y8911794D01*
X10637421D01*
X10662813Y8886402D01*
Y8861010D01*
X10637421Y8835618D01*
X10612029D01*
X10637421D01*
X10662813Y8810226D01*
Y8784835D01*
X10637421Y8759443D01*
X10586637D01*
X10561245Y8784835D01*
X9588540Y4089752D02*
X9537757D01*
X9563149D01*
Y3962793D01*
X9537757Y3937401D01*
X9512365D01*
X9486973Y3962793D01*
X9715499Y3937401D02*
Y4089752D01*
X9639324Y4013576D01*
X9740891D01*
X9791675Y4064360D02*
X9817066Y4089752D01*
X9867850D01*
X9893242Y4064360D01*
Y3962793D01*
X9867850Y3937401D01*
X9817066D01*
X9791675Y3962793D01*
Y4064360D01*
X10045593Y3937401D02*
X9944025D01*
X10045593Y4038968D01*
Y4064360D01*
X10020201Y4089752D01*
X9969417D01*
X9944025Y4064360D01*
X8973860Y4087816D02*
X8923077D01*
X8948469D01*
Y3960857D01*
X8923077Y3935465D01*
X8897685D01*
X8872293Y3960857D01*
X9100819Y3935465D02*
Y4087816D01*
X9024644Y4011641D01*
X9126211D01*
X9176995Y4062424D02*
X9202386Y4087816D01*
X9253170D01*
X9278562Y4062424D01*
Y3960857D01*
X9253170Y3935465D01*
X9202386D01*
X9176995Y3960857D01*
Y4062424D01*
X9329345Y3935465D02*
X9380129D01*
X9354737D01*
Y4087816D01*
X9329345Y4062424D01*
X8351560Y4089763D02*
X8300777D01*
X8326169D01*
Y3962804D01*
X8300777Y3937412D01*
X8275385D01*
X8249993Y3962804D01*
X8478519Y3937412D02*
Y4089763D01*
X8402344Y4013588D01*
X8503911D01*
X8554695Y4064371D02*
X8580086Y4089763D01*
X8630870D01*
X8656262Y4064371D01*
Y3962804D01*
X8630870Y3937412D01*
X8580086D01*
X8554695Y3962804D01*
Y4064371D01*
X8707045D02*
X8732437Y4089763D01*
X8783221D01*
X8808613Y4064371D01*
Y3962804D01*
X8783221Y3937412D01*
X8732437D01*
X8707045Y3962804D01*
Y4064371D01*
X13276547Y17364134D02*
X13225763D01*
X13251155D01*
Y17237175D01*
X13225763Y17211783D01*
X13200372D01*
X13174980Y17237175D01*
X13327332Y17338742D02*
X13352724Y17364134D01*
X13403506D01*
X13428899Y17338742D01*
Y17313350D01*
X13403506Y17287958D01*
X13378114D01*
X13403506D01*
X13428899Y17262566D01*
Y17237175D01*
X13403506Y17211783D01*
X13352724D01*
X13327332Y17237175D01*
X13479681Y17338742D02*
X13505074Y17364134D01*
X13555856D01*
X13581248Y17338742D01*
Y17237175D01*
X13555856Y17211783D01*
X13505074D01*
X13479681Y17237175D01*
Y17338742D01*
X13632031D02*
X13657423Y17364134D01*
X13708208D01*
X13733598Y17338742D01*
Y17237175D01*
X13708208Y17211783D01*
X13657423D01*
X13632031Y17237175D01*
Y17338742D01*
X15511748Y17363391D02*
X15460963D01*
X15486356D01*
Y17236432D01*
X15460963Y17211040D01*
X15435571D01*
X15410181Y17236432D01*
X15562531Y17337999D02*
X15587923Y17363391D01*
X15638705D01*
X15664098Y17337999D01*
Y17312607D01*
X15638705Y17287215D01*
X15613313D01*
X15638705D01*
X15664098Y17261823D01*
Y17236432D01*
X15638705Y17211040D01*
X15587923D01*
X15562531Y17236432D01*
X15714880Y17337999D02*
X15740273Y17363391D01*
X15791057D01*
X15816449Y17337999D01*
Y17236432D01*
X15791057Y17211040D01*
X15740273D01*
X15714880Y17236432D01*
Y17337999D01*
X15867232D02*
X15892624Y17363391D01*
X15943408D01*
X15968799Y17337999D01*
Y17312607D01*
X15943408Y17287215D01*
X15918016D01*
X15943408D01*
X15968799Y17261823D01*
Y17236432D01*
X15943408Y17211040D01*
X15892624D01*
X15867232Y17236432D01*
X5165860Y7523364D02*
X5115076D01*
X5140468D01*
Y7396405D01*
X5115076Y7371013D01*
X5089684D01*
X5064292Y7396405D01*
X5216643Y7371013D02*
X5267427D01*
X5242035D01*
Y7523364D01*
X5216643Y7497972D01*
X5343602D02*
X5368994Y7523364D01*
X5419777D01*
X5445169Y7497972D01*
Y7396405D01*
X5419777Y7371013D01*
X5368994D01*
X5343602Y7396405D01*
Y7497972D01*
X5495953D02*
X5521345Y7523364D01*
X5572128D01*
X5597520Y7497972D01*
Y7472580D01*
X5572128Y7447188D01*
X5546736D01*
X5572128D01*
X5597520Y7421796D01*
Y7396405D01*
X5572128Y7371013D01*
X5521345D01*
X5495953Y7396405D01*
X6359660Y7523364D02*
X6308876D01*
X6334268D01*
Y7396405D01*
X6308876Y7371013D01*
X6283484D01*
X6258092Y7396405D01*
X6410443Y7371013D02*
X6461227D01*
X6435835D01*
Y7523364D01*
X6410443Y7497972D01*
X6537402D02*
X6562794Y7523364D01*
X6613577D01*
X6638969Y7497972D01*
Y7396405D01*
X6613577Y7371013D01*
X6562794D01*
X6537402Y7396405D01*
Y7497972D01*
X6791320Y7371013D02*
X6689753D01*
X6791320Y7472580D01*
Y7497972D01*
X6765928Y7523364D01*
X6715145D01*
X6689753Y7497972D01*
X5229351Y11600064D02*
X5178568D01*
X5203960D01*
Y11473105D01*
X5178568Y11447713D01*
X5153176D01*
X5127784Y11473105D01*
X5280135Y11447713D02*
X5330918D01*
X5305527D01*
Y11600064D01*
X5280135Y11574672D01*
X5407094D02*
X5432486Y11600064D01*
X5483269D01*
X5508661Y11574672D01*
Y11473105D01*
X5483269Y11447713D01*
X5432486D01*
X5407094Y11473105D01*
Y11574672D01*
X5559445Y11447713D02*
X5610228D01*
X5584836D01*
Y11600064D01*
X5559445Y11574672D01*
X6334260Y11600064D02*
X6283476D01*
X6308868D01*
Y11473105D01*
X6283476Y11447713D01*
X6258084D01*
X6232692Y11473105D01*
X6385043Y11447713D02*
X6435827D01*
X6410435D01*
Y11600064D01*
X6385043Y11574672D01*
X6512002D02*
X6537394Y11600064D01*
X6588177D01*
X6613569Y11574672D01*
Y11473105D01*
X6588177Y11447713D01*
X6537394D01*
X6512002Y11473105D01*
Y11574672D01*
X6664353D02*
X6689745Y11600064D01*
X6740528D01*
X6765920Y11574672D01*
Y11473105D01*
X6740528Y11447713D01*
X6689745D01*
X6664353Y11473105D01*
Y11574672D01*
X10640100Y7028543D02*
X10538533D01*
Y6952368D01*
X10589317D01*
X10538533D01*
Y6876192D01*
X10690884Y7028543D02*
X10792451Y6876192D01*
Y7028543D02*
X10690884Y6876192D01*
X11097153Y7003151D02*
X11071761Y7028543D01*
X11020977D01*
X10995585Y7003151D01*
Y6977760D01*
X11020977Y6952368D01*
X11071761D01*
X11097153Y6926976D01*
Y6901584D01*
X11071761Y6876192D01*
X11020977D01*
X10995585Y6901584D01*
X11147936Y6977760D02*
Y6901584D01*
X11173328Y6876192D01*
X11198720Y6901584D01*
X11224111Y6876192D01*
X11249503Y6901584D01*
Y6977760D01*
X11300287Y6876192D02*
X11351070D01*
X11325679D01*
Y6977760D01*
X11300287D01*
X11452637Y7003151D02*
Y6977760D01*
X11427246D01*
X11478029D01*
X11452637D01*
Y6901584D01*
X11478029Y6876192D01*
X11655772Y6977760D02*
X11579596D01*
X11554204Y6952368D01*
Y6901584D01*
X11579596Y6876192D01*
X11655772D01*
X11706555Y7028543D02*
Y6876192D01*
Y6952368D01*
X11731947Y6977760D01*
X11782731D01*
X11808122Y6952368D01*
Y6876192D01*
X11935081D02*
X11884298D01*
X11858906Y6901584D01*
Y6952368D01*
X11884298Y6977760D01*
X11935081D01*
X11960473Y6952368D01*
Y6926976D01*
X11858906D01*
X12011257Y6876192D02*
X12087432D01*
X12112824Y6901584D01*
X12087432Y6926976D01*
X12036649D01*
X12011257Y6952368D01*
X12036649Y6977760D01*
X12112824D01*
X12239783Y6876192D02*
Y7028543D01*
X12163607Y6952368D01*
X12265175D01*
X12315958Y7003151D02*
X12341350Y7028543D01*
X12392133D01*
X12417525Y7003151D01*
Y6901584D01*
X12392133Y6876192D01*
X12341350D01*
X12315958Y6901584D01*
Y7003151D01*
X12468309D02*
X12493701Y7028543D01*
X12544484D01*
X12569876Y7003151D01*
Y6901584D01*
X12544484Y6876192D01*
X12493701D01*
X12468309Y6901584D01*
Y7003151D01*
X11435047Y6992571D02*
X11333480D01*
Y6916395D01*
X11384263D01*
X11333480D01*
Y6840220D01*
X11485831Y6992571D02*
X11587398Y6840220D01*
Y6992571D02*
X11485831Y6840220D01*
X11892099Y6967179D02*
X11866708Y6992571D01*
X11815924D01*
X11790532Y6967179D01*
Y6941787D01*
X11815924Y6916395D01*
X11866708D01*
X11892099Y6891003D01*
Y6865612D01*
X11866708Y6840220D01*
X11815924D01*
X11790532Y6865612D01*
X11942883Y6941787D02*
Y6865612D01*
X11968275Y6840220D01*
X11993666Y6865612D01*
X12019058Y6840220D01*
X12044450Y6865612D01*
Y6941787D01*
X12095234Y6840220D02*
X12146017D01*
X12120625D01*
Y6941787D01*
X12095234D01*
X12247584Y6967179D02*
Y6941787D01*
X12222192D01*
X12272976D01*
X12247584D01*
Y6865612D01*
X12272976Y6840220D01*
X12450719Y6941787D02*
X12374543D01*
X12349151Y6916395D01*
Y6865612D01*
X12374543Y6840220D01*
X12450719D01*
X12501502Y6992571D02*
Y6840220D01*
Y6916395D01*
X12526894Y6941787D01*
X12577677D01*
X12603069Y6916395D01*
Y6840220D01*
X12730028D02*
X12679245D01*
X12653853Y6865612D01*
Y6916395D01*
X12679245Y6941787D01*
X12730028D01*
X12755420Y6916395D01*
Y6891003D01*
X12653853D01*
X12806203Y6840220D02*
X12882379D01*
X12907771Y6865612D01*
X12882379Y6891003D01*
X12831595D01*
X12806203Y6916395D01*
X12831595Y6941787D01*
X12907771D01*
X13212473Y6992571D02*
X13110905D01*
Y6916395D01*
X13161688Y6941787D01*
X13187080D01*
X13212473Y6916395D01*
Y6865612D01*
X13187080Y6840220D01*
X13136298D01*
X13110905Y6865612D01*
X13263255Y6992571D02*
Y6891003D01*
X13314040Y6840220D01*
X13364822Y6891003D01*
Y6992571D01*
X19474973Y14363651D02*
Y14211301D01*
X19551147D01*
X19576540Y14236691D01*
Y14338258D01*
X19551147Y14363651D01*
X19474973D01*
X19728891D02*
X19627322D01*
Y14287476D01*
X19678107Y14312868D01*
X19703499D01*
X19728891Y14287476D01*
Y14236691D01*
X19703499Y14211301D01*
X19652715D01*
X19627322Y14236691D01*
X19779674Y14338258D02*
X19805066Y14363651D01*
X19855850D01*
X19881241Y14338258D01*
Y14236691D01*
X19855850Y14211301D01*
X19805066D01*
X19779674Y14236691D01*
Y14338258D01*
X20033592Y14363651D02*
X19932025D01*
Y14287476D01*
X19982808Y14312868D01*
X20008200D01*
X20033592Y14287476D01*
Y14236691D01*
X20008200Y14211301D01*
X19957417D01*
X19932025Y14236691D01*
X19982915Y14363705D02*
Y14211354D01*
X20059090D01*
X20084480Y14236746D01*
Y14338313D01*
X20059090Y14363705D01*
X19982915D01*
X20236832D02*
X20135265D01*
Y14287529D01*
X20186047Y14312921D01*
X20211440D01*
X20236832Y14287529D01*
Y14236746D01*
X20211440Y14211354D01*
X20160657D01*
X20135265Y14236746D01*
X20287614Y14338313D02*
X20313007Y14363705D01*
X20363789D01*
X20389182Y14338313D01*
Y14236746D01*
X20363789Y14211354D01*
X20313007D01*
X20287614Y14236746D01*
Y14338313D01*
X20516141Y14211354D02*
Y14363705D01*
X20439966Y14287529D01*
X20541533D01*
X20490964Y14362000D02*
Y14209648D01*
X20567139D01*
X20592529Y14235040D01*
Y14336607D01*
X20567139Y14362000D01*
X20490964D01*
X20744881D02*
X20643314D01*
Y14285823D01*
X20694096Y14311215D01*
X20719489D01*
X20744881Y14285823D01*
Y14235040D01*
X20719489Y14209648D01*
X20668706D01*
X20643314Y14235040D01*
X20795665Y14336607D02*
X20821056Y14362000D01*
X20871840D01*
X20897232Y14336607D01*
Y14235040D01*
X20871840Y14209648D01*
X20821056D01*
X20795665Y14235040D01*
Y14336607D01*
X20948015D02*
X20973407Y14362000D01*
X21024191D01*
X21049582Y14336607D01*
Y14311215D01*
X21024191Y14285823D01*
X20998799D01*
X21024191D01*
X21049582Y14260431D01*
Y14235040D01*
X21024191Y14209648D01*
X20973407D01*
X20948015Y14235040D01*
X20861020Y14362682D02*
Y14210332D01*
X20937195D01*
X20962587Y14235722D01*
Y14337289D01*
X20937195Y14362682D01*
X20861020D01*
X21114938D02*
X21013371D01*
Y14286507D01*
X21064154Y14311897D01*
X21089546D01*
X21114938Y14286507D01*
Y14235722D01*
X21089546Y14210332D01*
X21038763D01*
X21013371Y14235722D01*
X21165721Y14337289D02*
X21191113Y14362682D01*
X21241898D01*
X21267290Y14337289D01*
Y14235722D01*
X21241898Y14210332D01*
X21191113D01*
X21165721Y14235722D01*
Y14337289D01*
X21419640Y14210332D02*
X21318073D01*
X21419640Y14311897D01*
Y14337289D01*
X21394247Y14362682D01*
X21343465D01*
X21318073Y14337289D01*
X12837160Y6347411D02*
Y6195060D01*
X12913335D01*
X12938727Y6220452D01*
Y6322019D01*
X12913335Y6347411D01*
X12837160D01*
X13091078D02*
X12989511D01*
Y6271235D01*
X13040294Y6296627D01*
X13065686D01*
X13091078Y6271235D01*
Y6220452D01*
X13065686Y6195060D01*
X13014903D01*
X12989511Y6220452D01*
X13141861Y6322019D02*
X13167253Y6347411D01*
X13218037D01*
X13243430Y6322019D01*
Y6220452D01*
X13218037Y6195060D01*
X13167253D01*
X13141861Y6220452D01*
Y6322019D01*
X13294212Y6195060D02*
X13344997D01*
X13319604D01*
Y6347411D01*
X13294212Y6322019D01*
X12788900Y9037271D02*
Y8884920D01*
X12865076D01*
X12890466Y8910312D01*
Y9011879D01*
X12865076Y9037271D01*
X12788900D01*
X13042818D02*
X12941251D01*
Y8961095D01*
X12992033Y8986487D01*
X13017426D01*
X13042818Y8961095D01*
Y8910312D01*
X13017426Y8884920D01*
X12966643D01*
X12941251Y8910312D01*
X13093600Y9011879D02*
X13118993Y9037271D01*
X13169777D01*
X13195169Y9011879D01*
Y8910312D01*
X13169777Y8884920D01*
X13118993D01*
X13093600Y8910312D01*
Y9011879D01*
X13245952D02*
X13271344Y9037271D01*
X13322128D01*
X13347519Y9011879D01*
Y8910312D01*
X13322128Y8884920D01*
X13271344D01*
X13245952Y8910312D01*
Y9011879D01*
X11520852Y9433511D02*
Y9281160D01*
X11597027D01*
X11622419Y9306552D01*
Y9408119D01*
X11597027Y9433511D01*
X11520852D01*
X11673202Y9408119D02*
X11698594Y9433511D01*
X11749378D01*
X11774770Y9408119D01*
Y9382727D01*
X11749378Y9357335D01*
X11723986D01*
X11749378D01*
X11774770Y9331943D01*
Y9306552D01*
X11749378Y9281160D01*
X11698594D01*
X11673202Y9306552D01*
X11825553Y9408119D02*
X11850945Y9433511D01*
X11901729D01*
X11927120Y9408119D01*
Y9306552D01*
X11901729Y9281160D01*
X11850945D01*
X11825553Y9306552D01*
Y9408119D01*
X11977904Y9281160D02*
X12028687D01*
X12003296D01*
Y9433511D01*
X11977904Y9408119D01*
X11520208Y9982151D02*
Y9829800D01*
X11596383D01*
X11621775Y9855192D01*
Y9956759D01*
X11596383Y9982151D01*
X11520208D01*
X11672558Y9956759D02*
X11697950Y9982151D01*
X11748734D01*
X11774126Y9956759D01*
Y9931367D01*
X11748734Y9905975D01*
X11723342D01*
X11748734D01*
X11774126Y9880583D01*
Y9855192D01*
X11748734Y9829800D01*
X11697950D01*
X11672558Y9855192D01*
X11824909Y9956759D02*
X11850301Y9982151D01*
X11901084D01*
X11926476Y9956759D01*
Y9855192D01*
X11901084Y9829800D01*
X11850301D01*
X11824909Y9855192D01*
Y9956759D01*
X11977260D02*
X12002652Y9982151D01*
X12053435D01*
X12078827Y9956759D01*
Y9855192D01*
X12053435Y9829800D01*
X12002652D01*
X11977260Y9855192D01*
Y9956759D01*
X21638226Y12972910D02*
X21612836Y12998302D01*
X21562051D01*
X21536659Y12972910D01*
Y12871342D01*
X21562051Y12845950D01*
X21612836D01*
X21638226Y12871342D01*
X21790578Y12998302D02*
X21689011D01*
Y12922125D01*
X21739793Y12947517D01*
X21765186D01*
X21790578Y12922125D01*
Y12871342D01*
X21765186Y12845950D01*
X21714403D01*
X21689011Y12871342D01*
X21841360Y12972910D02*
X21866753Y12998302D01*
X21917537D01*
X21942929Y12972910D01*
Y12871342D01*
X21917537Y12845950D01*
X21866753D01*
X21841360Y12871342D01*
Y12972910D01*
X21993712Y12871342D02*
X22019104Y12845950D01*
X22069888D01*
X22095279Y12871342D01*
Y12972910D01*
X22069888Y12998302D01*
X22019104D01*
X21993712Y12972910D01*
Y12947517D01*
X22019104Y12922125D01*
X22095279D01*
X19240466Y12466279D02*
X19215076Y12491671D01*
X19164291D01*
X19138901Y12466279D01*
Y12364712D01*
X19164291Y12339320D01*
X19215076D01*
X19240466Y12364712D01*
X19392818Y12491671D02*
X19291251D01*
Y12415495D01*
X19342033Y12440887D01*
X19367426D01*
X19392818Y12415495D01*
Y12364712D01*
X19367426Y12339320D01*
X19316643D01*
X19291251Y12364712D01*
X19443600Y12466279D02*
X19468993Y12491671D01*
X19519777D01*
X19545169Y12466279D01*
Y12364712D01*
X19519777Y12339320D01*
X19468993D01*
X19443600Y12364712D01*
Y12466279D01*
X19595952D02*
X19621344Y12491671D01*
X19672128D01*
X19697519Y12466279D01*
Y12440887D01*
X19672128Y12415495D01*
X19697519Y12390103D01*
Y12364712D01*
X19672128Y12339320D01*
X19621344D01*
X19595952Y12364712D01*
Y12390103D01*
X19621344Y12415495D01*
X19595952Y12440887D01*
Y12466279D01*
X19621344Y12415495D02*
X19672128D01*
X16517033Y5565099D02*
X16491643Y5590491D01*
X16440858D01*
X16415466Y5565099D01*
Y5463532D01*
X16440858Y5438140D01*
X16491643D01*
X16517033Y5463532D01*
X16669383Y5590491D02*
X16567818D01*
Y5514315D01*
X16618600Y5539707D01*
X16643993D01*
X16669383Y5514315D01*
Y5463532D01*
X16643993Y5438140D01*
X16593208D01*
X16567818Y5463532D01*
X16720168Y5438140D02*
X16770950D01*
X16745560D01*
Y5590491D01*
X16720168Y5565099D01*
X16948694Y5590491D02*
X16847127D01*
Y5514315D01*
X16897910Y5539707D01*
X16923302D01*
X16948694Y5514315D01*
Y5463532D01*
X16923302Y5438140D01*
X16872517D01*
X16847127Y5463532D01*
X17807465Y6334719D02*
X17782072Y6360111D01*
X17731290D01*
X17705898Y6334719D01*
Y6233152D01*
X17731290Y6207760D01*
X17782072D01*
X17807465Y6233152D01*
X17959816Y6360111D02*
X17858249D01*
Y6283935D01*
X17909032Y6309327D01*
X17934424D01*
X17959816Y6283935D01*
Y6233152D01*
X17934424Y6207760D01*
X17883641D01*
X17858249Y6233152D01*
X18010599Y6207760D02*
X18061383D01*
X18035991D01*
Y6360111D01*
X18010599Y6334719D01*
X18137558D02*
X18162950Y6360111D01*
X18213734D01*
X18239127Y6334719D01*
Y6309327D01*
X18213734Y6283935D01*
X18188342D01*
X18213734D01*
X18239127Y6258543D01*
Y6233152D01*
X18213734Y6207760D01*
X18162950D01*
X18137558Y6233152D01*
X20170107Y6334719D02*
X20144714Y6360111D01*
X20093932D01*
X20068539Y6334719D01*
Y6233152D01*
X20093932Y6207760D01*
X20144714D01*
X20170107Y6233152D01*
X20322458Y6360111D02*
X20220891D01*
Y6283935D01*
X20271674Y6309327D01*
X20297066D01*
X20322458Y6283935D01*
Y6233152D01*
X20297066Y6207760D01*
X20246283D01*
X20220891Y6233152D01*
X20373241Y6207760D02*
X20424025D01*
X20398633D01*
Y6360111D01*
X20373241Y6334719D01*
X20500200Y6207760D02*
X20550984D01*
X20525592D01*
Y6360111D01*
X20500200Y6334719D01*
X16519016Y8554679D02*
X16493623Y8580071D01*
X16442839D01*
X16417447Y8554679D01*
Y8453112D01*
X16442839Y8427720D01*
X16493623D01*
X16519016Y8453112D01*
X16671365Y8580071D02*
X16569798D01*
Y8503895D01*
X16620583Y8529287D01*
X16645975D01*
X16671365Y8503895D01*
Y8453112D01*
X16645975Y8427720D01*
X16595190D01*
X16569798Y8453112D01*
X16722150Y8427720D02*
X16772932D01*
X16747540D01*
Y8580071D01*
X16722150Y8554679D01*
X16925282Y8427720D02*
Y8580071D01*
X16849107Y8503895D01*
X16950674D01*
X17807907Y8873816D02*
X17782515Y8899208D01*
X17731732D01*
X17706340Y8873816D01*
Y8772249D01*
X17731732Y8746858D01*
X17782515D01*
X17807907Y8772249D01*
X17960258Y8899208D02*
X17858691D01*
Y8823033D01*
X17909474Y8848425D01*
X17934866D01*
X17960258Y8823033D01*
Y8772249D01*
X17934866Y8746858D01*
X17884084D01*
X17858691Y8772249D01*
X18011041Y8746858D02*
X18061826D01*
X18036433D01*
Y8899208D01*
X18011041Y8873816D01*
X18239568Y8746858D02*
X18138000D01*
X18239568Y8848425D01*
Y8873816D01*
X18214175Y8899208D01*
X18163393D01*
X18138000Y8873816D01*
X20170107Y8874719D02*
X20144714Y8900111D01*
X20093932D01*
X20068539Y8874719D01*
Y8773152D01*
X20093932Y8747760D01*
X20144714D01*
X20170107Y8773152D01*
X20322458Y8900111D02*
X20220891D01*
Y8823935D01*
X20271674Y8849327D01*
X20297066D01*
X20322458Y8823935D01*
Y8773152D01*
X20297066Y8747760D01*
X20246283D01*
X20220891Y8773152D01*
X20373241Y8747760D02*
X20424025D01*
X20398633D01*
Y8900111D01*
X20373241Y8874719D01*
X20500200D02*
X20525592Y8900111D01*
X20576376D01*
X20601768Y8874719D01*
Y8773152D01*
X20576376Y8747760D01*
X20525592D01*
X20500200Y8773152D01*
Y8874719D01*
X16607162Y3606759D02*
X16581770Y3632151D01*
X16530988D01*
X16505595Y3606759D01*
Y3505192D01*
X16530988Y3479800D01*
X16581770D01*
X16607162Y3505192D01*
X16759512Y3632151D02*
X16657945D01*
Y3555975D01*
X16708730Y3581367D01*
X16734122D01*
X16759512Y3555975D01*
Y3505192D01*
X16734122Y3479800D01*
X16683337D01*
X16657945Y3505192D01*
X16810297Y3606759D02*
X16835687Y3632151D01*
X16886472D01*
X16911864Y3606759D01*
Y3505192D01*
X16886472Y3479800D01*
X16835687D01*
X16810297Y3505192D01*
Y3606759D01*
X16962646D02*
X16988039Y3632151D01*
X17038821D01*
X17064214Y3606759D01*
Y3581367D01*
X17038821Y3555975D01*
X17013431D01*
X17038821D01*
X17064214Y3530583D01*
Y3505192D01*
X17038821Y3479800D01*
X16988039D01*
X16962646Y3505192D01*
X16861162Y3365459D02*
X16835770Y3390851D01*
X16784987D01*
X16759595Y3365459D01*
Y3263892D01*
X16784987Y3238500D01*
X16835770D01*
X16861162Y3263892D01*
X17013513Y3390851D02*
X16911946D01*
Y3314675D01*
X16962729Y3340067D01*
X16988121D01*
X17013513Y3314675D01*
Y3263892D01*
X16988121Y3238500D01*
X16937337D01*
X16911946Y3263892D01*
X17064296Y3365459D02*
X17089688Y3390851D01*
X17140472D01*
X17165865Y3365459D01*
Y3263892D01*
X17140472Y3238500D01*
X17089688D01*
X17064296Y3263892D01*
Y3365459D01*
X17318214Y3238500D02*
X17216647D01*
X17318214Y3340067D01*
Y3365459D01*
X17292822Y3390851D01*
X17242039D01*
X17216647Y3365459D01*
X14800546Y10576519D02*
X14775156Y10601911D01*
X14724371D01*
X14698981Y10576519D01*
Y10474952D01*
X14724371Y10449560D01*
X14775156D01*
X14800546Y10474952D01*
X14952898Y10601911D02*
X14851331D01*
Y10525735D01*
X14902113Y10551127D01*
X14927505D01*
X14952898Y10525735D01*
Y10474952D01*
X14927505Y10449560D01*
X14876723D01*
X14851331Y10474952D01*
X15003680Y10576519D02*
X15029073Y10601911D01*
X15079857D01*
X15105249Y10576519D01*
Y10474952D01*
X15079857Y10449560D01*
X15029073D01*
X15003680Y10474952D01*
Y10576519D01*
X15257599Y10601911D02*
X15156032D01*
Y10525735D01*
X15206816Y10551127D01*
X15232208D01*
X15257599Y10525735D01*
Y10474952D01*
X15232208Y10449560D01*
X15181424D01*
X15156032Y10474952D01*
X13169867Y8318459D02*
X13144475Y8343851D01*
X13093692D01*
X13068300Y8318459D01*
Y8216892D01*
X13093692Y8191500D01*
X13144475D01*
X13169867Y8216892D01*
X13322218Y8343851D02*
X13220651D01*
Y8267675D01*
X13271434Y8293067D01*
X13296826D01*
X13322218Y8267675D01*
Y8216892D01*
X13296826Y8191500D01*
X13246043D01*
X13220651Y8216892D01*
X13373001Y8318459D02*
X13398393Y8343851D01*
X13449178D01*
X13474570Y8318459D01*
Y8216892D01*
X13449178Y8191500D01*
X13398393D01*
X13373001Y8216892D01*
Y8318459D01*
X13601527Y8191500D02*
Y8343851D01*
X13525352Y8267675D01*
X13626920D01*
X17368488Y10444439D02*
X17343095Y10469831D01*
X17292313D01*
X17266920Y10444439D01*
Y10342872D01*
X17292313Y10317480D01*
X17343095D01*
X17368488Y10342872D01*
X17520837Y10469831D02*
X17419270D01*
Y10393655D01*
X17470055Y10419047D01*
X17495445D01*
X17520837Y10393655D01*
Y10342872D01*
X17495445Y10317480D01*
X17444662D01*
X17419270Y10342872D01*
X17571622Y10444439D02*
X17597012Y10469831D01*
X17647797D01*
X17673189Y10444439D01*
Y10342872D01*
X17647797Y10317480D01*
X17597012D01*
X17571622Y10342872D01*
Y10444439D01*
X17723972Y10317480D02*
X17774756D01*
X17749364D01*
Y10469831D01*
X17723972Y10444439D01*
X16860487D02*
X16835095Y10469831D01*
X16784312D01*
X16758920Y10444439D01*
Y10342872D01*
X16784312Y10317480D01*
X16835095D01*
X16860487Y10342872D01*
X17012839Y10469831D02*
X16911272D01*
Y10393655D01*
X16962054Y10419047D01*
X16987447D01*
X17012839Y10393655D01*
Y10342872D01*
X16987447Y10317480D01*
X16936662D01*
X16911272Y10342872D01*
X17063622Y10444439D02*
X17089014Y10469831D01*
X17139796D01*
X17165189Y10444439D01*
Y10342872D01*
X17139796Y10317480D01*
X17089014D01*
X17063622Y10342872D01*
Y10444439D01*
X17215971D02*
X17241364Y10469831D01*
X17292148D01*
X17317538Y10444439D01*
Y10342872D01*
X17292148Y10317480D01*
X17241364D01*
X17215971Y10342872D01*
Y10444439D01*
X14800668Y7541219D02*
X14775278Y7566611D01*
X14724493D01*
X14699101Y7541219D01*
Y7439652D01*
X14724493Y7414260D01*
X14775278D01*
X14800668Y7439652D01*
X14953020Y7566611D02*
X14851453D01*
Y7490435D01*
X14902235Y7515827D01*
X14927628D01*
X14953020Y7490435D01*
Y7439652D01*
X14927628Y7414260D01*
X14876845D01*
X14851453Y7439652D01*
X15003802Y7541219D02*
X15029195Y7566611D01*
X15079979D01*
X15105371Y7541219D01*
Y7439652D01*
X15079979Y7414260D01*
X15029195D01*
X15003802Y7439652D01*
Y7541219D01*
X15156154Y7566611D02*
X15257721D01*
Y7541219D01*
X15156154Y7439652D01*
Y7414260D01*
X13952187Y5814019D02*
X13926794Y5839411D01*
X13876012D01*
X13850620Y5814019D01*
Y5712452D01*
X13876012Y5687060D01*
X13926794D01*
X13952187Y5712452D01*
X14104538Y5839411D02*
X14002971D01*
Y5763235D01*
X14053754Y5788627D01*
X14079146D01*
X14104538Y5763235D01*
Y5712452D01*
X14079146Y5687060D01*
X14028363D01*
X14002971Y5712452D01*
X14155321Y5814019D02*
X14180713Y5839411D01*
X14231497D01*
X14256889Y5814019D01*
Y5712452D01*
X14231497Y5687060D01*
X14180713D01*
X14155321Y5712452D01*
Y5814019D01*
X14409239Y5839411D02*
X14358456Y5814019D01*
X14307672Y5763235D01*
Y5712452D01*
X14333064Y5687060D01*
X14383849D01*
X14409239Y5712452D01*
Y5737843D01*
X14383849Y5763235D01*
X14307672D01*
X7106887Y14660838D02*
X7081495Y14686230D01*
X7030712D01*
X7005320Y14660838D01*
Y14559271D01*
X7030712Y14533881D01*
X7081495D01*
X7106887Y14559271D01*
X7157671Y14660838D02*
X7183063Y14686230D01*
X7233846D01*
X7259238Y14660838D01*
Y14635448D01*
X7233846Y14610056D01*
X7208454D01*
X7233846D01*
X7259238Y14584663D01*
Y14559271D01*
X7233846Y14533881D01*
X7183063D01*
X7157671Y14559271D01*
X7310021Y14660838D02*
X7335413Y14686230D01*
X7386197D01*
X7411589Y14660838D01*
Y14559271D01*
X7386197Y14533881D01*
X7335413D01*
X7310021Y14559271D01*
Y14660838D01*
X7462372D02*
X7487764Y14686230D01*
X7538548D01*
X7563939Y14660838D01*
Y14559271D01*
X7538548Y14533881D01*
X7487764D01*
X7462372Y14559271D01*
Y14660838D01*
X11859227Y15697159D02*
X11833835Y15722551D01*
X11783052D01*
X11757660Y15697159D01*
Y15595592D01*
X11783052Y15570200D01*
X11833835D01*
X11859227Y15595592D01*
X11910011Y15697159D02*
X11935403Y15722551D01*
X11986186D01*
X12011578Y15697159D01*
Y15671767D01*
X11986186Y15646375D01*
X11960794D01*
X11986186D01*
X12011578Y15620982D01*
Y15595592D01*
X11986186Y15570200D01*
X11935403D01*
X11910011Y15595592D01*
X12062361Y15697159D02*
X12087753Y15722551D01*
X12138537D01*
X12163929Y15697159D01*
Y15595592D01*
X12138537Y15570200D01*
X12087753D01*
X12062361Y15595592D01*
Y15697159D01*
X12214712Y15570200D02*
X12265496D01*
X12240104D01*
Y15722551D01*
X12214712Y15697159D01*
X6839408Y10024873D02*
X6814017Y10050264D01*
X6763233D01*
X6737841Y10024873D01*
Y9923306D01*
X6763233Y9897914D01*
X6814017D01*
X6839408Y9923306D01*
X6991759Y9897914D02*
X6890192D01*
X6991759Y9999481D01*
Y10024873D01*
X6966367Y10050264D01*
X6915584D01*
X6890192Y10024873D01*
X7042543D02*
X7067935Y10050264D01*
X7118718D01*
X7144110Y10024873D01*
Y9923306D01*
X7118718Y9897914D01*
X7067935D01*
X7042543Y9923306D01*
Y10024873D01*
X7194893D02*
X7220285Y10050264D01*
X7271069D01*
X7296461Y10024873D01*
Y9999481D01*
X7271069Y9974089D01*
X7245677D01*
X7271069D01*
X7296461Y9948697D01*
Y9923306D01*
X7271069Y9897914D01*
X7220285D01*
X7194893Y9923306D01*
X7096381Y10278309D02*
X7070989Y10303700D01*
X7020206D01*
X6994814Y10278309D01*
Y10176742D01*
X7020206Y10151350D01*
X7070989D01*
X7096381Y10176742D01*
X7248732Y10151350D02*
X7147165D01*
X7248732Y10252917D01*
Y10278309D01*
X7223340Y10303700D01*
X7172557D01*
X7147165Y10278309D01*
X7299515D02*
X7324907Y10303700D01*
X7375691D01*
X7401083Y10278309D01*
Y10176742D01*
X7375691Y10151350D01*
X7324907D01*
X7299515Y10176742D01*
Y10278309D01*
X7553433Y10151350D02*
X7451866D01*
X7553433Y10252917D01*
Y10278309D01*
X7528042Y10303700D01*
X7477258D01*
X7451866Y10278309D01*
X7096800Y11040249D02*
X7071409Y11065641D01*
X7020625D01*
X6995233Y11040249D01*
Y10938682D01*
X7020625Y10913290D01*
X7071409D01*
X7096800Y10938682D01*
X7249151Y10913290D02*
X7147584D01*
X7249151Y11014857D01*
Y11040249D01*
X7223759Y11065641D01*
X7172976D01*
X7147584Y11040249D01*
X7299935D02*
X7325326Y11065641D01*
X7376110D01*
X7401502Y11040249D01*
Y10938682D01*
X7376110Y10913290D01*
X7325326D01*
X7299935Y10938682D01*
Y11040249D01*
X7452285Y10913290D02*
X7503069D01*
X7477677D01*
Y11065641D01*
X7452285Y11040249D01*
X6840260Y11294806D02*
X6814869Y11320198D01*
X6764085D01*
X6738693Y11294806D01*
Y11193239D01*
X6764085Y11167848D01*
X6814869D01*
X6840260Y11193239D01*
X6992611Y11167848D02*
X6891044D01*
X6992611Y11269415D01*
Y11294806D01*
X6967219Y11320198D01*
X6916436D01*
X6891044Y11294806D01*
X7043395D02*
X7068786Y11320198D01*
X7119570D01*
X7144962Y11294806D01*
Y11193239D01*
X7119570Y11167848D01*
X7068786D01*
X7043395Y11193239D01*
Y11294806D01*
X7195745D02*
X7221137Y11320198D01*
X7271921D01*
X7297313Y11294806D01*
Y11193239D01*
X7271921Y11167848D01*
X7221137D01*
X7195745Y11193239D01*
Y11294806D01*
D36*
X13526982Y5340315D02*
G03*
X13526982Y5340315I-12500J0D01*
G01*
X17070337Y4075681D02*
G03*
X17070337Y4075681I-12500J0D01*
G01*
X8932061Y13924515D02*
G03*
X8932061Y13924515I-12500J0D01*
G01*
X15423021Y15774515D02*
G03*
X15423021Y15774515I-12500J0D01*
G01*
X13186720D02*
G03*
X13186720Y15774515I-12500J0D01*
G01*
D37*
X9050561Y14140515D02*
G03*
X9050561Y14140515I-30000J0D01*
G01*
D38*
X16062537Y12047218D02*
Y12805219D01*
X15812537Y12047218D02*
Y12805219D01*
X16062537D01*
X15812537Y12047218D02*
X16062537D01*
X16556815Y12049540D02*
Y12807539D01*
X16306815Y12049540D02*
Y12807539D01*
X16556815D01*
X16306815Y12049540D02*
X16556815D01*
X11313642Y4984899D02*
X11563642D01*
X11313642D02*
Y6758899D01*
X11563642Y4984899D02*
Y6758899D01*
X11313642D02*
X11563642D01*
X10518550Y6792815D02*
X10768550D01*
Y5018815D02*
Y6792815D01*
X10518550Y5018815D02*
Y6792815D01*
Y5018815D02*
X10768550D01*
X5283269Y12170238D02*
X5533269D01*
X5283269D02*
Y13182237D01*
X5533269Y12170238D02*
Y13182237D01*
X5283269D02*
X5533269D01*
X5650402Y7593582D02*
X5900402D01*
X5650402D02*
Y11653582D01*
X5900402Y7593582D02*
Y11653582D01*
X5650402D02*
X5900402D01*
X12826791Y5527986D02*
Y5852986D01*
Y5527986D02*
X12946791D01*
Y5852986D01*
X12826791D02*
X12941792D01*
X12826791Y5790486D02*
X12946791D01*
X12886792Y5425486D02*
Y5527986D01*
X12884293Y5852986D02*
Y5970486D01*
X13953069Y5079153D02*
Y5496653D01*
X13838068Y5079153D02*
Y5496653D01*
X14066335Y5064466D02*
Y6017466D01*
X14549335D01*
X14066335Y5064466D02*
X14549335D01*
Y6017466D01*
X14066335Y8718532D02*
Y9671532D01*
X14549335D01*
X14066335Y8718532D02*
X14549335D01*
Y9671532D01*
X13055923Y7581646D02*
Y7999146D01*
X13170923Y7581646D02*
Y7999146D01*
X12900227Y8233880D02*
Y8558880D01*
X12780228D02*
X12900227D01*
X12780228Y8233880D02*
Y8558880D01*
X12785228Y8233880D02*
X12900227D01*
X12780228Y8296380D02*
X12900227D01*
X12840228Y8558880D02*
Y8661380D01*
X12842728Y8116381D02*
Y8233880D01*
X16848837Y3148532D02*
X17266338D01*
X16848837Y3033532D02*
X17266338D01*
X16594836Y3389669D02*
X17012337D01*
X16594836Y3274669D02*
X17012337D01*
X21639568Y12238012D02*
Y12655512D01*
X21524567Y12238012D02*
Y12655512D01*
X11744804Y9739103D02*
X12069803D01*
X11744804Y9619103D02*
Y9739103D01*
Y9619103D02*
X12069803D01*
Y9624103D02*
Y9739103D01*
X12007303Y9619103D02*
Y9739103D01*
X11642303Y9679103D02*
X11744804D01*
X12069803Y9681603D02*
X12187303D01*
X11759804Y9068876D02*
X12084803D01*
Y9188876D01*
X11759804D02*
X12084803D01*
X11759804Y9068876D02*
Y9183876D01*
X11822304Y9068876D02*
Y9188876D01*
X12084803Y9128876D02*
X12187304D01*
X11642304Y9126376D02*
X11759804D01*
X5942506Y7593582D02*
X6192506D01*
X5942506D02*
Y11653582D01*
X6192506Y7593582D02*
Y11653582D01*
X5942506D02*
X6192506D01*
X11744545Y14960463D02*
Y15377963D01*
X11859545Y14960463D02*
Y15377963D01*
X9468040Y3095892D02*
X9718041D01*
X9468040Y3853892D02*
X9718041D01*
X9468040Y3095892D02*
Y3853892D01*
X9718041Y3095892D02*
Y3853892D01*
X8852397Y3095892D02*
X9102397D01*
X8852397Y3853892D02*
X9102397D01*
X8852397Y3095892D02*
Y3853892D01*
X9102397Y3095892D02*
Y3853892D01*
X9470062Y8677133D02*
X9720062D01*
X9470062Y7919133D02*
X9720062D01*
Y8677133D01*
X9470062Y7919133D02*
Y8677133D01*
X8846842D02*
X9096842D01*
X8846842Y7919133D02*
X9096842D01*
Y8677133D01*
X8846842Y7919133D02*
Y8677133D01*
X10085212D02*
X10335212D01*
X10085212Y7919133D02*
X10335212D01*
Y8677133D01*
X10085212Y7919133D02*
Y8677133D01*
X8230927D02*
X8480927D01*
X8230927Y7919133D02*
X8480927D01*
Y8677133D01*
X8230927Y7919133D02*
Y8677133D01*
X8231374Y3095892D02*
X8481374D01*
X8231374Y3853892D02*
X8481374D01*
X8231374Y3095892D02*
Y3853892D01*
X8481374Y3095892D02*
Y3853892D01*
X5942506Y3496530D02*
X6192506D01*
X5942506D02*
Y7556530D01*
X6192506Y3496530D02*
Y7556530D01*
X5942506D02*
X6192506D01*
X5650402Y3496530D02*
X5900402D01*
X5650402D02*
Y7556530D01*
X5900402Y3496530D02*
Y7556530D01*
X5650402D02*
X5900402D01*
X7142541Y10895582D02*
X7392541D01*
X7142541Y11653582D02*
X7392541D01*
X7142541Y10895582D02*
Y11653582D01*
X7392541Y10895582D02*
Y11653582D01*
X6840012Y10558083D02*
Y10975583D01*
X6725012Y10558083D02*
Y10975583D01*
X7616756Y10895582D02*
X7866756D01*
X7616756Y11653582D02*
X7866756D01*
X7616756Y10895582D02*
Y11653582D01*
X7866756Y10895582D02*
Y11653582D01*
X7096852Y10304083D02*
Y10721583D01*
X6981852Y10304083D02*
Y10721583D01*
X8090971Y10895582D02*
X8340971D01*
X8090971Y11653582D02*
X8340971D01*
X8090971Y10895582D02*
Y11653582D01*
X8340971Y10895582D02*
Y11653582D01*
X6981852Y9541582D02*
Y9959082D01*
X7096852Y9541582D02*
Y9959082D01*
X6725012Y9287582D02*
Y9705082D01*
X6840012Y9287582D02*
Y9705082D01*
X17581337Y9498419D02*
X17581337Y9028419D01*
X16531337D02*
X17581337D01*
X16531337D02*
Y9498419D01*
X17581337D01*
X17369337Y9708182D02*
Y10125682D01*
X17254337Y9708182D02*
Y10125682D01*
X16861337Y9708182D02*
Y10125682D01*
X16746336Y9708182D02*
Y10125682D01*
X17586006Y11631697D02*
X18056007Y11631698D01*
X17586006Y11631697D02*
Y12681698D01*
X18056007D01*
Y11631698D02*
Y12681698D01*
X20601642Y13559258D02*
Y13884258D01*
X20481642D02*
X20601642D01*
X20481642Y13559258D02*
Y13884258D01*
X20486642Y13559258D02*
X20601642D01*
X20481642Y13621758D02*
X20601642D01*
X20541643Y13884258D02*
Y13986758D01*
X20544142Y13441759D02*
Y13559258D01*
X20850459Y13544258D02*
Y13869258D01*
Y13544258D02*
X20970457D01*
Y13869258D01*
X20850459D02*
X20965459D01*
X20850459Y13806758D02*
X20970457D01*
X20910458Y13441759D02*
Y13544258D01*
X20907959Y13869258D02*
Y13986757D01*
X19289143Y15645325D02*
X20779143D01*
X19289143Y14900325D02*
Y15645325D01*
Y14900325D02*
X20779143D01*
Y15645325D01*
X19289143Y15587825D02*
X20779143D01*
X19125421Y11729512D02*
Y12147012D01*
X19240421Y11729512D02*
Y12147012D01*
X19586642Y13559258D02*
Y13884258D01*
X19466643D02*
X19586642D01*
X19466643Y13559258D02*
Y13884258D01*
X19471642Y13559258D02*
X19586642D01*
X19466643Y13621758D02*
X19586642D01*
X19526642Y13884258D02*
Y13986758D01*
X19529143Y13441759D02*
Y13559258D01*
X19972150Y13544258D02*
Y13869258D01*
Y13544258D02*
X20092149D01*
Y13869258D01*
X19972150D02*
X20087149D01*
X19972150Y13806758D02*
X20092149D01*
X20032149Y13441759D02*
Y13544258D01*
X20029649Y13869258D02*
Y13986757D01*
X20379703Y12681697D02*
X20849702Y12681698D01*
Y11631697D02*
Y12681698D01*
X20379703Y11631697D02*
X20849702D01*
X20379703D02*
Y12681697D01*
X7106707Y13925040D02*
Y14342542D01*
X6991707Y13925040D02*
Y14342542D01*
%TF.MD5,d2a6f0199e48c861f504ea5a85cee505*%
M02*
